<svg viewBox="0 0 303.35 189.91" xmlns="http://www.w3.org/2000/svg"><path d="m257.34 73.78a45.8 45.8 0 0 0 -15.82 2.85 60.66 60.66 0 1 0 -118.22-26.63 45.78 45.78 0 0 0 -75.61 27.28 43.81 43.81 0 0 0 -4.89-.28 42.8 42.8 0 1 0  27.63 75.47 56.42 56.42 0 0 0  96.91 16.63 51.37 51.37 0 0 0  71.25-7.3 46 46 0 1 0  18.74-88z" fill="#fff"/><path d="m278.9 79.14a41.9 41.9 0 0 1 -55.85 54.26 46.81 46.81 0 0 1 -64.94 6.65 51.41 51.41 0 0 1 -88.31-15.15 39 39 0 0 1 -64-26.56 42.79 42.79 0 0 0  64.68 54.11 56.42 56.42 0 0 0  96.91 16.63 51.37 51.37 0 0 0  71.25-7.3 46 46 0 0 0  40.3-82.64z" fill="#def3fd"/></svg>