<?xml version="1.0" encoding="utf-8"?>
<!-- Generator: Adobe Illustrator 21.1.0, SVG Export Plug-In . SVG Version: 6.00 Build 0)  -->
<svg version="1.1" id="Layer_1" xmlns="http://www.w3.org/2000/svg" xmlns:xlink="http://www.w3.org/1999/xlink" x="0px" y="0px"
	 viewBox="0 0 1921 245.5" style="enable-background:new 0 0 1921 245.5;" xml:space="preserve">
<style type="text/css">
	.st0{opacity:0.5;fill:#FFFFFF;}
	.st1{fill:#FFFFFF;}
</style>
<g>
	<path class="st0" d="M1907.9,114.4c-9.5-9-25.4-14.9-43.3-14.9c-18.7,0-35.1,6.4-44.5,16.2c-9.7-7.5-24.1-12.3-40.2-12.3
		c-19.1,0-35.8,6.7-45.1,16.7c-3.1-0.4-6.3-0.6-9.5-0.6c-3.8,0-7.5,0.3-11,0.8c-5-4.3-11.5-7.8-19-10.2c-6.6-11.1-21.7-19.5-40-21.6
		c-9.4-5.6-21.8-9-35.4-9c-26.8,0-48.9,13.2-52.3,30.3c-8.6-4.1-19.2-6.5-30.6-6.5c-13,0-25,3.1-34.2,8.3
		c-24.2,1.8-43.5,14.4-46.4,30.4c-1-0.1-2.1-0.2-3.2-0.2c-6.6-4.3-14.8-7-23.6-7c-9.3,0-17.9,2.9-24.7,7.7
		c-14.2,2.1-26.2,8-33.6,15.9c-6.1-3.3-13.2-5.3-20.8-5.3c-7,0-13.5,1.6-19.2,4.4c-2.5-1.7-5.3-3.1-8.3-4.3
		c2.7-3.6,4.3-7.7,4.3-12.1c0-14.4-16.7-26.1-37.7-26.7c-0.3-14.6-17.9-26.4-39.5-26.4c-18.8,0-34.4,8.9-38.5,20.7
		c-18.1,1.8-32.1,11.9-33.5,24.4c-4.9,1.4-9.4,3.5-13,6.1c-7.2-5.1-17.3-8.3-28.6-8.3c-3.4,0-6.7,0.3-9.8,0.9
		c-2.6-3.9-6.6-7.4-11.6-10c-5-10.4-19-17.9-35.8-18.4c0-0.3,0.1-0.6,0.1-0.9c0-14.8-17.7-26.8-39.5-26.8c-4.3,0-8.4,0.5-12.2,1.3
		c-1.5-0.3-3-0.6-4.6-0.8c-0.7-0.2-1.3-0.4-2-0.7c-6.9-7.8-19.5-13-33.9-13c-10.5,0-20,2.8-27,7.3c-7.1-4.5-16.6-7.3-27-7.3
		c-14.4,0-27,5.2-33.9,13c-0.7,0.2-1.4,0.4-2,0.7c-1.6,0.2-3.1,0.5-4.6,0.8c-3.9-0.9-8-1.3-12.2-1.3c-21.8,0-39.5,12-39.5,26.8
		c0,0.3,0.1,0.6,0.1,0.9c-16.8,0.5-30.8,8.1-35.8,18.4c-5,2.6-9,6.1-11.6,10c-3.1-0.5-6.4-0.9-9.8-0.9c-11.2,0-21.4,3.2-28.6,8.3
		c-3.7-2.6-8.1-4.7-13-6.1c-1.4-12.5-15.5-22.6-33.5-24.4C704.4,96.9,688.7,88,670,88c-21.7,0-39.2,11.8-39.5,26.4
		c-21,0.7-37.7,12.4-37.7,26.7c0,4.3,1.6,8.4,4.3,12.1c-3,1.2-5.8,2.6-8.3,4.3c-5.7-2.8-12.2-4.4-19.2-4.4c-7.7,0-14.8,2-20.8,5.3
		c-7.3-8-19.4-13.8-33.6-15.9c-6.8-4.8-15.3-7.7-24.7-7.7c-8.9,0-17,2.6-23.6,7c-1.1,0.1-2.1,0.1-3.2,0.2c-3-16-22.2-28.6-46.4-30.4
		c-9.2-5.2-21.1-8.3-34.2-8.3c-11.4,0-21.9,2.4-30.6,6.5c-3.4-17.1-25.5-30.3-52.3-30.3c-13.6,0-26.1,3.4-35.4,9
		c-18.3,2.1-33.4,10.4-40,21.6c-7.5,2.4-14,5.9-19,10.2c-3.6-0.5-7.3-0.8-11-0.8c-3.3,0-6.4,0.2-9.5,0.6c-9.3-10-26-16.7-45.1-16.7
		c-16.1,0-30.6,4.8-40.2,12.3c-9.4-9.7-25.8-16.2-44.5-16.2c-17.9,0-33.7,5.9-43.3,14.9c-4.2,0.1-8.2,0.5-12.1,1.2v129.8h960h960
		V115.7C1916.1,115,1912.1,114.5,1907.9,114.4z"/>
	<path class="st1" d="M1,245.5h1920V90.1c-16.6-11.6-39-18.7-63.8-18.7c-32.7,0-61.5,12.4-77.9,31.2c-16.9-14.5-42.2-23.8-70.4-23.8
		c-33.4,0-62.7,12.9-78.9,32.3c-5.4-0.7-11-1.1-16.7-1.1c-6.6,0-13.1,0.5-19.3,1.5c-8.8-8.3-20.2-15-33.3-19.6
		c-11.6-21.5-38-37.6-70-41.6c-16.4-10.8-38.1-17.4-62-17.4c-46.8,0-85.5,25.4-91.5,58.4c-15.1-7.8-33.5-12.4-53.5-12.4
		c-22.8,0-43.7,6-59.8,16c-42.4,3.4-76.1,27.8-81.2,58.6c-1.8-0.2-3.7-0.3-5.5-0.5c-11.5-8.4-25.8-13.4-41.3-13.4
		c-16.3,0-31.3,5.5-43.2,14.8c-24.8,4-45.9,15.3-58.7,30.7c-10.6-6.4-23.1-10.2-36.5-10.2c-12.2,0-23.6,3.1-33.6,8.5
		c-4.3-3.2-9.2-5.9-14.5-8.2c4.7-7,7.4-14.9,7.4-23.2c0-27.7-29.2-50.3-65.9-51.6c-0.5-28.2-31.2-51-69.1-51
		c-32.8,0-60.2,17.1-67.3,40c-31.6,3.5-56.2,22.9-58.7,47c-8.7,2.8-16.4,6.8-22.8,11.8c-12.6-9.8-30.3-16-50-16
		c-5.9,0-11.7,0.6-17.2,1.7c-4.6-7.6-11.6-14.2-20.3-19.3c-8.7-20-33.3-34.6-62.6-35.6c0-0.6,0.1-1.2,0.1-1.8
		c0-28.6-31-51.7-69.2-51.7c-7.5,0-14.7,0.9-21.4,2.6c-2.6-0.6-5.3-1.2-8-1.6c-1.2-0.5-2.3-0.9-3.5-1.3C369.2,10.1,347.2,0,322,0
		c-36.1,0-65.7,20.7-68.9,47.1c-3.6,3.4-6.6,7.2-9,11.3c-28.4,1-52.3,14.7-61.7,33.8c-2.1-0.2-4.3-0.2-6.5-0.2
		c-38.2,0-69.2,23.1-69.2,51.7c0,0.8,0.1,1.6,0.2,2.4c-4,2.8-7.6,5.9-10.6,9.3c-7.7-2.2-16-3.5-24.7-3.5c-9.1,0-17.7,1.3-25.7,3.7
		C37.2,142,20.8,131.8,1,128V245.5z"/>
</g>
</svg>
