<svg id="Layer_1" enable-background="new 0 0 1921 245.5" viewBox="0 0 1921 245.5" xmlns="http://www.w3.org/2000/svg"><path d="m1920.1 129.8v-129.7h-960-960v129.8c3.9.7 7.9 1.1 12.1 1.2 9.6 9 25.4 14.9 43.3 14.9 18.7 0 35.1-6.5 44.5-16.2 9.6 7.5 24.1 12.3 40.2 12.3 19.1 0 35.8-6.7 45.1-16.7 3.1.4 6.2.6 9.5.6 3.7 0 7.4-.3 11-.8 5 4.3 11.5 7.8 19 10.2 6.6 11.2 21.7 19.5 40 21.6 9.3 5.6 21.8 9 35.4 9 26.8 0 48.9-13.2 52.3-30.3 8.7 4.1 19.2 6.5 30.6 6.5 13.1 0 25-3.1 34.2-8.3 24.2-1.8 43.4-14.4 46.4-30.4 1.1.1 2.1.1 3.2.2 6.6 4.4 14.7 7 23.6 7 9.4 0 17.9-2.9 24.7-7.7 14.2-2.1 26.3-7.9 33.6-15.9 6 3.3 13.1 5.3 20.8 5.3 7 0 13.5-1.6 19.2-4.4 2.5 1.7 5.3 3.1 8.3 4.3-2.7 3.7-4.3 7.8-4.3 12.1 0 14.3 16.7 26 37.7 26.7.3 14.6 17.8 26.4 39.5 26.4 18.7 0 34.4-8.9 38.8-20.7 18-1.8 32.1-11.9 33.5-24.4 4.9-1.4 9.3-3.5 13-6.1 7.2 5.1 17.4 8.3 28.6 8.3 3.4 0 6.7-.4 9.8-.9 2.6 3.9 6.6 7.4 11.6 10 5 10.3 19 17.9 35.8 18.4 0 .3-.1.6-.1.9 0 14.8 17.7 26.8 39.5 26.8 4.2 0 8.3-.4 12.2-1.3 1.5.3 3 .6 4.6.8.6.3 1.3.5 2 .7 6.9 7.8 19.5 13 33.9 13 10.4 0 19.9-2.8 27-7.3 7 4.5 16.5 7.3 27 7.3 14.4 0 27-5.2 33.9-13 .7-.3 1.3-.5 2-.7 1.6-.2 3.1-.5 4.6-.8 3.8.8 7.9 1.3 12.2 1.3 21.8 0 39.5-12 39.5-26.8 0-.3-.1-.6-.1-.9 16.8-.5 30.8-8 35.8-18.4 5-2.6 9-6.1 11.6-10 3.1.6 6.4.9 9.8.9 11.3 0 21.4-3.2 28.6-8.3 3.6 2.6 8.1 4.7 13 6.1 1.4 12.5 15.4 22.6 33.5 24.4 4.1 11.8 19.7 20.7 38.5 20.7 21.6 0 39.2-11.8 39.5-26.4 21-.6 37.7-12.3 37.7-26.7 0-4.4-1.6-8.5-4.3-12.1 3-1.2 5.8-2.6 8.3-4.3 5.7 2.8 12.2 4.4 19.2 4.4 7.6 0 14.7-2 20.8-5.3 7.4 7.9 19.4 13.8 33.6 15.9 6.8 4.8 15.4 7.7 24.7 7.7 8.8 0 17-2.7 23.6-7 1.1 0 2.2-.1 3.2-.2 2.9 16 22.2 28.6 46.4 30.4 9.2 5.2 21.2 8.3 34.2 8.3 11.4 0 22-2.4 30.6-6.5 3.4 17.1 25.5 30.3 52.3 30.3 13.6 0 26-3.4 35.4-9 18.3-2.1 33.4-10.5 40-21.6 7.5-2.4 14-5.9 19-10.2 3.5.5 7.2.8 11 .8 3.2 0 6.4-.2 9.5-.6 9.3 10 26 16.7 45.1 16.7 16.1 0 30.5-4.8 40.2-12.3 9.4 9.8 25.8 16.2 44.5 16.2 17.9 0 33.8-5.9 43.3-14.9 4.2-.1 8.2-.6 12.2-1.3z" fill="#fff" opacity=".5"/><path d="m1 117.5c19.8-3.8 36.2-14 44.9-27.6 8 2.4 16.6 3.7 25.7 3.7 8.7 0 17-1.3 24.7-3.5 3 3.4 6.6 6.5 10.6 9.3-.1.8-.2 1.6-.2 2.4 0 28.6 31 51.7 69.2 51.7 2.2 0 4.4 0 6.5-.2 9.4 19.1 33.3 32.8 61.7 33.8 2.4 4.1 5.4 7.9 9 11.3 3.2 26.4 32.8 47.1 68.9 47.1 25.2 0 47.2-10.1 58.9-25.2 1.2-.4 2.3-.8 3.5-1.3 2.7-.4 5.4-1 8-1.6 6.7 1.7 13.9 2.6 21.4 2.6 38.2 0 69.2-23.1 69.2-51.7 0-.6-.1-1.2-.1-1.8 29.3-1 53.9-15.6 62.6-35.6 8.7-5.1 15.7-11.7 20.3-19.3 5.5 1.1 11.3 1.7 17.2 1.7 19.7 0 37.4-6.2 50-16 6.4 5 14.1 9 22.8 11.8 2.5 24.1 27.1 43.5 58.7 47 7.1 22.9 34.5 40 67.3 40 37.9 0 68.6-22.8 69.1-51 36.7-1.3 65.9-23.9 65.9-51.6 0-8.3-2.7-16.2-7.4-23.2 5.3-2.3 10.2-5 14.5-8.2 10 5.4 21.4 8.5 33.6 8.5 13.4 0 25.9-3.8 36.5-10.2 12.8 15.4 33.9 26.7 58.7 30.7 11.9 9.3 26.9 14.8 43.2 14.8 15.5 0 29.8-5 41.3-13.4 1.8-.2 3.7-.3 5.5-.5 5.1 30.8 38.8 55.2 81.2 58.6 16.1 10 37 16 59.8 16 20 0 38.4-4.6 53.5-12.4 6 33 44.7 58.4 91.5 58.4 23.9 0 45.6-6.6 62-17.4 32-4 58.4-20.1 70-41.6 13.1-4.6 24.5-11.3 33.3-19.6 6.2 1 12.7 1.5 19.3 1.5 5.7 0 11.3-.4 16.7-1.1 16.2 19.4 45.5 32.3 78.9 32.3 28.2 0 53.5-9.3 70.4-23.8 16.4 18.8 45.2 31.2 77.9 31.2 24.8 0 47.2-7.1 63.8-18.7v-155.4h-1920z" fill="#fff"/></svg>