<svg id="Layer_1" enable-background="new 0 0 1921 245.5" viewBox="0 0 1921 245.5" xmlns="http://www.w3.org/2000/svg"><path d="m1907.9 114.4c-9.5-9-25.4-14.9-43.3-14.9-18.7 0-35.1 6.4-44.5 16.2-9.7-7.5-24.1-12.3-40.2-12.3-19.1 0-35.8 6.7-45.1 16.7-3.1-.4-6.3-.6-9.5-.6-3.8 0-7.5.3-11 .8-5-4.3-11.5-7.8-19-10.2-6.6-11.1-21.7-19.5-40-21.6-9.4-5.6-21.8-9-35.4-9-26.8 0-48.9 13.2-52.3 30.3-8.6-4.1-19.2-6.5-30.6-6.5-13 0-25 3.1-34.2 8.3-24.2 1.8-43.5 14.4-46.4 30.4-1-.1-2.1-.2-3.2-.2-6.6-4.3-14.8-7-23.6-7-9.3 0-17.9 2.9-24.7 7.7-14.2 2.1-26.2 8-33.6 15.9-6.1-3.3-13.2-5.3-20.8-5.3-7 0-13.5 1.6-19.2 4.4-2.5-1.7-5.3-3.1-8.3-4.3 2.7-3.6 4.3-7.7 4.3-12.1 0-14.4-16.7-26.1-37.7-26.7-.3-14.6-17.9-26.4-39.5-26.4-18.8 0-34.4 8.9-38.5 20.7-18.1 1.8-32.1 11.9-33.5 24.4-4.9 1.4-9.4 3.5-13 6.1-7.2-5.1-17.3-8.3-28.6-8.3-3.4 0-6.7.3-9.8.9-2.6-3.9-6.6-7.4-11.6-10-5-10.4-19-17.9-35.8-18.4 0-.3.1-.6.1-.9 0-14.8-17.7-26.8-39.5-26.8-4.3 0-8.4.5-12.2 1.3-1.5-.3-3-.6-4.6-.8-.7-.2-1.3-.4-2-.7-6.9-7.8-19.5-13-33.9-13-10.5 0-20 2.8-27 7.3-7.1-4.5-16.6-7.3-27-7.3-14.4 0-27 5.2-33.9 13-.7.2-1.4.4-2 .7-1.6.2-3.1.5-4.6.8-3.9-.9-8-1.3-12.2-1.3-21.8 0-39.5 12-39.5 26.8 0 .3.1.6.1.9-16.8.5-30.8 8.1-35.8 18.4-5 2.6-9 6.1-11.6 10-3.1-.5-6.4-.9-9.8-.9-11.2 0-21.4 3.2-28.6 8.3-3.7-2.6-8.1-4.7-13-6.1-1.4-12.5-15.5-22.6-33.5-24.4-4.4-11.8-20.1-20.7-38.8-20.7-21.7 0-39.2 11.8-39.5 26.4-21 .7-37.7 12.4-37.7 26.7 0 4.3 1.6 8.4 4.3 12.1-3 1.2-5.8 2.6-8.3 4.3-5.7-2.8-12.2-4.4-19.2-4.4-7.7 0-14.8 2-20.8 5.3-7.3-8-19.4-13.8-33.6-15.9-6.8-4.8-15.3-7.7-24.7-7.7-8.9 0-17 2.6-23.6 7-1.1.1-2.1.1-3.2.2-3-16-22.2-28.6-46.4-30.4-9.2-5.2-21.1-8.3-34.2-8.3-11.4 0-21.9 2.4-30.6 6.5-3.4-17.1-25.5-30.3-52.3-30.3-13.6 0-26.1 3.4-35.4 9-18.3 2.1-33.4 10.4-40 21.6-7.5 2.4-14 5.9-19 10.2-3.6-.5-7.3-.8-11-.8-3.3 0-6.4.2-9.5.6-9.3-10-26-16.7-45.1-16.7-16.1 0-30.6 4.8-40.2 12.3-9.4-9.7-25.8-16.2-44.5-16.2-17.9 0-33.7 5.9-43.3 14.9-4.2.1-8.2.5-12.1 1.2v129.8h960 960v-129.7c-4-.7-8-1.2-12.2-1.3z" fill="#fff" opacity=".5"/><path d="m1 245.5h1920v-155.4c-16.6-11.6-39-18.7-63.8-18.7-32.7 0-61.5 12.4-77.9 31.2-16.9-14.5-42.2-23.8-70.4-23.8-33.4 0-62.7 12.9-78.9 32.3-5.4-.7-11-1.1-16.7-1.1-6.6 0-13.1.5-19.3 1.5-8.8-8.3-20.2-15-33.3-19.6-11.6-21.5-38-37.6-70-41.6-16.4-10.8-38.1-17.4-62-17.4-46.8 0-85.5 25.4-91.5 58.4-15.1-7.8-33.5-12.4-53.5-12.4-22.8 0-43.7 6-59.8 16-42.4 3.4-76.1 27.8-81.2 58.6-1.8-.2-3.7-.3-5.5-.5-11.5-8.4-25.8-13.4-41.3-13.4-16.3 0-31.3 5.5-43.2 14.8-24.8 4-45.9 15.3-58.7 30.7-10.6-6.4-23.1-10.2-36.5-10.2-12.2 0-23.6 3.1-33.6 8.5-4.3-3.2-9.2-5.9-14.5-8.2 4.7-7 7.4-14.9 7.4-23.2 0-27.7-29.2-50.3-65.9-51.6-.5-28.2-31.2-51-69.1-51-32.8 0-60.2 17.1-67.3 40-31.6 3.5-56.2 22.9-58.7 47-8.7 2.8-16.4 6.8-22.8 11.8-12.6-9.8-30.3-16-50-16-5.9 0-11.7.6-17.2 1.7-4.6-7.6-11.6-14.2-20.3-19.3-8.7-20-33.3-34.6-62.6-35.6 0-.6.1-1.2.1-1.8 0-28.6-31-51.7-69.2-51.7-7.5 0-14.7.9-21.4 2.6-2.6-.6-5.3-1.2-8-1.6-1.2-.5-2.3-.9-3.5-1.3-11.7-15.1-33.7-25.2-58.9-25.2-36.1 0-65.7 20.7-68.9 47.1-3.6 3.4-6.6 7.2-9 11.3-28.4 1-52.3 14.7-61.7 33.8-2.1-.2-4.3-.2-6.5-.2-38.2 0-69.2 23.1-69.2 51.7 0 .8.1 1.6.2 2.4-4 2.8-7.6 5.9-10.6 9.3-7.7-2.2-16-3.5-24.7-3.5-9.1 0-17.7 1.3-25.7 3.7-8.7-13.6-25.1-23.8-44.9-27.6z" fill="#fff"/></svg>