<svg xmlns="http://www.w3.org/2000/svg" viewBox="0 0 229.69 308.27"><defs><style>.cls-1{fill:#f2f2f2;}.cls-2{fill:#fff;}.cls-3{fill:#1e2d4d;}.cls-4{fill:#736357;}.cls-5{fill:#b27c4f;}.cls-6{fill:#534741;}.cls-7{fill:#dd4315;}.cls-8{fill:#1e1f2a;}.cls-9{fill:#2aa4cc;}.cls-10{fill:#ebebea;}.cls-11{fill:#e85b1b;}.cls-12{fill:#f8f9fa;}.cls-13{fill:#116cb3;}.cls-14{fill:#2c8dcc;}.cls-15{fill:#ebe9ea;}</style></defs><title>code</title><g id="Layer_2" data-name="Layer 2"><g id="Graphics"><path class="cls-1" d="M229.43,91.61c-1.8-20.68-7.67-44.87-29.32-61.58-20.6-15.9-79.55,8.39-85.26,10.81C109.13,38.42,50.18,14.13,29.58,30,7.93,46.74,2.06,70.94.26,91.61s5.41,55.87,33.38,84.9a403.79,403.79,0,0,1,55.63,72.86h51.15A403.82,403.82,0,0,1,196,176.51C224,147.48,231.23,112.29,229.43,91.61Z"/><path class="cls-2" d="M172.56,13.75c-23-11-51.39,1.42-57.36,4.27-6-2.85-34.39-15.24-57.36-4.27C32.05,26.07,16.06,57.69,20,97.11c4.62,46.52,21.29,61.8,34.19,79.4,12.48,17,32.25,45.16,41.87,72.86h38.34c9.62-27.7,29.4-55.84,41.87-72.86,12.9-17.6,31.11-35.19,33.75-78.74C212.6,54.92,198.36,26.07,172.56,13.75Z"/><path class="cls-1" d="M159.38,14.19C147-1.24,120.26,3.62,115,4.75c-5.25-1.13-32-6-44.36,9.45C56.93,31.35,44.28,73.06,48.81,105.25c4.4,31.23,23,63.78,32.11,81.38,8.94,17.19,18.54,47.8,21.54,62.74h25.11c3-14.94,12.16-45.55,21.1-62.74,9.15-17.6,27.37-51,32.11-83.14S173.1,31.35,159.38,14.19Z"/><path class="cls-2" d="M126.92,191.47c3.35-20.24,12.08-51,14.09-96.78s-7-76.1-12.75-86.22C123.72.42,117.29-.11,114.84,0c-2.45-.12-8.88.41-13.42,8.46-5.7,10.12-14.76,40.47-12.75,86.22s10.73,76.54,14.09,96.78c3.28,19.78,7.83,42.9,8,57.9h8.09C119.09,234.37,123.64,211.25,126.92,191.47Z"/><ellipse class="cls-3" cx="114.84" cy="248.93" rx="25.83" ry="2.52"/><polygon class="cls-4" points="96.94 277.09 84.25 227.93 85.24 227.62 96.36 270.7 98.13 245.92 99.16 246.01 96.94 277.09"/><polygon class="cls-4" points="106.39 277.09 93.69 227.93 94.69 227.62 105.81 270.7 107.58 245.92 108.61 246.01 106.39 277.09"/><polygon class="cls-4" points="123.32 277.09 121.09 246.01 122.12 245.92 123.89 270.7 135.01 227.62 136.01 227.93 123.32 277.09"/><polygon class="cls-4" points="132.76 277.09 130.54 246.01 131.57 245.92 133.34 270.7 144.46 227.62 145.45 227.93 132.76 277.09"/><path class="cls-5" d="M115.32,275.93H96.44s.79,24.57,2.63,27.83,3.68,4.51,5.26,4.51h21c1.58,0,3.42-1.25,5.26-4.51s2.63-27.83,2.63-27.83Z"/><rect class="cls-6" x="93.45" y="273.1" width="42.8" height="5.66"/><path class="cls-7" d="M156.84,224.08q-4.86-1-10.26-1.83c-3.63-.53-7.44-1-11.37-1.32q-6.36-.56-13.14-.77-3.57-.11-7.23-.11t-7.23.11q-6.7.2-13,.76c-3.74.33-7.36.74-10.83,1.23-3.83.55-7.49,1.19-10.93,1.92,6.52,9.27,11.91,17.74,16.22,25,0,0,0-.06,0-.1,0-.63,2.37-1.2,6.25-1.64,1.88-.21,4.12-.39,6.63-.54,2.67-.15,5.64-.26,8.81-.31,1.35,0,2.72,0,4.13,0s2.78,0,4.13,0c3.3.05,6.38.16,9.14.33s5.06.36,7,.6c3.47.43,5.56,1,5.56,1.56,0,0,0,.06,0,.1C144.93,241.82,150.32,233.35,156.84,224.08Z"/><path class="cls-1" d="M80.35,235q1.44,2.19,2.78,4.3c9.5-2.23,36.32-7.16,63.48.26q1.32-2.07,2.73-4.23C118.56,226.39,88.65,232.82,80.35,235Z"/><polygon class="cls-8" points="36.84 42.76 106.75 42.76 100.69 111.52 71.8 119.61 43.2 112.1 36.84 42.76"/><polygon class="cls-9" points="70.83 48.15 99.34 48.15 94.33 105.93 70.83 112.48 70.83 48.15"/><polygon class="cls-10" points="68.02 61.33 68.02 94.83 47.28 92.19 47.28 84.25 54.19 84.25 54.19 87.78 61.1 87.78 61.1 61.33 68.02 61.33"/><polygon class="cls-10" points="74 61.33 74 74.73 74 81.43 87.13 81.43 87.13 88.13 74 88.13 74 94.83 93.35 93.07 93.7 74.73 80.57 74.73 80.57 68.03 93.7 68.03 93.35 63.09 74 61.33"/><polygon class="cls-7" points="79.79 104.75 149.7 104.73 143.66 173.49 114.77 181.59 86.17 174.09 79.79 104.75"/><polygon class="cls-11" points="113.78 110.13 142.29 110.12 137.3 167.9 113.81 174.46 113.78 110.13"/><polygon class="cls-12" points="91.64 117.86 135.15 117.84 134.14 127 101.46 127.01 102.11 135.49 134.01 135.47 131.71 161.67 113.8 166.75 95.7 161.81 94.41 148.33 103.33 148.32 103.98 155.19 113.8 157.82 123.49 155.19 124.38 144.14 94.15 144.03 91.64 117.86"/><polygon class="cls-13" points="122.77 42.67 192.84 42.67 186.76 111.59 157.81 119.7 129.14 112.17 122.77 42.67"/><polygon class="cls-14" points="156.84 48.07 185.41 48.07 180.39 105.99 156.84 112.56 156.84 48.07"/><polygon class="cls-12" points="135.26 54.65 178.41 54.65 177.64 63.14 136.13 63.14 135.26 54.65"/><polygon class="cls-12" points="138.06 84.77 139.32 98.18 156.84 103.08 174.65 98.18 176.77 72.02 157.85 72.02 177.64 63.14 157.66 63.14 136.9 71.83 137.77 80.42 167.41 80.42 166.25 91.62 156.84 94.42 147.43 91.52 146.65 84.96 138.06 84.77"/><polygon class="cls-15" points="136.9 71.83 157.85 72.02 177.64 63.14 157.66 63.14 136.9 71.83"/></g></g></svg>