<svg xmlns="http://www.w3.org/2000/svg" viewBox="0 0 732.91 420.38"><defs><style>.cls-1{isolation:isolate;}.cls-12,.cls-13,.cls-2,.cls-5,.cls-9{fill:#fff;}.cls-11,.cls-12,.cls-13,.cls-14,.cls-2,.cls-5,.cls-7,.cls-8{stroke:#000;}.cls-13,.cls-14,.cls-2{stroke-miterlimit:10;}.cls-3{opacity:0.2;}.cls-4{fill-opacity:0.2;}.cls-11,.cls-12,.cls-5,.cls-7,.cls-8{stroke-linecap:round;stroke-linejoin:round;}.cls-10,.cls-6,.cls-7{fill:#b817cf;}.cls-6{mix-blend-mode:multiply;}.cls-11,.cls-14,.cls-8{fill:none;}.cls-8{stroke-dasharray:4 7;}.cls-12{stroke-dasharray:1 5;}.cls-13,.cls-14{fill-rule:evenodd;}</style></defs><title>connect</title><g class="cls-1"><g id="Layer_2" data-name="Layer 2"><g id="Background"><path class="cls-2" d="M171.18,273.59l-.13,1.23a2.15,2.15,0,0,1-2.15,2H141.23a2.14,2.14,0,0,1-2.15-2v-1.35Z"/><path class="cls-2" d="M171.17,272.75a2.06,2.06,0,0,1-2.06,2.06h-28a2.06,2.06,0,0,1-2.06-2.06l2-7.76a2.06,2.06,0,0,1,2.06-2.06h23.89a2.06,2.06,0,0,1,2.06,2.06Z"/><g class="cls-3"><path d="M169.6,266.77l-.47-1.79a2.06,2.06,0,0,0-2.06-2.06H143.18a2.06,2.06,0,0,0-2.06,2.06l-.47,1.79Z"/></g><path class="cls-2" d="M108.83,254.42v6.2a4,4,0,0,0,4,4h84.52a4,4,0,0,0,4-4v-6.2Z"/><path class="cls-2" d="M201.42,255.59V204.2A2.23,2.23,0,0,0,199.2,202H111.05a2.22,2.22,0,0,0-2.22,2.22v51.39Z"/><polygon class="cls-2" points="196.8 250.91 113.44 250.91 113.44 250.91 113.44 206.69 196.8 206.69 196.8 206.69 196.8 250.91"/><rect class="cls-3" x="108.74" y="255.9" width="93.01" height="2.6"/><g id="_Group_" data-name="&lt;Group&gt;"><path class="cls-2" d="M117.15,130.79a4.39,4.39,0,1,1-1.82-5.94A4.4,4.4,0,0,1,117.15,130.79Z"/></g><circle class="cls-2" cx="113.27" cy="128.74" r="1.74" transform="translate(-53.46 168.79) rotate(-62.17)"/><g id="_Group_2" data-name="&lt;Group&gt;"><path class="cls-2" d="M86.24,114.45a4.39,4.39,0,1,1-1.82-5.94A4.39,4.39,0,0,1,86.24,114.45Z"/></g><circle class="cls-2" cx="82.35" cy="112.39" r="1.74" transform="translate(-55.5 132.69) rotate(-62.14)"/><path class="cls-2" d="M72.25,106.68l4.73,2.5A6.23,6.23,0,0,1,88,115l19.89,10.51a6.24,6.24,0,0,1,11.33,5l6.29,3.33,3.48-6.58.21-.39,10.76-20.35c-12.71-6.73-32.48-17.1-38.73-20.36L90.46,106.39l7.77-14.8c-6.9-3.64-6-3.16-8.39-4.41s-7.55,2.64-12,8c-2.8,3.33-3.88,7.89-4.67,9.39C72.09,104,70.82,105.92,72.25,106.68Z"/><path class="cls-2" d="M87.63,101.28c1.17.59,2.16.84,3-.84L93,96c.85-1.61.78-1.72-.73-2.52l-3.92-2.07c-1.34-.71-3.72.47-7,4.84s-2.1,1.39,1.14,2.38Z"/><path class="cls-4" d="M87.63,101.28c1.17.59,2.16.84,3-.84L93,96c.85-1.61.78-1.72-.73-2.52l-3.92-2.07c-1.34-.71-3.72.47-7,4.84s-2.1,1.39,1.14,2.38Z"/><polygon class="cls-5" points="117.92 100.91 121.2 109.71 115.17 117.08 105.83 115.53 102.55 106.67 108.58 99.36 117.92 100.91 117.92 100.91"/><polygon class="cls-3" points="117.92 100.91 117.92 100.91 121.2 109.71 115.31 116.9 111.99 108 117.92 100.91"/><polygon class="cls-6" points="111.97 108.21 111.97 108.22 115.25 117.01 105.87 115.57 102.55 106.67 111.97 108.21"/><line class="cls-5" x1="111.85" y1="108.18" x2="102.54" y2="106.67"/><line class="cls-5" x1="117.92" y1="100.91" x2="111.87" y2="108.23"/><line class="cls-5" x1="111.93" y1="108.2" x2="115.23" y2="117.05"/><polygon class="cls-7" points="496.09 138.94 505.58 129.45 498.35 129.45 498.35 107.49 493.83 107.49 493.83 129.45 486.6 129.45 496.09 138.94"/><path class="cls-5" d="M224.62,46.43a9.85,9.85,0,0,0-1.1.06,5.07,5.07,0,0,0-8.26-3.25,4.2,4.2,0,0,0-8.27,1c0,.11,0,.21,0,.32-3.51.28-6.24,2.81-6.24,5.88,0,3.26,3.1,5.59,6.91,5.59h16.95c3.82,0,5.83-2.15,5.83-4.81S228.44,46.43,224.62,46.43Z"/><path class="cls-5" d="M732.41,105.18a5.19,5.19,0,0,0-10.35-.56,5.19,5.19,0,1,0-9.2,3.82c.94,1.16,9.17,9.39,9.17,9.39s8-8.1,9-9.11A5.18,5.18,0,0,0,732.41,105.18Z"/><path class="cls-7" d="M698.63,132.71H641.21V100.78h57.42Z"/><path class="cls-2" d="M665.31,125.78c-1.28.78-2.34.19-2.34-1.32V108.82c0-1.5,1.05-2.1,2.34-1.32L678,115.22a1.53,1.53,0,0,1,0,2.84Z"/><line class="cls-8" x1="485.54" y1="230.3" x2="633.01" y2="137.04"/><line class="cls-8" x1="607.9" y1="198.73" x2="666.91" y2="174.98"/><polygon class="cls-5" points="720.73 252.62 720.73 223.44 695.16 208.55 669.66 223.21 669.74 252.56 695.23 267.28 720.73 252.62 720.73 252.62"/><polygon class="cls-3" points="720.73 252.62 720.73 252.62 720.73 223.44 695.77 208.9 695.76 238.41 720.73 252.62"/><polygon class="cls-6" points="695.48 237.82 695.48 237.82 695.48 208.64 669.74 223.05 669.74 252.56 695.48 237.82"/><line class="cls-5" x1="695.16" y1="238.04" x2="669.73" y2="252.56"/><line class="cls-5" x1="720.73" y1="252.62" x2="695.16" y2="237.89"/><line class="cls-5" x1="695.38" y1="237.91" x2="695.38" y2="208.55"/><path class="cls-7" d="M391.44,54a4.08,4.08,0,0,0-2.81-.3l-3.34-5.77s.08-.08.12-.13a4.16,4.16,0,1,0-3,1.56L386,55.67c0,.07-.09.12-.12.19s-.09.24-.14.36H378.5a4.1,4.1,0,1,0-.1,3.42c0-.06,0-.12.07-.18h7.43a4.07,4.07,0,0,0,1.86,1.91A4.12,4.12,0,0,0,391.44,54Z"/><path class="cls-2" d="M196.8,342a27.27,27.27,0,0,0-23.62,13.64,27.27,27.27,0,0,0,47.24,0A27.26,27.26,0,0,0,196.8,342Z"/><path class="cls-4" d="M196.8,342a27.27,27.27,0,0,0-23.62,13.64c6-5.82,13.53-11.38,23.62-11.38a29.92,29.92,0,0,1,23.62,11.38A27.26,27.26,0,0,0,196.8,342Z"/><circle class="cls-7" cx="196.8" cy="355.62" r="11.38"/><circle cx="196.8" cy="355.62" r="4.9"/><circle class="cls-9" cx="195.06" cy="353.76" r="1.84"/><line class="cls-8" x1="489.14" y1="217.55" x2="542.49" y2="160.07"/><line class="cls-8" x1="533.9" y1="177.78" x2="545.98" y2="164.76"/><line class="cls-8" x1="525.97" y1="169.86" x2="538.06" y2="156.83"/><line class="cls-8" x1="575.68" y1="126.88" x2="624.91" y2="77.65"/><line class="cls-8" x1="485.54" y1="239.11" x2="521.42" y2="239.11"/><line class="cls-8" x1="607.9" y1="239.11" x2="665.92" y2="239.11"/><path class="cls-2" d="M670.57,321.61l3.45.19a2.07,2.07,0,0,0,2.18-2s.12-2.26.19-3.43a2.43,2.43,0,0,1,.81-1.6h0L669,322.23h0A2.11,2.11,0,0,1,670.57,321.61Z"/><path class="cls-2" d="M692.65,314.92l-13.82-.76a2.27,2.27,0,0,0-1.63.65,2.43,2.43,0,0,0-.81,1.6c-.07,1.17-.19,3.43-.19,3.43a2.07,2.07,0,0,1-2.18,2l-3.45-.19a2.11,2.11,0,0,0-1.52.62,2,2,0,0,0-.68,1.34c-.06,1-1,18.62-1,18.62a2.07,2.07,0,0,0,1.95,2.19L691,345.58a2.07,2.07,0,0,0,2.18-2l1.46-26.51A2.07,2.07,0,0,0,692.65,314.92Z"/><path class="cls-3" d="M675.26,321.46a2.05,2.05,0,0,1-1.24.34l-3.45-.19a2.11,2.11,0,0,0-1.52.62,2,2,0,0,0-.68,1.34c0,.27-.12,2.26-.23,4.24Z"/><line class="cls-5" x1="672.66" y1="328.62" x2="683.78" y2="329.24"/><line class="cls-5" x1="687.03" y1="329.42" x2="690.02" y2="329.59"/><line class="cls-5" x1="672.86" y1="325.01" x2="683.98" y2="325.64"/><line class="cls-5" x1="687.23" y1="325.82" x2="690.22" y2="325.99"/><line class="cls-5" x1="672.45" y1="332.22" x2="683.58" y2="332.85"/><line class="cls-5" x1="686.83" y1="333.03" x2="689.82" y2="333.2"/><line class="cls-5" x1="672.25" y1="335.83" x2="683.38" y2="336.45"/><line class="cls-5" x1="686.63" y1="336.63" x2="689.62" y2="336.8"/><path class="cls-2" d="M507.27,110a12.25,12.25,0,0,0-1.36.07,6.3,6.3,0,0,0-10.25-4,5.21,5.21,0,0,0-10.26,1.28c0,.13,0,.26,0,.4-4.35.35-7.74,3.48-7.74,7.29,0,4,3.84,6.94,8.57,6.94h21c4.74,0,7.24-2.67,7.24-6S512,110,507.27,110Z"/><path class="cls-5" d="M684.73,175l23.84-9.88a3.53,3.53,0,0,1-.17-2,4.1,4.1,0,0,1-2-1.46,3,3,0,0,1,.41-2.58s-1.73-.54-2.16-1.74a5,5,0,0,1,.19-2.19c-.68-.28-1-1.41-1.07-1.67l-23.84,9.89a1,1,0,0,0-.52,1.25,16.68,16.68,0,0,0,1.45,5.51c1.43,3.45,2.64,4.39,2.64,4.39A1,1,0,0,0,684.73,175Z"/><path class="cls-5" d="M704.64,157.21a5.13,5.13,0,0,1,.2-2.14c-.68-.28-1-1.41-1.07-1.67l-23.84,9.89a1,1,0,0,0-.52,1.25,12.91,12.91,0,0,0,.52,2.82Z"/><path class="cls-5" d="M706.44,161.65l-24.78,10.18a8.42,8.42,0,0,0,1.81,2.61,1,1,0,0,0,1.25.52l23.84-9.88a3.53,3.53,0,0,1-.17-2A4.34,4.34,0,0,1,706.44,161.65Z"/><path class="cls-2" d="M678.37,177.58l6.06-2.49a38.52,38.52,0,0,1-3.06-5.62,33.64,33.64,0,0,1-1.75-6.06l-6.07,2.5c-1.56.65-.81,3.45.62,6.9S677.12,178.1,678.37,177.58Z"/><path class="cls-7" d="M678.37,177.58l6.06-2.49a38.52,38.52,0,0,1-3.06-5.62,33.64,33.64,0,0,1-1.75-6.06l-6.07,2.5c-1.56.65-.81,3.45.62,6.9S677.12,178.1,678.37,177.58Z"/><path class="cls-5" d="M703.75,153.34v.06l.1,0Z"/><path class="cls-5" d="M708.6,165.16l.11-.14-.14.06A.46.46,0,0,0,708.6,165.16Z"/><path class="cls-5" d="M704.84,155.06a5,5,0,0,0-.19,2.19c.43,1.2,2.16,1.74,2.16,1.74a3,3,0,0,0-.41,2.58,4.1,4.1,0,0,0,2,1.46,3.53,3.53,0,0,0,.17,2l.14-.06,1.11-1.43,0-.06-4.08-9.9,0,0-1.84-.25-.1,0C703.83,153.66,704.15,154.78,704.84,155.06Z"/><path class="cls-5" d="M706.8,159a3,3,0,0,0-.41,2.58,4.1,4.1,0,0,0,2,1.46,3.53,3.53,0,0,0,.17,2l.14-.06,1.11-1.43,2.69-3.49.78-1-1-2.37-1-2.37-1.26-.17-4.38-.59-1.84-.25-.1,0c.07.26.39,1.38,1.07,1.67a5,5,0,0,0-.19,2.19C705.07,158.45,706.8,159,706.8,159Z"/><polygon class="cls-2" points="713.29 159.08 716.41 155.03 711.34 154.36 711.34 154.36 712.31 156.73 713.29 159.08"/><circle class="cls-7" cx="642.31" cy="59" r="15.97"/><path class="cls-5" d="M642.37,43V58.71L631,70.3A16,16,0,1,0,642.37,43Z"/><path class="cls-2" d="M580,139.14,553.93,165.2a1.17,1.17,0,0,1-1.62,0L536.14,149a1.16,1.16,0,0,1,0-1.61l26.05-26.05a1.13,1.13,0,0,1,1.59.07L580,137.56A1.12,1.12,0,0,1,580,139.14Z"/><line class="cls-2" x1="550.95" y1="159.06" x2="559.43" y2="150.59"/><line class="cls-2" x1="561.25" y1="148.76" x2="565.87" y2="144.15"/><path class="cls-10" d="M569.69,142a1.91,1.91,0,0,1-.47-3.75l.35-.09.09-.35a1.86,1.86,0,0,1,.49-.87,1.91,1.91,0,1,1,1.83,3.19l-.35.09-.09.35a1.94,1.94,0,0,1-.5.88,1.89,1.89,0,0,1-1.35.56Z"/><path d="M571.5,137a1.29,1.29,0,0,1,.91,2.2,1.27,1.27,0,0,1-.59.33l-.7.18-.18.7a1.3,1.3,0,0,1-.34.59,1.29,1.29,0,1,1-1.23-2.16l.71-.18.18-.71a1.26,1.26,0,0,1,.33-.59,1.28,1.28,0,0,1,.91-.38m0-1.24a2.52,2.52,0,0,0-1.79.74,2.49,2.49,0,0,0-.66,1.15,2.52,2.52,0,1,0,2.41,4.23,2.54,2.54,0,0,0,.66-1.15,2.52,2.52,0,0,0-.63-5Z"/><rect class="cls-2" x="542.94" y="146.82" width="5.93" height="4.72" rx="1.03" ry="1.03" transform="translate(54.41 429.71) rotate(-45)"/><path class="cls-2" d="M219.58,84.32a32.75,32.75,0,1,1-32.77,32.76,32.56,32.56,0,0,1,32.77-32.76"/><path class="cls-4" d="M238.3,90.19a31.6,31.6,0,0,1,1.87,3.68c6,13.95,6,31.25-6.34,41.83a57.6,57.6,0,0,1-25.27,12.22A32.76,32.76,0,0,0,238.3,90.19Z"/><path class="cls-2" d="M236.42,117.92a5,5,0,0,0,.52.14c.93.2,2-.18,2.82.35,1.34.83,1.08,2.49.48,3.71-.73,1.49-2.14,2.44-3.1,3.76-1.13,1.54-1.4,3.83-3.23,4.77-1.63.84-3.18.85-4.53,2.42-1,1.2-1.5,2.67-2.64,3.81s-2.41,2-3.54,3.13c-2,2-2.88,3.18-2,6-4.55.63-2.08-6.39-1.68-8.42.26-1.3.26-2.56.63-3.84s1.22-2.65,1.08-3.89c-.32-2.91-2.83-4.46-4.82-6.17a10.84,10.84,0,0,1-2.14-2.35c-.61-1-.44-2.07-.66-3.21s-.94-2-.74-3.07,1.35-2.29,1-3.35-1.82-1-2.66-1.59a12.89,12.89,0,0,0-5.71-2.66,8.07,8.07,0,0,1-5.32-3.12c-1.39-1.8-.1-2.94-.64-4.83-.24-.83-1.08-1.15-1.39-1.89-.42-1,.62-2.93,1.06-3.82,1.23-2.51,2-3.71,4.59-5.05a35.5,35.5,0,0,1,10.88-3.9c2.83-.56,3.26,1.94,5.6,2.27,3.12.44,4.53-1.46,7.88-.22-.27,1.4-1.93,1.4-2.81,2.31-.43.45.55,1.05,0,1.39a18.26,18.26,0,0,1-2,1.42c-1.19.51-1.7,1.22-3.17,1.41-1.73.23-1.42.34-2.27,1.77-.6,1-2.11,1.35-2.59,2.25s.77,2.1,0,2.85-1.91-.63-2.58-1c-1.19-.65-2.31-.11-3.64.09-2,.31-3.19.39-3.35,2.63a4.53,4.53,0,0,0,.89,3.42c.84-.44,1.49-1.71,2.55-1.79,1.29-.09.87.3.86,1.26,0,2.52.57.87,2.3,1.81,1.16.63.25,1.85,1.42,2.94,1.36,1.27,2.46.59,4.07,0a10.16,10.16,0,0,1,8,1.07,12.46,12.46,0,0,0,3.5,1.76,5,5,0,0,1,3.05,1.69C233.67,115.68,234.52,117.29,236.42,117.92Z"/><path class="cls-6" d="M236.42,117.92a5,5,0,0,0,.52.14c.93.2,2-.18,2.82.35,1.34.83,1.08,2.49.48,3.71-.73,1.49-2.14,2.44-3.1,3.76-1.13,1.54-1.4,3.83-3.23,4.77-1.63.84-3.18.85-4.53,2.42-1,1.2-1.5,2.67-2.64,3.81s-2.41,2-3.54,3.13c-2,2-2.88,3.18-2,6-4.55.63-2.08-6.39-1.68-8.42.26-1.3.26-2.56.63-3.84s1.22-2.65,1.08-3.89c-.32-2.91-2.83-4.46-4.82-6.17a10.84,10.84,0,0,1-2.14-2.35c-.61-1-.44-2.07-.66-3.21s-.94-2-.74-3.07,1.35-2.29,1-3.35-1.82-1-2.66-1.59a12.89,12.89,0,0,0-5.71-2.66,8.07,8.07,0,0,1-5.32-3.12c-1.39-1.8-.1-2.94-.64-4.83-.24-.83-1.08-1.15-1.39-1.89-.42-1,.62-2.93,1.06-3.82,1.23-2.51,2-3.71,4.59-5.05a35.5,35.5,0,0,1,10.88-3.9c2.83-.56,3.26,1.94,5.6,2.27,3.12.44,4.53-1.46,7.88-.22-.27,1.4-1.93,1.4-2.81,2.31-.43.45.55,1.05,0,1.39a18.26,18.26,0,0,1-2,1.42c-1.19.51-1.7,1.22-3.17,1.41-1.73.23-1.42.34-2.27,1.77-.6,1-2.11,1.35-2.59,2.25s.77,2.1,0,2.85-1.91-.63-2.58-1c-1.19-.65-2.31-.11-3.64.09-2,.31-3.19.39-3.35,2.63a4.53,4.53,0,0,0,.89,3.42c.84-.44,1.49-1.71,2.55-1.79,1.29-.09.87.3.86,1.26,0,2.52.57.87,2.3,1.81,1.16.63.25,1.85,1.42,2.94,1.36,1.27,2.46.59,4.07,0a10.16,10.16,0,0,1,8,1.07,12.46,12.46,0,0,0,3.5,1.76,5,5,0,0,1,3.05,1.69C233.67,115.68,234.52,117.29,236.42,117.92Z"/><line class="cls-8" x1="485.54" y1="246.27" x2="625.28" y2="305.46"/><path class="cls-5" d="M474,175.8H296.28a5.16,5.16,0,0,0-5.15,5.15V307.89a5.16,5.16,0,0,0,5.15,5.16H474a5.16,5.16,0,0,0,5.16-5.16V181A5.16,5.16,0,0,0,474,175.8Z"/><polygon class="cls-7" points="302.73 183.22 302.73 184.15 302.73 304.6 467.57 304.6 467.57 184.15 467.57 183.22 302.73 183.22"/><rect class="cls-5" x="313.17" y="194.44" width="143.76" height="94.03" rx="3.58" ry="3.58"/><path class="cls-7" d="M456.93,203.73V198a3.59,3.59,0,0,0-3.59-3.59H316.76a3.58,3.58,0,0,0-3.59,3.59v5.71Z"/><path class="cls-3" d="M456.93,203.73V198a3.59,3.59,0,0,0-3.59-3.59H316.76a3.58,3.58,0,0,0-3.59,3.59v5.71Z"/><circle class="cls-5" cx="317.67" cy="199.17" r="1.75"/><circle class="cls-5" cx="323.1" cy="199.17" r="1.75"/><circle class="cls-5" cx="328.52" cy="199.17" r="1.75"/><line class="cls-5" x1="414.68" y1="222.73" x2="443.48" y2="222.73"/><polyline class="cls-5" points="393.15 222.85 396.42 226.12 403.46 219.09"/><line class="cls-5" x1="414.68" y1="238.03" x2="443.48" y2="238.03"/><polyline class="cls-5" points="393.15 238.15 396.42 241.43 403.46 234.4"/><line class="cls-5" x1="414.68" y1="253.34" x2="443.48" y2="253.34"/><polyline class="cls-5" points="393.15 253.46 396.42 256.73 403.46 249.7"/><path class="cls-7" d="M443.48,269.37a4.87,4.87,0,0,1-4.87,4.87H396.27a4.87,4.87,0,0,1-4.87-4.87h0a4.87,4.87,0,0,1,4.87-4.87H438.6a4.87,4.87,0,0,1,4.87,4.87Z"/><circle class="cls-7" cx="349.83" cy="243.91" r="21.73"/><path class="cls-3" d="M347.6,253.94c.66-3.48,1.32-7,2.11-10.59l-19.81,9.19a22.15,22.15,0,0,0,15.6,12.59C346.19,261.38,346.9,257.65,347.6,253.94Z"/><path class="cls-5" d="M349.91,222.19v21.33l-15.44,15.76a21.73,21.73,0,1,0,15.44-37.09Z"/><g id="_Group_3" data-name="&lt;Group&gt;"><path class="cls-2" d="M596.61,269.95H564.26a4.47,4.47,0,0,1-2.88-1.11,3.54,3.54,0,0,1-1.12-2.64V198.8a3.64,3.64,0,0,1,1.13-2.67,4.55,4.55,0,0,1,2.88-1.08h32.34a3.71,3.71,0,0,1,3.77,3.75v67.39a3.6,3.6,0,0,1-1.1,2.64A3.68,3.68,0,0,1,596.61,269.95Z"/></g><path class="cls-2" d="M583.26,199.87h-5.89a.77.77,0,1,1,0-1.54h5.89a.77.77,0,1,1,0,1.54Z"/><polygon class="cls-5" points="598.3 202.72 598.02 202.72 562.33 202.72 562.33 261.64 598.02 261.64 598.3 261.64 598.3 202.72"/><line class="cls-11" x1="578.92" y1="236.78" x2="589.5" y2="236.78"/><polyline class="cls-11" points="571.01 236.82 572.21 238.02 574.8 235.44"/><line class="cls-11" x1="578.92" y1="242.4" x2="589.5" y2="242.4"/><polyline class="cls-11" points="571.01 242.44 572.21 243.65 574.8 241.06"/><line class="cls-11" x1="578.92" y1="248.02" x2="589.5" y2="248.02"/><polyline class="cls-11" points="571.01 248.07 572.21 249.27 574.8 246.69"/><line class="cls-11" x1="578.92" y1="253.65" x2="585.98" y2="253.65"/><polyline class="cls-11" points="571.01 253.69 572.21 254.9 574.8 252.31"/><circle class="cls-7" cx="580.32" cy="219.21" r="10.5"/><path class="cls-3" d="M579.24,224.06c.32-1.68.64-3.4,1-5.12l-9.57,4.44a10.7,10.7,0,0,0,7.54,6.08C578.55,227.65,578.9,225.85,579.24,224.06Z"/><path class="cls-5" d="M580.35,208.72V219l-7.46,7.61a10.5,10.5,0,1,0,7.46-17.92Z"/><path class="cls-10" d="M539.46,254.82a.62.62,0,0,1-.62-.65q.06-1.06.11-2.12a13.68,13.68,0,0,1-10.73-8.38,11.9,11.9,0,0,1,2.39-12.78.62.62,0,0,1,.86-.06l1.26,1.09a.62.62,0,0,1,.06.88,9.15,9.15,0,0,0-1.86,9.82,10.64,10.64,0,0,0,8.16,6.5l.11-2.06a.62.62,0,0,1,.95-.49l5.43,3.46a.62.62,0,0,1,0,1l-5.8,3.65A.62.62,0,0,1,539.46,254.82Z"/><path d="M531.08,231.3l1.26,1.09c-6.5,7.29-.25,16.89,7.35,17.41,0-.9.09-1.81.14-2.71l5.43,3.46-5.8,3.65q.07-1.35.14-2.71c-8.81-.6-16.07-11.74-8.52-20.19m0-1.24a1.23,1.23,0,0,0-.92.41,12.5,12.5,0,0,0-2.5,13.43,14.37,14.37,0,0,0,10.65,8.68l-.08,1.56a1.23,1.23,0,0,0,1.89,1.11l5.8-3.65a1.23,1.23,0,0,0,0-2.09L540.49,246a1.24,1.24,0,0,0-1.9,1q0,.68-.07,1.37a10.08,10.08,0,0,1-7-6,8.43,8.43,0,0,1,1.74-9.17,1.23,1.23,0,0,0-.11-1.76l-.58-.5-.69-.59a1.23,1.23,0,0,0-.81-.3Z"/><path class="cls-10" d="M550.25,247.29a.61.61,0,0,1-.4-.15L548.59,246a.62.62,0,0,1-.06-.88,9.15,9.15,0,0,0,1.85-9.82,10.64,10.64,0,0,0-8.16-6.5l-.11,2.06a.62.62,0,0,1-.62.59.61.61,0,0,1-.33-.1l-5.43-3.46a.62.62,0,0,1,0-1l5.8-3.65a.62.62,0,0,1,.95.55q-.05,1.06-.11,2.12a13.69,13.69,0,0,1,10.73,8.38,11.9,11.9,0,0,1-2.39,12.78A.61.61,0,0,1,550.25,247.29Z"/><path d="M541.87,223.77h0m0,0q-.07,1.36-.14,2.71c8.81.6,16.06,11.74,8.52,20.19L549,245.58c6.5-7.29.25-16.89-7.35-17.41-.05.9-.1,1.81-.14,2.71l-5.43-3.46,5.8-3.65m0-1.24h0a1.23,1.23,0,0,0-.67.2l-5.78,3.64a1.24,1.24,0,0,0,0,2.09l5.43,3.46a1.24,1.24,0,0,0,1.9-1l0-.92,0-.44a10.08,10.08,0,0,1,7,6,8.43,8.43,0,0,1-1.74,9.17,1.24,1.24,0,0,0,.11,1.75l1.22,1.06,0,0a1.24,1.24,0,0,0,1.73-.11,12.5,12.5,0,0,0,2.5-13.42A14.37,14.37,0,0,0,543,225.39q0-.75.07-1.5a1.18,1.18,0,0,0,0-.12,1.23,1.23,0,0,0-1.23-1.24h0Z"/><line class="cls-8" x1="284.51" y1="230.3" x2="137.04" y2="137.04"/><line class="cls-8" x1="286.24" y1="216.12" x2="240.7" y2="142.12"/><path class="cls-8" d="M245.65,138.56c31.77,22.69,60-29.67,41.16-54.54"/><line class="cls-8" x1="274.99" y1="239.11" x2="210.7" y2="239.11"/><line class="cls-8" x1="100.32" y1="239.11" x2="36.03" y2="239.11"/><line class="cls-8" x1="283.64" y1="257.23" x2="210.11" y2="338.41"/><line class="cls-8" x1="473.94" y1="129.92" x2="438.55" y2="169.63"/><line class="cls-8" x1="537.77" y1="57.04" x2="502.37" y2="96.75"/><line class="cls-8" x1="276.63" y1="249.61" x2="144.77" y2="305.46"/><line class="cls-8" x1="486.53" y1="257.23" x2="533.74" y2="304.39"/><line class="cls-8" x1="571.61" y1="342.31" x2="594.51" y2="365.19"/><rect class="cls-5" x="594.02" y="362.46" width="41.24" height="50.07" transform="translate(-100.87 513.86) rotate(-42.24)"/><rect class="cls-7" x="605.07" y="393.76" width="2.94" height="3.42" transform="translate(-108.36 510.38) rotate(-42.24)"/><rect class="cls-7" x="608.78" y="388.73" width="2.94" height="4.83" transform="translate(-104.5 511.66) rotate(-42.23)"/><rect class="cls-7" x="611.53" y="381.21" width="2.94" height="9.1" transform="translate(-100.17 512.11) rotate(-42.23)"/><rect class="cls-7" x="614.24" y="373.58" width="2.94" height="13.5" transform="translate(-95.79 512.72) rotate(-42.24)"/><rect class="cls-7" x="616.07" y="363.68" width="2.94" height="20.51" transform="translate(-91.01 512.28) rotate(-42.24)"/><line class="cls-11" x1="609.4" y1="400.8" x2="628.31" y2="383.62"/><line class="cls-11" x1="611.78" y1="403.42" x2="630.69" y2="386.25"/><line class="cls-11" x1="614.16" y1="406.04" x2="633.08" y2="388.87"/><line class="cls-11" x1="616.55" y1="408.67" x2="627.09" y2="399.09"/><polygon class="cls-5" points="102.65 322.18 97.9 320.18 97.45 311.57 112.83 318.02 102.65 322.18"/><polygon class="cls-5" points="84.88 334.98 136.28 313.99 136.69 299.07 130.98 301.4 127.66 308.02 92.56 322.37 84.88 334.98"/><polygon class="cls-5" points="116.8 319.87 136.47 327.95 109.42 325.02 106.63 324.02 116.8 319.87"/><line class="cls-12" x1="127.31" y1="312.36" x2="97.2" y2="324.65"/><ellipse class="cls-2" cx="382.19" cy="133.21" rx="16.45" ry="16.36" transform="translate(246.8 514.63) rotate(-89.67)"/><path class="cls-2" d="M382.77,123.29h-.95a4.07,4.07,0,0,0-4.08,4.05v1a4.07,4.07,0,0,0,4,4.1h.95a4.07,4.07,0,0,0,4.08-4.05v-1a4.07,4.07,0,0,0-4-4.1"/><path class="cls-7" d="M390,138.27v0a7.87,7.87,0,0,0-3.8-6.79l-.4.43a13.53,13.53,0,0,0-3.62,6.22,14.2,14.2,0,0,0-3.55-6.26l-.4-.43a7.87,7.87,0,0,0-3.88,6.75s0,.07,0,.11,0,.12,0,.19v.43a4.2,4.2,0,0,0,4.15,4.23l7.31,0A4.2,4.2,0,0,0,390,139v-.43C390,138.45,390,138.36,390,138.27Z"/><ellipse class="cls-2" cx="331.29" cy="56.84" rx="8.78" ry="8.73" transform="translate(272.55 387.8) rotate(-89.67)"/><path class="cls-2" d="M331.6,51.55h-.51a2.17,2.17,0,0,0-2.17,2.17v.51a2.17,2.17,0,0,0,2.15,2.19h.51a2.17,2.17,0,0,0,2.18-2.16v-.51a2.17,2.17,0,0,0-2.15-2.19"/><path class="cls-7" d="M335.45,59.54s0,0,0,0a4.2,4.2,0,0,0-2-3.62l-.21.23a7.19,7.19,0,0,0-1.93,3.32,7.57,7.57,0,0,0-1.9-3.34l-.21-.23a4.2,4.2,0,0,0-2.07,3.6s0,0,0,.06,0,.06,0,.1v.23a2.24,2.24,0,0,0,2.22,2.26l3.9,0a2.24,2.24,0,0,0,2.24-2.23v-.23C335.46,59.64,335.45,59.59,335.45,59.54Z"/><ellipse class="cls-2" cx="350.3" cy="94.15" rx="13.8" ry="13.72" transform="translate(254.16 443.91) rotate(-89.67)"/><path class="cls-2" d="M350.79,85.83H350a3.41,3.41,0,0,0-3.42,3.4V90a3.41,3.41,0,0,0,3.38,3.44h.79a3.41,3.41,0,0,0,3.42-3.4v-.81a3.41,3.41,0,0,0-3.38-3.44"/><path class="cls-7" d="M356.83,98.39v0a6.6,6.6,0,0,0-3.18-5.69l-.34.36a11.32,11.32,0,0,0-3,5.22,11.92,11.92,0,0,0-3-5.25l-.33-.36a6.61,6.61,0,0,0-3.26,5.66s0,.06,0,.09,0,.1,0,.16v.36a3.52,3.52,0,0,0,3.49,3.55l6.13,0A3.52,3.52,0,0,0,356.84,99v-.36C356.85,98.55,356.84,98.47,356.83,98.39Z"/><line class="cls-11" x1="361.44" y1="106.08" x2="370.91" y2="117.06"/><line class="cls-11" x1="334.15" y1="67.41" x2="341.31" y2="80"/><line class="cls-8" x1="382.37" y1="173.24" x2="382.37" y2="151.88"/><ellipse class="cls-2" cx="433.08" cy="56.84" rx="8.73" ry="8.78" transform="translate(-0.32 2.48) rotate(-0.33)"/><path class="cls-2" d="M432.77,51.55h.51a2.17,2.17,0,0,1,2.17,2.17v.51a2.17,2.17,0,0,1-2.15,2.19h-.51a2.17,2.17,0,0,1-2.18-2.16v-.51a2.17,2.17,0,0,1,2.15-2.19"/><path class="cls-7" d="M428.92,59.54s0,0,0,0a4.2,4.2,0,0,1,2-3.62l.21.23a7.19,7.19,0,0,1,1.93,3.32,7.57,7.57,0,0,1,1.9-3.34l.21-.23a4.2,4.2,0,0,1,2.07,3.6s0,0,0,.06,0,.06,0,.1v.23a2.24,2.24,0,0,1-2.22,2.26l-3.9,0a2.24,2.24,0,0,1-2.24-2.23v-.23C428.92,59.64,428.92,59.59,428.92,59.54Z"/><ellipse class="cls-2" cx="414.07" cy="94.15" rx="13.72" ry="13.8" transform="translate(-0.53 2.35) rotate(-0.33)"/><path class="cls-2" d="M413.59,85.83h.79a3.41,3.41,0,0,1,3.42,3.4V90a3.41,3.41,0,0,1-3.38,3.44h-.79a3.41,3.41,0,0,1-3.42-3.4v-.81a3.41,3.41,0,0,1,3.38-3.44"/><path class="cls-7" d="M407.54,98.39v0a6.6,6.6,0,0,1,3.18-5.69l.34.36a11.32,11.32,0,0,1,3,5.22,11.92,11.92,0,0,1,3-5.25l.33-.36a6.61,6.61,0,0,1,3.26,5.66s0,.06,0,.09,0,.1,0,.16v.36a3.52,3.52,0,0,1-3.49,3.55l-6.13,0A3.52,3.52,0,0,1,407.53,99v-.36C407.53,98.55,407.53,98.47,407.54,98.39Z"/><line class="cls-11" x1="402.93" y1="106.08" x2="393.46" y2="117.06"/><line class="cls-11" x1="430.22" y1="67.41" x2="423.06" y2="80"/><rect class="cls-7" x="154.49" y="212.87" width="29.8" height="16.98" transform="translate(-17.38 14.46) rotate(-4.65)"/><line class="cls-7" x1="153.85" y1="214.1" x2="169.69" y2="225.14"/><line class="cls-7" x1="169.69" y1="225.14" x2="183.55" y2="211.69"/><line class="cls-7" x1="155.22" y1="231.03" x2="163.75" y2="220.99"/><line class="cls-7" x1="174.89" y1="220.09" x2="184.92" y2="228.61"/><rect class="cls-5" x="134.15" y="229.75" width="30.73" height="14.17" transform="translate(-30.39 22.17) rotate(-7.7)"/><rect class="cls-5" x="138.62" y="234.53" width="7.75" height="6.2" transform="translate(-30.55 21.23) rotate(-7.7)"/><line class="cls-5" x1="150.32" y1="233.44" x2="159.21" y2="232.24"/><line class="cls-5" x1="150.74" y1="236.51" x2="159.63" y2="235.31"/><line class="cls-5" x1="151.15" y1="239.59" x2="160.04" y2="238.39"/><line class="cls-11" x1="130.49" y1="232.24" x2="119.9" y2="233.67"/><line class="cls-11" x1="130.69" y1="236.36" x2="124.56" y2="237.19"/><circle class="cls-3" cx="15.66" cy="239.5" r="15.16"/><circle class="cls-7" cx="15.66" cy="237.27" r="15.16"/><polyline class="cls-11" points="8.96 239.13 12.87 243.05 24.42 231.5"/><line class="cls-8" x1="382.37" y1="114.66" x2="382.37" y2="65.43"/><path class="cls-5" d="M317.07,118.68a7,7,0,0,0-.82.11,3.54,3.54,0,0,0-3.65-3.14,3.11,3.11,0,0,0-3.24,3.1,3.59,3.59,0,0,0-4.7,3.84c.17,2.43,2.61,4,5.46,3.81l7.46-.53c2.85-.21,4.24-1.92,4.09-3.91S319.92,118.48,317.07,118.68Z"/><path class="cls-5" d="M459.22,80.61a5.92,5.92,0,0,1-5.92,5.92H445.9l-4.81,4.25.37-4.25h-1.67a5.92,5.92,0,0,1-5.92-5.92h0a5.92,5.92,0,0,1,5.92-5.92h13.5a5.92,5.92,0,0,1,5.92,5.92Z"/><path class="cls-7" d="M300.5,35.84a5.92,5.92,0,0,0,5.92,5.92h7.39L318.63,46l-.37-4.25h1.67a5.92,5.92,0,0,0,5.92-5.92h0a5.92,5.92,0,0,0-5.92-5.92h-13.5a5.92,5.92,0,0,0-5.92,5.92Z"/><path class="cls-2" d="M271.53,78.36c-1.86,1.79-2,4.64.55,7.31a9.58,9.58,0,0,0,.78.73,4.92,4.92,0,0,0,3.28,8,4.07,4.07,0,0,0,6.28,5.09l.12-.13a7.47,7.47,0,0,0,13-7.3l.18,0a4.07,4.07,0,0,0-1.06-8,4.92,4.92,0,0,0-5.07-7,9.58,9.58,0,0,0-.21-1c-.93-3.58-3.45-4.94-5.94-4.29"/><path class="cls-13" d="M266.57,68.57c.32.71.67,1.42,1.07,2.13,3.58,6.39,12.1,8.42,12.1,8.42s2.72-8.33-.86-14.72c-.4-.71-.82-1.39-1.26-2Z"/><path class="cls-13" d="M269.13,67.13c.17.38.36.76.58,1.14,1.92,3.43,6.5,4.52,6.5,4.52s1.46-4.47-.46-7.91c-.21-.38-.44-.74-.67-1.09Z"/><path class="cls-2" d="M275.71,56.38l5.12,2.88c1.58,2.83-1.49,7.57-6.87,10.58s-11,3.16-12.61.32l.23-5.87"/><path class="cls-13" d="M276.87,52.31c-2.8-5.28-15.16-27.07-15.52-27.72-3.06-5.46-17.57-21.42-23-18.37s.41,23.41,3.46,28.87c.4.71,12.56,22.77,15.72,28.06"/><circle class="cls-7" cx="255.55" cy="36.97" r="6.01" transform="translate(14.51 129.56) rotate(-29.25)"/><path class="cls-13" d="M276.63,51.77c1.58,2.83-1.49,7.57-6.86,10.58s-11,3.16-12.61.32"/><path class="cls-14" d="M268.22,36.75c1.59,2.83-1.49,7.57-6.86,10.58s-11,3.16-12.61.33"/><path class="cls-14" d="M254.43,15.86c1.35,2.42-1.06,6.44-5.65,9s-9.31,2.68-10.67.27"/><polygon class="cls-13" points="257.44 63.19 250.62 67.01 249.03 48.19 257.44 63.19"/><polygon class="cls-13" points="276.93 52.28 283.64 48.52 268.62 37.45 276.93 52.28"/><line class="cls-2" x1="238.32" y1="6.22" x2="234.97" y2="0.24"/><path class="cls-5" d="M654.56,291.91l17.87,5.71a4.36,4.36,0,0,0-5.48,2.83l-1.33,4.16L655.3,336.93,625,327.24l11.65-36.48a4.37,4.37,0,0,1,5.48-2.83Z"/><g id="_Group_4" data-name="&lt;Group&gt;"><g id="_Group_5" data-name="&lt;Group&gt;"><path class="cls-5" d="M678.09,308.59a4.36,4.36,0,0,1-2.82-5.48,4.36,4.36,0,0,0-2.83-5.48l-17.87-5.71,0-.07,4.56-14.28,30.34,9.69-5.91,18.5A4.36,4.36,0,0,1,678.09,308.59Z"/><path class="cls-5" d="M675.27,303.1a4.36,4.36,0,0,0,2.82,5.48l-12.46-4,1.33-4.16a4.36,4.36,0,0,1,8.31,2.65Z"/><path class="cls-5" d="M672.44,297.62l-17.87-5.71-12.46-4a4.37,4.37,0,0,0-5.48,2.83L625,327.24l30.34,9.69,10.32-32.32,1.33-4.16a4.36,4.36,0,0,1,8.31,2.65,4.36,4.36,0,1,0,8.31,2.65l5.91-18.5-30.34-9.69-4.56,14.28"/><line class="cls-5" x1="678.09" y1="308.59" x2="665.63" y2="304.61"/></g></g><path class="cls-5" d="M679.86,288.13l2.84.91"/><path class="cls-5" d="M664,283.06l11.18,3.57"/><path class="cls-5" d="M678.56,292.2l2.84.91"/><path class="cls-5" d="M662.67,287.13l11.18,3.57"/><path class="cls-5" d="M677.25,296.28l2.84.91"/><path class="cls-5" d="M676,300.21l2.84.91"/><path class="cls-5" d="M661.37,291.21l11.18,3.57"/><path class="cls-5" d="M657.73,299.42l2.84.91"/><path class="cls-5" d="M641.85,294.35,653,297.92"/><path class="cls-5" d="M656.43,303.5l2.84.91"/><path class="cls-5" d="M640.55,298.42,651.72,302"/><path class="cls-5" d="M657.73,299.42l2.84.91"/><path class="cls-5" d="M641.85,294.35,653,297.92"/><path class="cls-5" d="M659.66,296.41l2.84.91"/><path class="cls-5" d="M643.78,291.34,655,294.91"/><path class="cls-5" d="M655.13,307.57l2.84.91"/><path class="cls-5" d="M639.24,302.5l11.18,3.57"/><path class="cls-5" d="M653.83,311.64l2.84.91"/><path class="cls-5" d="M637.94,306.57l11.18,3.57"/><path class="cls-5" d="M652.52,315.72l2.84.91"/><path class="cls-5" d="M636.64,310.65l11.18,3.57"/><path class="cls-5" d="M651.22,319.79l2.84.91"/><path class="cls-5" d="M635.34,314.72l11.18,3.57"/><path class="cls-5" d="M649.92,323.87l2.84.91"/><path class="cls-5" d="M634,318.8l11.18,3.57"/><path class="cls-5" d="M648.62,327.94l2.84.91"/><path class="cls-5" d="M632.74,322.87l11.18,3.57"/><path class="cls-5" d="M716.63,336.7l-.85-2.12a2.12,2.12,0,0,0-2-1.18,19.82,19.82,0,0,1-2.42-.11,2.9,2.9,0,0,1-1.34-.61h0a57.91,57.91,0,0,0,7.41,4.88h0A1.84,1.84,0,0,1,716.63,336.7Z"/><path class="cls-5" d="M705.77,323.08l3.39,8.52a2.81,2.81,0,0,0,.91,1.08,2.89,2.89,0,0,0,1.34.61,18.9,18.9,0,0,0,2.42.11,2.13,2.13,0,0,1,2,1.18l.85,2.12a1.83,1.83,0,0,0,.85.85,1.75,1.75,0,0,0,1.1.22c1.21,1,11.68-5.5,11-6.5a2.74,2.74,0,0,0,.4-2.45l-5.26-13.22c-.28-.69-.88-.7-1.41-.07a18.51,18.51,0,0,1-16.58,6.53C705.92,321.95,705.49,322.37,705.77,323.08Z"/><path class="cls-3" d="M715.2,333.85a1.72,1.72,0,0,1,.58.72l.85,2.12a1.83,1.83,0,0,0,.85.85,1.75,1.75,0,0,0,1.1.22,18.26,18.26,0,0,0,2.84-.76A53.16,53.16,0,0,1,715.2,333.85Z"/><path class="cls-5" d="M718.46,332.86l-2.93-7.36"/><path class="cls-5" d="M722.19,331.48l-2.93-7.34"/><path class="cls-5" d="M725.55,329.33,722.63,322"/><path class="cls-7" d="M523.32,358.45h40.73a1.28,1.28,0,0,0,1.28-1.28V308.52a1.28,1.28,0,0,0-1.28-1.28H523.32a1.28,1.28,0,0,0-1.28,1.28v48.65A1.28,1.28,0,0,0,523.32,358.45Z"/><path class="cls-5" d="M561.22,326H526.07a1.21,1.21,0,0,1-1.21-1.21V312.2a1.21,1.21,0,0,1,1.21-1.21h35.14a1.21,1.21,0,0,1,1.21,1.21v12.62A1.21,1.21,0,0,1,561.22,326Z"/><path class="cls-5" d="M534.75,340.43h-8.67a1.21,1.21,0,0,1-1.21-1.21v-8.45a1.21,1.21,0,0,1,1.21-1.21h8.67a1.21,1.21,0,0,1,1.21,1.21v8.45A1.21,1.21,0,0,1,534.75,340.43Z"/><rect class="cls-5" x="538.1" y="329.55" width="11.09" height="10.87" rx="1.21" ry="1.21"/><rect class="cls-5" x="551.34" y="343.6" width="11.09" height="11.13" rx="1.21" ry="1.21"/><rect class="cls-5" x="551.34" y="329.5" width="11.09" height="11.13" rx="1.21" ry="1.21"/><rect class="cls-5" x="524.86" y="343.58" width="11.09" height="10.87" rx="1.21" ry="1.21"/><rect class="cls-5" x="538.1" y="343.58" width="11.09" height="10.87" rx="1.21" ry="1.21"/><path d="M546.29,349h-2v-2a.48.48,0,0,0-.14-.35.52.52,0,0,0-.7,0,.48.48,0,0,0-.14.35v2h-2a.45.45,0,0,0-.34.14.49.49,0,0,0-.13.35.47.47,0,0,0,.13.34.46.46,0,0,0,.34.13h2v2a.47.47,0,0,0,.14.35.52.52,0,0,0,.7,0,.47.47,0,0,0,.14-.35v-2h2a.48.48,0,0,0,.35-.13.45.45,0,0,0,.14-.34.47.47,0,0,0-.48-.48Z"/><path d="M532.68,347.67a.51.51,0,0,0-.49-.49.46.46,0,0,0-.34.15l-1.44,1.44L529,347.33a.45.45,0,0,0-.34-.14.48.48,0,0,0-.34.16.45.45,0,0,0,0,.67l1.44,1.44-1.44,1.44a.47.47,0,0,0,0,.69.47.47,0,0,0,.69,0l1.44-1.44,1.43,1.43a.48.48,0,0,0,.34.15.46.46,0,0,0,.34-.14.48.48,0,0,0,.15-.34.47.47,0,0,0-.15-.34l-1.43-1.43,1.44-1.44A.47.47,0,0,0,532.68,347.67Z"/><path d="M546.29,334.58h-5a.47.47,0,0,0-.48.48.47.47,0,0,0,.48.49h5a.47.47,0,0,0,.49-.49.47.47,0,0,0-.49-.48Z"/><path d="M559.42,347.2h-5a.49.49,0,1,0,0,1h5a.47.47,0,0,0,.35-.14.46.46,0,0,0,.14-.35.47.47,0,0,0-.14-.35A.48.48,0,0,0,559.42,347.2Z"/><path d="M559.42,349.86h-5a.46.46,0,0,0-.35.14.51.51,0,0,0,0,.7.47.47,0,0,0,.35.14h5a.47.47,0,0,0,.35-.14.49.49,0,0,0-.35-.83Z"/><path d="M530.34,333.36h.12a.67.67,0,0,0,.49-.21.68.68,0,0,0,.21-.49v-.07a.7.7,0,0,0-.7-.7h-.12a.7.7,0,0,0-.7.7v.07a.7.7,0,0,0,.7.7Z"/><path d="M530.47,338.31a.66.66,0,0,0,.49-.21.67.67,0,0,0,.21-.49v-.07a.68.68,0,0,0-.21-.49.66.66,0,0,0-.49-.21h-.12a.7.7,0,0,0-.7.7v.07a.7.7,0,0,0,.7.7Z"/><path d="M532.92,334.58h-5a.47.47,0,0,0-.48.48.47.47,0,0,0,.48.49h5a.47.47,0,0,0,.49-.49.46.46,0,0,0-.49-.48Z"/><path d="M556.06,338.18a3.54,3.54,0,0,0,1.29.23,3.74,3.74,0,0,0,1.19-.17,5.57,5.57,0,0,0,.93-.41.39.39,0,0,0,.11-.6.31.31,0,0,0-.23-.11.5.5,0,0,0-.21,0,4.38,4.38,0,0,1-.76.32,3.26,3.26,0,0,1-.94.12,2.42,2.42,0,0,1-1.87-.74,2.89,2.89,0,0,1,0-3.58,2.23,2.23,0,0,1,.79-.54,2.7,2.7,0,0,1,1.05-.2,3.32,3.32,0,0,1,1,.12,4.41,4.41,0,0,1,.76.32.5.5,0,0,0,.21,0,.3.3,0,0,0,.23-.11.35.35,0,0,0,.1-.24.39.39,0,0,0-.05-.22.93.93,0,0,0-.32-.23,5.2,5.2,0,0,0-.76-.31,3.73,3.73,0,0,0-1.18-.17,3.16,3.16,0,0,0-2.32.89,3.68,3.68,0,0,0,0,4.89A3,3,0,0,0,556.06,338.18Z"/><path d="M544.1,318.25c-.32.23-.67.46-1,.69a10,10,0,0,0-1,.74,4.19,4.19,0,0,0-.8.85,1.74,1.74,0,0,0-.32,1,.55.55,0,0,0,.16.41.56.56,0,0,0,.41.16h4.19A.46.46,0,0,0,546,322a.43.43,0,0,0,.14-.33.45.45,0,0,0-.14-.33.46.46,0,0,0-.33-.14h-3.77a1.77,1.77,0,0,1,.52-.62c.25-.21.54-.42.86-.63l1-.67a8.69,8.69,0,0,0,.95-.74,2.6,2.6,0,0,0,1-1.9,2,2,0,0,0-.73-1.59,2.6,2.6,0,0,0-1.77-.61,5.31,5.31,0,0,0-2.41.55.39.39,0,0,0-.24.36.48.48,0,0,0,.11.35.35.35,0,0,0,.26.12.55.55,0,0,0,.25-.06,4.59,4.59,0,0,1,1.85-.39,2,2,0,0,1,1.33.39,1,1,0,0,1,.29.42,1.71,1.71,0,0,1,.09.61,1.13,1.13,0,0,1-.32.74A4.59,4.59,0,0,1,544.1,318.25Z"/><path d="M552.15,315.11a3.12,3.12,0,0,0-3.93,0,2.31,2.31,0,0,0-.71,1.75,2.52,2.52,0,0,0,.69,1.85,2.18,2.18,0,0,0,.78.52,2.58,2.58,0,0,0,1,.18,3.54,3.54,0,0,0,.85-.09,2.48,2.48,0,0,0,1.43-.87,4.1,4.1,0,0,1-.45,1.76,2.23,2.23,0,0,1-.69.72,2,2,0,0,1-1.15.3,3.29,3.29,0,0,1-1.32-.26.79.79,0,0,0-.34-.09.35.35,0,0,0-.27.14.51.51,0,0,0-.12.35.39.39,0,0,0,.23.35,4.75,4.75,0,0,0,.78.32,4.19,4.19,0,0,0,1.24.15,2.6,2.6,0,0,0,1.39-.37,3,3,0,0,0,1-.94,4.07,4.07,0,0,0,.52-1.26,5.62,5.62,0,0,0,.16-1.19c0-.34,0-.65,0-.94A3.55,3.55,0,0,0,552.15,315.11Zm-.63,3a2.24,2.24,0,0,1-1.41.43,1.53,1.53,0,0,1-1.21-.46,1.65,1.65,0,0,1-.4-1.13,1.54,1.54,0,0,1,1-1.48,2.05,2.05,0,0,1,.76-.12,1.93,1.93,0,0,1,.81.16,2.15,2.15,0,0,1,1.12,1.83A2.25,2.25,0,0,1,551.52,318.12Z"/><path d="M557.21,322.23a2.56,2.56,0,0,0,2.2-1.07,5.74,5.74,0,0,0,0-5.63,2.54,2.54,0,0,0-.92-.8,2.79,2.79,0,0,0-1.28-.28,2.54,2.54,0,0,0-2.2,1.08,5.75,5.75,0,0,0,0,5.63A2.56,2.56,0,0,0,557.21,322.23Zm-1.46-6.06a1.6,1.6,0,0,1,1.45-.8,1.62,1.62,0,0,1,1.46.8,5,5,0,0,1,0,4.35,1.72,1.72,0,0,1-2.91,0,5,5,0,0,1,0-4.35Z"/></g></g></g></svg>