<svg enable-background="new 0 0 1920 1058.4" viewBox="0 0 1920 1058.4" xmlns="http://www.w3.org/2000/svg"><path id="mountain" d="m1920 786.8l-87.8-83.9-46.8-49.4-65.9 69.5-47.2-38.3-78.6-63.8-66.9 54.3-3.1-2.5-36.4 29.6-22.9-8.5-61.1 13.9-12.2-20.1-17.6-20.3-31.8-14.2-23.9-32.7-32.7 22.1-23.9 18.6-19.1 25.7-27.1 28.3-18.4 4.6-12.6-13.5-41.5-20.3-86.8 14.8-36.9 9.2-35-41.1-29.5 34.8h-4.5l-50.2 11.5-49.4 15.9-6.6 4-11.8-19.8-22-14.1-16.5-32.8-22.5 22.1-16.5 18.6-13.2 25.7-18.7 28.3-12.8 4.7-8.7-13.5-28.6-20.4-33.1 8.2-25.5-10.7h-11.2l-14.2 15.8-42.2-19.1-55.5-17.2-26.4 23.6-8.1 15.7-11.7-5.4-17.3-32.9-12.2-29.8-15.3-21.6-20.8-25.7-15.3 38-20.3 16.5-11.2 23.6-7.9 23.3-38.9-16.1-14.7 9.8-23.2-34.4-2 2.9-42.7-63.1-50.2 74.2-30.1 44.5-42.1-80.7-29.9 57.3-50.3 96.5v231.4h1920z" fill="#05405e"/><path id="far-city" d="m1920 907.7h-30.9v-16.1h-95.7v-28.8l-101.7.2v37.7l-76.8 2.9v-36.4l-15.1-11.4v-16.8h-14.5v16.8l-16.7 11.8v36h-43.1v-75.8h-103.3v75.8h-19.5v-10.1h-8.5v9.9h-10.7v-19.3h-26.8v18.8l-16.5-.1v-42.2h-98.3v34.8h-50v-10.8h-16.8v9.9l-24.8.6v-16h-117.2v30.9h-85.7-4.6v17.8h-12.5v-44.5l-17.2-7.2v51.9h-12.6v-67.4h-37.4v67.4h-10.1v-88.6h-69.7c0 25.8 0 51.5 0 77.3 0 1.1-8 0-8 0v-37.8l-31.1-14.1v39.8h-10.1v-91.4h-38.6v110.5h-11.9v-104.3-26.2h-55.1v25.6l-78.5.1v32.7l-5.5.1.2-44.1h-7.2v-7.1l-8-.1v-15.1h-11.2v-11.8h-31.8v11.3h-7.5v14.4h-5.4v8.7h-6.9v44.3h-23.3v-32.7h-21v14.8h-18.5v-21.8h-51.9v21.4l-22 .1v-8h-16.4l.4 26.2h-16.4v83.7l-12.2.3v-92.5l-97.8-17.7v87.5l-42.4.3v-26.8h-42v67h-6.2v-106.9h-42.8v39.8h-54.2v171.5h1920z" fill="#032940"/><path id="city" d="m1229.6 960.7v-2.9h4.1v-3.1h3.6v-3.1h6.3v-1.6h10v-35.6h24.2v-9.1h9.7v-6.2h1.5v6.3h1.8v-6.2h1.5v6.4h21.9v2.9h5.2v-6.9h2.8v12.8h8.8v70.8h7.2l1.4-1.4h24.9v10.4h3.7v-38.2h7.4v-13.2h2.9v-6h6.8v-2.2h2v-5.3h1.5v-2.4l19.9-6 1.4 1.5-3.8 2.6v12.5h8.6v4.2h2.8v3.9h2.3v1h4.6v2.4h3.3v33.1h3.7v-21.3h16.2v-26.4h53.1v12.4h2.2v-126.6h8.5v-35.5h6.9v-48.9h40v48.9h6.9v35.5h8.2v104.6h5.5v22.8h2.2l-.1 2.2h18.7v7.6l1.3-.1v-68.3l1.5-.2v-4.3l1.5.1v-10.6h11.9l3 .9h7.5l6.5 4.3h1.7v-5.7h1.6v11.1h5.8v4.3h1.4v51.4h17.6v8.4h8.4v23.1h2.2v-35.2h19.7v-1.6h21.1v-29.2h13.9v-3.7h7.8v3.4h14.3v-11.8l1.4.1v8.8l.8 2.9h21.7v-32.2l1.2-5.9 1.7-5.4 1.2-5 2.5-6.3 1.3-5 2.1-5.4 2.3-30c-3.8-.3-6.9-3.5-6.9-7.4 0-4.1 3.3-7.5 7.5-7.5 4.1 0 7.5 3.3 7.5 7.5 0 3.9-3 7.1-6.9 7.4l2 30.4 3.3 13 2.1 7.1 1.7 3.3v6.7l2.1 7.9 15.9 1.3v63.1h13v-24.7l4.6-4.2.8-9.6 8.8-9.2 8.4-.4 4.6 11.7h4.2v-15h62.7v166.7h-1920.2v-79.1h42.6v-39.8h30.2v106.9h4.4v-67.1h29.8v26.8l29.9-.3v-87.6l69.1 17.7v92.5l8.6-.3v-83.7h11.6l-.3-26.2h11.6v8l15.6-.1v-21.4h36.6v21.8h13v-14.8h14.8v32.7h16.4v-44.3h4.9v-8.7h3.8v-14.4h5.6v-11.3h22.4v11.8h7.9v15.1l5.6.1v7.1h5.1l-.2 44.1 3.9-.1v-32.7l94.3.6v104.3h8.4v-110.5h27.3v91.4h7.1v-39.8l21.9 14.1v37.8c0 0 5.6 1.1 5.6 0 0-25.8 0-51.6 0-77.3h49.2v88.7h7.1v-67.4h26.4v67.4h8.9v-51.9l12.1 7.2v44.5h11v-102h3.2l3.7 3.7v15.8h2.1v11.8h4v-10.3h5.5v-6.9h16.3v4.8l2.3 2.4h13.3v9.7h4.5v8.4h13.1v6.9h2.4v21.2h3v8.1h2.8v-29l2.1-4h5.9v-11.8h14.1v12.3l3.5 3.5v28.1h6.1v-94.9h45.4v107.4h1.5v-29.7h2.2v-18.5h1.8v-15.7h2.6v-6l3.1-2.7 3.9 2.6 11.5-29.3v-6.1h1.5v-3h1.8v-9.5h1v9.3h1.3v3.5h1.5v6.6l10.9 28.7 3.4-3.5 4.1 4.1v6.3h1.4v14.7l1.2 1.2v17.5h2.6v14.1h8.8v-9.3h14.3v9.4h4.7v-4h3.1v4.2h3.3v2.3h5.8v-5.8h11.1v-2h4.6v2.1h1.1l.2 1.5h7v-9.1h4.9l3.8-2.7 2.2 3.1h3.1v11.8h27v-9.4h4.5v-2h7.2v-7.3h9.9v7.3h5.5l3.5 1.8v6.5h5.2v-15.4h-2.4v-3.1h4.5v-14.6h11.1v-2.3h4.8v-10.8h19.6v11.2h4.4v2.5h1.4v-6.8h10.3l.9 1.2v1.4l-.9.9v2h1v1.6h-1.1v1.3h.8v1.7h-1.3v12.1h4v-32.5h6.3v-8.7h3.3v-7.5h1.6v-6.7h1.2v-2.3h1.4v-3.6l.6-.6v-1.6h4.9v1.8h2.6v4.6h.8v2.6h1v5.8h1v7.7h3v8.8h6.5v9.2h3.7v-2.1h4.5v1.9h3.7v6.5h2.9v7.3z" fill="#02181e"/><path d="m403 918.5h73v4.6h-73z" fill="#eefbff"/><path d="m403 932.6h73v4.6h-73z" fill="#eefbff"/><path d="m403 946.7h73v4.6h-73z" fill="#eefbff"/><path d="m403 960.8h73v4.6h-73z" fill="#eefbff"/><path d="m403 975h73v4.6h-73z" fill="#eefbff"/><path d="m403 989.1h73v4.6h-73z" fill="#eefbff"/><path d="m403 1003.2h73v4.6h-73z" fill="#eefbff"/><path d="m437.6 1017.3h38.4v4.6h-38.4z" fill="#eefbff"/><path d="m1262 925.5h63v4.6h-63z" fill="#eefbff"/><path d="m1262 939.6h63v4.6h-63z" fill="#eefbff"/><path d="m1262 953.7h63v4.6h-63z" fill="#eefbff"/><path d="m1262 967.8h63v4.6h-63z" fill="#eefbff"/><path d="m1262 982h63v4.6h-63z" fill="#eefbff"/><path d="m1262 996.1h63v4.6h-63z" fill="#eefbff"/><path d="m1262 1010.2h63v4.6h-63z" fill="#eefbff"/><path d="m1291.9 1024.3h33.2v4.6h-33.2z" fill="#eefbff"/><path d="m147 942.5h51v4.6h-51z" fill="#eefbff"/><path d="m147 956.6h51v4.6h-51z" fill="#eefbff"/><path d="m147 970.7h51v4.6h-51z" fill="#eefbff"/><path d="m147 984.8h51v4.6h-51z" fill="#eefbff"/><path d="m147 999h51v4.6h-51z" fill="#eefbff"/><path d="m147 1013.1h51v4.6h-51z" fill="#eefbff"/><path d="m147 1027.2h51v4.6h-51z" fill="#eefbff"/><path d="m171.2 1041.3h26.8v4.6h-26.8z" fill="#eefbff"/><path d="m1520.9 791h5v5h-5z" fill="#eefbff"/><path d="m1531.2 791h5v5h-5z" fill="#eefbff"/><path d="m1549.7 850h5v5h-5z" fill="#eefbff"/><path d="m1813.8 1004.1h4.2v4.2h-4.2z" fill="#eefbff"/><path d="m1503.7 974.6h5v5h-5z" fill="#eefbff"/><path d="m1541 953.8h5v5h-5z" fill="#eefbff"/><path d="m1590.9 984.8h5v5h-5z" fill="#eefbff"/><path d="m1590.9 994.3h5v5h-5z" fill="#eefbff"/><path d="m1629.4 1017.6h5v5h-5z" fill="#eefbff"/><path d="m1599.1 1033.4h5v5h-5z" fill="#eefbff"/><path d="m1531.2 814.6h5v5h-5z" fill="#eefbff"/><path d="m1541.4 814.6h5v5h-5z" fill="#eefbff"/><path d="m1551.7 814.6h5v5h-5z" fill="#eefbff"/><path d="m1561 831.4h5v5h-5z" fill="#eefbff"/><path d="m1525.4 854.8h5v5h-5z" fill="#eefbff"/><path d="m1515.5 913.6h5v5h-5z" fill="#eefbff"/><path d="m1538.9 890.6h5v5h-5z" fill="#eefbff"/><path d="m1538.9 901.2h5v5h-5z" fill="#eefbff"/><path d="m1549.2 890.6h5v5h-5z" fill="#eefbff"/><path d="m1559.4 890.6h5v5h-5z" fill="#eefbff"/><path d="m787.7 905.9h3.5v3.5h-3.5z" fill="#eefbff"/><path d="m794.4 905.9h3.5v3.5h-3.5z" fill="#eefbff"/><path d="m809.8 917.5h3.5v3.5h-3.5z" fill="#eefbff"/><path d="m842.2 958.5h3.5v3.5h-3.5z" fill="#eefbff"/><path d="m848.8 958.5h3.5v3.5h-3.5z" fill="#eefbff"/><path d="m870.5 975.2h3.5v3.5h-3.5z" fill="#eefbff"/><path d="m863.8 975.2h3.5v3.5h-3.5z" fill="#eefbff"/><path d="m794.4 934.2h3.5v3.5h-3.5z" fill="#eefbff"/><path d="m851.1 986.4h3.5v3.5h-3.5z" fill="#eefbff"/><path d="m851.1 992.5h3.5v3.5h-3.5z" fill="#eefbff"/><path d="m864.3 1010.8h3.5v3.5h-3.5z" fill="#eefbff"/><path d="m851.1 1023.6h3.5v3.5h-3.5z" fill="#eefbff"/><path d="m857.3 1023.6h3.5v3.5h-3.5z" fill="#eefbff"/><path d="m835.5 1001.1h3.5v3.5h-3.5z" fill="#eefbff"/><path d="m865.6 946.9h3.5v3.5h-3.5z" fill="#eefbff"/><path d="m844.6 986.4h3.5v3.5h-3.5z" fill="#eefbff"/><path d="m835.5 964.6h3.5v3.5h-3.5z" fill="#eefbff"/><path d="m237.9 944.3h13.7v4.2h-13.7z" fill="#eefbff"/><path d="m237.9 952.6h13.7v4.2h-13.7z" fill="#eefbff"/><path d="m258.3 969.9h13.7v4.2h-13.7z" fill="#eefbff"/><path d="m305.4 959.3h13.7v4.2h-13.7z" fill="#eefbff"/><path d="m280.8 994h13.7v4.2h-13.7z" fill="#eefbff"/><path d="m248.1 1010.3h13.7v4.2h-13.7z" fill="#eefbff"/><path d="m277.8 1032.2h13.7v4.2h-13.7z" fill="#eefbff"/><path d="m259.3 1032h13.7v4.2h-13.7z" fill="#eefbff"/><path d="m271.9 944.3h13.7v4.2h-13.7z" fill="#eefbff"/><path d="m565.7 937.8h16.2v2.5h-16.2z" fill="#eefbff"/><path d="m565.7 946.3h23.1v2.5h-23.1z" fill="#eefbff"/><path d="m571 954.7h27v2.5h-27z" fill="#eefbff"/><path d="m583.9 963.1h14.1v2.5h-14.1z" fill="#eefbff"/><path d="m570 971.6h22.1v2.5h-22.1z" fill="#eefbff"/><path d="m565.7 980h18.2v2.5h-18.2z" fill="#eefbff"/><path d="m569.4 996.9h14.5v2.5h-14.5z" fill="#eefbff"/><path d="m565.7 1005.3h25.3v2.5h-25.3z" fill="#eefbff"/><path d="m565.7 1022.1h20.5v2.5h-20.5z" fill="#eefbff"/><path d="m565.7 1030.6h20.5v2.5h-20.5z" fill="#eefbff"/><path d="m572.2 1046.9h10v2.5h-10z" fill="#eefbff"/><path d="m1728.7 922h9.2v4.2h-9.2z" fill="#eefbff"/><path d="m1740 922h9.2v4.2h-9.2z" fill="#eefbff"/><path d="m1729.7 973.6h9.2v4.2h-9.2z" fill="#eefbff"/><path d="m1765.9 1006.2h9.2v4.2h-9.2z" fill="#eefbff"/><path d="m1728.7 1023.6h9.2v4.2h-9.2z" fill="#eefbff"/><path d="m1740.4 1023.6h9.2v4.2h-9.2z" fill="#eefbff"/><path d="m1752.1 973.6h9.2v4.2h-9.2z" fill="#eefbff"/><path d="m1777.2 922h9.2v4.2h-9.2z" fill="#eefbff"/><path d="m1770.5 940.8h9.2v4.2h-9.2z" fill="#eefbff"/><path d="m1752.1 952.1h9.2v4.2h-9.2z" fill="#eefbff"/><path d="m1781.8 940.8h9.2v4.2h-9.2z" fill="#eefbff"/><path d="m1087.8 950.8h5v5h-5z" fill="#eefbff"/><path d="m1103 958.4h5v5h-5z" fill="#eefbff"/><circle cx="86.4" cy="160" fill="#eefbff" r="1.4"/><circle cx="286.3" cy="453.5" fill="#eefbff" r="2.2"/><circle cx="268.2" cy="196.7" fill="#eefbff" r="2.3"/><circle cx="222.2" cy="94.9" fill="#eefbff" r="1.4"/><circle cx="369.8" cy="323.6" fill="#eefbff" r="1.4"/><circle cx="491" cy="193" fill="#eefbff" r="1.4"/><circle cx="577.4" cy="259.9" fill="#eefbff" r="1.4"/><circle cx="733.6" cy="113.7" fill="#eefbff" r="2.1"/><circle cx="780.4" cy="252.7" fill="#eefbff" r="1.4"/><circle cx="962.3" cy="224.5" fill="#eefbff" r="1.4"/><circle cx="1121.3" cy="415" fill="#eefbff" r="2.3"/><circle cx="1211.1" cy="550.4" fill="#eefbff" r="1.4"/><circle cx="1212.6" cy="261.4" fill="#eefbff" r="1.4"/><circle cx="1304.6" cy="339.6" fill="#eefbff" r="1.4"/><circle cx="1303.1" cy="134.3" fill="#eefbff" r="2.4"/><circle cx="994" cy="112.2" fill="#eefbff" r="1.4"/><circle cx="1141.4" cy="64.4" fill="#eefbff" r="1.4"/><circle cx="491" cy="81.8" fill="#eefbff" r="1.4"/><circle cx="85" cy="420.6" fill="#eefbff" r="1.4"/><circle cx="218.4" cy="296.5" fill="#eefbff" r="1.4"/><circle cx="632.4" cy="238" fill="#eefbff" r="1.4"/><circle cx="832.3" cy="531.5" fill="#eefbff" r="2.2"/><circle cx="814.2" cy="274.7" fill="#eefbff" r="2.3"/><circle cx="768.2" cy="172.9" fill="#eefbff" r="1.4"/><circle cx="915.8" cy="401.6" fill="#eefbff" r="1.4"/><circle cx="1037" cy="271" fill="#eefbff" r="1.4"/><circle cx="1123.4" cy="337.9" fill="#eefbff" r="1.4"/><circle cx="1279.6" cy="191.7" fill="#eefbff" r="2.1"/><circle cx="1326.4" cy="330.7" fill="#eefbff" r="1.4"/><circle cx="1508.3" cy="302.5" fill="#eefbff" r="1.4"/><circle cx="1667.3" cy="493" fill="#eefbff" r="2.3"/><circle cx="1757.1" cy="628.4" fill="#eefbff" r="1.4"/><circle cx="1758.6" cy="339.4" fill="#eefbff" r="1.4"/><circle cx="1850.6" cy="417.6" fill="#eefbff" r="1.4"/><circle cx="1849.1" cy="212.3" fill="#eefbff" r="2.4"/><circle cx="1540" cy="190.2" fill="#eefbff" r="1.4"/><circle cx="1687.4" cy="142.4" fill="#eefbff" r="1.4"/><circle cx="1037" cy="159.8" fill="#eefbff" r="1.4"/><circle cx="631" cy="498.6" fill="#eefbff" r="1.4"/><circle cx="764.4" cy="374.5" fill="#eefbff" r="1.4"/><circle cx="1765.6" cy="128.5" fill="#eefbff" r="1.9"/><circle cx="1500.9" cy="517.1" fill="#eefbff" r="2.9"/><circle cx="1524.9" cy="177.1" fill="#eefbff" r="3"/><circle cx="1585.8" cy="42.2" fill="#eefbff" r="1.9"/><circle cx="1390.3" cy="345.2" fill="#eefbff" r="1.9"/><circle cx="1229.9" cy="172.1" fill="#eefbff" r="1.9"/><circle cx="1115.4" cy="260.8" fill="#eefbff" r="1.9"/><circle cx="908.5" cy="67.1" fill="#eefbff" r="2.8"/><circle cx="846.6" cy="251.2" fill="#eefbff" r="1.9"/><circle cx="605.7" cy="213.8" fill="#eefbff" r="1.9"/><circle cx="395.1" cy="466.2" fill="#eefbff" r="3"/><circle cx="276.2" cy="645.5" fill="#eefbff" r="1.9"/><circle cx="274.3" cy="262.7" fill="#eefbff" r="1.9"/><circle cx="152.5" cy="366.3" fill="#eefbff" r="1.9"/><circle cx="154.4" cy="94.5" fill="#eefbff" r="3.2"/><circle cx="563.7" cy="65.2" fill="#eefbff" r="1.9"/><circle cx="368.5" cy="1.9" fill="#eefbff" r="1.9"/><circle cx="1229.9" cy="24.9" fill="#eefbff" r="1.9"/><circle cx="1767.5" cy="473.6" fill="#eefbff" r="1.9"/><circle cx="1590.9" cy="309.2" fill="#eefbff" r="1.9"/></svg>