<?xml version="1.0" encoding="utf-8"?>
<!-- Generator: Adobe Illustrator 21.1.0, SVG Export Plug-In . SVG Version: 6.00 Build 0)  -->
<svg version="1.1" xmlns="http://www.w3.org/2000/svg" xmlns:xlink="http://www.w3.org/1999/xlink" x="0px" y="0px"
	 viewBox="0 0 1920 1058.4" style="enable-background:new 0 0 1920 1058.4;" xml:space="preserve">
<style type="text/css">
	.st0{fill:rgba(255, 255, 255, 0.5);}
	.st1{fill:rgba(38, 64, 77, 0.5);}
	.st2{fill:#26404d;}
	.st3{fill:transparent;}
</style>
<g id="city-base">
	<polygon id="mountain" class="st0" points="1920,786.8 1832.2,702.9 1785.4,653.5 1719.5,723 1672.3,684.7 1593.7,620.9
		1526.8,675.2 1523.7,672.7 1487.3,702.3 1464.4,693.8 1403.3,707.7 1391.1,687.6 1373.5,667.3 1341.7,653.1 1317.8,620.4
		1285.1,642.5 1261.2,661.1 1242.1,686.8 1215,715.1 1196.6,719.7 1184,706.2 1142.5,685.9 1055.7,700.7 1018.8,709.9 983.8,668.8
		954.3,703.6 949.8,703.6 899.6,715.1 850.2,731 843.6,735 831.8,715.2 809.8,701.1 793.3,668.3 770.8,690.4 754.3,709 741.1,734.7
		722.4,763 709.6,767.7 700.9,754.2 672.3,733.8 639.2,742 613.7,731.3 602.5,731.3 588.3,747.1 546.1,728 490.6,710.8 464.2,734.4
		456.1,750.1 444.4,744.7 427.1,711.8 414.9,682 399.6,660.4 378.8,634.7 363.5,672.7 343.2,689.2 332,712.8 324.1,736.1 285.2,720
		270.5,729.8 247.3,695.4 245.3,698.3 202.6,635.2 152.4,709.4 122.3,753.9 80.2,673.2 50.3,730.5 0,827 0,1058.4 1920,1058.4 	"/>
	<path id="far-city" class="st1" d="M1920,907.7h-30.9v-16.1h-95.7v-28.8l-101.7,0.2v37.7l-76.8,2.9v-36.4l-15.1-11.4v-16.8h-14.5
		v16.8l-16.7,11.8v36h-43.1v-75.8h-103.3v75.8h-19.5v-10.1h-8.5v9.9h-10.7v-19.3h-26.8v18.8l-16.5-0.1v-42.2h-98.3v34.8h-50v-10.8
		h-16.8v9.9l-24.8,0.6v-16h-117.2V910h-85.7h-4.6v17.8h-12.5v-44.5l-17.2-7.2V928h-12.6v-67.4h-37.4V928h-10.1v-88.6h-69.7
		c0,25.8,0,51.5,0,77.3c0,1.1-8,0-8,0v-37.8l-31.1-14.1v39.8h-10.1v-91.4h-38.6v110.5h-11.9V819.4v-26.2h-55.1v25.6l-78.5,0.1v32.7
		l-5.5,0.1l0.2-44.1l-7.2,0v-7.1l-8-0.1v-15.1h-11.2v-11.8h-31.8v11.3H479v14.4h-5.4v8.7h-6.9v44.3h-23.3v-32.7h-21v14.8h-18.5
		v-21.8h-51.9v21.4l-22,0.1v-8h-16.4l0.4,26.2h-16.4v83.7l-12.2,0.3v-92.5l-97.8-17.7v87.5l-42.4,0.3v-26.8h-42V954H97V847.1H54.2
		v39.8H0v171.5h1920V907.7z"/>
	<path id="city" class="st2" d="M1229.6,960.7v-2.9h4.1v-3.1h3.6v-3.1h6.3V950h10v-35.6h24.2v-9.1h9.7v-6.2h1.5v6.3h1.8v-6.2h1.5
		v6.4h21.9v2.9h5.2v-6.9h2.8v12.8h8.8v70.8h7.2l1.4-1.4h24.9v10.4h3.7V956h7.4v-13.2h2.9v-6h6.8v-2.2h2v-5.3h1.5v-2.4l19.9-6
		l1.4,1.5l-3.8,2.6v12.5h8.6v4.2h2.8v3.9h2.3v1h4.6v2.4h3.3v33.1h3.7v-21.3h16.2v-26.4h53.1v12.4h2.2V820.2h8.5v-35.5h6.9v-48.9h40
		v48.9h6.9v35.5h8.2v104.6h5.5v22.8h2.2l-0.1,2.2h18.7v7.6l1.3-0.1V889l1.5-0.2v-4.3l1.5,0.1V874h11.9l3,0.9h7.5l6.5,4.3h1.7v-5.7
		h1.6v11.1h5.8v4.3h1.4v51.4h17.6v8.4h8.4v23.1h2.2v-35.2h19.7V935h21.1v-29.2h13.9v-3.7h7.8v3.4h14.3v-11.8l1.4,0.1v8.8l0.8,2.9
		h21.7v-32.2l1.2-5.9l1.7-5.4l1.2-5l2.5-6.3l1.3-5l2.1-5.4l2.3-30c-3.8-0.3-6.9-3.5-6.9-7.4c0-4.1,3.3-7.5,7.5-7.5
		c4.1,0,7.5,3.3,7.5,7.5c0,3.9-3,7.1-6.9,7.4l2,30.4l3.3,13l2.1,7.1l1.7,3.3v6.7l2.1,7.9l15.9,1.3v63.1h13v-24.7l4.6-4.2l0.8-9.6
		l8.8-9.2l8.4-0.4l4.6,11.7h4.2v-15h62.7v166.7H0v-79.1h42.6v-39.8h30.2v106.9h4.4v-67.1H107v26.8l29.9-0.3v-87.6l69.1,17.7v92.5
		l8.6-0.3v-83.7h11.6l-0.3-26.2h11.6v8l15.6-0.1v-21.4h36.6v21.8h13v-14.8h14.8v32.7h16.4v-44.3h4.9v-8.7h3.8v-14.4h5.6v-11.3h22.4
		v11.8h7.9v15.1l5.6,0.1v7.1l5.1,0l-0.2,44.1l3.9-0.1v-32.7l94.3,0.6V1016h8.4V905.5h27.3v91.4h7.1v-39.8l21.9,14.1v37.8
		c0,0,5.6,1.1,5.6,0c0-25.8,0-51.6,0-77.3h49.2v88.7h7.1V953h26.4v67.4h8.9v-51.9l12.1,7.2v44.5h11v-102h3.2l3.7,3.7v15.8h2.1v11.8
		h4v-10.3h5.5v-6.9H707v4.8l2.3,2.4h13.3v9.7h4.5v8.4h13.1v6.9h2.4v21.2h3v8.1h2.8v-29l2.1-4h5.9V949h14.1v12.3l3.5,3.5v28.1h6.1
		V898h45.4v107.4h1.5v-29.7h2.2v-18.5h1.8v-15.7h2.6v-6l3.1-2.7l3.9,2.6l11.5-29.3V900h1.5v-3h1.8v-9.5h1v9.3h1.3v3.5h1.5v6.6
		l10.9,28.7l3.4-3.5l4.1,4.1v6.3h1.4v14.7l1.2,1.2v17.5h2.6V990h8.8v-9.3h14.3v9.4h4.7v-4h3.1v4.2h3.3v2.3h5.8v-5.8h11.1v-2h4.6v2.1
		h1.1l0.2,1.5h7v-9.1h4.9l3.8-2.7l2.2,3.1h3.1v11.8h27v-9.4h4.5v-2h7.2v-7.3h9.9v7.3h5.5l3.5,1.8v6.5h5.2V973h-2.4v-3.1h4.5v-14.6
		h11.1V953h4.8v-10.8h19.6v11.2h4.4v2.5h1.4v-6.8h10.3l0.9,1.2v1.4l-0.9,0.9v2h1v1.6h-1.1v1.3h0.8v1.7h-1.3v12.1h4v-32.5h6.3v-8.7
		h3.3v-7.5h1.6v-6.7h1.2v-2.3h1.4V910l0.6-0.6v-1.6h4.9v1.8h2.6v4.6h0.8v2.6h1v5.8h1v7.7h3v8.8h6.5v9.2h3.7v-2.1h4.5v1.9h3.7v6.5
		h2.9v7.3L1229.6,960.7z"/>
</g>
<g id="city-light">
	<g id="lights">
		<g>
			<rect x="403" y="918.5" class="st3" width="73" height="4.6"/>
			<rect x="403" y="932.6" class="st3" width="73" height="4.6"/>
			<rect x="403" y="946.7" class="st3" width="73" height="4.6"/>
			<rect x="403" y="960.8" class="st3" width="73" height="4.6"/>
			<rect x="403" y="975" class="st3" width="73" height="4.6"/>
			<rect x="403" y="989.1" class="st3" width="73" height="4.6"/>
			<rect x="403" y="1003.2" class="st3" width="73" height="4.6"/>
			<rect x="437.6" y="1017.3" class="st3" width="38.4" height="4.6"/>
		</g>
		<g>
			<rect x="1262" y="925.5" class="st3" width="63" height="4.6"/>
			<rect x="1262" y="939.6" class="st3" width="63" height="4.6"/>
			<rect x="1262" y="953.7" class="st3" width="63" height="4.6"/>
			<rect x="1262" y="967.8" class="st3" width="63" height="4.6"/>
			<rect x="1262" y="982" class="st3" width="63" height="4.6"/>
			<rect x="1262" y="996.1" class="st3" width="63" height="4.6"/>
			<rect x="1262" y="1010.2" class="st3" width="63" height="4.6"/>
			<rect x="1291.9" y="1024.3" class="st3" width="33.2" height="4.6"/>
		</g>
		<g>
			<rect x="147" y="942.5" class="st3" width="51" height="4.6"/>
			<rect x="147" y="956.6" class="st3" width="51" height="4.6"/>
			<rect x="147" y="970.7" class="st3" width="51" height="4.6"/>
			<rect x="147" y="984.8" class="st3" width="51" height="4.6"/>
			<rect x="147" y="999" class="st3" width="51" height="4.6"/>
			<rect x="147" y="1013.1" class="st3" width="51" height="4.6"/>
			<rect x="147" y="1027.2" class="st3" width="51" height="4.6"/>
			<rect x="171.2" y="1041.3" class="st3" width="26.8" height="4.6"/>
		</g>
		<rect x="1520.9" y="791" class="st3" width="5" height="5"/>
		<rect x="1531.2" y="791" class="st3" width="5" height="5"/>
		<rect x="1549.7" y="850" class="st3" width="5" height="5"/>
		<rect x="1813.8" y="1004.1" class="st3" width="4.2" height="4.2"/>
		<rect x="1503.7" y="974.6" class="st3" width="5" height="5"/>
		<rect x="1541" y="953.8" class="st3" width="5" height="5"/>
		<rect x="1590.9" y="984.8" class="st3" width="5" height="5"/>
		<rect x="1590.9" y="994.3" class="st3" width="5" height="5"/>
		<rect x="1629.4" y="1017.6" class="st3" width="5" height="5"/>
		<rect x="1599.1" y="1033.4" class="st3" width="5" height="5"/>
		<rect x="1531.2" y="814.6" class="st3" width="5" height="5"/>
		<rect x="1541.4" y="814.6" class="st3" width="5" height="5"/>
		<rect x="1551.7" y="814.6" class="st3" width="5" height="5"/>
		<rect x="1561" y="831.4" class="st3" width="5" height="5"/>
		<rect x="1525.4" y="854.8" class="st3" width="5" height="5"/>
		<rect x="1515.5" y="913.6" class="st3" width="5" height="5"/>
		<rect x="1538.9" y="890.6" class="st3" width="5" height="5"/>
		<rect x="1538.9" y="901.2" class="st3" width="5" height="5"/>
		<rect x="1549.2" y="890.6" class="st3" width="5" height="5"/>
		<rect x="1559.4" y="890.6" class="st3" width="5" height="5"/>
		<rect x="787.7" y="905.9" class="st3" width="3.5" height="3.5"/>
		<rect x="794.4" y="905.9" class="st3" width="3.5" height="3.5"/>
		<rect x="809.8" y="917.5" class="st3" width="3.5" height="3.5"/>
		<rect x="842.2" y="958.5" class="st3" width="3.5" height="3.5"/>
		<rect x="848.8" y="958.5" class="st3" width="3.5" height="3.5"/>
		<rect x="870.5" y="975.2" class="st3" width="3.5" height="3.5"/>
		<rect x="863.8" y="975.2" class="st3" width="3.5" height="3.5"/>
		<rect x="794.4" y="934.2" class="st3" width="3.5" height="3.5"/>
		<rect x="851.1" y="986.4" class="st3" width="3.5" height="3.5"/>
		<rect x="851.1" y="992.5" class="st3" width="3.5" height="3.5"/>
		<rect x="864.3" y="1010.8" class="st3" width="3.5" height="3.5"/>
		<rect x="851.1" y="1023.6" class="st3" width="3.5" height="3.5"/>
		<rect x="857.3" y="1023.6" class="st3" width="3.5" height="3.5"/>
		<rect x="835.5" y="1001.1" class="st3" width="3.5" height="3.5"/>
		<rect x="865.6" y="946.9" class="st3" width="3.5" height="3.5"/>
		<rect x="844.6" y="986.4" class="st3" width="3.5" height="3.5"/>
		<rect x="835.5" y="964.6" class="st3" width="3.5" height="3.5"/>
		<rect x="237.9" y="944.3" class="st3" width="13.7" height="4.2"/>
		<rect x="237.9" y="952.6" class="st3" width="13.7" height="4.2"/>
		<rect x="258.3" y="969.9" class="st3" width="13.7" height="4.2"/>
		<rect x="305.4" y="959.3" class="st3" width="13.7" height="4.2"/>
		<rect x="280.8" y="994" class="st3" width="13.7" height="4.2"/>
		<rect x="248.1" y="1010.3" class="st3" width="13.7" height="4.2"/>
		<rect x="277.8" y="1032.2" class="st3" width="13.7" height="4.2"/>
		<rect x="259.3" y="1032" class="st3" width="13.7" height="4.2"/>
		<rect x="271.9" y="944.3" class="st3" width="13.7" height="4.2"/>
		<rect x="565.7" y="937.8" class="st3" width="16.2" height="2.5"/>
		<rect x="565.7" y="946.3" class="st3" width="23.1" height="2.5"/>
		<rect x="571" y="954.7" class="st3" width="27" height="2.5"/>
		<rect x="583.9" y="963.1" class="st3" width="14.1" height="2.5"/>
		<rect x="570" y="971.6" class="st3" width="22.1" height="2.5"/>
		<rect x="565.7" y="980" class="st3" width="18.2" height="2.5"/>
		<rect x="569.4" y="996.9" class="st3" width="14.5" height="2.5"/>
		<rect x="565.7" y="1005.3" class="st3" width="25.3" height="2.5"/>
		<rect x="565.7" y="1022.1" class="st3" width="20.5" height="2.5"/>
		<rect x="565.7" y="1030.6" class="st3" width="20.5" height="2.5"/>
		<rect x="572.2" y="1046.9" class="st3" width="10" height="2.5"/>
		<rect x="1728.7" y="922" class="st3" width="9.2" height="4.2"/>
		<rect x="1740" y="922" class="st3" width="9.2" height="4.2"/>
		<rect x="1729.7" y="973.6" class="st3" width="9.2" height="4.2"/>
		<rect x="1765.9" y="1006.2" class="st3" width="9.2" height="4.2"/>
		<rect x="1728.7" y="1023.6" class="st3" width="9.2" height="4.2"/>
		<rect x="1740.4" y="1023.6" class="st3" width="9.2" height="4.2"/>
		<rect x="1752.1" y="973.6" class="st3" width="9.2" height="4.2"/>
		<rect x="1777.2" y="922" class="st3" width="9.2" height="4.2"/>
		<rect x="1770.5" y="940.8" class="st3" width="9.2" height="4.2"/>
		<rect x="1752.1" y="952.1" class="st3" width="9.2" height="4.2"/>
		<rect x="1781.8" y="940.8" class="st3" width="9.2" height="4.2"/>
		<rect x="1087.8" y="950.8" class="st3" width="5" height="5"/>
		<rect x="1103" y="958.4" class="st3" width="5" height="5"/>
	</g>
</g>
<g id="stars">
	<g id="stars-group">
		<g>
			<circle class="st3" cx="86.4" cy="160" r="1.4"/>
			<circle class="st3" cx="286.3" cy="453.5" r="2.2"/>
			<circle class="st3" cx="268.2" cy="196.7" r="2.3"/>
			<circle class="st3" cx="222.2" cy="94.9" r="1.4"/>
			<circle class="st3" cx="369.8" cy="323.6" r="1.4"/>
			<circle class="st3" cx="491" cy="193" r="1.4"/>
			<circle class="st3" cx="577.4" cy="259.9" r="1.4"/>
			<circle class="st3" cx="733.6" cy="113.7" r="2.1"/>
			<circle class="st3" cx="780.4" cy="252.7" r="1.4"/>
			<circle class="st3" cx="962.3" cy="224.5" r="1.4"/>
			<circle class="st3" cx="1121.3" cy="415" r="2.3"/>
			<circle class="st3" cx="1211.1" cy="550.4" r="1.4"/>
			<circle class="st3" cx="1212.6" cy="261.4" r="1.4"/>
			<circle class="st3" cx="1304.6" cy="339.6" r="1.4"/>
			<circle class="st3" cx="1303.1" cy="134.3" r="2.4"/>
			<circle class="st3" cx="994" cy="112.2" r="1.4"/>
			<circle class="st3" cx="1141.4" cy="64.4" r="1.4"/>
			<circle class="st3" cx="491" cy="81.8" r="1.4"/>
			<circle class="st3" cx="85" cy="420.6" r="1.4"/>
			<circle class="st3" cx="218.4" cy="296.5" r="1.4"/>
		</g>
		<g>
			<circle class="st3" cx="632.4" cy="238" r="1.4"/>
			<circle class="st3" cx="832.3" cy="531.5" r="2.2"/>
			<circle class="st3" cx="814.2" cy="274.7" r="2.3"/>
			<circle class="st3" cx="768.2" cy="172.9" r="1.4"/>
			<circle class="st3" cx="915.8" cy="401.6" r="1.4"/>
			<circle class="st3" cx="1037" cy="271" r="1.4"/>
			<circle class="st3" cx="1123.4" cy="337.9" r="1.4"/>
			<circle class="st3" cx="1279.6" cy="191.7" r="2.1"/>
			<circle class="st3" cx="1326.4" cy="330.7" r="1.4"/>
			<circle class="st3" cx="1508.3" cy="302.5" r="1.4"/>
			<circle class="st3" cx="1667.3" cy="493" r="2.3"/>
			<circle class="st3" cx="1757.1" cy="628.4" r="1.4"/>
			<circle class="st3" cx="1758.6" cy="339.4" r="1.4"/>
			<circle class="st3" cx="1850.6" cy="417.6" r="1.4"/>
			<circle class="st3" cx="1849.1" cy="212.3" r="2.4"/>
			<circle class="st3" cx="1540" cy="190.2" r="1.4"/>
			<circle class="st3" cx="1687.4" cy="142.4" r="1.4"/>
			<circle class="st3" cx="1037" cy="159.8" r="1.4"/>
			<circle class="st3" cx="631" cy="498.6" r="1.4"/>
			<circle class="st3" cx="764.4" cy="374.5" r="1.4"/>
		</g>
		<g>
			<circle class="st3" cx="1765.6" cy="128.5" r="1.9"/>
			<circle class="st3" cx="1500.9" cy="517.1" r="2.9"/>
			<circle class="st3" cx="1524.9" cy="177.1" r="3"/>
			<circle class="st3" cx="1585.8" cy="42.2" r="1.9"/>
			<circle class="st3" cx="1390.3" cy="345.2" r="1.9"/>
			<circle class="st3" cx="1229.9" cy="172.1" r="1.9"/>
			<circle class="st3" cx="1115.4" cy="260.8" r="1.9"/>
			<circle class="st3" cx="908.5" cy="67.1" r="2.8"/>
			<circle class="st3" cx="846.6" cy="251.2" r="1.9"/>
			<circle class="st3" cx="605.7" cy="213.8" r="1.9"/>
			<circle class="st3" cx="395.1" cy="466.2" r="3"/>
			<circle class="st3" cx="276.2" cy="645.5" r="1.9"/>
			<circle class="st3" cx="274.3" cy="262.7" r="1.9"/>
			<circle class="st3" cx="152.5" cy="366.3" r="1.9"/>
			<circle class="st3" cx="154.4" cy="94.5" r="3.2"/>
			<circle class="st3" cx="563.7" cy="65.2" r="1.9"/>
			<circle class="st3" cx="368.5" cy="1.9" r="1.9"/>
			<circle class="st3" cx="1229.9" cy="24.9" r="1.9"/>
			<circle class="st3" cx="1767.5" cy="473.6" r="1.9"/>
			<circle class="st3" cx="1590.9" cy="309.2" r="1.9"/>
		</g>
	</g>
</g>
</svg>
