<?xml version="1.0" encoding="utf-8"?>
<!-- Generator: Adobe Illustrator 21.1.0, SVG Export Plug-In . SVG Version: 6.00 Build 0)  -->
<svg version="1.1" id="Layer_1" xmlns="http://www.w3.org/2000/svg" xmlns:xlink="http://www.w3.org/1999/xlink" x="0px" y="0px"
	 viewBox="0 0 96.7 53.7" style="enable-background:new 0 0 96.7 53.7;" xml:space="preserve">
<style type="text/css">
	.st0{fill:#C3D82E;}
	.st1{fill-rule:evenodd;clip-rule:evenodd;fill:#6D6E70;}
	.st2{fill-rule:evenodd;clip-rule:evenodd;fill:#FFFFFF;}
</style>
<rect y="25" class="st0" width="96.7" height="10"/>
<path class="st1" d="M0.2,40.4c0-1,0.3-1.8,0.8-2.4c0.5-0.6,1.2-0.9,2.1-0.9c0.6,0,1.1,0.1,1.5,0.4c0.5,0.3,0.8,0.6,1,1.1
	c0.2,0.5,0.4,1,0.4,1.6c0,0.6-0.1,1.2-0.4,1.7C5.4,42.4,5,42.8,4.6,43c-0.5,0.2-1,0.4-1.5,0.4c-0.6,0-1.1-0.1-1.5-0.4
	c-0.5-0.3-0.8-0.7-1-1.1C0.3,41.4,0.2,40.9,0.2,40.4 M1,40.4c0,0.7,0.2,1.3,0.6,1.7c0.4,0.4,0.9,0.6,1.5,0.6c0.6,0,1.1-0.2,1.5-0.6
	c0.4-0.4,0.6-1,0.6-1.8c0-0.5-0.1-0.9-0.3-1.3c-0.2-0.4-0.4-0.7-0.7-0.9c-0.3-0.2-0.7-0.3-1.1-0.3c-0.6,0-1.1,0.2-1.5,0.6
	C1.2,38.8,1,39.5,1,40.4"/>
<path class="st1" d="M7.5,43.3v-4.4h0.7v0.6c0.3-0.5,0.8-0.7,1.4-0.7c0.3,0,0.5,0,0.7,0.1c0.2,0.1,0.4,0.2,0.5,0.4
	c0.1,0.2,0.2,0.3,0.2,0.5c0,0.1,0,0.4,0,0.7v2.7h-0.8v-2.7c0-0.3,0-0.5-0.1-0.7c-0.1-0.1-0.2-0.3-0.3-0.4c-0.1-0.1-0.3-0.1-0.5-0.1
	c-0.3,0-0.6,0.1-0.8,0.3c-0.2,0.2-0.3,0.6-0.3,1.1v2.4H7.5z"/>
<path class="st1" d="M12.5,41.1c0-0.8,0.2-1.4,0.7-1.8c0.4-0.3,0.8-0.5,1.4-0.5c0.6,0,1.1,0.2,1.5,0.6c0.4,0.4,0.6,0.9,0.6,1.6
	c0,0.6-0.1,1-0.3,1.3c-0.2,0.3-0.4,0.6-0.7,0.8c-0.3,0.2-0.7,0.3-1.1,0.3c-0.6,0-1.1-0.2-1.5-0.6C12.7,42.4,12.5,41.9,12.5,41.1
	 M13.3,41.1c0,0.6,0.1,1,0.4,1.3c0.2,0.3,0.6,0.4,0.9,0.4c0.4,0,0.7-0.1,0.9-0.4c0.2-0.3,0.4-0.7,0.4-1.3c0-0.5-0.1-1-0.4-1.2
	c-0.2-0.3-0.6-0.4-0.9-0.4c-0.4,0-0.7,0.1-0.9,0.4C13.4,40.1,13.3,40.6,13.3,41.1"/>
<path class="st1" d="M20,43.3l2.3-6.1h0.9l2.5,6.1h-0.9l-0.7-1.8h-2.6l-0.7,1.8H20z M21.8,40.8h2.1l-0.6-1.7
	c-0.2-0.5-0.3-0.9-0.4-1.3c-0.1,0.4-0.2,0.8-0.3,1.2L21.8,40.8z"/>
<path class="st1" d="M29.7,41.7l0.7,0.1c-0.1,0.5-0.3,0.9-0.6,1.2c-0.3,0.3-0.7,0.4-1.2,0.4c-0.6,0-1.1-0.2-1.5-0.6
	c-0.4-0.4-0.5-1-0.5-1.7c0-0.5,0.1-0.9,0.2-1.2c0.2-0.4,0.4-0.6,0.7-0.8c0.3-0.2,0.7-0.3,1.1-0.3c0.5,0,0.9,0.1,1.2,0.4
	c0.3,0.2,0.5,0.6,0.6,1l-0.7,0.1c-0.1-0.3-0.2-0.5-0.4-0.7c-0.2-0.1-0.4-0.2-0.6-0.2c-0.4,0-0.7,0.1-0.9,0.4
	c-0.2,0.3-0.4,0.7-0.4,1.3c0,0.6,0.1,1,0.3,1.3c0.2,0.3,0.5,0.4,0.9,0.4c0.3,0,0.5-0.1,0.7-0.3C29.5,42.4,29.6,42.1,29.7,41.7"/>
<path class="st1" d="M34.5,42.8c-0.3,0.2-0.5,0.4-0.8,0.5c-0.3,0.1-0.5,0.1-0.8,0.1c-0.5,0-0.9-0.1-1.1-0.4
	c-0.3-0.2-0.4-0.5-0.4-0.9c0-0.2,0-0.4,0.1-0.6c0.1-0.2,0.2-0.3,0.4-0.4c0.2-0.1,0.3-0.2,0.5-0.2c0.1,0,0.4-0.1,0.7-0.1
	c0.6-0.1,1.1-0.2,1.3-0.3c0-0.1,0-0.2,0-0.2c0-0.3-0.1-0.5-0.2-0.6c-0.2-0.2-0.5-0.3-0.9-0.3c-0.4,0-0.6,0.1-0.8,0.2
	c-0.2,0.1-0.3,0.3-0.4,0.7l-0.7-0.1c0.1-0.3,0.2-0.6,0.3-0.8c0.2-0.2,0.4-0.3,0.7-0.4c0.3-0.1,0.6-0.2,1-0.2s0.7,0,0.9,0.1
	c0.2,0.1,0.4,0.2,0.5,0.3c0.1,0.1,0.2,0.3,0.2,0.5c0,0.1,0,0.4,0,0.7v1c0,0.7,0,1.1,0,1.3c0,0.2,0.1,0.4,0.2,0.5h-0.8
	C34.6,43.2,34.5,43,34.5,42.8 M34.4,41.1c-0.3,0.1-0.7,0.2-1.2,0.3c-0.3,0-0.5,0.1-0.7,0.1c-0.1,0.1-0.2,0.1-0.3,0.2
	c-0.1,0.1-0.1,0.2-0.1,0.4c0,0.2,0.1,0.4,0.2,0.5c0.2,0.1,0.4,0.2,0.7,0.2c0.3,0,0.5-0.1,0.8-0.2s0.4-0.3,0.5-0.5
	c0.1-0.2,0.1-0.4,0.1-0.7L34.4,41.1z"/>
<path class="st1" d="M39.8,43.3v-0.6c-0.3,0.4-0.7,0.7-1.2,0.7c-0.4,0-0.7-0.1-1-0.3c-0.3-0.2-0.5-0.5-0.7-0.8
	c-0.2-0.3-0.2-0.7-0.2-1.2c0-0.4,0.1-0.8,0.2-1.2c0.1-0.4,0.4-0.6,0.7-0.8c0.3-0.2,0.6-0.3,1-0.3c0.3,0,0.5,0.1,0.7,0.2
	c0.2,0.1,0.4,0.3,0.5,0.4v-2.2h0.8v6.1H39.8z M37.4,41.1c0,0.6,0.1,1,0.4,1.3c0.2,0.3,0.5,0.4,0.8,0.4c0.3,0,0.6-0.1,0.8-0.4
	c0.2-0.3,0.3-0.7,0.3-1.2c0-0.6-0.1-1-0.3-1.3c-0.2-0.3-0.5-0.4-0.9-0.4c-0.3,0-0.6,0.1-0.8,0.4C37.5,40.1,37.4,40.5,37.4,41.1"/>
<path class="st1" d="M45.2,41.9L46,42c-0.1,0.5-0.3,0.8-0.7,1c-0.3,0.2-0.7,0.4-1.3,0.4c-0.6,0-1.2-0.2-1.5-0.6
	c-0.4-0.4-0.6-1-0.6-1.7c0-0.7,0.2-1.3,0.6-1.7c0.4-0.4,0.9-0.6,1.5-0.6c0.6,0,1.1,0.2,1.4,0.6c0.4,0.4,0.6,1,0.6,1.7
	c0,0,0,0.1,0,0.2h-3.3c0,0.5,0.2,0.9,0.4,1.1c0.2,0.3,0.6,0.4,0.9,0.4c0.3,0,0.5-0.1,0.7-0.2C45,42.4,45.1,42.2,45.2,41.9
	 M42.8,40.7h2.5c0-0.4-0.1-0.6-0.3-0.8c-0.2-0.3-0.5-0.4-0.9-0.4c-0.3,0-0.6,0.1-0.9,0.3C42.9,40,42.8,40.3,42.8,40.7"/>
<path class="st1" d="M47.5,43.3v-4.4h0.7v0.6c0.1-0.2,0.3-0.4,0.6-0.5c0.2-0.1,0.5-0.2,0.8-0.2c0.3,0,0.6,0.1,0.8,0.2
	c0.2,0.1,0.4,0.3,0.4,0.6c0.4-0.5,0.8-0.8,1.4-0.8c0.4,0,0.8,0.1,1,0.4c0.2,0.2,0.4,0.6,0.4,1.1v3h-0.7v-2.8c0-0.3,0-0.5-0.1-0.6
	c0-0.1-0.1-0.2-0.3-0.3c-0.1-0.1-0.3-0.1-0.5-0.1c-0.3,0-0.6,0.1-0.8,0.3c-0.2,0.2-0.3,0.5-0.3,1v2.6h-0.7v-2.9
	c0-0.3-0.1-0.6-0.2-0.7c-0.1-0.2-0.3-0.2-0.6-0.2c-0.2,0-0.4,0.1-0.6,0.2c-0.2,0.1-0.3,0.3-0.4,0.5c-0.1,0.2-0.1,0.5-0.1,0.9v2.3
	H47.5z"/>
<path class="st1" d="M55.2,37.2h0.8v0.9h-0.8V37.2z M55.2,38.9h0.8v4.4h-0.8V38.9z"/>
<path class="st1" d="M60.5,41.7l0.7,0.1c-0.1,0.5-0.3,0.9-0.6,1.2c-0.3,0.3-0.7,0.4-1.2,0.4c-0.6,0-1.1-0.2-1.5-0.6
	c-0.4-0.4-0.5-1-0.5-1.7c0-0.5,0.1-0.9,0.2-1.2c0.2-0.4,0.4-0.6,0.7-0.8c0.3-0.2,0.7-0.3,1.1-0.3c0.5,0,0.9,0.1,1.2,0.4
	c0.3,0.2,0.5,0.6,0.6,1l-0.7,0.1c-0.1-0.3-0.2-0.5-0.4-0.7c-0.2-0.1-0.4-0.2-0.6-0.2c-0.4,0-0.7,0.1-0.9,0.4
	c-0.2,0.3-0.4,0.7-0.4,1.3c0,0.6,0.1,1,0.3,1.3c0.2,0.3,0.5,0.4,0.9,0.4c0.3,0,0.5-0.1,0.7-0.3C60.3,42.4,60.5,42.1,60.5,41.7"/>
<path class="st1" d="M69.8,41.2l0.8,0.2c-0.2,0.7-0.5,1.2-0.9,1.5c-0.4,0.3-1,0.5-1.6,0.5c-0.7,0-1.2-0.1-1.6-0.4
	c-0.4-0.3-0.7-0.7-0.9-1.2c-0.2-0.5-0.3-1.1-0.3-1.6c0-0.6,0.1-1.2,0.4-1.7c0.2-0.5,0.6-0.8,1-1.1s0.9-0.4,1.5-0.4
	c0.6,0,1.1,0.2,1.5,0.5c0.4,0.3,0.7,0.7,0.9,1.3l-0.8,0.2c-0.1-0.4-0.3-0.8-0.6-1c-0.3-0.2-0.6-0.3-1-0.3c-0.5,0-0.9,0.1-1.2,0.3
	c-0.3,0.2-0.5,0.5-0.7,0.9c-0.1,0.4-0.2,0.8-0.2,1.2c0,0.5,0.1,1,0.2,1.4c0.2,0.4,0.4,0.7,0.7,0.9c0.3,0.2,0.7,0.3,1,0.3
	c0.5,0,0.8-0.1,1.1-0.4C69.5,42.1,69.7,41.7,69.8,41.2"/>
<path class="st1" d="M71.8,41.1c0-0.8,0.2-1.4,0.7-1.8c0.4-0.3,0.8-0.5,1.4-0.5c0.6,0,1.1,0.2,1.5,0.6c0.4,0.4,0.6,0.9,0.6,1.6
	c0,0.6-0.1,1-0.3,1.3c-0.2,0.3-0.4,0.6-0.7,0.8c-0.3,0.2-0.7,0.3-1.1,0.3c-0.6,0-1.1-0.2-1.5-0.6C72,42.4,71.8,41.9,71.8,41.1
	 M72.5,41.1c0,0.6,0.1,1,0.4,1.3c0.2,0.3,0.6,0.4,0.9,0.4c0.4,0,0.7-0.1,0.9-0.4c0.2-0.3,0.4-0.7,0.4-1.3c0-0.5-0.1-1-0.4-1.2
	c-0.2-0.3-0.6-0.4-0.9-0.4c-0.4,0-0.7,0.1-0.9,0.4C72.7,40.1,72.5,40.6,72.5,41.1"/>
<rect x="77.3" y="37.2" class="st1" width="0.7" height="6.1"/>
<rect x="79.8" y="37.2" class="st1" width="0.7" height="6.1"/>
<path class="st1" d="M85.3,41.9L86,42c-0.1,0.5-0.3,0.8-0.7,1c-0.3,0.2-0.7,0.4-1.3,0.4c-0.6,0-1.2-0.2-1.5-0.6
	c-0.4-0.4-0.6-1-0.6-1.7c0-0.7,0.2-1.3,0.6-1.7c0.4-0.4,0.9-0.6,1.5-0.6c0.6,0,1.1,0.2,1.4,0.6c0.4,0.4,0.6,1,0.6,1.7
	c0,0,0,0.1,0,0.2h-3.3c0,0.5,0.2,0.9,0.4,1.1c0.2,0.3,0.6,0.4,0.9,0.4c0.3,0,0.5-0.1,0.7-0.2C85,42.4,85.2,42.2,85.3,41.9
	 M82.8,40.7h2.5c0-0.4-0.1-0.6-0.3-0.8c-0.2-0.3-0.5-0.4-0.9-0.4c-0.3,0-0.6,0.1-0.9,0.3C83,40,82.8,40.3,82.8,40.7"/>
<path class="st1" d="M87.4,43.7l0.7,0.1c0,0.2,0.1,0.4,0.3,0.5c0.2,0.1,0.4,0.2,0.8,0.2c0.3,0,0.6-0.1,0.8-0.2
	c0.2-0.1,0.3-0.3,0.4-0.6c0-0.2,0.1-0.5,0.1-1c-0.3,0.4-0.7,0.6-1.2,0.6c-0.6,0-1.1-0.2-1.4-0.7c-0.3-0.4-0.5-1-0.5-1.6
	c0-0.4,0.1-0.8,0.2-1.2c0.2-0.4,0.4-0.6,0.7-0.8c0.3-0.2,0.6-0.3,1-0.3c0.5,0,1,0.2,1.3,0.6v-0.5h0.7v3.8c0,0.7-0.1,1.2-0.2,1.5
	c-0.1,0.3-0.4,0.5-0.7,0.7c-0.3,0.2-0.7,0.3-1.1,0.3c-0.5,0-1-0.1-1.3-0.4C87.6,44.5,87.4,44.2,87.4,43.7 M88,41
	c0,0.6,0.1,1,0.3,1.3c0.2,0.3,0.5,0.4,0.9,0.4c0.3,0,0.6-0.1,0.9-0.4c0.2-0.3,0.4-0.7,0.4-1.2c0-0.5-0.1-0.9-0.4-1.2
	c-0.2-0.3-0.5-0.4-0.9-0.4c-0.3,0-0.6,0.1-0.8,0.4C88.1,40.1,88,40.5,88,41"/>
<path class="st1" d="M95.9,41.9l0.8,0.1c-0.1,0.5-0.3,0.8-0.7,1c-0.3,0.2-0.8,0.4-1.3,0.4c-0.6,0-1.2-0.2-1.5-0.6
	c-0.4-0.4-0.6-1-0.6-1.7c0-0.7,0.2-1.3,0.6-1.7c0.4-0.4,0.9-0.6,1.5-0.6c0.6,0,1.1,0.2,1.4,0.6c0.4,0.4,0.6,1,0.6,1.7
	c0,0,0,0.1,0,0.2h-3.3c0,0.5,0.2,0.9,0.4,1.1c0.2,0.3,0.6,0.4,0.9,0.4c0.3,0,0.5-0.1,0.7-0.2C95.6,42.4,95.8,42.2,95.9,41.9
	 M93.4,40.7h2.5c0-0.4-0.1-0.6-0.3-0.8c-0.2-0.3-0.5-0.4-0.9-0.4c-0.3,0-0.6,0.1-0.9,0.3C93.6,40,93.4,40.3,93.4,40.7"/>
<path class="st1" d="M43.7,6.4h2.1v3c0.9-1.1,1.8-2,2.8-2.5c1-0.6,2.2-0.8,3.4-0.8c1.2,0,2.4,0.3,3.3,0.9c1,0.6,1.7,1.5,2.1,2.5
	c0.5,1.1,0.7,2.7,0.7,5V23h-2.1v-7.9c0-1.9-0.1-3.2-0.2-3.8c-0.3-1.1-0.7-1.9-1.4-2.5C53.7,8.3,52.8,8,51.7,8
	c-1.3,0-2.5,0.4-3.5,1.3c-1,0.9-1.7,1.9-2,3.2c-0.2,0.8-0.3,2.3-0.3,4.5V23h-2.1V6.4z"/>
<path class="st1" d="M69.6,6c2.6,0,4.7,0.9,6.4,2.8c1.5,1.7,2.3,3.7,2.3,6c0,2.3-0.8,4.3-2.4,6.1c-1.6,1.7-3.7,2.6-6.2,2.6
	c-2.6,0-4.6-0.9-6.3-2.6c-1.6-1.7-2.4-3.8-2.4-6.1c0-2.3,0.8-4.3,2.3-6C64.9,6.9,67,6,69.6,6 M69.6,8.1c-1.8,0-3.3,0.7-4.6,2
	c-1.3,1.3-1.9,2.9-1.9,4.7c0,1.2,0.3,2.3,0.9,3.3c0.6,1,1.4,1.8,2.4,2.4c1,0.6,2.1,0.8,3.3,0.8c1.2,0,2.3-0.3,3.3-0.8
	c1-0.6,1.8-1.4,2.4-2.4c0.6-1,0.9-2.2,0.9-3.3c0-1.9-0.6-3.4-1.9-4.7C72.9,8.8,71.3,8.1,69.6,8.1"/>
<path class="st0" d="M22.3,4.8l12.1,7.1l-12,7.1c0,0-0.4-0.4-0.7-0.7C18.1,14,18.3,8.6,22.3,4.8"/>
<path class="st1" d="M24.1,3.5c-0.6,0.4-1.2,0.8-1.7,1.3l-2.3-1.2c0,0,0.9-1,2.7-2c1.8-1,3.8-1.6,5.8-1.6c3.4,0,6.2,1.1,8.5,3.4
	c2.3,2.3,3.4,5.1,3.4,8.4c0,3.3-1.1,6.1-3.4,8.4c-2.3,2.3-5.1,3.4-8.4,3.4c-3.3,0-5.9-0.9-8.4-3.4l2-1.2c1.9,1.6,3.9,2.4,6.4,2.4
	c1.7,0,3.4-0.4,4.8-1.3c1.5-0.8,2.6-2,3.5-3.5c0.8-1.5,1.2-3.1,1.2-4.9c0-1.8-0.4-3.4-1.2-4.8c-0.8-1.4-2-2.6-3.5-3.5
	c-1.5-0.9-3.1-1.3-4.8-1.3C27.1,2.2,25.6,2.6,24.1,3.5"/>
<path class="st2" d="M5.2,32.8c0,0.2-0.1,0.3-0.2,0.5c-0.1,0.2-0.3,0.2-0.5,0.2c-0.2,0-0.3-0.1-0.5-0.2c-0.2-0.1-0.3-0.3-0.3-0.4
	v-5.3c0-0.2,0.1-0.3,0.2-0.4C4.1,27.1,4.3,27,4.5,27c0.2,0,0.3,0.1,0.5,0.2c0.1,0.1,0.2,0.3,0.2,0.5V32.8z"/>
<path class="st2" d="M9,32.5c0,0.4-0.1,0.7-0.4,0.9c-0.2,0.2-0.6,0.2-1,0.2c-0.5,0-0.9-0.1-1.2-0.4c-0.1-0.1-0.1-0.2-0.1-0.4
	c0-0.2,0.2-0.5,0.6-0.7c0.2-0.1,0.3-0.2,0.4-0.2c0.1-0.1,0.2-0.2,0.2-0.4v-2.9c0-0.1-0.1-0.2-0.2-0.2c-0.1,0-0.2-0.1-0.3-0.1
	c-0.4-0.2-0.6-0.4-0.6-0.7c0-0.1,0.1-0.3,0.2-0.4C6.6,27.1,6.8,27,6.9,27c0.2,0,0.4,0.1,0.5,0.2c0,0.1,0.1,0.2,0.2,0.5
	c0.1,0.2,0.2,0.3,0.3,0.4c0.2,0.1,0.4,0.2,0.6,0.2c0.2,0.1,0.3,0.2,0.4,0.4C9,28.9,9,29.1,9,29.3V32.5z"/>
<path class="st2" d="M11.6,32.8c0,0.2-0.1,0.3-0.2,0.5c-0.1,0.2-0.3,0.2-0.5,0.2c-0.2,0-0.3-0.1-0.5-0.2c-0.2-0.1-0.3-0.3-0.3-0.4
	v-5.3c0-0.2,0.1-0.3,0.2-0.4c0.2-0.1,0.3-0.2,0.5-0.2c0.2,0,0.3,0.1,0.5,0.2c0.1,0.1,0.2,0.3,0.2,0.5V32.8z"/>
<path class="st2" d="M18.1,32.8c0,0.2-0.1,0.3-0.2,0.5c-0.1,0.2-0.3,0.2-0.5,0.2c-0.2,0-0.3-0.1-0.5-0.2c-0.2-0.1-0.3-0.3-0.3-0.4
	v-1.3c0,0,0-0.2-0.1-0.3c-0.1-0.1-0.1-0.2-0.2-0.2h-1.8l-0.2,0.1l-0.1,0.2v1.2l0,0.1l-0.1,0.1c0,0.1-0.1,0.2-0.1,0.3
	c-0.1,0.2-0.3,0.3-0.6,0.3c-0.1,0-0.3-0.1-0.4-0.2c-0.2-0.1-0.2-0.3-0.2-0.4v-1.4c0-0.2,0.2-0.4,0.5-0.6c0.1,0,0.2-0.1,0.3-0.1
	c0.2-0.1,0.2-0.2,0.2-0.2V30c0-0.1-0.1-0.2-0.2-0.2c-0.1,0-0.2-0.1-0.3-0.1c-0.4-0.2-0.5-0.3-0.5-0.6v-1.4c0-0.2,0.1-0.3,0.2-0.4
	c0.1-0.1,0.3-0.2,0.5-0.2c0.2,0,0.4,0.1,0.5,0.3c0.1,0.2,0.2,0.4,0.2,0.6c0,0,0,0.1,0,0.2l0,0.7c0,0.1,0,0.2,0,0.2l0.1,0.2l0.2,0.1
	h1.7c0.1,0,0.2-0.1,0.2-0.2c0.1-0.1,0.1-0.2,0.1-0.3v-1.3c0-0.2,0.1-0.3,0.2-0.4c0.2-0.1,0.3-0.2,0.5-0.2c0.2,0,0.3,0.1,0.5,0.2
	c0.1,0.2,0.2,0.3,0.2,0.5v1c0,0.3-0.1,0.5-0.3,0.6c-0.1,0.1-0.3,0.2-0.6,0.3c-0.2,0.1-0.3,0.3-0.3,0.5c0,0.2,0.1,0.4,0.3,0.5
	c0.2,0.1,0.4,0.2,0.6,0.3c0.2,0.1,0.3,0.4,0.3,0.6V32.8z"/>
<path class="st2" d="M28.5,32.7c0,0.2-0.1,0.4-0.2,0.5c-0.2,0.1-0.3,0.2-0.5,0.2c-0.2,0-0.4-0.1-0.6-0.3c-0.1-0.2-0.2-0.4-0.2-0.6
	v-3.8c0-0.1-0.1-0.1-0.2-0.2c-0.1-0.1-0.2-0.1-0.2-0.1h-1.3c-0.2,0-0.4,0.1-0.5,0.3c-0.1,0.2-0.2,0.4-0.2,0.6v3.5c0,0,0,0.1-0.1,0.2
	c-0.1,0.2-0.2,0.2-0.2,0.2l-0.2,0.2c-0.2,0.1-0.5,0.1-0.9,0.1c-0.8,0-1.3-0.3-1.3-0.8c0-0.2,0.1-0.3,0.2-0.4
	c0.1-0.1,0.2-0.2,0.4-0.3c0.2-0.1,0.3-0.2,0.4-0.3c0.1-0.1,0.2-0.3,0.2-0.5v-3.5c0-0.2,0.1-0.4,0.2-0.6c0.1-0.1,0.3-0.2,0.6-0.3
	c0.1,0,0.3-0.1,0.4-0.1H26c0,0,0.1,0,0.3,0c0.2,0,0.3,0,0.3,0.1c0.1,0,0.2,0.1,0.3,0.2c0.1,0.1,0.2,0.3,0.3,0.4
	c0.1,0.2,0.2,0.4,0.2,0.4c0.1,0.1,0.2,0.2,0.3,0.2c0.1,0.1,0.3,0.1,0.4,0.2c0.3,0.1,0.5,0.4,0.5,0.7V32.7z"/>
<path class="st2" d="M31.1,29.8c0,0.1-0.1,0.3-0.2,0.4c-0.1,0.1-0.3,0.2-0.4,0.2c-0.2,0-0.4-0.1-0.5-0.2c-0.2-0.2-0.2-0.3-0.2-0.5
	v-1.7c0-0.2,0.1-0.4,0.2-0.6c0.1-0.2,0.3-0.2,0.5-0.2c0.2,0,0.3,0.1,0.5,0.2c0.1,0.1,0.2,0.2,0.2,0.4V29.8z"/>
<path class="st2" d="M37.8,32.8c0,0.3-0.2,0.5-0.5,0.6c-0.2,0.1-0.5,0.2-0.8,0.2c-0.5,0-0.9-0.1-1.2-0.4c-0.1-0.1-0.1-0.2-0.1-0.4
	c0-0.2,0.1-0.4,0.3-0.6c0.2-0.1,0.4-0.3,0.6-0.4c0.2-0.2,0.3-0.4,0.3-0.6v-2.1c0-0.5-0.4-0.7-1.2-0.7c-0.3,0-0.5,0-0.7,0.1
	c-0.2,0.1-0.3,0.2-0.4,0.5c-0.1,0.1-0.1,0.2-0.1,0.2v3.5c0,0.2-0.1,0.3-0.2,0.5c-0.2,0.1-0.3,0.2-0.5,0.2c-0.2,0-0.3-0.1-0.5-0.2
	c-0.2-0.1-0.2-0.3-0.2-0.4v-5.2c0-0.2,0.1-0.4,0.3-0.5c0.1-0.1,0.3-0.2,0.5-0.3c0.1,0,0.3,0,0.4,0h3c0.3,0,0.5,0.1,0.7,0.2
	c0.3,0.2,0.4,0.4,0.4,0.6V32.8z"/>
<path class="st2" d="M44.1,27.6c0,0.2-0.1,0.4-0.3,0.6c-0.2,0.1-0.4,0.3-0.6,0.4c-0.2,0.2-0.3,0.4-0.3,0.6v3.6
	c0,0.2-0.1,0.3-0.3,0.4c-0.2,0.1-0.4,0.2-0.5,0.2c-0.2,0-0.3-0.1-0.5-0.3c-0.1-0.2-0.2-0.3-0.2-0.5v-3.5c0-0.2-0.1-0.3-0.2-0.5
	c-0.1-0.1-0.3-0.2-0.4-0.3l-0.2,0l-0.5,0l-0.2,0c-0.5-0.1-0.8-0.2-1-0.4c-0.1-0.1-0.1-0.2-0.1-0.4c0-0.4,0.3-0.7,0.9-0.8
	c0.2,0,0.3,0,0.4,0h2.5c0.6,0,0.9,0.1,1.2,0.4C44.1,27.3,44.1,27.5,44.1,27.6"/>
<path class="st2" d="M50.4,31L50.4,31l0,0.2c0,0.2-0.1,0.3-0.1,0.3c0,0.1-0.1,0.2-0.2,0.3c-0.1,0.1-0.2,0.2-0.4,0.3
	c-0.2,0.1-0.4,0.2-0.4,0.2c-0.1,0.1-0.2,0.2-0.2,0.3C49,32.8,49,32.9,48.9,33c-0.2,0.3-0.4,0.4-0.6,0.4c-0.2,0-0.3-0.1-0.4-0.2
	c-0.1-0.1-0.2-0.3-0.2-0.4c0-0.2,0.2-0.4,0.6-0.6c0.1,0,0.2-0.1,0.3-0.2c0.2-0.1,0.2-0.1,0.2-0.2v-2.9c0-0.1-0.1-0.2-0.2-0.3
	c-0.1-0.1-0.3-0.2-0.4-0.2h-2.1c-0.2,0-0.5-0.1-0.7-0.2c-0.2-0.2-0.3-0.4-0.3-0.6c0-0.2,0.1-0.4,0.3-0.6c0.2-0.1,0.4-0.2,0.7-0.2
	h3.1c0.4,0,0.7,0.1,0.9,0.4c0.2,0.2,0.3,0.6,0.3,1V31z"/>
<path class="st2" d="M56.9,32.8c0,0.2-0.1,0.3-0.2,0.5c-0.1,0.2-0.3,0.2-0.5,0.2c-0.2,0-0.3-0.1-0.5-0.2c-0.2-0.1-0.3-0.3-0.3-0.4
	v-1.3c0,0,0-0.2-0.1-0.3c-0.1-0.1-0.1-0.2-0.2-0.2h-1.8l-0.2,0.1l-0.1,0.2v1.2l0,0.1L53,32.9c0,0.1-0.1,0.2-0.1,0.3
	c-0.1,0.2-0.3,0.3-0.6,0.3c-0.1,0-0.3-0.1-0.4-0.2c-0.2-0.1-0.2-0.3-0.2-0.4v-1.4c0-0.2,0.2-0.4,0.5-0.6c0.1,0,0.2-0.1,0.3-0.1
	c0.2-0.1,0.2-0.2,0.2-0.2V30c0-0.1-0.1-0.2-0.2-0.2c-0.1,0-0.2-0.1-0.3-0.1c-0.4-0.2-0.5-0.3-0.5-0.6v-1.4c0-0.2,0.1-0.3,0.2-0.4
	c0.1-0.1,0.3-0.2,0.5-0.2c0.2,0,0.4,0.1,0.5,0.3c0.1,0.2,0.2,0.4,0.2,0.6c0,0,0,0.1,0,0.2l0,0.7c0,0.1,0,0.2,0,0.2l0.1,0.2l0.2,0.1
	h1.7c0.1,0,0.2-0.1,0.2-0.2c0.1-0.1,0.1-0.2,0.1-0.3v-1.3c0-0.2,0.1-0.3,0.2-0.4c0.2-0.1,0.3-0.2,0.5-0.2c0.2,0,0.3,0.1,0.5,0.2
	c0.1,0.2,0.2,0.3,0.2,0.5v1c0,0.3-0.1,0.5-0.3,0.6c-0.1,0.1-0.3,0.2-0.6,0.3c-0.2,0.1-0.3,0.3-0.3,0.5c0,0.2,0.1,0.4,0.3,0.5
	c0.2,0.1,0.4,0.2,0.6,0.3c0.2,0.1,0.3,0.4,0.3,0.6V32.8z"/>
<path class="st2" d="M63.5,32.4c0,0.3-0.1,0.5-0.2,0.7c-0.2,0.3-0.4,0.4-0.6,0.4c-0.2,0-0.4-0.1-0.5-0.3c-0.1-0.1-0.2-0.3-0.2-0.6
	c0-0.1,0-0.3,0-0.4v-3.6l-0.1-0.1l-0.2-0.1h-2.4c-0.3,0-0.5-0.1-0.7-0.2c-0.3-0.2-0.4-0.4-0.4-0.6c0-0.4,0.3-0.6,0.8-0.7
	c0.3-0.1,0.6-0.1,1.2-0.1h0.4c0.4,0,0.7,0,0.9,0.1c0.2,0,0.4,0.2,0.5,0.4c0.1,0.2,0.2,0.4,0.4,0.7c0.1,0.1,0.3,0.3,0.6,0.4
	c0.3,0.1,0.5,0.3,0.5,0.5c0,0.1,0.1,0.3,0.1,0.5l0,0.1V32.4z M59.8,32v0.2l0,0.2v0.1c-0.1,0.6-0.3,1-0.8,1c-0.3,0-0.6-0.2-0.7-0.6
	c-0.1-0.2-0.1-0.6-0.1-1c0-0.5,0-0.8,0.1-1c0.1-0.5,0.4-0.7,0.7-0.7c0.4,0,0.6,0.2,0.7,0.7c0,0.2,0.1,0.6,0.1,1.1V32z"/>
<path class="st2" d="M72.9,32.4c0,0.3-0.1,0.5-0.2,0.7c-0.2,0.3-0.4,0.4-0.6,0.4c-0.2,0-0.4-0.1-0.5-0.3c-0.1-0.1-0.2-0.3-0.2-0.6
	c0-0.1,0-0.3,0-0.4v-3.6l-0.1-0.1L71,28.5h-2.4c-0.3,0-0.5-0.1-0.7-0.2c-0.3-0.2-0.4-0.4-0.4-0.6c0-0.4,0.3-0.6,0.8-0.7
	c0.3-0.1,0.6-0.1,1.2-0.1h0.4c0.4,0,0.7,0,0.9,0.1c0.2,0,0.4,0.2,0.5,0.4c0.1,0.2,0.2,0.4,0.4,0.7c0.1,0.1,0.3,0.3,0.6,0.4
	c0.3,0.1,0.5,0.3,0.5,0.5c0,0.1,0.1,0.3,0.1,0.5l0,0.1V32.4z M69.2,32v0.2l0,0.2v0.1c-0.1,0.6-0.3,1-0.8,1c-0.3,0-0.6-0.2-0.7-0.6
	c-0.1-0.2-0.1-0.6-0.1-1c0-0.5,0-0.8,0.1-1c0.1-0.5,0.3-0.7,0.7-0.7c0.4,0,0.6,0.2,0.7,0.7c0,0.2,0.1,0.6,0.1,1.1V32z"/>
<path class="st2" d="M75.4,29.8c0,0.1-0.1,0.3-0.2,0.4c-0.1,0.1-0.3,0.2-0.4,0.2c-0.2,0-0.4-0.1-0.5-0.2C74.1,30,74,29.8,74,29.6
	v-1.7c0-0.2,0.1-0.4,0.2-0.6c0.1-0.2,0.3-0.2,0.5-0.2c0.2,0,0.3,0.1,0.5,0.2c0.1,0.1,0.2,0.2,0.2,0.4V29.8z"/>
<path class="st2" d="M80.5,32.6c0,0.2-0.1,0.4-0.2,0.6c-0.1,0.2-0.3,0.2-0.5,0.2c-0.2,0-0.4-0.1-0.5-0.3C79.1,33,79,32.8,79,32.6
	v-3.8c0-0.1,0-0.2-0.1-0.3c-0.1-0.1-0.2-0.1-0.3-0.2h-0.4c-0.6,0-1,0-1.3-0.2c-0.3-0.1-0.4-0.4-0.4-0.6c0-0.5,0.4-0.8,1.3-0.8
	c0.4,0,0.8,0.1,1,0.2c0.1,0.1,0.3,0.3,0.4,0.7c0.1,0.2,0.2,0.3,0.4,0.4c0.2,0.1,0.3,0.1,0.5,0.2c0.2,0.1,0.3,0.2,0.3,0.3
	c0.1,0.1,0.1,0.3,0.1,0.4l0,0.1V32.6z"/>
<path class="st2" d="M87.2,31L87.2,31l0,0.2c0,0.2-0.1,0.3-0.1,0.3c0,0.1-0.1,0.2-0.2,0.3c-0.1,0.1-0.2,0.2-0.4,0.3
	c-0.2,0.1-0.4,0.2-0.4,0.2c-0.1,0.1-0.2,0.2-0.2,0.3c-0.1,0.1-0.1,0.2-0.2,0.4c-0.2,0.3-0.4,0.4-0.6,0.4c-0.2,0-0.3-0.1-0.4-0.2
	c-0.1-0.1-0.2-0.3-0.2-0.4c0-0.2,0.2-0.4,0.6-0.6c0.1,0,0.2-0.1,0.3-0.2c0.2-0.1,0.2-0.1,0.2-0.2v-2.9c0-0.1-0.1-0.2-0.2-0.3
	c-0.1-0.1-0.3-0.2-0.4-0.2h-2.1c-0.2,0-0.5-0.1-0.7-0.2c-0.2-0.2-0.3-0.4-0.3-0.6c0-0.2,0.1-0.4,0.3-0.6c0.2-0.1,0.4-0.2,0.7-0.2H86
	c0.4,0,0.7,0.1,0.9,0.4c0.2,0.2,0.3,0.6,0.3,1V31z"/>
<path class="st2" d="M93.9,32.4c0,0.3-0.1,0.5-0.2,0.7c-0.2,0.3-0.4,0.4-0.6,0.4c-0.2,0-0.4-0.1-0.5-0.3c-0.1-0.1-0.2-0.3-0.2-0.6
	c0-0.1,0-0.3,0-0.4v-3.6l-0.1-0.1L92,28.5h-2.4c-0.3,0-0.5-0.1-0.7-0.2c-0.3-0.2-0.4-0.4-0.4-0.6c0-0.4,0.3-0.6,0.8-0.7
	c0.3-0.1,0.6-0.1,1.2-0.1h0.4c0.4,0,0.7,0,0.9,0.1c0.2,0,0.4,0.2,0.5,0.4c0.1,0.2,0.2,0.4,0.4,0.7c0.1,0.1,0.3,0.3,0.6,0.4
	c0.3,0.1,0.5,0.3,0.5,0.5c0,0.1,0.1,0.3,0.1,0.5l0,0.1V32.4z M90.2,32v0.2l0,0.2v0.1c-0.1,0.6-0.3,1-0.8,1c-0.3,0-0.6-0.2-0.7-0.6
	c-0.1-0.2-0.1-0.6-0.1-1c0-0.5,0-0.8,0.1-1c0.1-0.5,0.3-0.7,0.7-0.7c0.4,0,0.6,0.2,0.7,0.7c0,0.2,0.1,0.6,0.1,1.1V32z"/>
<path class="st2" d="M47,34.5c0,0.3-0.1,0.5-0.2,0.7c-0.1,0.2-0.3,0.3-0.6,0.3c-0.4,0-0.6-0.2-0.7-0.7c0-0.1,0-0.3,0-0.4v-3.3
	c0-0.3,0.1-0.5,0.2-0.7c0.1-0.2,0.3-0.3,0.6-0.3c0.2,0,0.4,0.1,0.6,0.3c0.1,0.2,0.2,0.4,0.2,0.7V34.5z"/>
<path class="st2" d="M83.8,34.5c0,0.3-0.1,0.5-0.2,0.7c-0.1,0.2-0.3,0.3-0.6,0.3c-0.4,0-0.6-0.2-0.7-0.7c0-0.1,0-0.3,0-0.4v-3.3
	c0-0.3,0.1-0.5,0.2-0.7c0.1-0.2,0.3-0.3,0.6-0.3c0.2,0,0.4,0.1,0.6,0.3c0.1,0.2,0.2,0.4,0.2,0.7V34.5z"/>
<path class="st0" d="M3.5,53.7H2.6V50c0-0.4-0.1-0.6-0.2-0.7C2.2,49.1,1.9,49,1.6,49H0.2v-0.8h1.5c0.7,0,1.2,0.1,1.4,0.4
	c0.3,0.3,0.4,0.7,0.4,1.4V53.7z M6.7,48.2h0.9l-0.1,1.2c0,0.3-0.1,0.6-0.2,0.8c-0.1,0.2-0.2,0.3-0.3,0.4c-0.1,0.1-0.4,0.2-0.6,0.3
	l-0.5,0.1L6,51.6h0.1c0.6,0,1,0,1.3-0.1C7.7,51.4,8,51.2,8.1,51c0.2-0.2,0.3-0.5,0.3-1l0.2-1.8h1L9.4,50c-0.1,0.6-0.2,1-0.3,1.3
	c-0.1,0.3-0.4,0.5-0.6,0.7c-0.3,0.2-0.7,0.3-1.1,0.3s-1.2,0.1-2,0.1l-0.8-4.3h1l0.4,2l0.2,0c0.2,0,0.3-0.1,0.3-0.2
	c0.1-0.1,0.1-0.2,0.2-0.3c0-0.1,0.1-0.4,0.1-0.8L6.7,48.2z M12.8,48.2c0.6,0,1,0.2,1.3,0.5c0.3,0.3,0.4,0.9,0.4,1.6v2.2h-2.2v-0.8
	h1.3v-1.3c0-0.5-0.1-0.8-0.2-1S13.1,49,12.8,49c-0.3,0-0.5,0.1-0.7,0.4c-0.2,0.3-0.4,0.7-0.5,1.4l-0.4,1.7h-1l0.5-1.8
	c0.1-0.4,0.2-0.8,0.3-1l-0.8-1.4h1l0.3,0.6c0.1-0.2,0.3-0.4,0.6-0.5C12.3,48.2,12.6,48.2,12.8,48.2z M19.4,52.4h-0.9V50
	c0-0.3-0.1-0.6-0.2-0.7c-0.1-0.1-0.4-0.2-0.8-0.2h-1.7v-0.8h1.8c0.7,0,1.2,0.1,1.4,0.4c0.3,0.3,0.4,0.7,0.4,1.4V52.4z M16.7,52.4
	h-0.9v-2.6h0.9V52.4z M20.7,48.2h0.9v4.2h-0.9V48.2z M28.6,52.4h-0.9V50c0-0.3-0.1-0.6-0.2-0.7C27.3,49.1,27,49,26.7,49h-1.7v-0.8
	h1.8c0.7,0,1.2,0.1,1.4,0.4c0.3,0.3,0.4,0.7,0.4,1.4V52.4z M25.9,52.4H25v-2.6h0.9V52.4z M32.6,52.4h-0.9V49h-2.3v-0.8h3.7V49h-0.5
	V52.4z M34.1,48.2H35v4.2h-0.9V48.2z M35.9,51.7c0.6,0,1-0.1,1.4-0.2l-1.2-3.3h1l1,2.9c0.3-0.2,0.4-0.5,0.6-1
	c0.1-0.4,0.2-1.1,0.2-1.9h1c0,1.1-0.1,1.9-0.4,2.6c-0.2,0.6-0.6,1.1-1.2,1.4c-0.5,0.3-1.3,0.5-2.3,0.5V51.7z M41.1,49h-0.6v-0.8h2.4
	c0.7,0,1.1,0.1,1.4,0.4c0.3,0.3,0.4,0.7,0.4,1.4v2.5h-0.9V50c0-0.4-0.1-0.6-0.2-0.8c-0.1-0.1-0.4-0.2-0.7-0.2H42v1.8
	c0,0.4,0,0.7-0.1,0.9c-0.1,0.2-0.2,0.4-0.4,0.5c-0.2,0.1-0.5,0.2-0.8,0.2h-0.2v-0.8h0.1c0.2,0,0.3,0,0.4-0.1
	c0.1-0.1,0.2-0.1,0.2-0.3c0-0.1,0.1-0.3,0.1-0.6V49z M48.1,48.2H49v2.3h-0.9V48.2z M53.1,52.4h-0.9V49h-2.3v-0.8h3.7V49h-0.5V52.4z
	 M54.5,48.2h0.9v4.2h-0.9V48.2z M59.1,48.2c0.6,0,1,0.2,1.3,0.5c0.3,0.3,0.4,0.9,0.4,1.6v2.2h-2.2v-0.8h1.3v-1.3
	c0-0.5-0.1-0.8-0.2-1S59.3,49,59,49c-0.3,0-0.5,0.1-0.7,0.4c-0.2,0.3-0.4,0.7-0.5,1.4l-0.4,1.7h-1l0.5-1.8c0.1-0.4,0.2-0.8,0.3-1
	l-0.8-1.4h1l0.3,0.6c0.1-0.2,0.3-0.4,0.6-0.5C58.5,48.2,58.8,48.2,59.1,48.2z M62,48.2h0.9v2.3H62V48.2z M64.3,51.6
	c0.7-0.2,1.2-0.5,1.5-0.9c0.4-0.4,0.5-0.7,0.5-1.2c0-0.4-0.3-0.6-0.8-0.6h-1.7v-2.3h0.9v1.4h0.9c1,0,1.5,0.4,1.5,1.3
	c0,0.7-0.3,1.3-0.8,1.9c-0.5,0.5-1.3,1-2.2,1.2V51.6z M68.5,51.6c0.7-0.2,1.2-0.5,1.5-0.9c0.4-0.4,0.5-0.7,0.5-1.2
	c0-0.4-0.3-0.6-0.8-0.6h-1.7v-2.3H69v1.4h0.9c1,0,1.5,0.4,1.5,1.3c0,0.7-0.3,1.3-0.8,1.9s-1.3,1-2.2,1.2V51.6z M78.2,52.4h-0.9V50
	c0-0.3-0.1-0.6-0.2-0.7c-0.1-0.1-0.4-0.2-0.8-0.2h-1.7v-0.8h1.8c0.7,0,1.2,0.1,1.4,0.4c0.3,0.3,0.4,0.7,0.4,1.4V52.4z M75.5,52.4
	h-0.9v-2.6h0.9V52.4z M82.2,52.4h-0.9V49H79v-0.8h3.7V49h-0.5V52.4z M83.7,48.2h0.9v2.3h-0.9V48.2z M88.7,50.1
	c0-0.4-0.1-0.7-0.2-0.8c-0.1-0.2-0.4-0.2-0.8-0.2h-0.9v3.4h-0.9v-4.2h1.8c0.7,0,1.2,0.1,1.5,0.4c0.3,0.3,0.4,0.7,0.4,1.4v2.5h-0.9
	V50.1z M90.8,48.2h0.9v2.3h-0.9V48.2z M96.6,52.4h-0.9V50c0-0.3-0.1-0.6-0.2-0.7c-0.1-0.1-0.4-0.2-0.8-0.2H93v-0.8h1.8
	c0.7,0,1.2,0.1,1.4,0.4c0.3,0.3,0.4,0.7,0.4,1.4V52.4z M94,52.4h-0.9v-2.6H94V52.4z"/>
</svg>
