<svg id="Layer_1" enable-background="new 0 0 96.7 53.7" viewBox="0 0 96.7 53.7" xmlns="http://www.w3.org/2000/svg"><path d="m0 25h96.7v10h-96.7z" fill="#c3d82e"/><path clip-rule="evenodd" d="m .2 40.4c0-1 .3-1.8.8-2.4.5-.6 1.2-.9 2.1-.9.6 0 1.1.1 1.5.4.5.3.8.6 1 1.1.2.5.4 1 .4 1.6 0 .6-.1 1.2-.4 1.7-.2.5-.6.9-1 1.1-.5.2-1 .4-1.5.4-.6 0-1.1-.1-1.5-.4-.5-.3-.8-.7-1-1.1-.3-.5-.4-1-.4-1.5m.8 0c0 .7.2 1.3.6 1.7.4.4.9.6 1.5.6.6 0 1.1-.2 1.5-.6.4-.4.6-1 .6-1.8 0-.5-.1-.9-.3-1.3-.2-.4-.4-.7-.7-.9-.3-.2-.7-.3-1.1-.3-.6 0-1.1.2-1.5.6-.4.4-.6 1.1-.6 2" fill="#6d6e70" fill-rule="evenodd"/><path clip-rule="evenodd" d="m7.5 43.3v-4.4h.7v.6c.3-.5.8-.7 1.4-.7.3 0 .5 0 .7.1.2.1.4.2.5.4.1.2.2.3.2.5 0 .1 0 .4 0 .7v2.7h-.8v-2.7c0-.3 0-.5-.1-.7-.1-.1-.2-.3-.3-.4-.1-.1-.3-.1-.5-.1-.3 0-.6.1-.8.3-.2.2-.3.6-.3 1.1v2.4h-.7z" fill="#6d6e70" fill-rule="evenodd"/><path clip-rule="evenodd" d="m12.5 41.1c0-.8.2-1.4.7-1.8.4-.3.8-.5 1.4-.5.6 0 1.1.2 1.5.6.4.4.6.9.6 1.6 0 .6-.1 1-.3 1.3-.2.3-.4.6-.7.8-.3.2-.7.3-1.1.3-.6 0-1.1-.2-1.5-.6-.4-.4-.6-.9-.6-1.7m.8 0c0 .6.1 1 .4 1.3.2.3.6.4.9.4.4 0 .7-.1.9-.4.2-.3.4-.7.4-1.3 0-.5-.1-1-.4-1.2-.2-.3-.6-.4-.9-.4-.4 0-.7.1-.9.4-.3.2-.4.7-.4 1.2" fill="#6d6e70" fill-rule="evenodd"/><path clip-rule="evenodd" d="m20 43.3l2.3-6.1h.9l2.5 6.1h-.9l-.7-1.8h-2.6l-.7 1.8zm1.8-2.5h2.1l-.6-1.7c-.2-.5-.3-.9-.4-1.3-.1.4-.2.8-.3 1.2z" fill="#6d6e70" fill-rule="evenodd"/><path clip-rule="evenodd" d="m29.7 41.7l.7.1c-.1.5-.3.9-.6 1.2-.3.3-.7.4-1.2.4-.6 0-1.1-.2-1.5-.6-.4-.4-.5-1-.5-1.7 0-.5.1-.9.2-1.2.2-.4.4-.6.7-.8.3-.2.7-.3 1.1-.3.5 0 .9.1 1.2.4.3.2.5.6.6 1l-.7.1c-.1-.3-.2-.5-.4-.7-.2-.1-.4-.2-.6-.2-.4 0-.7.1-.9.4-.2.3-.4.7-.4 1.3 0 .6.1 1 .3 1.3.2.3.5.4.9.4.3 0 .5-.1.7-.3.2-.1.3-.4.4-.8" fill="#6d6e70" fill-rule="evenodd"/><path clip-rule="evenodd" d="m34.5 42.8c-.3.2-.5.4-.8.5-.3.1-.5.1-.8.1-.5 0-.9-.1-1.1-.4-.3-.2-.4-.5-.4-.9 0-.2 0-.4.1-.6.1-.2.2-.3.4-.4.2-.1.3-.2.5-.2.1 0 .4-.1.7-.1.6-.1 1.1-.2 1.3-.3 0-.1 0-.2 0-.2 0-.3-.1-.5-.2-.6-.2-.2-.5-.3-.9-.3-.4 0-.6.1-.8.2-.2.1-.3.3-.4.7l-.7-.1c.1-.3.2-.6.3-.8.2-.2.4-.3.7-.4.3-.1.6-.2 1-.2s.7 0 .9.1c.2.1.4.2.5.3.1.1.2.3.2.5 0 .1 0 .4 0 .7v1c0 .7 0 1.1 0 1.3 0 .2.1.4.2.5h-.8c.2 0 .1-.2.1-.4m-.1-1.7c-.3.1-.7.2-1.2.3-.3 0-.5.1-.7.1-.1.1-.2.1-.3.2-.1.1-.1.2-.1.4 0 .2.1.4.2.5.2.1.4.2.7.2.3 0 .5-.1.8-.2s.4-.3.5-.5c.1-.2.1-.4.1-.7z" fill="#6d6e70" fill-rule="evenodd"/><path clip-rule="evenodd" d="m39.8 43.3v-.6c-.3.4-.7.7-1.2.7-.4 0-.7-.1-1-.3-.3-.2-.5-.5-.7-.8-.2-.3-.2-.7-.2-1.2 0-.4.1-.8.2-1.2.1-.4.4-.6.7-.8.3-.2.6-.3 1-.3.3 0 .5.1.7.2.2.1.4.3.5.4v-2.2h.8v6.1zm-2.4-2.2c0 .6.1 1 .4 1.3.2.3.5.4.8.4.3 0 .6-.1.8-.4.2-.3.3-.7.3-1.2 0-.6-.1-1-.3-1.3-.2-.3-.5-.4-.9-.4-.3 0-.6.1-.8.4-.2.2-.3.6-.3 1.2" fill="#6d6e70" fill-rule="evenodd"/><path clip-rule="evenodd" d="m45.2 41.9l.8.1c-.1.5-.3.8-.7 1-.3.2-.7.4-1.3.4-.6 0-1.2-.2-1.5-.6-.4-.4-.6-1-.6-1.7 0-.7.2-1.3.6-1.7.4-.4.9-.6 1.5-.6.6 0 1.1.2 1.4.6.4.4.6 1 .6 1.7 0 0 0 .1 0 .2h-3.3c0 .5.2.9.4 1.1.2.3.6.4.9.4.3 0 .5-.1.7-.2.3-.2.4-.4.5-.7m-2.4-1.2h2.5c0-.4-.1-.6-.3-.8-.2-.3-.5-.4-.9-.4-.3 0-.6.1-.9.3-.3.2-.4.5-.4.9" fill="#6d6e70" fill-rule="evenodd"/><path clip-rule="evenodd" d="m47.5 43.3v-4.4h.7v.6c.1-.2.3-.4.6-.5.2-.1.5-.2.8-.2.3 0 .6.1.8.2.2.1.4.3.4.6.4-.5.8-.8 1.4-.8.4 0 .8.1 1 .4.2.2.4.6.4 1.1v3h-.7v-2.8c0-.3 0-.5-.1-.6 0-.1-.1-.2-.3-.3-.1-.1-.3-.1-.5-.1-.3 0-.6.1-.8.3-.2.2-.3.5-.3 1v2.6h-.7v-2.9c0-.3-.1-.6-.2-.7-.1-.2-.3-.2-.6-.2-.2 0-.4.1-.6.2-.2.1-.3.3-.4.5-.1.2-.1.5-.1.9v2.3h-.8z" fill="#6d6e70" fill-rule="evenodd"/><path clip-rule="evenodd" d="m55.2 37.2h.8v.9h-.8zm0 1.7h.8v4.4h-.8z" fill="#6d6e70" fill-rule="evenodd"/><path clip-rule="evenodd" d="m60.5 41.7l.7.1c-.1.5-.3.9-.6 1.2-.3.3-.7.4-1.2.4-.6 0-1.1-.2-1.5-.6-.4-.4-.5-1-.5-1.7 0-.5.1-.9.2-1.2.2-.4.4-.6.7-.8.3-.2.7-.3 1.1-.3.5 0 .9.1 1.2.4.3.2.5.6.6 1l-.7.1c-.1-.3-.2-.5-.4-.7-.2-.1-.4-.2-.6-.2-.4 0-.7.1-.9.4-.2.3-.4.7-.4 1.3 0 .6.1 1 .3 1.3.2.3.5.4.9.4.3 0 .5-.1.7-.3.2-.1.4-.4.4-.8" fill="#6d6e70" fill-rule="evenodd"/><path clip-rule="evenodd" d="m69.8 41.2l.8.2c-.2.7-.5 1.2-.9 1.5-.4.3-1 .5-1.6.5-.7 0-1.2-.1-1.6-.4-.4-.3-.7-.7-.9-1.2-.2-.5-.3-1.1-.3-1.6 0-.6.1-1.2.4-1.7.2-.5.6-.8 1-1.1s.9-.4 1.5-.4c.6 0 1.1.2 1.5.5.4.3.7.7.9 1.3l-.8.2c-.1-.4-.3-.8-.6-1-.3-.2-.6-.3-1-.3-.5 0-.9.1-1.2.3-.3.2-.5.5-.7.9-.1.4-.2.8-.2 1.2 0 .5.1 1 .2 1.4.2.4.4.7.7.9.3.2.7.3 1 .3.5 0 .8-.1 1.1-.4.4-.2.6-.6.7-1.1" fill="#6d6e70" fill-rule="evenodd"/><path clip-rule="evenodd" d="m71.8 41.1c0-.8.2-1.4.7-1.8.4-.3.8-.5 1.4-.5.6 0 1.1.2 1.5.6.4.4.6.9.6 1.6 0 .6-.1 1-.3 1.3-.2.3-.4.6-.7.8-.3.2-.7.3-1.1.3-.6 0-1.1-.2-1.5-.6-.4-.4-.6-.9-.6-1.7m.7 0c0 .6.1 1 .4 1.3.2.3.6.4.9.4.4 0 .7-.1.9-.4.2-.3.4-.7.4-1.3 0-.5-.1-1-.4-1.2-.2-.3-.6-.4-.9-.4-.4 0-.7.1-.9.4-.2.2-.4.7-.4 1.2" fill="#6d6e70" fill-rule="evenodd"/><path clip-rule="evenodd" d="m77.3 37.2h.7v6.1h-.7z" fill="#6d6e70" fill-rule="evenodd"/><path clip-rule="evenodd" d="m79.8 37.2h.7v6.1h-.7z" fill="#6d6e70" fill-rule="evenodd"/><path clip-rule="evenodd" d="m85.3 41.9l.7.1c-.1.5-.3.8-.7 1-.3.2-.7.4-1.3.4-.6 0-1.2-.2-1.5-.6-.4-.4-.6-1-.6-1.7 0-.7.2-1.3.6-1.7.4-.4.9-.6 1.5-.6.6 0 1.1.2 1.4.6.4.4.6 1 .6 1.7 0 0 0 .1 0 .2h-3.3c0 .5.2.9.4 1.1.2.3.6.4.9.4.3 0 .5-.1.7-.2.3-.2.5-.4.6-.7m-2.5-1.2h2.5c0-.4-.1-.6-.3-.8-.2-.3-.5-.4-.9-.4-.3 0-.6.1-.9.3-.2.2-.4.5-.4.9" fill="#6d6e70" fill-rule="evenodd"/><path clip-rule="evenodd" d="m87.4 43.7l.7.1c0 .2.1.4.3.5.2.1.4.2.8.2.3 0 .6-.1.8-.2.2-.1.3-.3.4-.6 0-.2.1-.5.1-1-.3.4-.7.6-1.2.6-.6 0-1.1-.2-1.4-.7-.3-.4-.5-1-.5-1.6 0-.4.1-.8.2-1.2.2-.4.4-.6.7-.8.3-.2.6-.3 1-.3.5 0 1 .2 1.3.6v-.5h.7v3.8c0 .7-.1 1.2-.2 1.5-.1.3-.4.5-.7.7-.3.2-.7.3-1.1.3-.5 0-1-.1-1.3-.4-.4-.2-.6-.5-.6-1m .6-2.7c0 .6.1 1 .3 1.3.2.3.5.4.9.4.3 0 .6-.1.9-.4.2-.3.4-.7.4-1.2 0-.5-.1-.9-.4-1.2-.2-.3-.5-.4-.9-.4-.3 0-.6.1-.8.4-.3.2-.4.6-.4 1.1" fill="#6d6e70" fill-rule="evenodd"/><path clip-rule="evenodd" d="m95.9 41.9l.8.1c-.1.5-.3.8-.7 1-.3.2-.8.4-1.3.4-.6 0-1.2-.2-1.5-.6-.4-.4-.6-1-.6-1.7 0-.7.2-1.3.6-1.7.4-.4.9-.6 1.5-.6.6 0 1.1.2 1.4.6.4.4.6 1 .6 1.7 0 0 0 .1 0 .2h-3.3c0 .5.2.9.4 1.1.2.3.6.4.9.4.3 0 .5-.1.7-.2.2-.2.4-.4.5-.7m-2.5-1.2h2.5c0-.4-.1-.6-.3-.8-.2-.3-.5-.4-.9-.4-.3 0-.6.1-.9.3-.2.2-.4.5-.4.9" fill="#6d6e70" fill-rule="evenodd"/><path clip-rule="evenodd" d="m43.7 6.4h2.1v3c .9-1.1 1.8-2 2.8-2.5 1-.6 2.2-.8 3.4-.8 1.2 0 2.4.3 3.3.9 1 .6 1.7 1.5 2.1 2.5.5 1.1.7 2.7.7 5v8.5h-2.1v-7.9c0-1.9-.1-3.2-.2-3.8-.3-1.1-.7-1.9-1.4-2.5-.7-.5-1.6-.8-2.7-.8-1.3 0-2.5.4-3.5 1.3-1 .9-1.7 1.9-2 3.2-.2.8-.3 2.3-.3 4.5v6h-2.1v-16.6z" fill="#6d6e70" fill-rule="evenodd"/><path clip-rule="evenodd" d="m69.6 6c2.6 0 4.7.9 6.4 2.8 1.5 1.7 2.3 3.7 2.3 6 0 2.3-.8 4.3-2.4 6.1-1.6 1.7-3.7 2.6-6.2 2.6-2.6 0-4.6-.9-6.3-2.6-1.6-1.7-2.4-3.8-2.4-6.1 0-2.3.8-4.3 2.3-6 1.6-1.9 3.7-2.8 6.3-2.8m0 2.1c-1.8 0-3.3.7-4.6 2-1.3 1.3-1.9 2.9-1.9 4.7 0 1.2.3 2.3.9 3.3.6 1 1.4 1.8 2.4 2.4 1 .6 2.1.8 3.3.8 1.2 0 2.3-.3 3.3-.8 1-.6 1.8-1.4 2.4-2.4.6-1 .9-2.2.9-3.3 0-1.9-.6-3.4-1.9-4.7-1.5-1.3-3.1-2-4.8-2" fill="#6d6e70" fill-rule="evenodd"/><path d="m22.3 4.8l12.1 7.1-12 7.1c0 0-.4-.4-.7-.7-3.6-4.3-3.4-9.7.6-13.5" fill="#c3d82e"/><path clip-rule="evenodd" d="m24.1 3.5c-.6.4-1.2.8-1.7 1.3l-2.3-1.2c0 0 .9-1 2.7-2 1.8-1 3.8-1.6 5.8-1.6 3.4 0 6.2 1.1 8.5 3.4 2.3 2.3 3.4 5.1 3.4 8.4 0 3.3-1.1 6.1-3.4 8.4-2.3 2.3-5.1 3.4-8.4 3.4-3.3 0-5.9-.9-8.4-3.4l2-1.2c1.9 1.6 3.9 2.4 6.4 2.4 1.7 0 3.4-.4 4.8-1.3 1.5-.8 2.6-2 3.5-3.5.8-1.5 1.2-3.1 1.2-4.9 0-1.8-.4-3.4-1.2-4.8-.8-1.4-2-2.6-3.5-3.5-1.5-.9-3.1-1.3-4.8-1.3-1.6.1-3.1.5-4.6 1.4" fill="#6d6e70" fill-rule="evenodd"/><path clip-rule="evenodd" d="m5.2 32.8c0 .2-.1.3-.2.5-.1.2-.3.2-.5.2-.2 0-.3-.1-.5-.2-.2-.1-.3-.3-.3-.4v-5.3c0-.2.1-.3.2-.4.2-.1.4-.2.6-.2.2 0 .3.1.5.2.1.1.2.3.2.5z" fill="#fff" fill-rule="evenodd"/><path clip-rule="evenodd" d="m9 32.5c0 .4-.1.7-.4.9-.2.2-.6.2-1 .2-.5 0-.9-.1-1.2-.4-.1-.1-.1-.2-.1-.4 0-.2.2-.5.6-.7.2-.1.3-.2.4-.2.1-.1.2-.2.2-.4v-2.9c0-.1-.1-.2-.2-.2-.1 0-.2-.1-.3-.1-.4-.2-.6-.4-.6-.7 0-.1.1-.3.2-.4 0-.1.2-.2.3-.2.2 0 .4.1.5.2 0 .1.1.2.2.5.1.2.2.3.3.4.2.1.4.2.6.2.2.1.3.2.4.4.1.2.1.4.1.6z" fill="#fff" fill-rule="evenodd"/><path clip-rule="evenodd" d="m11.6 32.8c0 .2-.1.3-.2.5-.1.2-.3.2-.5.2-.2 0-.3-.1-.5-.2-.2-.1-.3-.3-.3-.4v-5.3c0-.2.1-.3.2-.4.2-.1.3-.2.5-.2.2 0 .3.1.5.2.1.1.2.3.2.5v5.1z" fill="#fff" fill-rule="evenodd"/><path clip-rule="evenodd" d="m18.1 32.8c0 .2-.1.3-.2.5-.1.2-.3.2-.5.2-.2 0-.3-.1-.5-.2-.2-.1-.3-.3-.3-.4v-1.3c0 0 0-.2-.1-.3-.1-.1-.1-.2-.2-.2h-1.8l-.2.1-.1.2v1.2.1l-.1.1c0 .1-.1.2-.1.3-.1.2-.3.3-.6.3-.1 0-.3-.1-.4-.2-.2-.1-.2-.3-.2-.4v-1.4c0-.2.2-.4.5-.6.1 0 .2-.1.3-.1.2-.1.2-.2.2-.2v-.5c0-.1-.1-.2-.2-.2-.1 0-.2-.1-.3-.1-.4-.2-.5-.3-.5-.6v-1.4c0-.2.1-.3.2-.4.1-.1.3-.2.5-.2.2 0 .4.1.5.3.1.2.2.4.2.6 0 0 0 .1 0 .2v.7c0 .1 0 .2 0 .2l.1.2.2.1h1.7c.1 0 .2-.1.2-.2.1-.1.1-.2.1-.3v-1.3c0-.2.1-.3.2-.4.2-.1.3-.2.5-.2.2 0 .3.1.5.2.1.2.2.3.2.5v1c0 .3-.1.5-.3.6-.1.1-.3.2-.6.3-.2.1-.3.3-.3.5 0 .2.1.4.3.5.2.1.4.2.6.3.2.1.3.4.3.6v1.3z" fill="#fff" fill-rule="evenodd"/><path clip-rule="evenodd" d="m28.5 32.7c0 .2-.1.4-.2.5-.2.1-.3.2-.5.2-.2 0-.4-.1-.6-.3-.1-.2-.2-.4-.2-.6v-3.8c0-.1-.1-.1-.2-.2-.1-.1-.2-.1-.2-.1h-1.3c-.2 0-.4.1-.5.3-.1.2-.2.4-.2.6v3.5c0 0 0 .1-.1.2-.1.2-.2.2-.2.2l-.2.2c-.2.1-.5.1-.9.1-.8 0-1.3-.3-1.3-.8 0-.2.1-.3.2-.4.1-.1.2-.2.4-.3.2-.1.3-.2.4-.3.1-.1.2-.3.2-.5v-3.5c0-.2.1-.4.2-.6.1-.1.3-.2.6-.3.1 0 .3-.1.4-.1h1.7c0 0 .1 0 .3 0 .2 0 .3 0 .3.1.1 0 .2.1.3.2.1.1.2.3.3.4.1.2.2.4.2.4.1.1.2.2.3.2.1.1.3.1.4.2.3.1.5.4.5.7v3.8z" fill="#fff" fill-rule="evenodd"/><path clip-rule="evenodd" d="m31.1 29.8c0 .1-.1.3-.2.4-.1.1-.3.2-.4.2-.2 0-.4-.1-.5-.2-.2-.2-.2-.3-.2-.5v-1.7c0-.2.1-.4.2-.6.1-.2.3-.2.5-.2.2 0 .3.1.5.2.1.1.2.2.2.4v2z" fill="#fff" fill-rule="evenodd"/><path clip-rule="evenodd" d="m37.8 32.8c0 .3-.2.5-.5.6-.2.1-.5.2-.8.2-.5 0-.9-.1-1.2-.4-.1-.1-.1-.2-.1-.4 0-.2.1-.4.3-.6.2-.1.4-.3.6-.4.2-.2.3-.4.3-.6v-2.1c0-.5-.4-.7-1.2-.7-.3 0-.5 0-.7.1-.2.1-.3.2-.4.5-.1.1-.1.2-.1.2v3.5c0 .2-.1.3-.2.5-.2.1-.3.2-.5.2-.2 0-.3-.1-.5-.2-.2-.1-.2-.3-.2-.4v-5.2c0-.2.1-.4.3-.5.1-.1.3-.2.5-.3.1 0 .3 0 .4 0h3c .3 0 .5.1.7.2.3.2.4.4.4.6v5.2z" fill="#fff" fill-rule="evenodd"/><path clip-rule="evenodd" d="m44.1 27.6c0 .2-.1.4-.3.6-.2.1-.4.3-.6.4-.2.2-.3.4-.3.6v3.6c0 .2-.1.3-.3.4-.2.1-.4.2-.5.2-.2 0-.3-.1-.5-.3-.1-.2-.2-.3-.2-.5v-3.5c0-.2-.1-.3-.2-.5-.1-.1-.3-.2-.4-.3h-.2-.5-.2c-.5-.1-.8-.2-1-.4-.1-.1-.1-.2-.1-.4 0-.4.3-.7.9-.8.2 0 .3 0 .4 0h2.5c.6 0 .9.1 1.2.4.3.2.3.4.3.5" fill="#fff" fill-rule="evenodd"/><path clip-rule="evenodd" d="m50.4 31l0 0v .2c0 .2-.1.3-.1.3 0 .1-.1.2-.2.3-.1.1-.2.2-.4.3-.2.1-.4.2-.4.2-.1.1-.2.2-.2.3-.1.2-.1.3-.2.4-.2.3-.4.4-.6.4-.2 0-.3-.1-.4-.2-.1-.1-.2-.3-.2-.4 0-.2.2-.4.6-.6.1 0 .2-.1.3-.2.2-.1.2-.1.2-.2v-2.9c0-.1-.1-.2-.2-.3-.1-.1-.3-.2-.4-.2h-2.1c-.2 0-.5-.1-.7-.2-.2-.2-.3-.4-.3-.6 0-.2.1-.4.3-.6.2-.1.4-.2.7-.2h3.1c.4 0 .7.1.9.4.2.2.3.6.3 1z" fill="#fff" fill-rule="evenodd"/><path clip-rule="evenodd" d="m56.9 32.8c0 .2-.1.3-.2.5-.1.2-.3.2-.5.2-.2 0-.3-.1-.5-.2-.2-.1-.3-.3-.3-.4v-1.3c0 0 0-.2-.1-.3-.1-.1-.1-.2-.2-.2h-1.8l-.2.1-.1.2v1.2.1.2c0 .1-.1.2-.1.3-.1.2-.3.3-.6.3-.1 0-.3-.1-.4-.2-.2-.1-.2-.3-.2-.4v-1.4c0-.2.2-.4.5-.6.1 0 .2-.1.3-.1.2-.1.2-.2.2-.2v-.6c0-.1-.1-.2-.2-.2-.1 0-.2-.1-.3-.1-.4-.2-.5-.3-.5-.6v-1.4c0-.2.1-.3.2-.4.1-.1.3-.2.5-.2.2 0 .4.1.5.3.1.2.2.4.2.6 0 0 0 .1 0 .2v.7c0 .1 0 .2 0 .2l.1.2.2.1h1.7c.1 0 .2-.1.2-.2.1-.1.1-.2.1-.3v-1.3c0-.2.1-.3.2-.4.2-.1.3-.2.5-.2.2 0 .3.1.5.2.1.2.2.3.2.5v1c0 .3-.1.5-.3.6-.1.1-.3.2-.6.3-.2.1-.3.3-.3.5 0 .2.1.4.3.5.2.1.4.2.6.3.2.1.3.4.3.6v1.3z" fill="#fff" fill-rule="evenodd"/><path clip-rule="evenodd" d="m63.5 32.4c0 .3-.1.5-.2.7-.2.3-.4.4-.6.4-.2 0-.4-.1-.5-.3-.1-.1-.2-.3-.2-.6 0-.1 0-.3 0-.4v-3.6l-.1-.1-.2-.1h-2.4c-.3 0-.5-.1-.7-.2-.3-.2-.4-.4-.4-.6 0-.4.3-.6.8-.7.3-.1.6-.1 1.2-.1h.4c.4 0 .7 0 .9.1.2 0 .4.2.5.4.1.2.2.4.4.7.1.1.3.3.6.4.3.1.5.3.5.5 0 .1.1.3.1.5v.1 2.9zm-3.7-.4v.2.2.1c-.1.6-.3 1-.8 1-.3 0-.6-.2-.7-.6-.1-.2-.1-.6-.1-1 0-.5 0-.8.1-1 .1-.5.4-.7.7-.7.4 0 .6.2.7.7 0 .2.1.6.1 1.1z" fill="#fff" fill-rule="evenodd"/><path clip-rule="evenodd" d="m72.9 32.4c0 .3-.1.5-.2.7-.2.3-.4.4-.6.4-.2 0-.4-.1-.5-.3-.1-.1-.2-.3-.2-.6 0-.1 0-.3 0-.4v-3.6l-.1-.1h-.3-2.4c-.3 0-.5-.1-.7-.2-.3-.2-.4-.4-.4-.6 0-.4.3-.6.8-.7.3-.1.6-.1 1.2-.1h.4c.4 0 .7 0 .9.1.2 0 .4.2.5.4.1.2.2.4.4.7.1.1.3.3.6.4.3.1.5.3.5.5 0 .1.1.3.1.5v.1zm-3.7-.4v.2.2.1c-.1.6-.3 1-.8 1-.3 0-.6-.2-.7-.6-.1-.2-.1-.6-.1-1 0-.5 0-.8.1-1 .1-.5.3-.7.7-.7.4 0 .6.2.7.7 0 .2.1.6.1 1.1z" fill="#fff" fill-rule="evenodd"/><path clip-rule="evenodd" d="m75.4 29.8c0 .1-.1.3-.2.4-.1.1-.3.2-.4.2-.2 0-.4-.1-.5-.2-.2-.2-.3-.4-.3-.6v-1.7c0-.2.1-.4.2-.6.1-.2.3-.2.5-.2.2 0 .3.1.5.2.1.1.2.2.2.4z" fill="#fff" fill-rule="evenodd"/><path clip-rule="evenodd" d="m80.5 32.6c0 .2-.1.4-.2.6-.1.2-.3.2-.5.2-.2 0-.4-.1-.5-.3-.2-.1-.3-.3-.3-.5v-3.8c0-.1 0-.2-.1-.3-.1-.1-.2-.1-.3-.2h-.4c-.6 0-1 0-1.3-.2-.3-.1-.4-.4-.4-.6 0-.5.4-.8 1.3-.8.4 0 .8.1 1 .2.1.1.3.3.4.7.1.2.2.3.4.4.2.1.3.1.5.2.2.1.3.2.3.3.1.1.1.3.1.4v.1z" fill="#fff" fill-rule="evenodd"/><path clip-rule="evenodd" d="m87.2 31l0 0v .2c0 .2-.1.3-.1.3 0 .1-.1.2-.2.3-.1.1-.2.2-.4.3-.2.1-.4.2-.4.2-.1.1-.2.2-.2.3-.1.1-.1.2-.2.4-.2.3-.4.4-.6.4-.2 0-.3-.1-.4-.2-.1-.1-.2-.3-.2-.4 0-.2.2-.4.6-.6.1 0 .2-.1.3-.2.2-.1.2-.1.2-.2v-2.9c0-.1-.1-.2-.2-.3-.1-.1-.3-.2-.4-.2h-2.1c-.2 0-.5-.1-.7-.2-.2-.2-.3-.4-.3-.6 0-.2.1-.4.3-.6.2-.1.4-.2.7-.2h3.1c.4 0 .7.1.9.4.2.2.3.6.3 1z" fill="#fff" fill-rule="evenodd"/><path clip-rule="evenodd" d="m93.9 32.4c0 .3-.1.5-.2.7-.2.3-.4.4-.6.4-.2 0-.4-.1-.5-.3-.1-.1-.2-.3-.2-.6 0-.1 0-.3 0-.4v-3.6l-.1-.1h-.3-2.4c-.3 0-.5-.1-.7-.2-.3-.2-.4-.4-.4-.6 0-.4.3-.6.8-.7.3-.1.6-.1 1.2-.1h.4c.4 0 .7 0 .9.1.2 0 .4.2.5.4.1.2.2.4.4.7.1.1.3.3.6.4.3.1.5.3.5.5 0 .1.1.3.1.5v.1zm-3.7-.4v.2.2.1c-.1.6-.3 1-.8 1-.3 0-.6-.2-.7-.6-.1-.2-.1-.6-.1-1 0-.5 0-.8.1-1 .1-.5.3-.7.7-.7.4 0 .6.2.7.7 0 .2.1.6.1 1.1z" fill="#fff" fill-rule="evenodd"/><path clip-rule="evenodd" d="m47 34.5c0 .3-.1.5-.2.7-.1.2-.3.3-.6.3-.4 0-.6-.2-.7-.7 0-.1 0-.3 0-.4v-3.3c0-.3.1-.5.2-.7.1-.2.3-.3.6-.3.2 0 .4.1.6.3.1.2.2.4.2.7v3.4z" fill="#fff" fill-rule="evenodd"/><path clip-rule="evenodd" d="m83.8 34.5c0 .3-.1.5-.2.7-.1.2-.3.3-.6.3-.4 0-.6-.2-.7-.7 0-.1 0-.3 0-.4v-3.3c0-.3.1-.5.2-.7.1-.2.3-.3.6-.3.2 0 .4.1.6.3.1.2.2.4.2.7v3.4z" fill="#fff" fill-rule="evenodd"/><path d="m3.5 53.7h-.9v-3.7c0-.4-.1-.6-.2-.7-.2-.2-.5-.3-.8-.3h-1.4v-.8h1.5c.7 0 1.2.1 1.4.4.3.3.4.7.4 1.4zm3.2-5.5h.9l-.1 1.2c0 .3-.1.6-.2.8-.1.2-.2.3-.3.4-.1.1-.4.2-.6.3l-.5.1.1.6h.1c.6 0 1 0 1.3-.1.3-.1.6-.3.7-.5.2-.2.3-.5.3-1l .2-1.8h1l-.2 1.8c-.1.6-.2 1-.3 1.3-.1.3-.4.5-.6.7-.3.2-.7.3-1.1.3s-1.2.1-2 .1l-.8-4.3h1l .4 2h .2c.2 0 .3-.1.3-.2.1-.1.1-.2.2-.3 0-.1.1-.4.1-.8zm6.1 0c .6 0 1 .2 1.3.5.3.3.4.9.4 1.6v2.2h-2.2v-.8h1.3v-1.3c0-.5-.1-.8-.2-1s-.3-.4-.6-.4c-.3 0-.5.1-.7.4-.2.3-.4.7-.5 1.4l-.4 1.7h-1l .5-1.8c.1-.4.2-.8.3-1l-.8-1.4h1l .3.6c.1-.2.3-.4.6-.5.2-.2.5-.2.7-.2zm6.6 4.2h-.9v-2.4c0-.3-.1-.6-.2-.7-.1-.1-.4-.2-.8-.2h-1.7v-.8h1.8c.7 0 1.2.1 1.4.4.3.3.4.7.4 1.4zm-2.7 0h-.9v-2.6h.9zm4-4.2h.9v4.2h-.9zm7.9 4.2h-.9v-2.4c0-.3-.1-.6-.2-.7-.2-.2-.5-.3-.8-.3h-1.7v-.8h1.8c.7 0 1.2.1 1.4.4.3.3.4.7.4 1.4zm-2.7 0h-.9v-2.6h.9zm6.7 0h-.9v-3.4h-2.3v-.8h3.7v.8h-.5zm1.5-4.2h.9v4.2h-.9zm1.8 3.5c.6 0 1-.1 1.4-.2l-1.2-3.3h1l1 2.9c.3-.2.4-.5.6-1 .1-.4.2-1.1.2-1.9h1c0 1.1-.1 1.9-.4 2.6-.2.6-.6 1.1-1.2 1.4-.5.3-1.3.5-2.3.5v-1zm5.2-2.7h-.6v-.8h2.4c.7 0 1.1.1 1.4.4.3.3.4.7.4 1.4v2.5h-.9v-2.5c0-.4-.1-.6-.2-.8-.1-.1-.4-.2-.7-.2h-.9v1.8c0 .4 0 .7-.1.9-.1.2-.2.4-.4.5-.2.1-.5.2-.8.2h-.2v-.8h.1c.2 0 .3 0 .4-.1.1-.1.2-.1.2-.3 0-.1.1-.3.1-.6v-1.6zm7-.8h.9v2.3h-.9zm5 4.2h-.9v-3.4h-2.3v-.8h3.7v.8h-.5zm1.4-4.2h.9v4.2h-.9zm4.6 0c .6 0 1 .2 1.3.5.3.3.4.9.4 1.6v2.2h-2.2v-.8h1.3v-1.3c0-.5-.1-.8-.2-1s-.4-.4-.7-.4c-.3 0-.5.1-.7.4-.2.3-.4.7-.5 1.4l-.4 1.7h-1l .5-1.8c.1-.4.2-.8.3-1l-.8-1.4h1l .3.6c.1-.2.3-.4.6-.5.2-.2.5-.2.8-.2zm2.9 0h .9v2.3h-.9zm2.3 3.4c.7-.2 1.2-.5 1.5-.9.4-.4.5-.7.5-1.2 0-.4-.3-.6-.8-.6h-1.7v-2.3h.9v1.4h.9c1 0 1.5.4 1.5 1.3 0 .7-.3 1.3-.8 1.9-.5.5-1.3 1-2.2 1.2v-.8zm4.2 0c .7-.2 1.2-.5 1.5-.9.4-.4.5-.7.5-1.2 0-.4-.3-.6-.8-.6h-1.7v-2.3h1v1.4h.9c1 0 1.5.4 1.5 1.3 0 .7-.3 1.3-.8 1.9s-1.3 1-2.2 1.2v-.8zm9.7.8h-.9v-2.4c0-.3-.1-.6-.2-.7-.1-.1-.4-.2-.8-.2h-1.7v-.8h1.8c.7 0 1.2.1 1.4.4.3.3.4.7.4 1.4zm-2.7 0h-.9v-2.6h.9zm6.7 0h-.9v-3.4h-2.3v-.8h3.7v.8h-.5zm1.5-4.2h.9v2.3h-.9zm5 1.9c0-.4-.1-.7-.2-.8-.1-.2-.4-.2-.8-.2h-.9v3.4h-.9v-4.2h1.8c.7 0 1.2.1 1.5.4.3.3.4.7.4 1.4v2.5h-.9zm2.1-1.9h.9v2.3h-.9zm5.8 4.2h-.9v-2.4c0-.3-.1-.6-.2-.7-.1-.1-.4-.2-.8-.2h-1.7v-.8h1.8c.7 0 1.2.1 1.4.4.3.3.4.7.4 1.4zm-2.6 0h-.9v-2.6h.9z" fill="#c3d82e"/></svg>