<svg style="position: absolute; width: 0; height: 0; overflow: hidden;" version="1.1" xmlns="http://www.w3.org/2000/svg" xmlns:xlink="http://www.w3.org/1999/xlink">
<defs>
<symbol id="icon-Asset-3" viewBox="0 0 41 32">
<title>Asset-3</title>
<path d="M35.4 0l-19.867 16.493-7.387-8.013-8.147 8.16 15.36 15.36 25.973-25.96-5.933-6.040z"></path>
</symbol>
<symbol id="icon-menu" viewBox="0 0 32 32">
<title>menu</title>
<path d="M0 0h32v6.4h-32v-6.4z"></path>
<path d="M0 12.8h32v6.4h-32v-6.4z"></path>
<path d="M0 25.6h32v6.4h-32v-6.4z"></path>
</symbol>
<symbol id="icon-calendar" viewBox="0 0 29 32">
<title>calendar</title>
<path d="M9.318 19.15h-6.318c-0.173 0-0.314-0.14-0.314-0.314v0-6.707c0-0.173 0.14-0.314 0.314-0.314v0h6.318c0.173 0 0.314 0.14 0.314 0.314v0 6.695c0 0.004 0 0.008 0 0.013 0 0.173-0.14 0.314-0.314 0.314-0 0-0 0-0 0v0zM3.313 18.522h5.691v-6.080h-5.691z"></path>
<path d="M17.726 19.15h-6.325c-0.173 0-0.314-0.14-0.314-0.314v0-6.707c0-0.173 0.14-0.314 0.314-0.314v0h6.325c0.173 0 0.314 0.14 0.314 0.314v0 6.695c0 0.004 0 0.008 0 0.013 0 0.173-0.14 0.314-0.314 0.314-0 0-0 0-0 0v0zM11.721 18.522h5.691v-6.080h-5.697z"></path>
<path d="M26.127 19.15h-6.318c-0.173 0-0.314-0.14-0.314-0.314v0-6.707c0-0.173 0.14-0.314 0.314-0.314v0h6.318c0.173 0 0.314 0.14 0.314 0.314v0 6.695c0 0.004 0 0.008 0 0.013 0 0.173-0.14 0.314-0.314 0.314-0 0-0 0-0 0v0zM20.122 18.522h5.691v-6.080h-5.691z"></path>
<path d="M9.318 28.762h-6.318c-0.173 0-0.314-0.14-0.314-0.314v0-6.707c0-0.173 0.14-0.314 0.314-0.314v0h6.318c0.173 0 0.314 0.14 0.314 0.314v0 6.707c0 0.173-0.14 0.314-0.314 0.314v0zM3.313 28.135h5.691v-6.080h-5.691z"></path>
<path d="M17.726 28.762h-6.325c-0.173 0-0.314-0.14-0.314-0.314v0-6.707c0-0.173 0.14-0.314 0.314-0.314v0h6.325c0.173 0 0.314 0.14 0.314 0.314v0 6.707c0 0.173-0.14 0.314-0.314 0.314v0zM11.721 28.135h5.691v-6.080h-5.697z"></path>
<path d="M26.127 28.762h-6.318c-0.173 0-0.314-0.14-0.314-0.314v0-6.707c0-0.173 0.14-0.314 0.314-0.314v0h6.318c0.173 0 0.314 0.14 0.314 0.314v0 6.707c0 0.173-0.14 0.314-0.314 0.314v0zM20.122 28.135h5.691v-6.080h-5.691z"></path>
<path d="M28.474 32h-28.16c-0.173 0-0.314-0.14-0.314-0.314v0-22.795c0-0.173 0.14-0.314 0.314-0.314v0h28.16c0.173 0 0.314 0.14 0.314 0.314v0 22.795c0 0.173-0.14 0.314-0.314 0.314v0zM0.627 31.373h27.533v-22.168h-27.533z"></path>
<path d="M19.118 3.84h-9.449c-0.173 0-0.314-0.14-0.314-0.314s0.14-0.314 0.314-0.314v0h9.449c0.173 0 0.314 0.14 0.314 0.314s-0.14 0.314-0.314 0.314v0z"></path>
<path d="M28.474 9.205h-28.16c-0.173 0-0.314-0.14-0.314-0.314v0-5.365c0-0.173 0.14-0.314 0.314-0.314v0h4.549c0.173 0 0.314 0.14 0.314 0.314s-0.14 0.314-0.314 0.314v0h-4.235v4.731h27.533v-4.731h-3.727c-0.173 0-0.314-0.14-0.314-0.314s0.14-0.314 0.314-0.314v0h4.041c0.173 0 0.314 0.14 0.314 0.314v0 5.358c0 0.002 0 0.004 0 0.006 0 0.173-0.14 0.314-0.314 0.314-0 0-0 0-0 0v0z"></path>
<path d="M9.669 6.519h-4.806c-0.173 0-0.314-0.14-0.314-0.314v0-5.892c0-0.173 0.14-0.314 0.314-0.314v0h4.806c0.173 0 0.314 0.14 0.314 0.314v0 5.892c0 0.173-0.14 0.314-0.314 0.314v0zM5.176 5.892h4.179v-5.264h-4.179z"></path>
<path d="M23.925 6.519h-4.806c-0.173 0-0.314-0.14-0.314-0.314v0-5.892c0-0.173 0.14-0.314 0.314-0.314v0h4.806c0.173 0 0.314 0.14 0.314 0.314v0 5.892c0 0.173-0.14 0.314-0.314 0.314v0zM19.451 5.892h4.179v-5.264h-4.179z"></path>
</symbol>
<symbol id="icon-time" viewBox="0 0 32 32">
<title>time</title>
<path d="M16 32c-8.837 0-16-7.163-16-16s7.163-16 16-16c8.837 0 16 7.163 16 16v0c0 8.837-7.163 16-16 16v0zM16 0.533c-8.542 0-15.467 6.925-15.467 15.467s6.925 15.467 15.467 15.467c8.542 0 15.467-6.925 15.467-15.467v0c0-8.542-6.925-15.467-15.467-15.467v0z"></path>
<path d="M16 4.096c-0.147 0-0.267-0.119-0.267-0.267v0-2.133c0-0.147 0.119-0.267 0.267-0.267s0.267 0.119 0.267 0.267v0 2.133c0 0.147-0.119 0.267-0.267 0.267v0z"></path>
<path d="M16 30.571c-0.147 0-0.267-0.119-0.267-0.267v0-2.133c0-0.147 0.119-0.267 0.267-0.267s0.267 0.119 0.267 0.267v0 2.133c0 0.147-0.119 0.267-0.267 0.267v0z"></path>
<path d="M30.304 16.267h-2.133c-0.147 0-0.267-0.119-0.267-0.267s0.119-0.267 0.267-0.267v0h2.133c0.147 0 0.267 0.119 0.267 0.267s-0.119 0.267-0.267 0.267v0z"></path>
<path d="M3.829 16.267h-2.133c-0.147 0-0.267-0.119-0.267-0.267s0.119-0.267 0.267-0.267v0h2.133c0.147 0 0.267 0.119 0.267 0.267s-0.119 0.267-0.267 0.267v0z"></path>
<path d="M16 18.085c-1.152 0-2.085-0.934-2.085-2.085s0.934-2.085 2.085-2.085c1.152 0 2.085 0.934 2.085 2.085v0c0 1.152-0.934 2.085-2.085 2.085v0zM16 14.448c-0.857 0-1.552 0.695-1.552 1.552s0.695 1.552 1.552 1.552c0.857 0 1.552-0.695 1.552-1.552v0c0-0.857-0.695-1.552-1.552-1.552v0z"></path>
<path d="M16 14.4c-0.147 0-0.267-0.119-0.267-0.267v0-8c0-0.147 0.119-0.267 0.267-0.267s0.267 0.119 0.267 0.267v0 8c0 0.147-0.119 0.267-0.267 0.267v0z"></path>
<path d="M11.733 22.021c-0.147 0-0.267-0.119-0.267-0.267 0-0.060 0.020-0.116 0.054-0.161l-0.001 0.001 3.2-4.267c0.049-0.065 0.126-0.107 0.213-0.107 0.147 0 0.267 0.119 0.267 0.267 0 0.060-0.020 0.116-0.054 0.161l0.001-0.001-3.2 4.267c-0.049 0.065-0.126 0.107-0.213 0.107v0z"></path>
</symbol>
<symbol id="icon-location" viewBox="0 0 22 32">
<title>location</title>
<path d="M11.098 32l-0.225-0.225c-1.931-1.988-3.715-4.145-5.319-6.437l-0.111-0.168c-2.481-3.587-5.443-8.923-5.443-14.079 0-6.126 4.966-11.092 11.092-11.092s11.092 4.966 11.092 11.092v0c0 9.211-10.423 20.215-10.867 20.683zM11.092 0.625c-5.778 0.007-10.46 4.689-10.467 10.466v0.001c0 8.748 8.917 18.409 10.46 19.996 1.531-1.668 10.473-11.779 10.473-19.996-0.007-5.778-4.689-10.46-10.466-10.467h-0.001zM11.092 18.121c-3.87-0.007-7.005-3.146-7.005-7.017 0-3.876 3.142-7.017 7.017-7.017 3.871 0 7.010 3.135 7.017 7.004v0.001c0 0.002 0 0.004 0 0.006 0 3.879-3.145 7.024-7.024 7.024-0.002 0-0.004 0-0.007 0h0zM11.092 4.712c-3.525 0.007-6.38 2.866-6.38 6.393 0 3.53 2.862 6.393 6.393 6.393s6.393-2.862 6.393-6.393c0-0.004 0-0.009 0-0.013v0.001c-0.004-3.531-2.867-6.393-6.399-6.393-0.002 0-0.004 0-0.007 0h0z"></path>
</symbol>
<symbol id="icon-evening" viewBox="0 0 32 32">
<title>evening</title>
<path d="M16 1.882c7.797 0 14.118 6.321 14.118 14.118s-6.321 14.118-14.118 14.118c-7.797 0-14.118-6.321-14.118-14.118v0c0-7.797 6.321-14.118 14.118-14.118v0zM16 0c-8.837 0-16 7.163-16 16s7.163 16 16 16c8.837 0 16-7.163 16-16v0c0-8.837-7.163-16-16-16v0z"></path>
<path d="M17.882 16c0 1.040-0.843 1.882-1.882 1.882s-1.882-0.843-1.882-1.882c0-1.040 0.843-1.882 1.882-1.882s1.882 0.843 1.882 1.882z"></path>
<path d="M16 7.096c-0.26 0-0.471-0.211-0.471-0.471v0-2.899c0-0.26 0.211-0.471 0.471-0.471s0.471 0.211 0.471 0.471v0 2.899c0 0.26-0.211 0.471-0.471 0.471v0z"></path>
<path d="M16 28.744c-0.26 0-0.471-0.211-0.471-0.471v0-2.899c0-0.26 0.211-0.471 0.471-0.471s0.471 0.211 0.471 0.471v0 2.899c0 0.26-0.211 0.471-0.471 0.471v0z"></path>
<path d="M28.273 16.471h-2.899c-0.26 0-0.471-0.211-0.471-0.471s0.211-0.471 0.471-0.471v0h2.899c0.26 0 0.471 0.211 0.471 0.471s-0.211 0.471-0.471 0.471v0z"></path>
<path d="M6.626 16.471h-2.899c-0.26 0-0.471-0.211-0.471-0.471s0.211-0.471 0.471-0.471v0h2.899c0.26 0 0.471 0.211 0.471 0.471s-0.211 0.471-0.471 0.471v0z"></path>
<path d="M16 16.706c-0.39 0-0.706-0.316-0.706-0.706v0-6.913c0-0.39 0.316-0.706 0.706-0.706s0.706 0.316 0.706 0.706v0 6.913c0 0.39-0.316 0.706-0.706 0.706v0z"></path>
<path d="M11.821 22.216c-0.389-0.001-0.705-0.316-0.705-0.706 0-0.162 0.054-0.311 0.146-0.43l-0.001 0.002 4.174-5.511c0.129-0.183 0.34-0.3 0.578-0.3 0.39 0 0.706 0.316 0.706 0.706 0 0.17-0.060 0.326-0.16 0.447l0.001-0.001-4.174 5.511c-0.13 0.172-0.335 0.282-0.565 0.282v0z"></path>
</symbol>
<symbol id="icon-manager" viewBox="0 0 36 32">
<title>manager</title>
<path d="M30.085 6.288l1.813-2.075c0.121-0.156 0.193-0.355 0.193-0.571s-0.073-0.414-0.195-0.573l0.002 0.002c-0.101-0.186-0.295-0.31-0.517-0.31-0.179 0-0.34 0.080-0.448 0.207l-0.001 0.001-1.813 2.075c-0.121 0.156-0.193 0.355-0.193 0.571s0.073 0.414 0.195 0.573l-0.002-0.002c0.101 0.186 0.295 0.31 0.517 0.31 0.179 0 0.34-0.080 0.448-0.207l0.001-0.001zM30.683 9.355c0.055 0.277 0.297 0.484 0.586 0.484 0.073 0 0.143-0.013 0.207-0.037l-0.004 0.001 2.475-0.901c0.28-0.119 0.472-0.391 0.472-0.709 0-0.068-0.009-0.135-0.026-0.198l0.001 0.005c-0.057-0.276-0.297-0.48-0.586-0.48-0.075 0-0.147 0.014-0.213 0.039l0.004-0.001-2.475 0.901c-0.277 0.12-0.466 0.391-0.466 0.706 0 0.067 0.009 0.133 0.025 0.195l-0.001-0.005zM31.861 13.408c0 0 0 0 0 0 0 0.372 0.3 0.674 0.672 0.677h2.699c0.347-0.032 0.617-0.322 0.617-0.675s-0.27-0.643-0.615-0.674l-0.003-0h-2.699c-0.37 0.003-0.669 0.302-0.672 0.672v0zM4.896 15.648c-0.24-0.757-1.141-0.368-1.477-0.261-1.941 0.613-4.645 1.723-2.811 7.248 0.043 0.123 0.093 0.228 0.154 0.327l-0.004-0.007c1.691 2.528 3.845 2.512 5.829 2.075 0.171-0.053 1.125-0.533 0.907-1.227zM20.667 3.733c-0.672 0.773-1.349 1.547-2.048 2.24-1.023 1.046-2.092 2.031-3.211 2.958l-0.069 0.055c-0.732 0.611-1.546 1.185-2.405 1.692l-0.086 0.047c-0.81 0.519-1.749 1.017-2.729 1.438l-0.13 0.050-3.781 1.237c-0.336 0.112-0.533 0.923-0.533 1.2l2.965 9.349c0.133 0.421 0.912 0.533 1.216 0.619l0.533-0.085 6.219-1.387c0.763-0.16 5.003-0.219 5.088-0.245 1.541 0.229 3.061 0.368 4.544 0.709 0.208 0.048 1.131 0.32 2.171 0.603l-7.248-21.115c-0.24 0.315-0.416 0.555-0.496 0.635zM35.968 17.573l-2.475-0.901c-0.060-0.023-0.13-0.036-0.203-0.036-0.29 0-0.531 0.206-0.586 0.48l-0.001 0.004c-0.016 0.058-0.025 0.124-0.025 0.192 0 0.317 0.193 0.59 0.467 0.707l0.005 0.002 2.475 0.901c0.060 0.023 0.13 0.036 0.203 0.036 0.29 0 0.531-0.206 0.586-0.48l0.001-0.004c0.016-0.058 0.025-0.124 0.025-0.192 0-0.317-0.193-0.59-0.467-0.707l-0.005-0.002zM17.067 23.691c-1.979 0.411-4.144 1.019-5.968 1.467l7.413 6.571c0.944 0.667 2.464-0.085 2.795-0.197 0.165-0.053 1.413-0.475 2.053-0.779 0.165-0.053 0.725-0.32 0.341-0.667zM26.267 1.744c-0.213-0.677-0.939-2.096-2.267-1.664-0.656 0.396-1.203 0.904-1.631 1.504l-0.011 0.016 7.808 23.056c0.443 0.142 0.952 0.223 1.48 0.223 0.076 0 0.152-0.002 0.227-0.005l-0.011 0c1.067-0.357 1.12-1.664 0.832-2.853z"></path>
</symbol>
<symbol id="icon-pro" viewBox="0 0 31 32">
<title>pro</title>
<path d="M15.408 13.035c-5.237 0-9.483 4.246-9.483 9.483s4.246 9.483 9.483 9.483c5.237 0 9.483-4.246 9.483-9.483v0c0-5.237-4.246-9.483-9.483-9.483v0zM22.107 20.149h-4.555l-1.904-4.731c2.976 0.106 5.478 2.025 6.443 4.681l0.016 0.049zM15.173 15.419l-1.904 4.731h-4.56c0.98-2.704 3.479-4.622 6.441-4.73l0.013-0zM8.299 22.517c-0-0.024-0-0.053-0-0.082 0-0.64 0.086-1.261 0.247-1.85l-0.011 0.049 3.733 2.869-1.216 4.608c-1.677-1.307-2.747-3.325-2.752-5.594v-0.001zM15.408 29.632c-1.425-0-2.752-0.422-3.862-1.147l0.027 0.017 3.835-2.613 3.835 2.613c-1.083 0.709-2.41 1.13-3.835 1.131h-0zM22.517 22.517c0 0 0 0.001 0 0.002 0 2.265-1.062 4.283-2.715 5.581l-0.015 0.012-1.216-4.608 3.691-2.869c0.163 0.563 0.256 1.209 0.256 1.878 0 0.002 0 0.004 0 0.005v-0zM8.933 13.616l-8.837-12.757c-0.069-0.089-0.111-0.202-0.111-0.326 0-0.295 0.239-0.533 0.533-0.533 0.005 0 0.010 0 0.016 0l-0.001-0h8c0.001 0 0.002 0 0.003 0 0.302 0 0.57 0.151 0.731 0.381l0.002 0.003 5.275 7.616-2.864 4.16c-1.049 0.383-1.956 0.875-2.777 1.478l0.031-0.022zM30.72 0.859l-8.853 12.757c-1.767-1.326-3.996-2.124-6.412-2.124-0.598 0-1.185 0.049-1.757 0.143l0.062-0.008 7.803-11.243c0.163-0.233 0.43-0.384 0.733-0.384 0.001 0 0.002 0 0.004 0h7.968c0.008-0 0.017-0.001 0.026-0.001 0.295 0 0.533 0.239 0.533 0.533 0 0.123-0.042 0.237-0.112 0.327l0.001-0.001z"></path>
</symbol>
<symbol id="icon-monethes" viewBox="0 0 37 32">
<title>monethes</title>
<path d="M0.688 2.165v0c-0.38 0-0.688 0.308-0.688 0.688v28.459c0 0.38 0.308 0.688 0.688 0.688h35.579c0.38 0 0.688-0.308 0.688-0.688v-28.491c0-0.38-0.308-0.688-0.688-0.688h-4.043v2.667c0 1.267-1.027 2.293-2.293 2.293s-2.293-1.027-2.293-2.293v-2.667h-3.051v2.667c0 1.267-1.027 2.293-2.293 2.293s-2.293-1.027-2.293-2.293v-2.667h-3.051v2.667c0 1.267-1.027 2.293-2.293 2.293s-2.293-1.027-2.293-2.293v-2.667h-3.051v2.667c0 1.267-1.027 2.293-2.293 2.293s-2.293-1.027-2.293-2.293v-2.635h-4.037zM2.555 10.699h31.835c0.218 0 0.395 0.177 0.395 0.395v0 18.352c0 0.218-0.177 0.395-0.395 0.395h-31.835c-0.218 0-0.395-0.177-0.395-0.395v0-18.331c0-0.218 0.177-0.395 0.395-0.395v0zM5.621 1.397c0-0.772 0.626-1.397 1.397-1.397s1.397 0.626 1.397 1.397v0 2.667c0 0.772-0.626 1.397-1.397 1.397s-1.397-0.626-1.397-1.397v0-2.667zM13.259 1.397c0-0.772 0.626-1.397 1.397-1.397s1.397 0.626 1.397 1.397v0 2.667c0 0.772-0.626 1.397-1.397 1.397s-1.397-0.626-1.397-1.397v0-2.667zM20.896 1.397c0-0.772 0.626-1.397 1.397-1.397s1.397 0.626 1.397 1.397v0 2.667c0 0.772-0.626 1.397-1.397 1.397s-1.397-0.626-1.397-1.397v0-2.667zM28.533 1.397c0-0.772 0.626-1.397 1.397-1.397s1.397 0.626 1.397 1.397v0 2.667c0 0.772-0.626 1.397-1.397 1.397s-1.397-0.626-1.397-1.397v0-2.667zM14.229 23.797h2.875v2.816h-9.493v-2.816h2.981v-5.664h-2.981v-2.133c0.498-0.032 0.963-0.11 1.41-0.23l-0.050 0.011c0.58-0.148 1.060-0.305 1.526-0.489l-0.086 0.030q0.72-0.277 1.387-0.613c0.478-0.237 0.873-0.464 1.253-0.712l-0.048 0.029h1.221zM26.587 14.277c0.669 0.298 1.221 0.751 1.629 1.316l0.008 0.012c0.407 0.585 0.706 1.277 0.853 2.024l0.006 0.034c0.16 0.766 0.251 1.646 0.251 2.547 0 0.042-0 0.084-0.001 0.126l0-0.006c0 0.034 0 0.075 0 0.115 0 0.903-0.091 1.784-0.266 2.636l0.014-0.084c-0.149 0.785-0.447 1.481-0.865 2.088l0.012-0.018c-0.416 0.577-0.969 1.030-1.612 1.318l-0.025 0.010c-0.706 0.299-1.528 0.473-2.39 0.473-0.071 0-0.142-0.001-0.213-0.004l0.010 0c-0.060 0.002-0.131 0.003-0.202 0.003-0.862 0-1.683-0.174-2.431-0.488l0.041 0.015c-0.682-0.295-1.247-0.749-1.667-1.317l-0.008-0.011c-0.412-0.584-0.713-1.277-0.859-2.025l-0.005-0.034c-0.16-0.767-0.251-1.648-0.251-2.551 0-0.041 0-0.081 0.001-0.122l-0 0.006c-0-0.035-0.001-0.077-0.001-0.119 0-0.901 0.091-1.781 0.266-2.631l-0.014 0.084c0.149-0.786 0.451-1.482 0.875-2.086l-0.011 0.017c0.421-0.576 0.977-1.029 1.622-1.318l0.026-0.010c0.707-0.299 1.529-0.473 2.392-0.473 0.080 0 0.159 0.002 0.238 0.004l-0.011-0c0.059-0.002 0.128-0.003 0.198-0.003 0.862 0 1.683 0.174 2.43 0.488l-0.041-0.015zM23.173 16.459c-0.226 0.126-0.407 0.308-0.53 0.526l-0.004 0.007c-0.149 0.281-0.256 0.609-0.302 0.956l-0.002 0.015c-0.061 0.401-0.096 0.864-0.096 1.335 0 0.031 0 0.063 0 0.094l-0-0.005v1.813c-0 0.026-0 0.058-0 0.089 0 0.471 0.035 0.934 0.103 1.386l-0.006-0.051c0.049 0.364 0.156 0.693 0.312 0.993l-0.008-0.017c0.122 0.237 0.304 0.428 0.527 0.557l0.006 0.003c0.221 0.112 0.483 0.177 0.759 0.177 0.020 0 0.040-0 0.060-0.001l-0.003 0c0.019 0.001 0.041 0.001 0.063 0.001 0.272 0 0.53-0.066 0.757-0.182l-0.009 0.004c0.23-0.132 0.412-0.323 0.53-0.552l0.003-0.008c0.144-0.283 0.247-0.613 0.292-0.961l0.002-0.015c0.058-0.399 0.091-0.859 0.091-1.327 0-0.034-0-0.068-0.001-0.102l0 0.005v-1.813c0-0.029 0-0.063 0-0.097 0-0.468-0.033-0.928-0.097-1.379l0.006 0.052c-0.045-0.361-0.148-0.689-0.301-0.987l0.008 0.017c-0.126-0.226-0.307-0.408-0.526-0.53l-0.007-0.003c-0.217-0.111-0.474-0.177-0.747-0.177-0.019 0-0.038 0-0.056 0.001l0.003-0c-0.018-0.001-0.040-0.001-0.062-0.001-0.277 0-0.538 0.065-0.769 0.182l0.010-0.005z"></path>
</symbol>
<symbol id="icon-week" viewBox="0 0 35 32">
<title>week</title>
<path d="M34.069 3.968h-5.984v3.499c0 1.582-1.282 2.864-2.864 2.864s-2.864-1.282-2.864-2.864v0-3.499h-10v3.499c0 1.582-1.282 2.864-2.864 2.864s-2.864-1.282-2.864-2.864v0-3.499h-5.984c-0.355 0.003-0.642 0.29-0.645 0.645v26.742c0.003 0.355 0.29 0.642 0.645 0.645h33.424c0.355-0.003 0.642-0.29 0.645-0.645v-26.742c-0.003-0.355-0.29-0.642-0.645-0.645h-0zM32.683 29.6c-0.003 0.202-0.166 0.365-0.368 0.368h-29.915c-0.202-0.003-0.365-0.166-0.368-0.368v-17.227c0-0.203 0.165-0.368 0.368-0.368v0h29.915c0.202 0.003 0.365 0.166 0.368 0.368v0zM24.992 22.549l-0.901-1.557h1.067l0.357 0.619 1.429-2.48h-3.504v3.877h3.877v-2.608l-1.243 2.133zM14.325 17.216l-0.901-1.557h1.067l0.357 0.619 1.419-2.411h-3.52v3.877h3.877v-2.613l-1.216 2.101zM24.992 17.216l-0.901-1.557h1.067l0.357 0.619 1.419-2.411h-3.493v3.877h3.877v-2.667l-1.243 2.133zM18.091 28.267h3.877v-3.856h-3.877zM18.091 17.707h3.877v-3.84h-3.877zM24.992 27.84l-0.901-1.557h1.067l0.357 0.619 1.461-2.533h-3.536v3.899h3.877v-2.533l-1.243 2.133zM18.091 23.008h3.877v-3.877h-3.877zM14.325 22.549l-0.901-1.557h1.067l0.357 0.619 1.429-2.48h-3.531v3.877h3.877v-2.56l-1.216 2.101zM7.392 23.008h3.877v-3.877h-3.872zM14.325 27.883l-0.901-1.557h1.067l0.357 0.619 1.461-2.533h-3.563v3.856h3.877v-2.507l-1.216 2.101zM7.392 28.288h3.877v-3.877h-3.872zM9.493 9.317c0.002 0 0.003 0 0.005 0 1.019 0 1.845-0.826 1.845-1.845 0-0.002 0-0.004 0-0.006v0-5.621c0-1.021-0.827-1.848-1.848-1.848s-1.848 0.827-1.848 1.848v0 5.621c0 0.002 0 0.003 0 0.005 0 1.019 0.826 1.845 1.845 1.845 0 0 0 0 0 0v0zM25.221 9.317c0.002 0 0.003 0 0.005 0 1.019 0 1.845-0.826 1.845-1.845 0-0.002 0-0.004 0-0.006v0-5.621c0-1.021-0.827-1.848-1.848-1.848s-1.848 0.827-1.848 1.848v0 5.621c0 0 0 0 0 0 0 1.020 0.826 1.848 1.845 1.851h0z"></path>
</symbol>
</defs>
</svg>
