<svg height="0" overflow="hidden" width="0" xmlns="http://www.w3.org/2000/svg"><defs><symbol id="icon-menu" viewBox="0 0 32 32"><path d="m0 0h32v6.4h-32z"/><path d="m0 12.8h32v6.4h-32z"/><path d="m0 25.6h32v6.4h-32z"/></symbol><symbol id="icon-calendar" viewBox="0 0 29 32"><path d="m9.318 19.15h-6.318c-.173 0-.314-.14-.314-.314v0-6.707c0-.173.14-.314.314-.314v0h6.318c.173 0 .314.14.314.314v0 6.695c0 .004 0 .008 0 .013 0 .173-.14.314-.314.314 0 0 0 0 0 0v0zm-6.005-.628h5.691v-6.08h-5.691z"/><path d="m17.726 19.15h-6.325c-.173 0-.314-.14-.314-.314v0-6.707c0-.173.14-.314.314-.314v0h6.325c.173 0 .314.14.314.314v0 6.695c0 .004 0 .008 0 .013 0 .173-.14.314-.314.314 0 0 0 0 0 0v0zm-6.005-.628h5.691v-6.08h-5.697z"/><path d="m26.127 19.15h-6.318c-.173 0-.314-.14-.314-.314v0-6.707c0-.173.14-.314.314-.314v0h6.318c.173 0 .314.14.314.314v0 6.695c0 .004 0 .008 0 .013 0 .173-.14.314-.314.314 0 0 0 0 0 0v0zm-6.005-.628h5.691v-6.08h-5.691z"/><path d="m9.318 28.762h-6.318c-.173 0-.314-.14-.314-.314v0-6.707c0-.173.14-.314.314-.314v0h6.318c.173 0 .314.14.314.314v0 6.707c0 .173-.14.314-.314.314zm-6.005-.627h5.691v-6.08h-5.691z"/><path d="m17.726 28.762h-6.325c-.173 0-.314-.14-.314-.314v0-6.707c0-.173.14-.314.314-.314v0h6.325c.173 0 .314.14.314.314v0 6.707c0 .173-.14.314-.314.314zm-6.005-.627h5.691v-6.08h-5.697z"/><path d="m26.127 28.762h-6.318c-.173 0-.314-.14-.314-.314v0-6.707c0-.173.14-.314.314-.314v0h6.318c.173 0 .314.14.314.314v0 6.707c0 .173-.14.314-.314.314zm-6.005-.627h5.691v-6.08h-5.691z"/><path d="m28.474 32h-28.16c-.173 0-.314-.14-.314-.314v0-22.795c0-.173.14-.314.314-.314v0h28.16c.173 0 .314.14.314.314v0 22.795c0 .173-.14.314-.314.314zm-27.847-.627h27.533v-22.168h-27.533z"/><path d="m19.118 3.84h-9.449c-.173 0-.314-.14-.314-.314s.14-.314.314-.314v0h9.449c.173 0 .314.14.314.314s-.14.314-.314.314z"/><path d="m28.474 9.205h-28.16c-.173 0-.314-.14-.314-.314v0-5.365c0-.173.14-.314.314-.314v0h4.549c.173 0 .314.14.314.314s-.14.314-.314.314v0h-4.235v4.731h27.533v-4.731h-3.727c-.173 0-.314-.14-.314-.314s.14-.314.314-.314v0h4.041c.173 0 .314.14.314.314v0 5.358c0 .002 0 .004 0 .006 0 .173-.14.314-.314.314 0 0 0 0 0 0v0z"/><path d="m9.669 6.519h-4.806c-.173 0-.314-.14-.314-.314v0-5.892c0-.173.14-.314.314-.314v0h4.806c.173 0 .314.14.314.314v0 5.892c0 .173-.14.314-.314.314zm-4.493-.627h4.179v-5.264h-4.179z"/><path d="m23.925 6.519h-4.806c-.173 0-.314-.14-.314-.314v0-5.892c0-.173.14-.314.314-.314v0h4.806c.173 0 .314.14.314.314v0 5.892c0 .173-.14.314-.314.314zm-4.474-.627h4.179v-5.264h-4.179z"/></symbol><symbol id="icon-menu" viewBox="0 0 32 32"><path d="m12.541 3.459c0-1.911 1.549-3.459 3.459-3.459s3.459 1.549 3.459 3.459c0 1.911-1.549 3.459-3.459 3.459s-3.459-1.549-3.459-3.459zm5.907 0c-.01-1.335-1.094-2.413-2.43-2.413-1.342 0-2.43 1.088-2.43 2.43 0 1.336 1.078 2.42 2.412 2.43.006 0 .012 0 .018 0 1.342 0 2.43-1.088 2.43-2.43 0-.006 0-.012 0-.018z"/><path d="m12.541 15.715c0-1.911 1.549-3.459 3.459-3.459s3.459 1.549 3.459 3.459c0 1.911-1.549 3.459-3.459 3.459s-3.459-1.549-3.459-3.459zm5.907 0c-.01-1.335-1.094-2.413-2.43-2.413-1.342 0-2.43 1.088-2.43 2.43 0 1.336 1.078 2.42 2.412 2.43.006 0 .012 0 .018 0 1.342 0 2.43-1.088 2.43-2.43 0-.006 0-.012 0-.018z"/><path d="m12.541 28.342c0-1.911 1.549-3.459 3.459-3.459s3.459 1.549 3.459 3.459c0 1.911-1.549 3.459-3.459 3.459s-3.459-1.549-3.459-3.459zm5.907 0c-.005-1.338-1.091-2.422-2.43-2.422-1.342 0-2.43 1.088-2.43 2.43 0 1.336 1.078 2.42 2.412 2.43.006 0 .012 0 .018 0 1.342 0 2.43-1.088 2.43-2.43 0-.003 0-.006 0-.009z"/></symbol><symbol id="icon-time" viewBox="0 0 32 32"><path d="m16 32c-8.837 0-16-7.163-16-16s7.163-16 16-16c8.837 0 16 7.163 16 16v0c0 8.837-7.163 16-16 16zm0-31.467c-8.542 0-15.467 6.925-15.467 15.467s6.925 15.467 15.467 15.467c8.542 0 15.467-6.925 15.467-15.467v0c0-8.542-6.925-15.467-15.467-15.467z"/><path d="m16 4.096c-.147 0-.267-.119-.267-.267v0-2.133c0-.147.119-.267.267-.267s.267.119.267.267v0 2.133c0 .147-.119.267-.267.267z"/><path d="m16 30.571c-.147 0-.267-.119-.267-.267v0-2.133c0-.147.119-.267.267-.267s.267.119.267.267v0 2.133c0 .147-.119.267-.267.267z"/><path d="m30.304 16.267h-2.133c-.147 0-.267-.119-.267-.267s.119-.267.267-.267v0h2.133c.147 0 .267.119.267.267s-.119.267-.267.267z"/><path d="m3.829 16.267h-2.133c-.147 0-.267-.119-.267-.267s.119-.267.267-.267v0h2.133c.147 0 .267.119.267.267s-.119.267-.267.267z"/><path d="m16 18.085c-1.152 0-2.085-.934-2.085-2.085s.934-2.085 2.085-2.085c1.152 0 2.085.934 2.085 2.085v0c0 1.152-.934 2.085-2.085 2.085zm0-3.637c-.857 0-1.552.695-1.552 1.552s.695 1.552 1.552 1.552c.857 0 1.552-.695 1.552-1.552v0c0-.857-.695-1.552-1.552-1.552z"/><path d="m16 14.4c-.147 0-.267-.119-.267-.267v0-8c0-.147.119-.267.267-.267s.267.119.267.267v0 8c0 .147-.119.267-.267.267z"/><path d="m11.733 22.021c-.147 0-.267-.119-.267-.267 0-.06.02-.116.054-.161l-.001.001 3.2-4.267c.049-.065.126-.107.213-.107.147 0 .267.119.267.267 0 .06-.02.116-.054.161l.001-.001-3.2 4.267c-.049.065-.126.107-.213.107z"/></symbol><symbol id="icon-location" viewBox="0 0 22 32"><path d="m11.098 32l-.225-.225c-1.931-1.988-3.715-4.145-5.319-6.437l-.111-.168c-2.481-3.587-5.443-8.923-5.443-14.079 0-6.126 4.966-11.092 11.092-11.092s11.092 4.966 11.092 11.092v0c0 9.211-10.423 20.215-10.867 20.683zm-.006-31.375c-5.778.007-10.46 4.689-10.467 10.466v.001c0 8.748 8.917 18.409 10.46 19.996 1.531-1.668 10.473-11.779 10.473-19.996-.007-5.778-4.689-10.46-10.466-10.467h-.001zm0 17.496c-3.87-.007-7.005-3.146-7.005-7.017 0-3.876 3.142-7.017 7.017-7.017 3.871 0 7.01 3.135 7.017 7.004v.001c0 .002 0 .004 0 .006 0 3.879-3.145 7.024-7.024 7.024-.002 0-.004 0-.007 0h0zm0-13.409c-3.525.007-6.38 2.866-6.38 6.393 0 3.53 2.862 6.393 6.393 6.393s6.393-2.862 6.393-6.393c0-.004 0-.009 0-.013v.001c-.004-3.531-2.867-6.393-6.399-6.393-.002 0-.004 0-.007 0h0z"/></symbol><symbol id="icon-evening" viewBox="0 0 32 32"><path d="m16 1.882c7.797 0 14.118 6.321 14.118 14.118s-6.321 14.118-14.118 14.118c-7.797 0-14.118-6.321-14.118-14.118v0c0-7.797 6.321-14.118 14.118-14.118zm0-1.882c-8.837 0-16 7.163-16 16s7.163 16 16 16c8.837 0 16-7.163 16-16v0c0-8.837-7.163-16-16-16z"/><path d="m17.882 16c0 1.04-.843 1.882-1.882 1.882s-1.882-.843-1.882-1.882c0-1.04.843-1.882 1.882-1.882s1.882.843 1.882 1.882z"/><path d="m16 7.096c-.26 0-.471-.211-.471-.471v0-2.899c0-.26.211-.471.471-.471s.471.211.471.471v0 2.899c0 .26-.211.471-.471.471z"/><path d="m16 28.744c-.26 0-.471-.211-.471-.471v0-2.899c0-.26.211-.471.471-.471s.471.211.471.471v0 2.899c0 .26-.211.471-.471.471z"/><path d="m28.273 16.471h-2.899c-.26 0-.471-.211-.471-.471s.211-.471.471-.471v0h2.899c.26 0 .471.211.471.471s-.211.471-.471.471z"/><path d="m6.626 16.471h-2.899c-.26 0-.471-.211-.471-.471s.211-.471.471-.471v0h2.899c.26 0 .471.211.471.471s-.211.471-.471.471z"/><path d="m16 16.706c-.39 0-.706-.316-.706-.706v0-6.913c0-.39.316-.706.706-.706s.706.316.706.706v0 6.913c0 .39-.316.706-.706.706z"/><path d="m11.821 22.216c-.389-.001-.705-.316-.705-.706 0-.162.054-.311.146-.43l-.001.002 4.174-5.511c.129-.183.34-.3.578-.3.39 0 .706.316.706.706 0 .17-.06.326-.16.447l.001-.001-4.174 5.511c-.13.172-.335.282-.565.282z"/></symbol><symbol id="icon-manager" viewBox="0 0 36 32"><path d="m30.085 6.288l1.813-2.075c.121-.156.193-.355.193-.571s-.073-.414-.195-.573l.002.002c-.101-.186-.295-.31-.517-.31-.179 0-.34.08-.448.207l-.001.001-1.813 2.075c-.121.156-.193.355-.193.571s.073.414.195.573l-.002-.002c.101.186.295.31.517.31.179 0 .34-.08.448-.207zm.598 3.067c.055.277.297.484.586.484.073 0 .143-.013.207-.037l-.004.001 2.475-.901c.28-.119.472-.391.472-.709 0-.068-.009-.135-.026-.198l.001.005c-.057-.276-.297-.48-.586-.48-.075 0-.147.014-.213.039l.004-.001-2.475.901c-.277.12-.466.391-.466.706 0 .067.009.133.025.195l-.001-.005zm1.178 4.053c0 0 0 0 0 0 0 .372.3.674.672.677h2.699c.347-.032.617-.322.617-.675s-.27-.643-.615-.674h-.003-2.699c-.37.003-.669.302-.672.672v0zm-26.965 2.24c-.24-.757-1.141-.368-1.477-.261-1.941.613-4.645 1.723-2.811 7.248.043.123.093.228.154.327l-.004-.007c1.691 2.528 3.845 2.512 5.829 2.075.171-.053 1.125-.533.907-1.227zm15.771-11.915c-.672.773-1.349 1.547-2.048 2.24-1.023 1.046-2.092 2.031-3.211 2.958l-.069.055c-.732.611-1.546 1.185-2.405 1.692l-.086.047c-.81.519-1.749 1.017-2.729 1.438l-.13.05-3.781 1.237c-.336.112-.533.923-.533 1.2l2.965 9.349c.133.421.912.533 1.216.619l.533-.085 6.219-1.387c.763-.16 5.003-.219 5.088-.245 1.541.229 3.061.368 4.544.709.208.048 1.131.32 2.171.603l-7.248-21.115c-.24.315-.416.555-.496.635zm15.301 13.84l-2.475-.901c-.06-.023-.13-.036-.203-.036-.29 0-.531.206-.586.48l-.001.004c-.016.058-.025.124-.025.192 0 .317.193.59.467.707l.005.002 2.475.901c.06.023.13.036.203.036.29 0 .531-.206.586-.48l.001-.004c.016-.058.025-.124.025-.192 0-.317-.193-.59-.467-.707zm-18.901 6.118c-1.979.411-4.144 1.019-5.968 1.467l7.413 6.571c.944.667 2.464-.085 2.795-.197.165-.053 1.413-.475 2.053-.779.165-.053.725-.32.341-.667zm9.2-21.947c-.213-.677-.939-2.096-2.267-1.664-.656.396-1.203.904-1.631 1.504l-.011.016 7.808 23.056c.443.142.952.223 1.48.223.076 0 .152-.002.227-.005h-.011c1.067-.357 1.12-1.664.832-2.853z"/></symbol><symbol id="icon-pro" viewBox="0 0 31 32"><path d="m15.408 13.035c-5.237 0-9.483 4.246-9.483 9.483s4.246 9.483 9.483 9.483c5.237 0 9.483-4.246 9.483-9.483v0c0-5.237-4.246-9.483-9.483-9.483zm6.699 7.114h-4.555l-1.904-4.731c2.976.106 5.478 2.025 6.443 4.681l.016.049zm-6.934-4.73l-1.904 4.731h-4.56c.98-2.704 3.479-4.622 6.441-4.73h.013zm-6.874 7.098c0-.024 0-.053 0-.082 0-.64.086-1.261.247-1.85l-.011.049 3.733 2.869-1.216 4.608c-1.677-1.307-2.747-3.325-2.752-5.594v-.001zm7.109 7.115c-1.425 0-2.752-.422-3.862-1.147l.027.017 3.835-2.613 3.835 2.613c-1.083.709-2.41 1.13-3.835 1.131h0zm7.109-7.115c0 0 0 .001 0 .002 0 2.265-1.062 4.283-2.715 5.581l-.015.012-1.216-4.608 3.691-2.869c.163.563.256 1.209.256 1.878 0 .002 0 .004 0 .005v0zm-13.584-8.901l-8.837-12.757c-.069-.089-.111-.202-.111-.326 0-.295.239-.533.533-.533.005 0 .01 0 .016 0h-.001 8c .001 0 .002 0 .003 0 .302 0 .57.151.731.381l.002.003 5.275 7.616-2.864 4.16c-1.049.383-1.956.875-2.777 1.478l.031-.022zm21.787-12.757l-8.853 12.757c-1.767-1.326-3.996-2.124-6.412-2.124-.598 0-1.185.049-1.757.143l.062-.008 7.803-11.243c.163-.233.43-.384.733-.384.001 0 .002 0 .004 0h7.968c.008 0 .017-.001.026-.001.295 0 .533.239.533.533 0 .123-.042.237-.112.327l.001-.001z"/></symbol><symbol id="icon-monethes" viewBox="0 0 37 32"><path d="m .688 2.165v0c-.38 0-.688.308-.688.688v28.459c0 .38.308.688.688.688h35.579c.38 0 .688-.308.688-.688v-28.491c0-.38-.308-.688-.688-.688h-4.043v2.667c0 1.267-1.027 2.293-2.293 2.293s-2.293-1.027-2.293-2.293v-2.667h-3.051v2.667c0 1.267-1.027 2.293-2.293 2.293s-2.293-1.027-2.293-2.293v-2.667h-3.051v2.667c0 1.267-1.027 2.293-2.293 2.293s-2.293-1.027-2.293-2.293v-2.667h-3.051v2.667c0 1.267-1.027 2.293-2.293 2.293s-2.293-1.027-2.293-2.293v-2.635h-4.037zm1.867 8.534h31.835c.218 0 .395.177.395.395v0 18.352c0 .218-.177.395-.395.395h-31.835c-.218 0-.395-.177-.395-.395v0-18.331c0-.218.177-.395.395-.395v0zm3.066-9.302c0-.772.626-1.397 1.397-1.397s1.397.626 1.397 1.397v0 2.667c0 .772-.626 1.397-1.397 1.397s-1.397-.626-1.397-1.397v0zm7.638 0c0-.772.626-1.397 1.397-1.397s1.397.626 1.397 1.397v0 2.667c0 .772-.626 1.397-1.397 1.397s-1.397-.626-1.397-1.397v0zm7.637 0c0-.772.626-1.397 1.397-1.397s1.397.626 1.397 1.397v0 2.667c0 .772-.626 1.397-1.397 1.397s-1.397-.626-1.397-1.397v0zm7.637 0c0-.772.626-1.397 1.397-1.397s1.397.626 1.397 1.397v0 2.667c0 .772-.626 1.397-1.397 1.397s-1.397-.626-1.397-1.397v0zm-14.304 22.4h2.875v2.816h-9.493v-2.816h2.981v-5.664h-2.981v-2.133c.498-.032.963-.11 1.41-.23l-.05.011c.58-.148 1.06-.305 1.526-.489l-.086.03q.72-.277 1.387-.613c.478-.237.873-.464 1.253-.712l-.048.029h1.221zm12.358-9.52c.669.298 1.221.751 1.629 1.316l.008.012c.407.585.706 1.277.853 2.024l.006.034c.16.766.251 1.646.251 2.547 0 .042 0 .084-.001.126v-.006c0 .034 0 .075 0 .115 0 .903-.091 1.784-.266 2.636l.014-.084c-.149.785-.447 1.481-.865 2.088l.012-.018c-.416.577-.969 1.03-1.612 1.318l-.025.01c-.706.299-1.528.473-2.39.473-.071 0-.142-.001-.213-.004h.01c-.06.002-.131.003-.202.003-.862 0-1.683-.174-2.431-.488l.041.015c-.682-.295-1.247-.749-1.667-1.317l-.008-.011c-.412-.584-.713-1.277-.859-2.025l-.005-.034c-.16-.767-.251-1.648-.251-2.551 0-.041 0-.081.001-.122v.006c0-.035-.001-.077-.001-.119 0-.901.091-1.781.266-2.631l-.014.084c.149-.786.451-1.482.875-2.086l-.011.017c.421-.576.977-1.029 1.622-1.318l.026-.01c.707-.299 1.529-.473 2.392-.473.08 0 .159.002.238.004h-.011c.059-.002.128-.003.198-.003.862 0 1.683.174 2.43.488l-.041-.015zm-3.414 2.182c-.226.126-.407.308-.53.526l-.004.007c-.149.281-.256.609-.302.956l-.002.015c-.061.401-.096.864-.096 1.335 0 .031 0 .063 0 .094v-.005 1.813c0 .026 0 .058 0 .089 0 .471.035.934.103 1.386l-.006-.051c.049.364.156.693.312.993l-.008-.017c.122.237.304.428.527.557l.006.003c.221.112.483.177.759.177.02 0 .04 0 .06-.001h-.003c.019.001.041.001.063.001.272 0 .53-.066.757-.182l-.009.004c.23-.132.412-.323.53-.552l.003-.008c.144-.283.247-.613.292-.961l.002-.015c.058-.399.091-.859.091-1.327 0-.034 0-.068-.001-.102v.005-1.813c0-.029 0-.063 0-.097 0-.468-.033-.928-.097-1.379l.006.052c-.045-.361-.148-.689-.301-.987l.008.017c-.126-.226-.307-.408-.526-.53l-.007-.003c-.217-.111-.474-.177-.747-.177-.019 0-.038 0-.056.001h.003c-.018-.001-.04-.001-.062-.001-.277 0-.538.065-.769.182l.01-.005z"/></symbol><symbol id="icon-week" viewBox="0 0 35 32"><path d="m34.069 3.968h-5.984v3.499c0 1.582-1.282 2.864-2.864 2.864s-2.864-1.282-2.864-2.864v0-3.499h-10v3.499c0 1.582-1.282 2.864-2.864 2.864s-2.864-1.282-2.864-2.864v0-3.499h-5.984c-.355.003-.642.29-.645.645v26.742c.003.355.29.642.645.645h33.424c.355-.003.642-.29.645-.645v-26.742c-.003-.355-.29-.642-.645-.645zm-1.386 25.632c-.003.202-.166.365-.368.368h-29.915c-.202-.003-.365-.166-.368-.368v-17.227c0-.203.165-.368.368-.368v0h29.915c.202.003.365.166.368.368v0zm-7.691-7.051l-.901-1.557h1.067l.357.619 1.429-2.48h-3.504v3.877h3.877v-2.608l-1.243 2.133zm-10.667-5.333l-.901-1.557h1.067l.357.619 1.419-2.411h-3.52v3.877h3.877v-2.613l-1.216 2.101zm10.667 0l-.901-1.557h1.067l.357.619 1.419-2.411h-3.493v3.877h3.877v-2.667l-1.243 2.133zm-6.901 11.051h3.877v-3.856h-3.877zm0-10.56h3.877v-3.84h-3.877zm6.901 10.133l-.901-1.557h1.067l.357.619 1.461-2.533h-3.536v3.899h3.877v-2.533l-1.243 2.133zm-6.901-4.832h3.877v-3.877h-3.877zm-3.766-.459l-.901-1.557h1.067l.357.619 1.429-2.48h-3.531v3.877h3.877v-2.56l-1.216 2.101zm-6.933.459h3.877v-3.877h-3.872zm6.933 4.875l-.901-1.557h1.067l.357.619 1.461-2.533h-3.563v3.856h3.877v-2.507l-1.216 2.101zm-6.933.405h3.877v-3.877h-3.872zm2.101-18.971c.002 0 .003 0 .005 0 1.019 0 1.845-.826 1.845-1.845 0-.002 0-.004 0-.006v0-5.621c0-1.021-.827-1.848-1.848-1.848s-1.848.827-1.848 1.848v0 5.621c0 .002 0 .003 0 .005 0 1.019.826 1.845 1.845 1.845 0 0 0 0 0 0v0zm15.728 0c .002 0 .003 0 .005 0 1.019 0 1.845-.826 1.845-1.845 0-.002 0-.004 0-.006v0-5.621c0-1.021-.827-1.848-1.848-1.848s-1.848.827-1.848 1.848v0 5.621c0 0 0 0 0 0 0 1.02.826 1.848 1.845 1.851h0z"/></symbol></defs></svg>