<svg xmlns="http://www.w3.org/2000/svg" viewBox="0 0 403.77 286.75"><defs><style>.cls-1{fill:#3c5a99;}.cls-2{fill:#324b80;}.cls-3{fill:#154a99;}.cls-4{fill:#736357;}.cls-5{fill:#b27c4f;}.cls-6{fill:#534741;}.cls-7{fill:#fff;}.cls-8{fill:#f2f2f2;}.cls-9{fill:#a54735;}.cls-10{fill:#f18421;}.cls-11{fill:#ea4335;}.cls-12{fill:#fbbc05;}.cls-13{fill:#4285f4;}.cls-14{fill:#34a853;}</style></defs><title>social</title><g id="Layer_2" data-name="Layer 2"><g id="Graphics"><path class="cls-1" d="M170.25,69.74c-1.34-15.34-5.69-33.29-21.76-45.7-15.28-11.8-59,6.23-63.27,8C81,30.27,37.23,12.24,22,24,5.88,36.44,1.53,54.39.19,69.74s4,41.45,24.77,63A299.63,299.63,0,0,1,66.24,186.8h38a299.65,299.65,0,0,1,41.28-54.06C166.23,111.19,171.59,85.08,170.25,69.74Z"/><path class="cls-2" d="M128.05,12C111,3.82,89.92,13,85.49,15.13,81.06,13,60,3.82,42.93,12c-19.14,9.14-31,32.6-28.11,61.86,3.43,34.52,15.8,45.86,25.37,58.92,9.26,12.63,23.93,33.51,31.07,54.06H99.71c7.14-20.56,21.81-41.43,31.07-54.06,9.57-13.06,23.09-26.11,25-58.43C157.76,42.51,147.19,21.1,128.05,12Z"/><path class="cls-1" d="M118.27,12.29c-9.16-11.45-29-7.85-32.92-7-3.89-.84-23.76-4.44-32.92,7C42.25,25,32.86,56,36.22,79.85c3.26,23.18,17,47.33,23.83,60.39C66.68,153,73.81,175.71,76,186.8H94.66c2.21-11.09,9-33.8,15.66-46.56,6.79-13.06,20.31-37.86,23.83-61.69S128.45,25,118.27,12.29Z"/><path class="cls-2" d="M94.18,143.83c2.49-15,9-37.86,10.45-71.81S99.41,15.55,95.18,8c-3.37-6-8.14-6.37-10-6.28-1.82-.09-6.59.3-10,6.28-4.23,7.51-11,30-9.46,64s8,56.8,10.45,71.81c2.43,14.68,5.81,31.83,6,43h6C88.37,175.67,91.75,158.51,94.18,143.83Z"/><ellipse class="cls-3" cx="85.22" cy="186.48" rx="19.16" ry="1.87"/><polygon class="cls-4" points="71.93 207.37 62.52 170.89 63.25 170.66 71.51 202.63 72.82 184.24 73.58 184.31 71.93 207.37"/><polygon class="cls-4" points="78.94 207.37 69.53 170.89 70.26 170.66 78.51 202.63 79.83 184.24 80.59 184.31 78.94 207.37"/><polygon class="cls-4" points="91.51 207.37 89.86 184.31 90.62 184.24 91.93 202.63 100.19 170.66 100.92 170.89 91.51 207.37"/><polygon class="cls-4" points="98.52 207.37 96.87 184.31 97.63 184.24 98.94 202.63 107.2 170.66 107.93 170.89 98.52 207.37"/><path class="cls-5" d="M85.58,206.51h-14s.59,18.23,2,20.65,2.73,3.34,3.9,3.34H93c1.17,0,2.54-.93,3.9-3.34s2-20.65,2-20.65Z"/><rect class="cls-6" x="69.34" y="204.41" width="31.76" height="4.2"/><path class="cls-7" d="M116.38,168q-3.61-.77-7.61-1.36c-2.7-.39-5.52-.72-8.44-1q-4.72-.42-9.75-.57-2.65-.08-5.37-.08t-5.37.08q-5,.15-9.65.56c-2.77.24-5.46.55-8,.92-2.84.41-5.56.88-8.11,1.43,4.84,6.88,8.84,13.17,12,18.52,0,0,0,0,0-.07,0-.47,1.76-.89,4.64-1.22,1.4-.16,3.06-.29,4.92-.4s4.19-.19,6.53-.23l3.07,0,3.07,0c2.45,0,4.74.12,6.78.24s3.75.27,5.19.45c2.58.32,4.13.72,4.13,1.16,0,0,0,0,0,.07C107.55,181.2,111.54,174.91,116.38,168Z"/><path class="cls-3" d="M59.62,176.11q1.07,1.63,2.06,3.19c7-1.65,26.95-5.31,47.11.19q1-1.54,2-3.14C88,169.75,65.78,174.52,59.62,176.11Z"/><path class="cls-7" d="M104.62,83.31H91.93v45.25H73.12V83.31H64.18v-16h8.94V57c0-7.41,3.52-19,19-19l13.92.06V53.57H95.92c-1.65,0-4,.83-4,4.35v9.41h14.33Z"/><path class="cls-7" d="M403.52,85.22c-1.68-19.23-7.13-41.74-27.28-57.29-19.16-14.79-74,7.81-79.31,10.05-5.31-2.24-60.15-24.84-79.31-10.05C197.49,43.48,192,66,190.35,85.22s5,52,31.05,79A375.61,375.61,0,0,1,273.15,232h47.58a375.63,375.63,0,0,1,51.75-67.77C398.49,137.18,405.2,104.45,403.52,85.22Z"/><path class="cls-8" d="M350.63,12.79c-21.36-10.2-47.8,1.32-53.35,4-5.55-2.65-32-14.17-53.35-4-24,11.46-38.88,40.87-35.24,77.54,4.3,43.27,19.81,57.49,31.81,73.86,11.61,15.83,30,42,39,67.77H315.1c8.95-25.77,27.34-51.94,39-67.77,12-16.37,28.94-32.73,31.4-73.24C387.87,51.09,374.63,24.25,350.63,12.79Z"/><path class="cls-7" d="M338.37,13.2C326.88-1.16,302,3.36,297.1,4.41c-4.88-1.05-29.78-5.57-41.27,8.79-12.76,16-24.53,54.76-20.31,84.7,4.09,29.05,21.36,59.33,29.87,75.7,8.31,16,17.24,44.46,20,58.36h23.36c2.77-13.9,11.31-42.37,19.62-58.36,8.51-16.37,25.46-47.46,29.87-77.34S351.13,29.16,338.37,13.2Z"/><path class="cls-8" d="M308.17,178.1c3.12-18.82,11.23-47.46,13.1-90s-6.55-70.79-11.86-80.2C305.2.39,299.21-.1,296.94,0c-2.28-.11-8.26.38-12.48,7.87-5.3,9.41-13.73,37.64-11.86,80.2s10,71.2,13.1,90C288.75,196.5,293,218,293.18,232h7.52C300.89,218,305.12,196.5,308.17,178.1Z"/><ellipse class="cls-9" cx="296.94" cy="231.56" rx="24.02" ry="2.34"/><polygon class="cls-4" points="280.28 257.75 268.48 212.02 269.4 211.73 279.75 251.81 281.39 228.75 282.35 228.83 280.28 257.75"/><polygon class="cls-4" points="289.07 257.75 277.26 212.02 278.19 211.73 288.53 251.81 290.18 228.75 291.13 228.83 289.07 257.75"/><polygon class="cls-4" points="304.82 257.75 302.75 228.83 303.71 228.75 305.35 251.81 315.7 211.73 316.62 212.02 304.82 257.75"/><polygon class="cls-4" points="313.6 257.75 311.54 228.83 312.49 228.75 314.14 251.81 324.49 211.73 325.41 212.02 313.6 257.75"/><path class="cls-5" d="M297.38,256.67H279.82s.73,22.86,2.45,25.88,3.42,4.19,4.89,4.19h19.56c1.47,0,3.18-1.16,4.89-4.19s2.45-25.88,2.45-25.88Z"/><rect class="cls-6" x="277.03" y="254.04" width="39.81" height="5.26"/><path class="cls-7" d="M336,208.44q-4.52-1-9.54-1.7c-3.38-.49-6.92-.9-10.58-1.22q-5.91-.52-12.22-.72-3.32-.1-6.73-.1t-6.73.1q-6.23.19-12.1.71c-3.48.3-6.84.69-10.08,1.15-3.56.51-7,1.11-10.17,1.79,6.07,8.63,11.08,16.5,15.09,23.21,0,0,0-.06,0-.09,0-.58,2.2-1.12,5.82-1.53,1.75-.2,3.83-.37,6.17-.5s5.25-.24,8.19-.28c1.25,0,2.53,0,3.84,0s2.59,0,3.84,0c3.07,0,5.94.15,8.5.3s4.7.34,6.5.56c3.23.4,5.17.9,5.17,1.45,0,0,0,.06,0,.09C324.93,224.94,329.94,217.06,336,208.44Z"/><path class="cls-10" d="M264.85,218.56q1.34,2,2.59,4c8.84-2.07,33.78-6.66,59,.24q1.23-1.93,2.54-3.94C300.39,210.58,272.57,216.57,264.85,218.56Z"/><path class="cls-11" d="M283.6,95a15.27,15.27,0,1,1-15.27-15.23A15,15,0,0,1,283.6,95Zm-6.69,0c0-5.48-4-9.23-8.59-9.23s-8.59,3.75-8.59,9.23,4,9.23,8.59,9.23S276.91,100.43,276.91,95Z"/><path class="cls-12" d="M316.55,95a15.27,15.27,0,1,1-15.27-15.23A15,15,0,0,1,316.55,95Zm-6.69,0c0-5.48-4-9.23-8.59-9.23s-8.59,3.75-8.59,9.23,4,9.23,8.59,9.23S309.86,100.43,309.86,95Z"/><path class="cls-13" d="M348.13,80.71V108c0,11.24-6.63,15.84-14.47,15.84a14.5,14.5,0,0,1-13.5-9l5.82-2.42a8.41,8.41,0,0,0,7.67,5.4c5,0,8.13-3.1,8.13-8.92v-2.19h-.23a10.37,10.37,0,0,1-8,3.46c-7.61,0-14.59-6.63-14.59-15.16s7-15.28,14.59-15.28a10.55,10.55,0,0,1,8,3.4h.23V80.72h6.35Zm-5.88,14.36c0-5.36-3.58-9.28-8.13-9.28s-8.48,3.92-8.48,9.28,3.86,9.17,8.48,9.17S342.25,100.38,342.25,95.07Z"/><path class="cls-14" d="M358.6,64.69v44.62h-6.52V64.69Z"/><path class="cls-11" d="M384,100l5.19,3.46a15.16,15.16,0,0,1-12.69,6.75A14.9,14.9,0,0,1,361.4,95c0-9.05,6.51-15.23,14.36-15.23s11.77,6.29,13,9.69l.69,1.73-20.35,8.43a7.75,7.75,0,0,0,7.38,4.61A8.69,8.69,0,0,0,384,100Zm-16-5.48,13.61-5.65c-.75-1.9-3-3.23-5.65-3.23A8.35,8.35,0,0,0,368,94.55Z"/><path class="cls-13" d="M228.37,91.05V84.59h21.77a21.4,21.4,0,0,1,.32,3.9c0,4.85-1.32,10.84-5.59,15.11s-9.46,6.63-16.49,6.63c-13,0-24-10.61-24-23.64s11-23.64,24-23.64a22.53,22.53,0,0,1,16.2,6.51L240,74a16.47,16.47,0,0,0-11.65-4.61,17.18,17.18,0,0,0,0,34.36A15.82,15.82,0,0,0,240.3,99a13.39,13.39,0,0,0,3.5-8Z"/></g></g></svg>