<svg display="none" height="0" overflow="hidden" width="0" xmlns="http://www.w3.org/2000/svg"><defs><symbol id="icon-email" viewBox="0 0 32 32"><path d="m32 10.668l-16-10.668-16 10.668z" fill="#98c21f"/><path d="m0 10.668h32v21.332h-32z" fill="#648014"/><path d="m3.644 4.588h24.708v24.956h-24.708z" fill="#e6e6e6"/><path d="m24.628 4.588l-20.984 18.836v-18.836z" fill="#f2f2f2"/><path d="m5.352 8.004h7.084v.964h-7.084z" fill="#ccc"/><path d="m5.352 11.232h21.3v.964h-21.3z" fill="#ccc"/><path d="m5.352 12.844h21.3v.964h-21.3z" fill="#ccc"/><path d="m5.352 14.46h21.3v.964h-21.3z" fill="#ccc"/><path d="m5.352 16.072h21.3v.964h-21.3z" fill="#ccc"/><path d="m5.352 17.688h21.3v.964h-21.3z" fill="#ccc"/><path d="m5.352 19.3h21.3v.964h-21.3z" fill="#ccc"/><path d="m5.352 20.916h21.3v.964h-21.3z" fill="#ccc"/><path d="m32 32h-32v-21.332l16 10.664 16-10.664z" fill="#98c21f"/><path d="m0 32v-21.332l16 10.664z" fill="#a4c83f"/><path d="m32 30.576l-15.1-9.84 15.1 11.264z" opacity=".2"/><path d="m16 20.584l-14.152-8.684 14.152 9.432z" opacity=".2"/><path d="m32 32l-16-11.988-16 11.988z" fill="#afce57"/></symbol><symbol id="icon-form" viewBox="0 0 30 32"><path d="m29.744 1.2v29.6c0 .663-.537 1.2-1.2 1.2v0h-21.344l-7.2-7.2v-23.6c0-.663.537-1.2 1.2-1.2v0h27.36c.656.009 1.184.543 1.184 1.2 0 0 0 0 0 0z" fill="#e6e6e6"/><path d="m6.336 24.78h-6.336l7.2 7.2v-6.316c-.002-.48-.385-.871-.863-.884z" fill="#757b82"/><path d="m13.272 6.944h-10.736v-1.7h10.736z" fill="#98c21f"/><path d="m27.556 12.292h-25.02v-1.7h25.02z" fill="#98c21f"/><path d="m24.196 17.64h-21.66v-1.7h21.66z" fill="#98c21f"/><path d="m24.008 22.992h-21.472v-1.7h21.472z" fill="#98c21f"/></symbol><symbol id="icon-excel" viewBox="0 0 25 32"><path d="m17.748 2.992v-2.992h-13.96c-2.092 0-3.788 1.696-3.788 3.788v0 24.424c.005 2.09 1.698 3.783 3.788 3.788h17.812c2.092 0 3.788-1.696 3.788-3.788v0-20.212h-2.616c-2.768-.002-5.013-2.241-5.024-5.007zm6.092 11.168v14.052c-.002 1.227-.997 2.22-2.224 2.22-.006 0-.011 0-.017 0h-17.811c-1.228 0-2.224-.996-2.224-2.224v0-17.468h22.276z" fill="#98c21f"/><path d="m22.772 6.8h2.636l-6.428-6.8v2.992c0 .004 0 .008 0 .012 0 2.095 1.697 3.794 3.792 3.796z" fill="#5d5a61"/><path d="m3.18 3.176h1.12l.864 1.404.892-1.404h1.06l-1.412 2.1 1.532 2.296h-1.148l-.96-1.52-.98 1.52h-1.084l1.532-2.304z" fill="#fff"/><path d="m8.592 3.176v3.6h2.144v.8h-3.112v-4.4z" fill="#fff"/><path d="m12 6.488c.052.1.123.183.21.247l.002.001c.089.063.193.111.306.139l.006.001c.11.03.237.048.368.048h0c .097 0 .193-.007.287-.021l-.011.001c.103-.015.196-.045.282-.087l-.006.003c.086-.04.158-.097.215-.167l.001-.001c.055-.071.088-.161.088-.259 0-.006 0-.012 0-.018v.001c0-.003 0-.007 0-.01 0-.108-.043-.206-.112-.278l0 0c-.084-.078-.184-.14-.294-.182l-.006-.002c-.109-.045-.242-.089-.38-.124l-.02-.004-.476-.124c-.193-.048-.353-.101-.508-.162l.028.01c-.153-.063-.285-.141-.403-.235l.003.003c-.245-.191-.401-.487-.401-.819 0-.017 0-.035.001-.052v.002c0-.009 0-.019 0-.03 0-.205.054-.397.147-.564l-.003.006c.099-.161.226-.294.376-.397l.004-.003c.151-.108.327-.193.516-.245l.012-.003c.168-.053.362-.088.564-.096h.004c.004 0 .008 0 .012 0 .23 0 .453.028.667.08l-.019-.004c.206.055.386.141.545.255l-.005-.003c.166.114.301.261.397.434l.003.006c.091.177.145.386.145.608 0 .014 0 .028-.001.042v-.002h-.944c-.005-.12-.035-.232-.086-.333l.002.005c-.045-.084-.109-.153-.186-.203l-.002-.001c-.077-.048-.167-.084-.263-.103l-.005-.001c-.097-.02-.209-.032-.324-.032-.001 0-.003 0-.004 0h0c-.001 0-.002 0-.003 0-.083 0-.163.009-.241.025l.008-.001c-.08.017-.151.048-.214.089l.002-.001c-.062.04-.114.091-.155.15l-.001.002c-.038.06-.061.133-.061.212 0 .008 0 .017.001.025v-.001c0 .005 0 .011 0 .017 0 .07.018.136.049.193l-.001-.002c.049.066.114.116.189.147l.003.001c.112.051.245.097.383.132l.017.004.668.172q.124.024.34.088c.166.052.311.122.442.212l-.006-.004c.149.101.273.228.369.375l.003.005c.099.159.157.353.157.56 0 .017 0 .034-.001.051v-.002c0 .004 0 .008 0 .013 0 .198-.043.386-.12.556l.003-.008c-.082.179-.2.329-.346.446l-.002.002c-.162.128-.353.228-.56.289l-.012.003c-.223.066-.48.105-.745.105-.019 0-.039 0-.058-.001h.003c-.002 0-.005 0-.008 0-.247 0-.487-.032-.716-.092l.02.004c-.23-.059-.432-.155-.609-.284l.005.004c-.168-.129-.303-.293-.396-.48l-.004-.008c-.094-.187-.149-.408-.149-.641 0-.021 0-.041.001-.062v.003h.936c0 .01-.001.022-.001.034 0 .124.028.242.079.347l-.002-.005z" fill="#fff"/><path d="m13.224 16.996h-1.044c-.649.018-1.168.548-1.168 1.2 0 0 0 0 0 0v0 6.576c0 0 0 0 0 0 0 .651.519 1.182 1.166 1.2h.002 1.044c.649-.018 1.168-.548 1.168-1.2 0 0 0 0 0 0v0-6.584c-.004-.648-.522-1.174-1.166-1.192zm-1.02 7.404c0 .15-.122.272-.272.272s-.272-.122-.272-.272v-5.024c0-.15.122-.272.272-.272s.272.122.272.272v0z" fill="#5d5a61"/><path d="m8.52 19.388h-1.048c-.649.018-1.168.548-1.168 1.2 0 0 0 0 0 0v0 4.18c0 0 0 0 0 0 0 .651.519 1.182 1.166 1.2h.002 1.048c.649-.018 1.168-.548 1.168-1.2 0 0 0 0 0 0v0-4.184c-.002-.65-.52-1.178-1.166-1.196zm-1.02 5.052c0 .15-.122.272-.272.272s-.272-.122-.272-.272v-3.24c0-.15.122-.272.272-.272s.272.122.272.272v0z" fill="#5d5a61"/><path d="m17.932 15.2h-1.044c-.649.018-1.168.548-1.168 1.2 0 0 0 0 0 0v0 8.368c0 0 0 0 0 0 0 .651.519 1.182 1.166 1.2h.002 1.044c.649-.018 1.168-.548 1.168-1.2 0 0 0 0 0 0v0-8.368c0 0 0 0 0 0 0-.652-.519-1.182-1.166-1.2zm-1.02 9.132c0 .15-.122.272-.272.272s-.272-.122-.272-.272v0-6.616c0-.15.122-.272.272-.272s.272.122.272.272v0z" fill="#5d5a61"/></symbol><symbol id="icon-ad" viewBox="0 0 39 32"><path d="m2.668 0h30.664c1.474 0 2.668 1.194 2.668 2.668v26.664c0 1.474-1.194 2.668-2.668 2.668h-30.664c-1.474 0-2.668-1.195-2.668-2.668v-26.664c0-1.474 1.194-2.668 2.668-2.668z" fill="#f0f0f0"/><path d="m2.668 0h30.664c1.474 0 2.668 1.194 2.668 2.668v0 4h-36v-4c0-1.474 1.194-2.668 2.668-2.668z" fill="#4285f4"/><path d="m5.332 3.332c0 .736-.596 1.332-1.332 1.332s-1.332-.596-1.332-1.332c0-.736.596-1.332 1.332-1.332s1.332.596 1.332 1.332z" fill="#e6e6e6"/><path d="m9.332 3.332c0 .736-.596 1.332-1.332 1.332s-1.332-.596-1.332-1.332c0-.736.596-1.332 1.332-1.332s1.332.596 1.332 1.332z" fill="#e6e6e6"/><path d="m2.668 8.668h18.332v6.668h-18.332z" fill="#c5c5c5"/><path d="m2.668 17.332h20.668v12h-20.668z" fill="#c5c5c5"/><path d="m33.336 29.336h-8v-12h8z" fill="#c5c5c5"/><path d="m22.668 17.668v2.332l11.572 11.836c1.035-.381 1.759-1.358 1.76-2.504v-11.664z" opacity=".1"/><path d="m37.42 20h-14.752l-6.184-5.916c-.374-.358-.607-.861-.607-1.418s.233-1.06.606-1.417l.001-.001 6.184-5.916h14.752c.689 0 1.248.559 1.248 1.248v0 12.172c0 .689-.559 1.248-1.248 1.248z" fill="#db4437"/></symbol><symbol id="icon-lp" viewBox="0 0 34 32"><path d="m1.068 0h31.64c.59 0 1.068.478 1.068 1.068v29.864c0 .59-.478 1.068-1.068 1.068h-31.64c-.59 0-1.068-.478-1.068-1.068v-29.864c0-.59.478-1.068 1.068-1.068z" fill="#ecf0f1"/><path d="m2.132 6.184h29.512v11.292h-29.512z" fill="#98c21f"/><path d="m6.432 7.788h5.488v5.452h-5.488z" fill="#fff"/><path d="m33.776 2.488h-33.776v-1.42c0-.59.478-1.068 1.068-1.068v0h31.644c.59 0 1.068.478 1.068 1.068v0z" fill="#757b82"/><path d="m2.488 1.244c0 .294-.238.532-.532.532s-.532-.238-.532-.532c0-.294.238-.532.532-.532s.532.238.532.532z" fill="#fff"/><path d="m4.264 1.244c0 .294-.238.532-.532.532s-.532-.238-.532-.532c0-.294.238-.532.532-.532s.532.238.532.532z" fill="#fff"/><path d="m6.044 1.244c0 .294-.238.532-.532.532s-.532-.238-.532-.532c0-.294.238-.532.532-.532s.532.238.532.532z" fill="#fff"/><path d="m14.208 7.788h5.856v.712h-5.856z" fill="#fff"/><path d="m13.416 19.44h6.944v.712h-6.944z" fill="#487691"/><path d="m14.208 9.564h13.192v.356h-13.192z" fill="#fff"/><path d="m10.636 4.36h2.06v.356h-2.06z" fill="#5d5a61"/><path d="m14.116 4.36h2.06v.356h-2.06z" fill="#5d5a61"/><path d="m17.6 4.36h2.06v.356h-2.06z" fill="#5d5a61"/><path d="m21.084 4.36h2.06v.356h-2.06z" fill="#5d5a61"/><path d="m2.132 3.936h1.784v.268h-1.784z" fill="#5d5a61"/><path d="m2.132 4.56h1.784v.268h-1.784z" fill="#5d5a61"/><path d="m2.132 5.184h1.784v.268h-1.784z" fill="#5d5a61"/><path d="m14.208 10.632h13.192v.356h-13.192z" fill="#fff"/><path d="m14.208 11.696h11.272v.356h-11.272z" fill="#fff"/><path d="m14.208 12.764h8v .356h-8z" fill="#fff"/><path d="m6.416 13.952h5.512v.356h-5.512z" fill="#fff"/><path d="m6.416 15.016h4.8v.356h-4.8z" fill="#fff"/><path d="m13.964 26.948h5.852v.356h-5.852z" fill="#5d5a61"/><path d="m14.492 14.172h4.792c.157 0 .284.127.284.284v.856c0 .157-.127.284-.284.284h-4.792c-.157 0-.284-.127-.284-.284v-.856c0-.157.127-.284.284-.284z" fill="#fff"/><path d="m15.308 29.04h3.16c.117 0 .212.095.212.212v.56c0 .117-.095.212-.212.212h-3.16c-.117 0-.212-.095-.212-.212v-.56c0-.117.095-.212.212-.212z" fill="#5d5a61"/><path d="m6.704 29.04h3.16c.117 0 .212.095.212.212v.56c0 .117-.095.212-.212.212h-3.16c-.117 0-.212-.095-.212-.212v-.56c0-.117.095-.212.212-.212z" fill="#5d5a61"/><path d="m23.912 29.04h3.16c.117 0 .212.095.212.212v.56c0 .117-.095.212-.212.212h-3.16c-.117 0-.212-.095-.212-.212v-.56c0-.117.095-.212.212-.212z" fill="#5d5a61"/><path d="m19.02 24.212c0 1.177-.955 2.132-2.132 2.132s-2.132-.955-2.132-2.132c0-1.177.955-2.132 2.132-2.132s2.132.955 2.132 2.132z" fill="#98c21f"/><path d="m22.568 26.948h5.852v.356h-5.852z" fill="#5d5a61"/><path d="m27.624 24.212c0 1.177-.955 2.132-2.132 2.132s-2.132-.955-2.132-2.132c0-1.177.955-2.132 2.132-2.132s2.132.955 2.132 2.132z" fill="#98c21f"/><path d="m5.36 26.948h5.852v.356h-5.852z" fill="#5d5a61"/><path d="m14.696 27.84h4.388v.356h-4.388z" fill="#5d5a61"/><path d="m23.3 27.84h4.388v.356h-4.388z" fill="#5d5a61"/><path d="m6.088 27.84h4.388v.356h-4.388z" fill="#5d5a61"/><path d="m10.416 24.212c0 1.177-.955 2.132-2.132 2.132s-2.132-.955-2.132-2.132c0-1.177.955-2.132 2.132-2.132s2.132.955 2.132 2.132z" fill="#98c21f"/><path d="m12.048 7.912l-.252-.252-2.62 2.604-2.616-2.604-.252.252 2.616 2.6-2.616 2.6.252.252 2.616-2.6 2.62 2.6.252-.252-2.62-2.6z" fill="#98c21f"/></symbol><symbol id="icon-wordpress" viewBox="0 0 32 32"><path d="m16 0c-8.837 0-16 7.163-16 16s7.163 16 16 16c8.837 0 16-7.163 16-16v0c-.011-8.832-7.168-15.989-15.999-16zm0 .73c.002 0 .004 0 .006 0 8.432 0 15.267 6.835 15.267 15.267s-6.835 15.267-15.267 15.267c-8.431 0-15.265-6.834-15.267-15.264v0c .007-8.427 6.834-15.258 15.26-15.27zm0 1.548c-.003 0-.007 0-.011 0-4.769 0-8.969 2.435-11.426 6.129l-.032.05c.32 0 .64.019.89.019 1.434 0 3.651-.179 3.651-.179.013-.001.029-.002.045-.002.313 0 .567.254.567.567 0 .297-.229.541-.52.565h-.002s-.742.096-1.571.141l4.998 14.861 3.002-9.008-2.15-5.85c-.739-.045-1.44-.141-1.44-.141-.739-.045-.64-1.174.09-1.13 0 0 2.262.179 3.61.179 1.434 0 3.661-.179 3.661-.179.013-.001.029-.002.045-.002.313 0 .567.254.567.567 0 .297-.229.541-.52.565h-.002s-.742.096-1.571.141l4.973 14.749 1.37-4.579c.592-1.901 1.059-3.258 1.059-4.432-.023-1.41-.446-2.717-1.16-3.817l.017.028c-.694-1.133-1.35-2.09-1.35-3.219 0-.018-.001-.04-.001-.062 0-1.284 1.023-2.33 2.298-2.367h.003.179c-2.424-2.228-5.671-3.594-9.237-3.594-.011 0-.021 0-.032 0h .002zm12.042 7.13c.061.425.097.918.099 1.418v.002c-.028 1.781-.412 3.465-1.082 4.995l.033-.083-4.192 12.118c4.109-2.426 6.822-6.831 6.822-11.87 0-2.413-.622-4.681-1.715-6.652l.036.07zm-24.583 1.002c-.744 1.639-1.178 3.555-1.178 5.571 0 5.404 3.116 10.081 7.649 12.332l.08.036zm12.781 6.79l-4.118 11.971c1.16.349 2.493.55 3.872.55 1.636 0 3.205-.282 4.663-.801l-.097.03c-.035-.055-.068-.118-.096-.184l-.003-.008z" fill="#3476b2"/></symbol><symbol id="icon-analytics" viewBox="0 0 60 32"><path d="m28.06 29.892l2.218-5.774h.824l2.362 5.774h-.867l-.667-1.748h-2.422l-.634 1.748zm1.668-2.372h1.961l-.604-1.598q-.274-.727-.41-1.198c-.09.429-.2.798-.337 1.155l.017-.051zm4.257 2.372v-4.183h.637v.594c.272-.419.737-.692 1.266-.692.024 0 .048.001.071.002h-.003c.005 0 .011 0 .017 0 .244 0 .477.05.688.141l-.011-.004c.193.076.353.199.472.354l.002.003c.104.149.181.325.219.515l.001.009c.026.176.041.378.041.584 0 .037-.001.075-.001.112v-.006 2.572h-.691v-2.539c0-.016.001-.035.001-.053 0-.22-.037-.431-.105-.627l.004.013c-.06-.142-.162-.257-.29-.332l-.003-.002c-.135-.08-.297-.127-.47-.127-.008 0-.016 0-.025 0h .001c-.007 0-.015 0-.023 0-.292 0-.559.109-.762.288l.001-.001q-.334.287-.334 1.091v2.285zm7.215-.517c-.215.193-.466.352-.74.467l-.017.006c-.226.087-.488.137-.762.137-.007 0-.013 0-.02 0h .001c-.032.002-.068.004-.106.004-.363 0-.696-.127-.958-.339l.003.002c-.228-.204-.371-.5-.371-.828 0-.011 0-.023.001-.034v.002c0-.004 0-.009 0-.013 0-.201.052-.389.143-.553l-.003.006c.09-.165.214-.302.363-.404l.004-.003c.146-.1.316-.18.498-.231l.012-.003c.175-.043.389-.081.608-.105l.023-.002c.469-.044.898-.13 1.31-.256l-.046.012c0-.097 0-.16 0-.187.003-.025.005-.054.005-.084 0-.203-.078-.389-.205-.527l.001.001c-.197-.152-.447-.243-.719-.243-.031 0-.062.001-.092.004h.004c-.027-.002-.059-.003-.091-.003-.239 0-.462.067-.652.183l.005-.003c-.181.157-.308.371-.353.614l-.001.007-.684-.097c.051-.274.16-.515.313-.722l-.003.005c.163-.192.375-.338.617-.418l.01-.003c.266-.093.574-.147.893-.147.019 0 .038 0 .057.001h-.003c.024-.001.052-.001.08-.001.283 0 .555.047.809.133l-.018-.005c.197.07.363.184.493.332l.001.001c.107.135.184.298.219.477l.001.007c.024.167.038.36.038.557 0 .039-.001.078-.002.116v-.006.944c-.002.075-.003.163-.003.251 0 .352.018.7.053 1.043l-.004-.043c.034.189.097.358.184.512l-.004-.008h-.741c-.081-.16-.135-.347-.15-.545v-.005zm-.06-1.585c-.336.123-.727.217-1.133.265l-.024.002c-.23.024-.44.074-.639.146l.019-.006c-.116.049-.212.128-.279.228l-.001.002c-.062.096-.099.212-.099.338 0 .188.083.357.215.472l.001.001c.155.12.352.192.565.192.022 0 .043-.001.065-.002h-.003c.007 0 .016 0 .025 0 .258 0 .5-.067.71-.184l-.007.004c.207-.109.371-.275.474-.477l.003-.006c.073-.184.116-.397.116-.619 0-.032-.001-.064-.003-.095v.004zm1.801 2.098v-5.771h.711v5.774zm1.775 1.612l-.08-.667c.121.037.261.06.405.063h.002c.01 0 .021.001.032.001.126 0 .244-.03.349-.083l-.004.002c.096-.053.175-.128.232-.218l.002-.003c.078-.147.151-.322.21-.503l.007-.024.063-.173-1.568-4.186h.764l.871 2.422q.17.46.304.967c.098-.391.199-.709.315-1.02l-.022.066.894-2.438h.711l-1.591 4.253c-.134.383-.268.697-.419 1l .022-.05c-.104.208-.251.38-.43.511l-.004.003c-.157.103-.349.164-.555.164-.01 0-.02 0-.031 0h .002c-.171 0-.335-.031-.487-.087l.01.003zm5.614-2.245l.103.627c-.16.038-.345.061-.535.063h-.002c-.019.001-.041.002-.063.002-.196 0-.381-.046-.544-.128l.007.003c-.135-.074-.24-.19-.299-.329l-.002-.004c-.058-.203-.092-.436-.092-.677 0-.056.002-.112.005-.168v.008-2.388h-.52v-.554h.52v-1.024l.707-.427v1.461h.714v.55h-.714v2.445c-.002.024-.003.052-.003.08 0 .11.014.217.041.319l-.002-.009c.026.058.069.105.122.136l.001.001c.062.032.136.051.214.051.01 0 .021 0 .031-.001h-.001c.114-.004.222-.016.327-.035l-.014.002zm.697-4.337v-.801h.711v.814zm0 4.96v-4.17h.711v4.183zm4.523-1.524l.697.09c-.055.45-.269.843-.582 1.126l-.002.001c-.295.253-.682.408-1.105.408-.018 0-.037 0-.055-.001h.003c-.023.001-.05.002-.077.002-.513 0-.977-.216-1.304-.561l-.001-.001c-.329-.392-.529-.902-.529-1.459 0-.052.002-.104.005-.156v.007c0-.019-.001-.041-.001-.063 0-.405.082-.79.231-1.14l-.007.019c.136-.324.368-.586.66-.757l.007-.004c.283-.16.62-.254.98-.254.007 0 .014 0 .022 0h-.001c.026-.001.057-.002.088-.002.386 0 .742.126 1.031.339l-.005-.003c.292.241.494.581.556.968l.001.009-.691.107c-.043-.251-.163-.468-.333-.634l0 0c-.156-.133-.36-.214-.583-.214-.007 0-.015 0-.022 0h .001c-.01 0-.023-.001-.035-.001-.334 0-.633.148-.834.383l-.001.001c-.213.294-.34.662-.34 1.059 0 .055.002.109.007.162l-.001-.007c-.004.044-.006.094-.006.146 0 .404.127.778.343 1.085l-.004-.006c.194.235.486.384.812.384.011 0 .022 0 .033-.001h-.002c.008 0 .018 0 .027 0 .258 0 .493-.098.671-.258l-.001.001c.193-.205.32-.474.343-.773v-.004zm1.021.284l.7-.11c.025.26.149.487.332.646l.001.001c.188.141.426.226.683.226.025 0 .049-.001.074-.002h-.003c.025.002.055.003.084.003.24 0 .462-.076.643-.206l-.003.002c.143-.108.234-.277.237-.467v0c0-.002 0-.005 0-.007 0-.156-.083-.293-.208-.369l-.002-.001c-.211-.101-.457-.181-.715-.23l-.019-.003c-.417-.091-.778-.206-1.124-.35l.044.016c-.191-.087-.346-.223-.454-.393l-.003-.004c-.098-.158-.157-.349-.157-.554 0-.002 0-.004 0-.007v0c0-.003 0-.008 0-.012 0-.185.047-.359.13-.511l-.003.006c.082-.159.194-.292.331-.395l.003-.002c.129-.09.279-.16.44-.204l.01-.002c.178-.053.382-.084.594-.084.007 0 .014 0 .021 0h-.001c.015 0 .032 0 .049 0 .292 0 .572.052.832.146l-.017-.005c.223.075.41.208.549.381l.002.002c.125.183.212.403.243.64l.001.008-.694.093c-.023-.204-.124-.381-.272-.503l-.001-.001c-.16-.114-.36-.182-.576-.182-.023 0-.045.001-.068.002h.003c-.03-.003-.066-.004-.101-.004-.22 0-.426.061-.601.167l.005-.003c-.123.083-.205.22-.21.376v.001c0 0 0 0 0 0 0 .094.033.18.087.247l-.001-.001c.07.085.162.15.266.189l.004.001q.107.04.627.18c.419.105.77.219 1.109.354l-.059-.021c.192.08.35.209.465.37l.002.003c.107.161.171.359.171.572 0 .012 0 .025-.001.037v-.002c-.001.249-.078.48-.209.671l.003-.004c-.147.214-.35.381-.588.48l-.009.003c-.249.108-.538.171-.843.171-.014 0-.029 0-.043 0h .002c-.042.003-.092.005-.141.005-.412 0-.794-.127-1.109-.343l.007.004c-.285-.256-.475-.611-.517-1.011l-.001-.007z" fill="#f05620"/><path d="m6.218 26.636h-2.952v.877h2.092c-.103 1.228-1.124 1.751-2.088 1.751-1.29 0-2.335-1.045-2.335-2.335s1.045-2.335 2.335-2.335v0c .001 0 .002 0 .004 0 .611 0 1.166.242 1.575.634l-.001-.001.614-.634c-.561-.543-1.326-.878-2.169-.878-.018 0-.037 0-.055 0h .003c-.023-.001-.05-.001-.078-.001-1.778 0-3.219 1.441-3.219 3.219s1.441 3.219 3.219 3.219c.044 0 .087-.001.131-.003h-.006c1.721 0 2.982-1.181 2.982-2.925 0-.015 0-.033 0-.051 0-.187-.02-.37-.057-.546l.003.017z" fill="#f05620"/><path d="m8.636 26.019c-1.139.004-2.062.928-2.062 2.068 0 1.142.926 2.068 2.068 2.068 1.14 0 2.064-.922 2.068-2.061v0c0-.015.001-.033.001-.051 0-1.118-.907-2.025-2.025-2.025-.018 0-.036 0-.053.001zm0 .814c.022-.001.048-.002.073-.002.695 0 1.258.563 1.258 1.258s-.563 1.258-1.258 1.258c-.695 0-1.258-.563-1.258-1.258 0-.002 0-.003 0-.005v0c-.001-.019-.002-.041-.002-.063 0-.655.531-1.187 1.186-1.188h0z" fill="#f05620"/><path d="m13.156 26.019c-1.139.004-2.062.928-2.062 2.068 0 1.142.926 2.068 2.068 2.068 1.14 0 2.064-.922 2.068-2.061v0c0-.009 0-.02 0-.03 0-1.129-.915-2.045-2.045-2.045-.011 0-.021 0-.032 0h .002zm0 .814c.022-.001.048-.002.073-.002.695 0 1.258.563 1.258 1.258s-.563 1.258-1.258 1.258c-.695 0-1.258-.563-1.258-1.258 0-.002 0-.003 0-.005v0c-.001-.019-.002-.041-.002-.063 0-.655.531-1.187 1.186-1.188h0z" fill="#f05620"/><path d="m17.593 26.019c-1.097.059-1.964.962-1.964 2.069 0 1.099.856 1.999 1.938 2.067h.006c.022.001.047.002.072.002.427 0 .809-.196 1.06-.503l.002-.002v.407c.003.031.005.068.005.105 0 .573-.464 1.037-1.037 1.037-.019 0-.039-.001-.058-.002h.003c-.481-.006-.889-.307-1.055-.729l-.003-.008-.794.334c.313.722 1.019 1.218 1.842 1.218.007 0 .014 0 .021 0h-.001c1.104 0 1.948-.697 1.948-2.155v-3.729h-.867v.35c-.267-.284-.646-.461-1.065-.461-.018 0-.037 0-.055.001h.003zm.087.797c.619.034 1.108.545 1.108 1.169 0 .032-.001.064-.004.096v-.004c.003.03.004.065.004.101 0 .626-.498 1.136-1.12 1.154h-.002c-.636-.016-1.146-.535-1.146-1.174 0-.025.001-.049.002-.074v.003c-.002-.024-.003-.052-.003-.08 0-.647.516-1.173 1.159-1.19h.002z" fill="#f05620"/><path d="m23.427 25.999c-1.069.013-1.931.883-1.931 1.955 0 .039.001.077.003.116v-.005c-.001.022-.001.048-.001.074 0 1.105.896 2.001 2.001 2.001.01 0 .02 0 .03 0h-.002c.001 0 .002 0 .004 0 .714 0 1.344-.356 1.723-.9l.005-.007-.714-.477c-.205.344-.575.57-.998.57-.001 0-.002 0-.003 0h0c-.009 0-.02 0-.03 0-.43 0-.8-.255-.968-.621l-.003-.007 2.772-1.151-.143-.334c-.271-.704-.935-1.197-1.716-1.211h-.002zm.037.794c.01 0 .022-.001.034-.001.315 0 .589.177.727.437l.002.004-1.848.787c-.001-.02-.002-.044-.002-.068 0-.613.481-1.114 1.087-1.146h.003z" fill="#f05620"/><path d="m20.178 30.022h.911v-6.101h-.911z" fill="#f05620"/><path d="m21.582 0h16.879c1 0 1.811.811 1.811 1.811v16.879c0 1-.811 1.811-1.811 1.811h-16.879c-1 0-1.811-.811-1.811-1.811v-16.879c0-1 .811-1.811 1.811-1.811z" fill="#f6981c"/><path d="m19.771 13.793v4.887c.002 1 .812 1.809 1.811 1.811h16.879c1-.002 1.809-.812 1.811-1.811v-15.011l-12.452 9.674-2.752-2.752s-3.803 1.818-5.297 3.202z" fill="#f05620"/><path d="m19.771 12.249v4.587l8.029-8.026-2.295-2.295z" fill="#fff"/><path d="m27.97 8.806c0 2.695.02 4.54.02 4.54l2.262 2.262 10.007-10.007v-3.636c-.001-.268-.061-.521-.168-.748l.005.011-9.847 9.857z" fill="#fff"/><path d="" fill="#fff"/></symbol><symbol id="icon-code" viewBox="0 0 36 32"><path d="m0 .022h16.102l-1.395 15.837-6.656 1.862-6.586-1.728-1.466-15.971z" fill="#1e1f2a"/><path d="m7.83 1.264h6.563l-1.152 13.309-5.411 1.507z" fill="#2aa4cc"/><path d="m7.181 4.298v7.718l-4.778-.608v-1.83h1.594v.813h1.59v-6.093z" fill="#ebebea"/><path d="m8.56 4.298v4.63h3.024v1.546h-3.024v1.542l4.458-.406.08-4.224h-3.027v-1.542h3.027l-.08-1.139-4.458-.406z" fill="#ebebea"/><path d="m9.891 14.301l16.106-.006-1.392 15.84-6.656 1.866-6.586-1.728-1.472-15.971z" fill="#dd4315"/><path d="m17.722 15.539h6.566l-1.149 13.309-5.411 1.51z" fill="#e85b1b"/><path d="m12.621 17.318l10.022-.003-.23 2.109-7.53.003.15 1.952h7.35l-.531 6.032-4.125 1.168-4.173-1.136-.294-3.104h2.054l.147 1.581 2.262.605 2.234-.605.205-2.544-6.963-.029-.579-6.029z" fill="#f8f9fa"/><path d="m19.792 0h16.141l-1.398 15.878-6.672 1.866-6.605-1.734z" fill="#116cb3"/><path d="m27.638 1.245h6.582l-1.155 13.341-5.427 1.514v-14.854z" fill="#2c8dcc"/><path d="m22.669 2.762h9.939l-.176 1.955h-9.562l-.202-1.955z" fill="#f8f9fa"/><path d="m23.315 9.696l.288 3.091 4.035 1.13 4.102-1.13.49-6.026h-4.358l4.56-2.045h-4.605l-4.778 2 .198 1.981h6.826l-.266 2.579-2.17.643-2.166-.666-.179-1.514-1.978-.045z" fill="#f8f9fa"/><path d="m23.05 6.717l4.822.045 4.56-2.045h-4.605l-4.778 2z" fill="#ebe9ea"/></symbol><symbol id="icon-outbrain" viewBox="0 0 63 32"><path d="m3.674 20.261l-3.674-.021v-3.352l11.387.067v3.352l-3.674-.021-.054 9.753-4.043-.025z" fill="#154a99"/><path d="m14.735 25.799c-.412.193-.892.35-1.394.446l-.039.006c-.809.18-1.232.377-1.257 1.022.078.508.512.893 1.036.893.034 0 .067-.002.1-.005h-.004c.026.002.057.003.088.003.798 0 1.445-.647 1.445-1.445 0-.013 0-.025-.001-.038v.002zm3.477 2.171c-.01.106-.016.229-.016.354 0 .65.161 1.262.445 1.799l-.01-.021-3.712-.021c-.079-.233-.124-.502-.124-.781 0-.042.001-.084.003-.126v.006h-.038c-.775.876-1.898 1.127-3.075 1.119-1.835 0-3.352-.901-3.352-2.903 0-3.012 3.544-2.882 5.4-3.218.499-.088.993-.235.997-.838s-.599-.888-1.19-.888c-1.119 0-1.345.561-1.366.968h-3.381c.126-2.681 2.66-3.109 4.923-3.096 4.554.025 4.508 1.919 4.495 3.771z" fill="#154a99"/><path d="m23.822 23.005c-1.303 0-1.605 1.223-1.613 2.342s.281 2.371 1.584 2.38 1.605-1.223 1.613-2.363-.281-2.355-1.584-2.359zm-5.074-6.016h3.637l-.025 4.629h.038c.573-.767 1.48-1.259 2.501-1.259.04 0 .08.001.119.002h-.006c3.197 0 4.043 2.744 4.03 4.981 0 2.388-1.332 5.027-4.035 5.027-1.781 0-2.329-.695-2.786-1.303h-.017v1.047h-3.507z" fill="#154a99"/><path d="m34.145 19.523c-1.378 0-1.571 1.332-1.575 2.342s.172 2.371 1.546 2.38 1.571-1.349 1.575-2.363-.172-2.35-1.546-2.359zm-.042 7.366c-3.582 0-5.187-2.401-5.17-5.027s1.651-5.002 5.229-4.981 5.187 2.38 5.17 5.027-1.647 5.002-5.229 4.981z" fill="#154a99"/><path d="m43.153 19.582c-1.378 0-1.567 1.332-1.575 2.342s.189 2.375 1.575 2.375 1.567-1.349 1.575-2.359-.172-2.355-1.546-2.359zm-.013 7.365c-3.582-.021-5.182-2.401-5.17-5.027s1.647-4.986 5.224-4.965 5.187 2.38 5.17 5.027-1.647 5.007-5.229 4.986z" fill="#154a99"/><path d="m48.75 17.177h3.62l-.075 13.118-3.637-.021z" fill="#154a99"/><path d="m58.939 26.063c-.412.192-.893.347-1.394.442l-.039.006c-.813.18-1.232.381-1.257 1.022.077.509.512.894 1.036.894.039 0 .078-.002.117-.006h-.005c.028.002.06.003.093.003.796 0 1.441-.645 1.441-1.441 0-.014 0-.029-.001-.043v.002zm3.477 2.171c-.01.105-.016.228-.016.352 0 .651.161 1.264.445 1.802l-.01-.021-3.712-.021c-.079-.234-.124-.504-.124-.785 0-.041.001-.081.003-.122v.006h-.038c-.775.876-1.898 1.127-3.071 1.123-1.839 0-3.352-.901-3.352-2.903 0-3.012 3.544-2.882 5.4-3.218.499-.088.993-.235.997-.838s-.599-.884-1.19-.888c-1.119 0-1.345.561-1.366.964h-3.381c.126-2.681 2.665-3.109 4.923-3.092 4.554.025 4.508 1.919 4.495 3.771z" fill="#154a99"/><path d="m30.299 26.813c2.354 1.059 5.102 1.677 7.994 1.677.066 0 .132 0 .198-.001h-.01c.082.001.179.002.276.002 2.904 0 5.672-.584 8.192-1.642l-.14.052v3.176c-2.39 1.213-5.212 1.924-8.199 1.924-.053 0-.106 0-.159-.001h.008c-3.104 0-5.342-.658-8.182-1.994z" fill="#154a99"/><path d="m12.414 4.504c-.002-.02-.003-.044-.003-.068 0-.224.098-.426.254-.564l.001-.001c.178-.124.399-.199.638-.199.023 0 .046.001.069.002h-.003c.004 0 .009 0 .014 0 .179 0 .351.026.514.075l-.013-.003.314.101v4.114c-.004.05-.006.108-.006.167 0 .55.19 1.056.508 1.455l-.004-.005c.354.348.841.563 1.377.563.055 0 .109-.002.163-.007h-.007c.047.004.102.006.158.006.536 0 1.022-.215 1.376-.564l0 0c .312-.394.501-.898.501-1.446 0-.06-.002-.12-.007-.179v.008-3.456c-.002-.02-.003-.044-.003-.068 0-.224.098-.426.254-.564l.001-.001c.175-.124.392-.199.627-.199.021 0 .042.001.063.002h-.003c.007 0 .015 0 .023 0 .181 0 .357.026.522.075l-.013-.003.314.101v4.504c0 .019.001.04.001.062 0 .494-.1.966-.282 1.394l.009-.023c-.184.425-.45.784-.78 1.069l-.004.003c-.34.291-.744.519-1.186.659l-.024.007c-.463.144-.996.226-1.548.226s-1.085-.083-1.586-.237l.038.01c-.464-.146-.866-.374-1.207-.67l.004.004c-.331-.291-.596-.649-.776-1.053l-.008-.019c-.178-.405-.281-.877-.281-1.373 0-.021 0-.042.001-.063v.003z" fill="#f18421"/><path d="m21.446 2.283c-.002-.02-.003-.044-.003-.068 0-.224.098-.426.254-.564l.001-.001c.175-.124.392-.199.627-.199.021 0 .042.001.063.002h-.003c.004 0 .009 0 .014 0 .182 0 .357.026.523.075l-.013-.003q.243.071.318.101v2.049h2.267c.032-.004.069-.006.106-.006.236 0 .453.081.625.217l-.002-.002c.131.147.212.343.212.557 0 .021-.001.042-.002.062v-.003c0 .003 0 .006 0 .009 0 .172-.029.338-.083.492l.003-.011c-.043.131-.085.238-.133.341l.008-.019h-2.996v3.486c-.001.019-.001.041-.001.063 0 .217.04.424.114.615l-.004-.012c.068.168.172.309.304.418l.002.001c.127.101.279.177.445.216l.008.002c.16.04.345.063.534.063.002 0 .005 0 .007 0h0c .003 0 .008 0 .012 0 .296 0 .58-.052.843-.148l-.017.005c.214-.069.4-.159.571-.27l-.009.006.721 1.19q-.126.092-.352.235c-.159.097-.343.186-.535.257l-.022.007c-.203.079-.448.151-.701.204l-.032.006c-.255.053-.548.084-.849.084-.015 0-.031 0-.046 0h .002c-.066.005-.142.009-.22.009-.722 0-1.381-.274-1.877-.723l.002.002c-.437-.455-.706-1.075-.706-1.757 0-.039.001-.078.003-.117v.005z" fill="#f18421"/><path d="m27.496.838c-.001-.017-.002-.038-.002-.058 0-.225.098-.426.253-.565l.001-.001c.179-.134.405-.215.65-.215.019 0 .038.001.057.001h-.003c.005 0 .01 0 .015 0 .178 0 .35.026.513.075l-.013-.003.314.101v4.487c.291-.349.65-.632 1.058-.83l.019-.008c.441-.222.961-.353 1.512-.353.024 0 .047 0 .071.001h-.004c.013 0 .028 0 .042 0 .554 0 1.082.111 1.564.312l-.027-.01c.49.203.907.486 1.257.838l0 0c .352.367.636.802.828 1.284l.01.027c.194.479.306 1.034.306 1.616 0 .021 0 .042 0 .063v-.003c0 .015 0 .034 0 .052 0 .585-.116 1.143-.325 1.653l.011-.029c-.209.512-.505.948-.875 1.311l-.001.001c-.374.36-.818.651-1.309.849l-.027.01c-.489.199-1.056.314-1.651.314-.009 0-.018 0-.027 0h .001c-.011 0-.023 0-.036 0-.588 0-1.151-.103-1.674-.292l.034.011c-.522-.188-.969-.473-1.337-.838l0 0c-.388-.391-.692-.865-.884-1.394l-.008-.027c-.2-.557-.315-1.199-.315-1.869 0-.041 0-.082.001-.123v.006zm4.19 9.301c.006 0 .013 0 .02 0 .352 0 .687-.076.989-.211l-.015.006c.299-.131.554-.31.766-.531l.001-.001c.209-.222.376-.487.485-.78l.005-.016c.109-.291.172-.627.172-.978 0-.011 0-.022 0-.033v.002c0-.007 0-.016 0-.025 0-.355-.063-.695-.178-1.01l.007.02c-.114-.313-.282-.581-.495-.805l.001.001c-.212-.221-.465-.401-.747-.526l-.015-.006c-.281-.125-.609-.197-.954-.197-.008 0-.015 0-.023 0h .001c-.009 0-.021 0-.032 0-.347 0-.678.073-.977.203l.016-.006c-.298.131-.55.313-.757.539l-.002.002c-.207.229-.374.499-.488.795l-.006.018c-.114.292-.18.631-.18.985 0 .006 0 .011 0 .017v-.001c0 .009 0 .02 0 .03 0 .359.066.703.187 1.02l-.007-.02c.222.598.672 1.066 1.242 1.306l.015.006c.28.119.607.189.949.189.01 0 .019 0 .029 0h-.001z" fill="#f18421"/><path d="m36.986 6.473c-.003-.05-.005-.109-.005-.168 0-.811.341-1.543.888-2.059l.001-.001c.605-.497 1.387-.798 2.239-.798.073 0 .146.002.218.007h-.01c.044-.002.096-.003.148-.003.524 0 1.025.101 1.484.285l-.027-.01c.358.118.612.448.616.837v0c-.001.191-.055.369-.149.52l.002-.004c-.063.123-.144.227-.242.313l-.001.001c-.187-.086-.41-.166-.64-.228l-.03-.007c-.253-.069-.544-.109-.844-.109-.017 0-.034 0-.051 0h .003q-1.827 0-1.827 1.94v4.533h-1.772z" fill="#f18421"/><path d="m50.241 11.492c-.105 0-.268.042-.49.071l-.788.08q-.452.038-1.018.071t-1.173.029c-.057.002-.125.002-.192.002-.639 0-1.261-.077-1.855-.223l.053.011c-.461-.116-.864-.311-1.216-.572l.009.006c-.274-.206-.484-.481-.607-.8l-.004-.012c-.103-.28-.163-.604-.163-.942 0-.002 0-.003 0-.005v0c0-.017-.001-.037-.001-.057 0-.385.072-.752.204-1.09l-.007.02c.138-.333.358-.608.636-.809l.005-.004c.331-.232.722-.404 1.145-.491l.02-.003c.484-.105 1.04-.165 1.611-.165.049 0 .099 0 .148.001h-.007c.394 0 .771 0 1.127.038s.62.05.796.071c.001-.02.001-.043.001-.066 0-.304-.067-.592-.186-.851l.005.013c-.114-.232-.283-.421-.489-.558l-.005-.003c-.215-.136-.467-.235-.738-.279l-.012-.002c-.281-.051-.605-.08-.935-.08-.011 0-.023 0-.034 0h .002c-.041-.001-.089-.002-.137-.002-.464 0-.909.076-1.326.216l.029-.009c-.271.089-.507.205-.723.35l.01-.007c-.096-.089-.181-.186-.256-.292l-.004-.006c-.102-.14-.164-.315-.164-.505 0-.01 0-.019 0-.029v.001c.004-.155.047-.299.12-.423l-.002.004c.102-.162.244-.291.413-.374l.006-.003c.23-.12.498-.211.78-.258l.016-.002c.344-.059.74-.093 1.143-.093.04 0 .08 0 .12.001h-.006c.018 0 .04 0 .062 0 .572 0 1.129.066 1.663.19l-.049-.01c.496.103.934.292 1.32.553l-.013-.008c.36.266.645.613.831 1.014l.007.016c.194.426.307.924.307 1.449 0 .034 0 .068-.001.102v-.005zm-1.768-3.469q-.155-.029-.587-.092c-.336-.041-.726-.064-1.121-.064-.06 0-.119.001-.179.002h.009c-.062-.005-.134-.007-.207-.007-.49 0-.951.122-1.355.338l.016-.008c-.297.205-.489.543-.489.927 0 .029.001.058.003.087v-.004c0 .007 0 .014 0 .022 0 .178.037.348.104.501l-.003-.008c.074.175.195.318.348.417l.004.002c.195.12.423.208.667.25l.011.002c.298.056.642.089.992.089.028 0 .056 0 .084-.001h-.004c.039.001.085.001.131.001.355 0 .706-.02 1.051-.059l-.042.004c.281-.038.469-.067.561-.084z" fill="#f18421"/><path d="m52.73.155c.007 0 .014 0 .022 0 .292 0 .556.12.744.314l0 0c .194.19.314.454.314.746 0 .007 0 .014 0 .021v-.001c0 .006 0 .013 0 .02 0 .292-.12.557-.314.746l0 0c-.197.194-.468.314-.767.314s-.569-.12-.767-.314l0 0c-.194-.19-.314-.454-.314-.746 0-.007 0-.014 0-.021v.001c0-.01-.001-.021-.001-.032 0-.286.115-.546.302-.734l0 0c .19-.194.454-.314.746-.314.007 0 .014 0 .021 0h-.001zm-.905 4.345c-.002-.02-.003-.043-.003-.066 0-.225.098-.427.254-.566l.001-.001c.177-.122.397-.196.633-.196.028 0 .055.001.083.003h-.004c.004 0 .01 0 .015 0 .178 0 .351.026.513.075l-.013-.003.314.101v7.675h-1.781z" fill="#f18421"/><path d="m55.214 6.783c0-.017-.001-.036-.001-.056 0-.487.107-.949.298-1.363l-.008.02c.194-.414.463-.763.792-1.044l.004-.004c.339-.284.74-.509 1.177-.651l.025-.007c.44-.144.946-.227 1.472-.227.019 0 .038 0 .056 0h-.003c.015 0 .033 0 .05 0 .529 0 1.04.083 1.518.236l-.035-.01c.466.147.87.372 1.216.662l-.006-.005c.332.283.598.632.78 1.029l.008.019c.178.396.281.858.281 1.344 0 .02 0 .039-.001.059v-.003 4.738h-1.781v-4.282c.004-.048.006-.104.006-.161 0-.555-.197-1.063-.524-1.46l.003.004c-.408-.346-.94-.556-1.521-.556s-1.113.21-1.524.559l.003-.003c-.329.397-.528.912-.528 1.473 0 .051.002.101.005.151v-.007 4.282h-1.781z" fill="#f18421"/><path d="m11.006 3.926c-.296-.697-.705-1.291-1.21-1.788l-.001-.001c-.513-.499-1.123-.901-1.797-1.176l-.038-.014c-.645-.265-1.394-.419-2.178-.419-.028 0-.056 0-.084.001h.004c-.024 0-.052-.001-.08-.001-.785 0-1.533.154-2.217.434l.039-.014c-.696.292-1.291.692-1.794 1.186l.001-.001c-.515.497-.931 1.093-1.218 1.758l-.014.035c-.265.633-.42 1.369-.42 2.141 0 .032 0 .065.001.097v-.005c0 .024-.001.053-.001.081 0 .771.154 1.507.433 2.177l-.014-.037c.295.697.704 1.292 1.21 1.788l.001.001c.508.496 1.11.898 1.777 1.176l.037.014c.645.265 1.394.419 2.178.419.028 0 .056 0 .084-.001h-.004c.024 0 .052.001.08.001.785 0 1.533-.154 2.218-.434l-.039.014c.704-.292 1.306-.694 1.815-1.191l-.001.001c.514-.496.93-1.091 1.218-1.754l.014-.035c.265-.633.42-1.369.42-2.142 0-.034 0-.067-.001-.101v.005c.001-.028.001-.062.001-.095 0-.772-.154-1.509-.434-2.18l.014.038zm-8.698 1.822c.624-.214 1.462-.482 1.462-.482 1.86-.591 2.095-1.29 2.095-1.29s.39.7 1.743 1.16c0 0 .746.247 1.441.494.034.071.071.138.101.209.114.264.201.57.245.891l.002.019h-.918c-.071-.163-.169-.302-.289-.419l0 0c-.117-.118-.256-.214-.41-.282l-.009-.003c-.159-.064-.343-.102-.536-.102s-.377.037-.546.105l.01-.003c-.163.071-.302.167-.419.285l0 0c-.12.117-.218.256-.286.411l-.003.008c-.019.043-.038.096-.053.151l-.002.008h-.36c-.017-.063-.035-.116-.057-.167l.003.008c-.071-.163-.169-.303-.289-.419l0 0c-.117-.118-.256-.214-.41-.282l-.009-.003c-.159-.064-.343-.102-.536-.102s-.377.037-.546.105l.01-.003c-.163.071-.302.167-.419.285l0 0c-.12.117-.218.256-.286.411l-.003.008h-1.022c.046-.339.133-.645.256-.932l-.009.023.046-.096zm5.711 1.517c0 .001 0 .003 0 .004 0 .112-.023.219-.065.315l.002-.005c-.042.098-.1.181-.172.251l0 0c-.072.07-.156.126-.25.166l-.005.002c-.094.038-.204.06-.318.06s-.224-.022-.324-.062l.006.002c-.099-.041-.184-.098-.256-.168l0 0c-.071-.07-.129-.154-.17-.246l-.002-.005c-.039-.094-.062-.202-.062-.316s.023-.223.064-.322l-.002.006c.042-.098.1-.181.172-.251l0 0c .072-.07.156-.126.25-.166l.005-.002c.094-.039.204-.061.318-.061s.224.022.324.063l-.006-.002c.099.041.184.098.256.168l0 0c .072.07.13.153.17.246l.002.005c.04.092.063.199.063.312 0 .001 0 .002 0 .003v0zm-2.983-.004c0 .001 0 .002 0 .003 0 .113-.023.22-.065.317l.002-.005c-.042.098-.1.181-.172.251l0 0c-.072.07-.156.126-.25.166l-.005.002c-.094.038-.204.06-.318.06s-.224-.022-.324-.062l.006.002c-.099-.041-.184-.098-.256-.168l0 0c-.072-.07-.13-.153-.17-.246l-.002-.005c-.039-.094-.062-.202-.062-.316s.023-.223.064-.322l-.002.006c.042-.098.1-.181.172-.251l0 0c .072-.07.156-.126.25-.166l.005-.002c.094-.039.204-.061.318-.061s.224.022.324.063l-.006-.002c.099.041.184.098.256.168l0 0c .071.07.129.154.17.246l.002.005c.04.093.063.2.063.313 0 0 0 .001 0 .001v0zm3.352 2.673c-.333.325-.728.588-1.165.77l-.025.009c-.427.178-.922.281-1.442.281-.013 0-.026 0-.039 0h .002c-.011 0-.024 0-.038 0-.519 0-1.015-.103-1.467-.29l.025.009c-.462-.191-.857-.454-1.191-.78l.001.001c-.331-.326-.599-.716-.783-1.15l-.009-.023c-.179-.417-.283-.902-.285-1.411v-.001h.897c.011.154.047.296.104.427l-.003-.008c.071.163.169.302.289.419l0 0c .117.116.256.211.41.277l.009.003c.159.065.343.103.536.103s.377-.038.546-.106l-.01.004c.163-.07.302-.164.419-.281l0 0c .203-.2.341-.464.38-.76l.001-.007h.314c.041.303.179.567.381.767l0 0c .117.116.256.211.41.277l.009.003c.159.065.343.103.536.103s.377-.038.546-.106l-.01.004c.163-.07.302-.164.419-.281l0 0c .12-.116.218-.256.286-.411l.003-.008c.053-.123.089-.265.1-.415v-.004h.922c-.001.51-.106.995-.294 1.436l.009-.024c-.195.463-.467.857-.804 1.185l-.001.001z" fill="#f18421"/></symbol><symbol id="icon-facebook" viewBox="0 0 162 32"><path d="m83.346 15.541c-1.207.046-2.328.374-3.312.919l.038-.019v10.073c.591.06 1.278.094 1.972.094.138 0 .276-.001.414-.004h-.021c3.211 0 3.651-1.466 3.651-3.517v-4.821c0-1.511-.504-2.698-2.698-2.698zm-21.289-.548c-2.23 0-2.698 1.223-2.698 2.698v.845h5.396v-.845c0-1.511-.504-2.698-2.698-2.698zm-41.299 10.504c-.01.067-.016.144-.016.222 0 .879.713 1.592 1.592 1.592.078 0 .156-.006.231-.017l-.009.001c1.149-.043 2.213-.372 3.134-.916l-.031.017v-2.365h-2.905c-1.385 0-1.988.252-1.988 1.457zm83.318-9.965c-2.23 0-3.004 1.214-3.004 2.698v5.522c0 1.52.773 2.698 3.004 2.698s3.004-1.214 3.004-2.698v-5.486c0-1.511-.782-2.698-3.004-2.698zm-94.246 16.153h-6.556v-15.847h-3.274v-5.459h3.274v-3.274c0-4.497 1.853-7.105 7.105-7.105h4.371v5.459h-2.698c-2.042 0-2.185.764-2.185 2.186v2.698h4.956l-.576 5.459h-4.416zm22.404 0h-5.468l-.234-1.376c-1.765 1.007-3.878 1.601-6.13 1.601-.02 0-.04 0-.06 0h .003c-4.011 0-6.143-2.698-6.143-6.368 0-4.362 2.491-5.918 6.943-5.918h4.497v-.899c0-2.23-.252-2.878-3.687-2.878h-5.567l.549-5.459h6.125c7.519 0 9.174 2.374 9.174 8.382zm18.572-15.442c-1.787-.407-3.854-.664-5.973-.71l-.034-.001c-2.941 0-3.822.648-3.822 3.139v4.713c0 2.491.899 3.139 3.822 3.139 2.153-.046 4.221-.302 6.216-.75l-.208.039v5.324c-1.958.506-4.214.812-6.535.845h-.021c-7.042 0-9.83-3.696-9.83-8.994v-3.867c0-5.342 2.797-9.048 9.83-9.048 2.343.034 4.598.34 6.757.889l-.2-.043zm20.515 6.7h-12.016v.441c0 2.491.899 3.139 3.822 3.139.09.001.195.001.301.001 2.598 0 5.136-.259 7.588-.753l-.245.041v5.324c-2.285.54-4.908.85-7.603.85-.204 0-.408-.002-.612-.005h.031c-7.042 0-9.839-3.696-9.839-8.994v-4.416c0-4.668 2.114-8.499 9.309-8.499s9.264 3.786 9.264 8.499zm21.306.099c0 5.162-1.475 8.922-10.424 8.922-3.087-.024-6.088-.328-8.998-.886l.31.049v-29.491l6.529-1.088v10.316c1.429-.502 3.076-.792 4.791-.792.045 0 .091 0 .136.001h-.007c6.556 0 7.645 2.932 7.645 7.654zm21.01.117c0 4.452-1.799 8.769-9.542 8.769s-9.578-4.317-9.578-8.769v-4.272c0-4.497 1.871-8.769 9.578-8.769s9.542 4.272 9.542 8.769zm20.991 0c0 4.452-1.799 8.769-9.542 8.769s-9.578-4.317-9.578-8.769v-4.272c0-4.497 1.88-8.769 9.578-8.769s9.533 4.272 9.533 8.769zm21.586 8.526h-7.105l-6.053-10.01v10.01h-6.556v-30.048l6.556-1.088v19.346l6.008-9.506h7.105l-6.556 10.379zm-31.155-16.144c-2.221 0-2.995 1.214-2.995 2.698v5.522c0 1.52.773 2.698 2.995 2.698s3.013-1.214 3.013-2.698v-5.495c0-1.511-.782-2.698-3.013-2.698z" fill="#4967a9"/><path d="m159.91 27.953c.003 0 .006 0 .009 0 1.118 0 2.024.906 2.024 2.024s-.906 2.024-2.024 2.024c-1.118 0-2.024-.906-2.024-2.024v0c0-.008 0-.018 0-.027 0-1.103.894-1.997 1.997-1.997.006 0 .013 0 .019 0zm0 .315c-.87.092-1.542.822-1.542 1.709s.672 1.617 1.535 1.708l.007.001c.87-.092 1.542-.822 1.542-1.709s-.672-1.617-1.535-1.708zm-.378 2.887h-.342v-2.266c.191-.033.412-.053.638-.054h.001c.025-.002.054-.003.083-.003.229 0 .442.065.624.177l-.005-.003c.127.1.208.253.208.426 0 .015-.001.029-.002.044v-.002c0 .001 0 .002 0 .003 0 .267-.187.489-.437.545l-.004.001c.198 0 .333.216.378.549.021.206.072.395.149.57l-.005-.012h-.378c-.082-.168-.136-.364-.153-.57v-.006c-.012-.224-.196-.401-.422-.401-.022 0-.044.002-.066.005h.002-.252zm0-1.251h.261c.297 0 .549-.108.549-.387s-.144-.396-.549-.396h-.261z" fill="#4967a9"/></symbol><symbol id="icon-google" viewBox="0 0 97 32"><path d="m41.601 16.841c0 4.431-3.592 8.023-8.023 8.023s-8.023-3.592-8.023-8.023v0c0-4.431 3.592-8.023 8.023-8.023s8.023 3.592 8.023 8.023zm-3.511 0c0-2.859-2.087-4.843-4.512-4.843s-4.512 1.967-4.512 4.843 2.087 4.843 4.512 4.843 4.512-2.001 4.512-4.843z" fill="#ea4335"/><path d="m58.899 16.841c0 4.431-3.592 8.023-8.023 8.023s-8.023-3.592-8.023-8.023v0c0-4.431 3.592-8.023 8.023-8.023s8.023 3.592 8.023 8.023zm-3.511 0c0-2.859-2.087-4.843-4.512-4.843s-4.512 1.967-4.512 4.843 2.087 4.843 4.512 4.843 4.517-2.001 4.517-4.843z" fill="#fbbc05"/><path d="m75.483 9.327v14.359c0 5.901-3.477 8.337-7.594 8.337-.015 0-.032 0-.05 0-3.159 0-5.869-1.923-7.023-4.662l-.019-.05 3.059-1.275c.631 1.646 2.175 2.804 3.996 2.859h.007c2.636 0 4.266-1.624 4.266-4.689v-1.144h-.074c-1.001 1.119-2.45 1.82-4.063 1.82-.051 0-.102-.001-.153-.002h.007c-4.003 0-7.663-3.483-7.663-7.966s3.665-8.006 7.663-8.006c.057-.002.124-.003.192-.003 1.58 0 3.006.661 4.015 1.722l.002.002h.12v-1.298h3.311zm-3.088 7.542c0-2.813-1.876-4.872-4.266-4.872s-4.455 2.059-4.455 4.872 2.03 4.815 4.455 4.815 4.277-2.03 4.277-4.815z" fill="#4285f4"/><path d="m80.989.915v23.445h-3.431v-23.445z" fill="#34a853"/><path d="m94.353 19.471l2.728 1.818c-1.448 2.15-3.873 3.545-6.624 3.545-.013 0-.027 0-.04 0h .002c-.035.001-.076.001-.117.001-4.32 0-7.823-3.502-7.823-7.823 0-.065.001-.129.002-.193v.01c0-4.758 3.431-8.006 7.543-8.006s6.182 3.305 6.862 5.089l.366.909-10.688 4.426c.648 1.442 2.071 2.427 3.725 2.427.054 0 .107-.001.16-.003h-.008c0 0 0 0 0 0 1.649 0 3.095-.873 3.9-2.182l.011-.02zm-8.406-2.888l7.148-2.968c-.395-1.001-1.578-1.716-2.968-1.716-2.337.107-4.191 2.028-4.191 4.382 0 .106.004.211.011.316l-.001-.014z" fill="#ea4335"/><path d="m12.58 14.759v-3.391h11.437c.109.589.172 1.266.172 1.958 0 .031 0 .062 0 .093v-.005c0 2.545-.698 5.718-2.939 7.937s-4.964 3.482-8.669 3.482c0 0-.001 0-.001 0-6.892 0-12.489-5.542-12.579-12.412v-.008c.094-6.876 5.69-12.415 12.579-12.415 0 0 .001 0 .001 0h0c .057-.001.125-.002.193-.002 3.251 0 6.195 1.311 8.334 3.433l-.001-.001-2.396 2.396c-1.554-1.507-3.677-2.437-6.017-2.437-.04 0-.08 0-.12.001h.006c-4.913.009-8.893 3.995-8.893 8.909 0 .04 0 .08.001.12v-.006c0 .034-.001.074-.001.114 0 4.915 3.979 8.9 8.892 8.909h.001c.107.005.233.008.36.008 2.322 0 4.422-.953 5.929-2.488l.001-.001c1.029-1.112 1.704-2.565 1.84-4.171l.002-.026z" fill="#4285f4"/></symbol></defs></svg>