<svg style="position: absolute; width: 0; height: 0; overflow: hidden;" version="1.1" xmlns="http://www.w3.org/2000/svg" xmlns:xlink="http://www.w3.org/1999/xlink">
<defs>
<symbol id="icon-email" viewBox="0 0 32 32">
<title>email</title>
<path fill="#98c21f" style="fill: var(--color1, #98c21f)" d="M32 10.668l-16-10.668-16 10.668h32z"></path>
<path fill="#648014" style="fill: var(--color2, #648014)" d="M0 10.668h32v21.332h-32v-21.332z"></path>
<path fill="#e6e6e6" style="fill: var(--color3, #e6e6e6)" d="M3.644 4.588h24.708v24.956h-24.708v-24.956z"></path>
<path fill="#f2f2f2" style="fill: var(--color4, #f2f2f2)" d="M24.628 4.588l-20.984 18.836v-18.836h20.984z"></path>
<path fill="#ccc" style="fill: var(--color5, #ccc)" d="M5.352 8.004h7.084v0.964h-7.084v-0.964z"></path>
<path fill="#ccc" style="fill: var(--color5, #ccc)" d="M5.352 11.232h21.3v0.964h-21.3v-0.964z"></path>
<path fill="#ccc" style="fill: var(--color5, #ccc)" d="M5.352 12.844h21.3v0.964h-21.3v-0.964z"></path>
<path fill="#ccc" style="fill: var(--color5, #ccc)" d="M5.352 14.46h21.3v0.964h-21.3v-0.964z"></path>
<path fill="#ccc" style="fill: var(--color5, #ccc)" d="M5.352 16.072h21.3v0.964h-21.3v-0.964z"></path>
<path fill="#ccc" style="fill: var(--color5, #ccc)" d="M5.352 17.688h21.3v0.964h-21.3v-0.964z"></path>
<path fill="#ccc" style="fill: var(--color5, #ccc)" d="M5.352 19.3h21.3v0.964h-21.3v-0.964z"></path>
<path fill="#ccc" style="fill: var(--color5, #ccc)" d="M5.352 20.916h21.3v0.964h-21.3v-0.964z"></path>
<path fill="#98c21f" style="fill: var(--color1, #98c21f)" d="M32 32h-32v-21.332l16 10.664 16-10.664v21.332z"></path>
<path fill="#a4c83f" style="fill: var(--color6, #a4c83f)" d="M0 32v-21.332l16 10.664-16 10.668z"></path>
<path fill="#000" opacity="0.2" style="fill: var(--color7, #000)" d="M32 30.576l-15.1-9.84 15.1 11.264v-1.424z"></path>
<path fill="#000" opacity="0.2" style="fill: var(--color7, #000)" d="M16 20.584l-14.152-8.684 14.152 9.432v-0.748z"></path>
<path fill="#afce57" style="fill: var(--color8, #afce57)" d="M32 32l-16-11.988-16 11.988h32z"></path>
</symbol>
<symbol id="icon-form" viewBox="0 0 30 32">
<title>form</title>
<path fill="#e6e6e6" style="fill: var(--color3, #e6e6e6)" d="M29.744 1.2v29.6c0 0.663-0.537 1.2-1.2 1.2v0h-21.344l-7.2-7.2v-23.6c0-0.663 0.537-1.2 1.2-1.2v0h27.36c0.656 0.009 1.184 0.543 1.184 1.2 0 0 0 0 0 0v0z"></path>
<path fill="#757b82" style="fill: var(--color9, #757b82)" d="M6.336 24.78h-6.336l7.2 7.2v-6.316c-0.002-0.48-0.385-0.871-0.863-0.884l-0.001-0z"></path>
<path fill="#98c21f" style="fill: var(--color1, #98c21f)" d="M13.272 6.944h-10.736v-1.7h10.736v1.7z"></path>
<path fill="#98c21f" style="fill: var(--color1, #98c21f)" d="M27.556 12.292h-25.020v-1.7h25.020v1.7z"></path>
<path fill="#98c21f" style="fill: var(--color1, #98c21f)" d="M24.196 17.64h-21.66v-1.7h21.66v1.7z"></path>
<path fill="#98c21f" style="fill: var(--color1, #98c21f)" d="M24.008 22.992h-21.472v-1.7h21.472v1.7z"></path>
</symbol>
<symbol id="icon-excel" viewBox="0 0 25 32">
<title>excel</title>
<path fill="#98c21f" style="fill: var(--color1, #98c21f)" d="M17.748 2.992v-2.992h-13.96c-2.092 0-3.788 1.696-3.788 3.788v0 24.424c0.005 2.090 1.698 3.783 3.788 3.788h17.812c2.092 0 3.788-1.696 3.788-3.788v0-20.212h-2.616c-2.768-0.002-5.013-2.241-5.024-5.007v-0.001zM23.84 14.16v14.052c-0.002 1.227-0.997 2.22-2.224 2.22-0.006 0-0.011-0-0.017-0h-17.811c-1.228 0-2.224-0.996-2.224-2.224v0-17.468h22.276z"></path>
<path fill="#5d5a61" style="fill: var(--color2, #5d5a61)" d="M22.772 6.8h2.636l-6.428-6.8v2.992c0 0.004-0 0.008-0 0.012 0 2.095 1.697 3.794 3.792 3.796h0z"></path>
<path fill="#fff" style="fill: var(--color3, #fff)" d="M3.18 3.176h1.12l0.864 1.404 0.892-1.404h1.060l-1.412 2.1 1.532 2.296h-1.148l-0.96-1.52-0.98 1.52h-1.084l1.532-2.304z"></path>
<path fill="#fff" style="fill: var(--color3, #fff)" d="M8.592 3.176v3.6h2.144v0.8h-3.112v-4.4z"></path>
<path fill="#fff" style="fill: var(--color3, #fff)" d="M12 6.488c0.052 0.1 0.123 0.183 0.21 0.247l0.002 0.001c0.089 0.063 0.193 0.111 0.306 0.139l0.006 0.001c0.11 0.030 0.237 0.048 0.368 0.048h0c0.097 0 0.193-0.007 0.287-0.021l-0.011 0.001c0.103-0.015 0.196-0.045 0.282-0.087l-0.006 0.003c0.086-0.040 0.158-0.097 0.215-0.167l0.001-0.001c0.055-0.071 0.088-0.161 0.088-0.259 0-0.006-0-0.012-0-0.018l0 0.001c0-0.003 0-0.007 0-0.010 0-0.108-0.043-0.206-0.112-0.278l0 0c-0.084-0.078-0.184-0.14-0.294-0.182l-0.006-0.002c-0.109-0.045-0.242-0.089-0.38-0.124l-0.020-0.004-0.476-0.124c-0.193-0.048-0.353-0.101-0.508-0.162l0.028 0.010c-0.153-0.063-0.285-0.141-0.403-0.235l0.003 0.003c-0.245-0.191-0.401-0.487-0.401-0.819 0-0.017 0-0.035 0.001-0.052l-0 0.002c-0-0.009-0-0.019-0-0.030 0-0.205 0.054-0.397 0.147-0.564l-0.003 0.006c0.099-0.161 0.226-0.294 0.376-0.397l0.004-0.003c0.151-0.108 0.327-0.193 0.516-0.245l0.012-0.003c0.168-0.053 0.362-0.088 0.564-0.096l0.004-0c0.004-0 0.008-0 0.012-0 0.23 0 0.453 0.028 0.667 0.080l-0.019-0.004c0.206 0.055 0.386 0.141 0.545 0.255l-0.005-0.003c0.166 0.114 0.301 0.261 0.397 0.434l0.003 0.006c0.091 0.177 0.145 0.386 0.145 0.608 0 0.014-0 0.028-0.001 0.042l0-0.002h-0.944c-0.005-0.12-0.035-0.232-0.086-0.333l0.002 0.005c-0.045-0.084-0.109-0.153-0.186-0.203l-0.002-0.001c-0.077-0.048-0.167-0.084-0.263-0.103l-0.005-0.001c-0.097-0.020-0.209-0.032-0.324-0.032-0.001 0-0.003 0-0.004 0h0c-0.001 0-0.002 0-0.003 0-0.083 0-0.163 0.009-0.241 0.025l0.008-0.001c-0.080 0.017-0.151 0.048-0.214 0.089l0.002-0.001c-0.062 0.040-0.114 0.091-0.155 0.15l-0.001 0.002c-0.038 0.060-0.061 0.133-0.061 0.212 0 0.008 0 0.017 0.001 0.025l-0-0.001c-0 0.005-0 0.011-0 0.017 0 0.070 0.018 0.136 0.049 0.193l-0.001-0.002c0.049 0.066 0.114 0.116 0.189 0.147l0.003 0.001c0.112 0.051 0.245 0.097 0.383 0.132l0.017 0.004 0.668 0.172q0.124 0.024 0.34 0.088c0.166 0.052 0.311 0.122 0.442 0.212l-0.006-0.004c0.149 0.101 0.273 0.228 0.369 0.375l0.003 0.005c0.099 0.159 0.157 0.353 0.157 0.56 0 0.017-0 0.034-0.001 0.051l0-0.002c0 0.004 0 0.008 0 0.013 0 0.198-0.043 0.386-0.12 0.556l0.003-0.008c-0.082 0.179-0.2 0.329-0.346 0.446l-0.002 0.002c-0.162 0.128-0.353 0.228-0.56 0.289l-0.012 0.003c-0.223 0.066-0.48 0.105-0.745 0.105-0.019 0-0.039-0-0.058-0.001l0.003 0c-0.002 0-0.005 0-0.008 0-0.247 0-0.487-0.032-0.716-0.092l0.020 0.004c-0.23-0.059-0.432-0.155-0.609-0.284l0.005 0.004c-0.168-0.129-0.303-0.293-0.396-0.48l-0.004-0.008c-0.094-0.187-0.149-0.408-0.149-0.641 0-0.021 0-0.041 0.001-0.062l-0 0.003h0.936c-0 0.010-0.001 0.022-0.001 0.034 0 0.124 0.028 0.242 0.079 0.347l-0.002-0.005z"></path>
<path fill="#5d5a61" style="fill: var(--color2, #5d5a61)" d="M13.224 16.996h-1.044c-0.649 0.018-1.168 0.548-1.168 1.2 0 0 0 0 0 0v-0 6.576c0 0 0 0 0 0 0 0.651 0.519 1.182 1.166 1.2l0.002 0h1.044c0.649-0.018 1.168-0.548 1.168-1.2 0-0 0-0 0-0v0-6.584c-0.004-0.648-0.522-1.174-1.166-1.192l-0.002-0zM12.204 24.4c0 0.15-0.122 0.272-0.272 0.272s-0.272-0.122-0.272-0.272v-5.024c0-0.15 0.122-0.272 0.272-0.272s0.272 0.122 0.272 0.272v0z"></path>
<path fill="#5d5a61" style="fill: var(--color2, #5d5a61)" d="M8.52 19.388h-1.048c-0.649 0.018-1.168 0.548-1.168 1.2 0 0 0 0 0 0v-0 4.18c0 0 0 0 0 0 0 0.651 0.519 1.182 1.166 1.2l0.002 0h1.048c0.649-0.018 1.168-0.548 1.168-1.2 0-0 0-0 0-0v0-4.184c-0.002-0.65-0.52-1.178-1.166-1.196l-0.002-0zM7.5 24.44c0 0.15-0.122 0.272-0.272 0.272s-0.272-0.122-0.272-0.272v-3.24c0-0.15 0.122-0.272 0.272-0.272s0.272 0.122 0.272 0.272v0z"></path>
<path fill="#5d5a61" style="fill: var(--color2, #5d5a61)" d="M17.932 15.2h-1.044c-0.649 0.018-1.168 0.548-1.168 1.2 0 0 0 0 0 0v-0 8.368c0 0 0 0 0 0 0 0.651 0.519 1.182 1.166 1.2l0.002 0h1.044c0.649-0.018 1.168-0.548 1.168-1.2 0-0 0-0 0-0v0-8.368c0-0 0-0 0-0 0-0.652-0.519-1.182-1.166-1.2l-0.002-0zM16.912 24.332c0 0.15-0.122 0.272-0.272 0.272s-0.272-0.122-0.272-0.272v0-6.616c0-0.15 0.122-0.272 0.272-0.272s0.272 0.122 0.272 0.272v0z"></path>
</symbol>
<symbol id="icon-ad" viewBox="0 0 39 32">
<title>ad</title>
<path fill="#f0f0f0" style="fill: var(--color10, #f0f0f0)" d="M2.668 0h30.664c1.474 0 2.668 1.194 2.668 2.668v26.664c0 1.474-1.194 2.668-2.668 2.668h-30.664c-1.474 0-2.668-1.195-2.668-2.668v-26.664c0-1.474 1.194-2.668 2.668-2.668z"></path>
<path fill="#4285f4" style="fill: var(--color11, #4285f4)" d="M2.668 0h30.664c1.474 0 2.668 1.194 2.668 2.668v0 4h-36v-4c0-1.474 1.194-2.668 2.668-2.668v0z"></path>
<path fill="#e6e6e6" style="fill: var(--color3, #e6e6e6)" d="M5.332 3.332c0 0.736-0.596 1.332-1.332 1.332s-1.332-0.596-1.332-1.332c0-0.736 0.596-1.332 1.332-1.332s1.332 0.596 1.332 1.332z"></path>
<path fill="#e6e6e6" style="fill: var(--color3, #e6e6e6)" d="M9.332 3.332c0 0.736-0.596 1.332-1.332 1.332s-1.332-0.596-1.332-1.332c0-0.736 0.596-1.332 1.332-1.332s1.332 0.596 1.332 1.332z"></path>
<path fill="#c5c5c5" style="fill: var(--color12, #c5c5c5)" d="M2.668 8.668h18.332v6.668h-18.332v-6.668z"></path>
<path fill="#c5c5c5" style="fill: var(--color12, #c5c5c5)" d="M2.668 17.332h20.668v12h-20.668v-12z"></path>
<path fill="#c5c5c5" style="fill: var(--color12, #c5c5c5)" d="M33.336 29.336h-8v-12h8v12z"></path>
<path fill="#000" opacity="0.1" style="fill: var(--color7, #000)" d="M22.668 17.668v2.332l11.572 11.836c1.035-0.381 1.759-1.358 1.76-2.504v-11.664z"></path>
<path fill="#db4437" style="fill: var(--color13, #db4437)" d="M37.42 20h-14.752l-6.184-5.916c-0.374-0.358-0.607-0.861-0.607-1.418s0.233-1.060 0.606-1.417l0.001-0.001 6.184-5.916h14.752c0.689 0 1.248 0.559 1.248 1.248v0 12.172c0 0.689-0.559 1.248-1.248 1.248v0z"></path>
</symbol>
<symbol id="icon-lp" viewBox="0 0 34 32">
<title>lp</title>
<path fill="#ecf0f1" style="fill: var(--color14, #ecf0f1)" d="M1.068 0h31.64c0.59 0 1.068 0.478 1.068 1.068v29.864c0 0.59-0.478 1.068-1.068 1.068h-31.64c-0.59 0-1.068-0.478-1.068-1.068v-29.864c0-0.59 0.478-1.068 1.068-1.068z"></path>
<path fill="#98c21f" style="fill: var(--color1, #98c21f)" d="M2.132 6.184h29.512v11.292h-29.512v-11.292z"></path>
<path fill="#fff" style="fill: var(--color15, #fff)" d="M6.432 7.788h5.488v5.452h-5.488v-5.452z"></path>
<path fill="#757b82" style="fill: var(--color9, #757b82)" d="M33.776 2.488h-33.776v-1.42c0-0.59 0.478-1.068 1.068-1.068v0h31.644c0.59 0 1.068 0.478 1.068 1.068v0z"></path>
<path fill="#fff" style="fill: var(--color15, #fff)" d="M2.488 1.244c0 0.294-0.238 0.532-0.532 0.532s-0.532-0.238-0.532-0.532c0-0.294 0.238-0.532 0.532-0.532s0.532 0.238 0.532 0.532z"></path>
<path fill="#fff" style="fill: var(--color15, #fff)" d="M4.264 1.244c0 0.294-0.238 0.532-0.532 0.532s-0.532-0.238-0.532-0.532c0-0.294 0.238-0.532 0.532-0.532s0.532 0.238 0.532 0.532z"></path>
<path fill="#fff" style="fill: var(--color15, #fff)" d="M6.044 1.244c0 0.294-0.238 0.532-0.532 0.532s-0.532-0.238-0.532-0.532c0-0.294 0.238-0.532 0.532-0.532s0.532 0.238 0.532 0.532z"></path>
<path fill="#fff" style="fill: var(--color15, #fff)" d="M14.208 7.788h5.856v0.712h-5.856v-0.712z"></path>
<path fill="#487691" style="fill: var(--color16, #487691)" d="M13.416 19.44h6.944v0.712h-6.944v-0.712z"></path>
<path fill="#fff" style="fill: var(--color15, #fff)" d="M14.208 9.564h13.192v0.356h-13.192v-0.356z"></path>
<path fill="#5d5a61" style="fill: var(--color17, #5d5a61)" d="M10.636 4.36h2.060v0.356h-2.060v-0.356z"></path>
<path fill="#5d5a61" style="fill: var(--color17, #5d5a61)" d="M14.116 4.36h2.060v0.356h-2.060v-0.356z"></path>
<path fill="#5d5a61" style="fill: var(--color17, #5d5a61)" d="M17.6 4.36h2.060v0.356h-2.060v-0.356z"></path>
<path fill="#5d5a61" style="fill: var(--color17, #5d5a61)" d="M21.084 4.36h2.060v0.356h-2.060v-0.356z"></path>
<path fill="#5d5a61" style="fill: var(--color17, #5d5a61)" d="M2.132 3.936h1.784v0.268h-1.784v-0.268z"></path>
<path fill="#5d5a61" style="fill: var(--color17, #5d5a61)" d="M2.132 4.56h1.784v0.268h-1.784v-0.268z"></path>
<path fill="#5d5a61" style="fill: var(--color17, #5d5a61)" d="M2.132 5.184h1.784v0.268h-1.784v-0.268z"></path>
<path fill="#fff" style="fill: var(--color15, #fff)" d="M14.208 10.632h13.192v0.356h-13.192v-0.356z"></path>
<path fill="#fff" style="fill: var(--color15, #fff)" d="M14.208 11.696h11.272v0.356h-11.272v-0.356z"></path>
<path fill="#fff" style="fill: var(--color15, #fff)" d="M14.208 12.764h8v0.356h-8v-0.356z"></path>
<path fill="#fff" style="fill: var(--color15, #fff)" d="M6.416 13.952h5.512v0.356h-5.512v-0.356z"></path>
<path fill="#fff" style="fill: var(--color15, #fff)" d="M6.416 15.016h4.8v0.356h-4.8v-0.356z"></path>
<path fill="#5d5a61" style="fill: var(--color17, #5d5a61)" d="M13.964 26.948h5.852v0.356h-5.852v-0.356z"></path>
<path fill="#fff" style="fill: var(--color15, #fff)" d="M14.492 14.172h4.792c0.157 0 0.284 0.127 0.284 0.284v0.856c0 0.157-0.127 0.284-0.284 0.284h-4.792c-0.157 0-0.284-0.127-0.284-0.284v-0.856c0-0.157 0.127-0.284 0.284-0.284z"></path>
<path fill="#5d5a61" style="fill: var(--color17, #5d5a61)" d="M15.308 29.040h3.16c0.117 0 0.212 0.095 0.212 0.212v0.56c0 0.117-0.095 0.212-0.212 0.212h-3.16c-0.117 0-0.212-0.095-0.212-0.212v-0.56c0-0.117 0.095-0.212 0.212-0.212z"></path>
<path fill="#5d5a61" style="fill: var(--color17, #5d5a61)" d="M6.704 29.040h3.16c0.117 0 0.212 0.095 0.212 0.212v0.56c0 0.117-0.095 0.212-0.212 0.212h-3.16c-0.117 0-0.212-0.095-0.212-0.212v-0.56c0-0.117 0.095-0.212 0.212-0.212z"></path>
<path fill="#5d5a61" style="fill: var(--color17, #5d5a61)" d="M23.912 29.040h3.16c0.117 0 0.212 0.095 0.212 0.212v0.56c0 0.117-0.095 0.212-0.212 0.212h-3.16c-0.117 0-0.212-0.095-0.212-0.212v-0.56c0-0.117 0.095-0.212 0.212-0.212z"></path>
<path fill="#98c21f" style="fill: var(--color1, #98c21f)" d="M19.020 24.212c0 1.177-0.955 2.132-2.132 2.132s-2.132-0.955-2.132-2.132c0-1.177 0.955-2.132 2.132-2.132s2.132 0.955 2.132 2.132z"></path>
<path fill="#5d5a61" style="fill: var(--color17, #5d5a61)" d="M22.568 26.948h5.852v0.356h-5.852v-0.356z"></path>
<path fill="#98c21f" style="fill: var(--color1, #98c21f)" d="M27.624 24.212c0 1.177-0.955 2.132-2.132 2.132s-2.132-0.955-2.132-2.132c0-1.177 0.955-2.132 2.132-2.132s2.132 0.955 2.132 2.132z"></path>
<path fill="#5d5a61" style="fill: var(--color17, #5d5a61)" d="M5.36 26.948h5.852v0.356h-5.852v-0.356z"></path>
<path fill="#5d5a61" style="fill: var(--color17, #5d5a61)" d="M14.696 27.84h4.388v0.356h-4.388v-0.356z"></path>
<path fill="#5d5a61" style="fill: var(--color17, #5d5a61)" d="M23.3 27.84h4.388v0.356h-4.388v-0.356z"></path>
<path fill="#5d5a61" style="fill: var(--color17, #5d5a61)" d="M6.088 27.84h4.388v0.356h-4.388v-0.356z"></path>
<path fill="#98c21f" style="fill: var(--color1, #98c21f)" d="M10.416 24.212c0 1.177-0.955 2.132-2.132 2.132s-2.132-0.955-2.132-2.132c0-1.177 0.955-2.132 2.132-2.132s2.132 0.955 2.132 2.132z"></path>
<path fill="#98c21f" style="fill: var(--color1, #98c21f)" d="M12.048 7.912l-0.252-0.252-2.62 2.604-2.616-2.604-0.252 0.252 2.616 2.6-2.616 2.6 0.252 0.252 2.616-2.6 2.62 2.6 0.252-0.252-2.62-2.6 2.62-2.6z"></path>
</symbol>
<symbol id="icon-wordpress" viewBox="0 0 32 32">
<title>wordpress</title>
<path fill="#3476b2" style="fill: var(--color18, #3476b2)" d="M16 0c-8.837 0-16 7.163-16 16s7.163 16 16 16c8.837 0 16-7.163 16-16v0c-0.011-8.832-7.168-15.989-15.999-16h-0.001zM16 0.73c0.002 0 0.004 0 0.006 0 8.432 0 15.267 6.835 15.267 15.267s-6.835 15.267-15.267 15.267c-8.431 0-15.265-6.834-15.267-15.264v-0c0.007-8.427 6.834-15.258 15.26-15.27h0.001zM16 2.278c-0.003 0-0.007 0-0.011 0-4.769 0-8.969 2.435-11.426 6.129l-0.032 0.050c0.32 0 0.64 0.019 0.89 0.019 1.434 0 3.651-0.179 3.651-0.179 0.013-0.001 0.029-0.002 0.045-0.002 0.313 0 0.567 0.254 0.567 0.567 0 0.297-0.229 0.541-0.52 0.565l-0.002 0s-0.742 0.096-1.571 0.141l4.998 14.861 3.002-9.008-2.15-5.85c-0.739-0.045-1.44-0.141-1.44-0.141-0.739-0.045-0.64-1.174 0.090-1.13 0 0 2.262 0.179 3.61 0.179 1.434 0 3.661-0.179 3.661-0.179 0.013-0.001 0.029-0.002 0.045-0.002 0.313 0 0.567 0.254 0.567 0.567 0 0.297-0.229 0.541-0.52 0.565l-0.002 0s-0.742 0.096-1.571 0.141l4.973 14.749 1.37-4.579c0.592-1.901 1.059-3.258 1.059-4.432-0.023-1.41-0.446-2.717-1.16-3.817l0.017 0.028c-0.694-1.133-1.35-2.090-1.35-3.219-0-0.018-0.001-0.040-0.001-0.062 0-1.284 1.023-2.33 2.298-2.367l0.003-0h0.179c-2.424-2.228-5.671-3.594-9.237-3.594-0.011 0-0.021 0-0.032 0h0.002zM28.042 9.408c0.061 0.425 0.097 0.918 0.099 1.418v0.002c-0.028 1.781-0.412 3.465-1.082 4.995l0.033-0.083-4.192 12.118c4.109-2.426 6.822-6.831 6.822-11.87 0-2.413-0.622-4.681-1.715-6.652l0.036 0.070zM3.459 10.41c-0.744 1.639-1.178 3.555-1.178 5.571 0 5.404 3.116 10.081 7.649 12.332l0.080 0.036zM16.24 17.2l-4.118 11.971c1.16 0.349 2.493 0.55 3.872 0.55 1.636 0 3.205-0.282 4.663-0.801l-0.097 0.030c-0.035-0.055-0.068-0.118-0.096-0.184l-0.003-0.008z"></path>
</symbol>
<symbol id="icon-analytics" viewBox="0 0 60 32">
<title>analytics</title>
<path fill="#f05620" style="fill: var(--color19, #f05620)" d="M28.060 29.892l2.218-5.774h0.824l2.362 5.774h-0.867l-0.667-1.748h-2.422l-0.634 1.748zM29.728 27.52h1.961l-0.604-1.598q-0.274-0.727-0.41-1.198c-0.090 0.429-0.2 0.798-0.337 1.155l0.017-0.051zM33.985 29.892v-4.183h0.637v0.594c0.272-0.419 0.737-0.692 1.266-0.692 0.024 0 0.048 0.001 0.071 0.002l-0.003-0c0.005-0 0.011-0 0.017-0 0.244 0 0.477 0.050 0.688 0.141l-0.011-0.004c0.193 0.076 0.353 0.199 0.472 0.354l0.002 0.003c0.104 0.149 0.181 0.325 0.219 0.515l0.001 0.009c0.026 0.176 0.041 0.378 0.041 0.584 0 0.037-0.001 0.075-0.001 0.112l0-0.006v2.572h-0.691v-2.539c0-0.016 0.001-0.035 0.001-0.053 0-0.22-0.037-0.431-0.105-0.627l0.004 0.013c-0.060-0.142-0.162-0.257-0.29-0.332l-0.003-0.002c-0.135-0.080-0.297-0.127-0.47-0.127-0.008 0-0.016 0-0.025 0l0.001-0c-0.007-0-0.015-0-0.023-0-0.292 0-0.559 0.109-0.762 0.288l0.001-0.001q-0.334 0.287-0.334 1.091v2.285zM41.2 29.375c-0.215 0.193-0.466 0.352-0.74 0.467l-0.017 0.006c-0.226 0.087-0.488 0.137-0.762 0.137-0.007 0-0.013-0-0.020-0h0.001c-0.032 0.002-0.068 0.004-0.106 0.004-0.363 0-0.696-0.127-0.958-0.339l0.003 0.002c-0.228-0.204-0.371-0.5-0.371-0.828 0-0.011 0-0.023 0.001-0.034l-0 0.002c-0-0.004-0-0.009-0-0.013 0-0.201 0.052-0.389 0.143-0.553l-0.003 0.006c0.090-0.165 0.214-0.302 0.363-0.404l0.004-0.003c0.146-0.1 0.316-0.18 0.498-0.231l0.012-0.003c0.175-0.043 0.389-0.081 0.608-0.105l0.023-0.002c0.469-0.044 0.898-0.13 1.31-0.256l-0.046 0.012c0-0.097 0-0.16 0-0.187 0.003-0.025 0.005-0.054 0.005-0.084 0-0.203-0.078-0.389-0.205-0.527l0.001 0.001c-0.197-0.152-0.447-0.243-0.719-0.243-0.031 0-0.062 0.001-0.092 0.004l0.004-0c-0.027-0.002-0.059-0.003-0.091-0.003-0.239 0-0.462 0.067-0.652 0.183l0.005-0.003c-0.181 0.157-0.308 0.371-0.353 0.614l-0.001 0.007-0.684-0.097c0.051-0.274 0.16-0.515 0.313-0.722l-0.003 0.005c0.163-0.192 0.375-0.338 0.617-0.418l0.010-0.003c0.266-0.093 0.574-0.147 0.893-0.147 0.019 0 0.038 0 0.057 0.001l-0.003-0c0.024-0.001 0.052-0.001 0.080-0.001 0.283 0 0.555 0.047 0.809 0.133l-0.018-0.005c0.197 0.070 0.363 0.184 0.493 0.332l0.001 0.001c0.107 0.135 0.184 0.298 0.219 0.477l0.001 0.007c0.024 0.167 0.038 0.36 0.038 0.557 0 0.039-0.001 0.078-0.002 0.116l0-0.006v0.944c-0.002 0.075-0.003 0.163-0.003 0.251 0 0.352 0.018 0.7 0.053 1.043l-0.004-0.043c0.034 0.189 0.097 0.358 0.184 0.512l-0.004-0.008h-0.741c-0.081-0.16-0.135-0.347-0.15-0.545l-0-0.005zM41.14 27.79c-0.336 0.123-0.727 0.217-1.133 0.265l-0.024 0.002c-0.23 0.024-0.44 0.074-0.639 0.146l0.019-0.006c-0.116 0.049-0.212 0.128-0.279 0.228l-0.001 0.002c-0.062 0.096-0.099 0.212-0.099 0.338 0 0.188 0.083 0.357 0.215 0.472l0.001 0.001c0.155 0.12 0.352 0.192 0.565 0.192 0.022 0 0.043-0.001 0.065-0.002l-0.003 0c0.007 0 0.016 0 0.025 0 0.258 0 0.5-0.067 0.71-0.184l-0.007 0.004c0.207-0.109 0.371-0.275 0.474-0.477l0.003-0.006c0.073-0.184 0.116-0.397 0.116-0.619 0-0.032-0.001-0.064-0.003-0.095l0 0.004zM42.941 29.888v-5.771h0.711v5.774zM44.716 31.5l-0.080-0.667c0.121 0.037 0.261 0.060 0.405 0.063l0.002 0c0.010 0 0.021 0.001 0.032 0.001 0.126 0 0.244-0.030 0.349-0.083l-0.004 0.002c0.096-0.053 0.175-0.128 0.232-0.218l0.002-0.003c0.078-0.147 0.151-0.322 0.21-0.503l0.007-0.024 0.063-0.173-1.568-4.186h0.764l0.871 2.422q0.17 0.46 0.304 0.967c0.098-0.391 0.199-0.709 0.315-1.020l-0.022 0.066 0.894-2.438h0.711l-1.591 4.253c-0.134 0.383-0.268 0.697-0.419 1l0.022-0.050c-0.104 0.208-0.251 0.38-0.43 0.511l-0.004 0.003c-0.157 0.103-0.349 0.164-0.555 0.164-0.010 0-0.020-0-0.031-0l0.002 0c-0.171-0-0.335-0.031-0.487-0.087l0.010 0.003zM50.33 29.255l0.103 0.627c-0.16 0.038-0.345 0.061-0.535 0.063l-0.002 0c-0.019 0.001-0.041 0.002-0.063 0.002-0.196 0-0.381-0.046-0.544-0.128l0.007 0.003c-0.135-0.074-0.24-0.19-0.299-0.329l-0.002-0.004c-0.058-0.203-0.092-0.436-0.092-0.677 0-0.056 0.002-0.112 0.005-0.168l-0 0.008v-2.388h-0.52v-0.554h0.52v-1.024l0.707-0.427v1.461h0.714v0.55h-0.714v2.445c-0.002 0.024-0.003 0.052-0.003 0.080 0 0.11 0.014 0.217 0.041 0.319l-0.002-0.009c0.026 0.058 0.069 0.105 0.122 0.136l0.001 0.001c0.062 0.032 0.136 0.051 0.214 0.051 0.010 0 0.021-0 0.031-0.001l-0.001 0c0.114-0.004 0.222-0.016 0.327-0.035l-0.014 0.002zM51.027 24.918v-0.801h0.711v0.814zM51.027 29.878v-4.17h0.711v4.183zM55.55 28.354l0.697 0.090c-0.055 0.45-0.269 0.843-0.582 1.126l-0.002 0.001c-0.295 0.253-0.682 0.408-1.105 0.408-0.018 0-0.037-0-0.055-0.001l0.003 0c-0.023 0.001-0.050 0.002-0.077 0.002-0.513 0-0.977-0.216-1.304-0.561l-0.001-0.001c-0.329-0.392-0.529-0.902-0.529-1.459 0-0.052 0.002-0.104 0.005-0.156l-0 0.007c-0-0.019-0.001-0.041-0.001-0.063 0-0.405 0.082-0.79 0.231-1.14l-0.007 0.019c0.136-0.324 0.368-0.586 0.66-0.757l0.007-0.004c0.283-0.16 0.62-0.254 0.98-0.254 0.007 0 0.014 0 0.022 0h-0.001c0.026-0.001 0.057-0.002 0.088-0.002 0.386 0 0.742 0.126 1.031 0.339l-0.005-0.003c0.292 0.241 0.494 0.581 0.556 0.968l0.001 0.009-0.691 0.107c-0.043-0.251-0.163-0.468-0.333-0.634l-0-0c-0.156-0.133-0.36-0.214-0.583-0.214-0.007 0-0.015 0-0.022 0l0.001-0c-0.010-0-0.023-0.001-0.035-0.001-0.334 0-0.633 0.148-0.834 0.383l-0.001 0.001c-0.213 0.294-0.34 0.662-0.34 1.059 0 0.055 0.002 0.109 0.007 0.162l-0.001-0.007c-0.004 0.044-0.006 0.094-0.006 0.146 0 0.404 0.127 0.778 0.343 1.085l-0.004-0.006c0.194 0.235 0.486 0.384 0.812 0.384 0.011 0 0.022-0 0.033-0.001l-0.002 0c0.008 0 0.018 0 0.027 0 0.258 0 0.493-0.098 0.671-0.258l-0.001 0.001c0.193-0.205 0.32-0.474 0.343-0.773l0-0.004zM56.571 28.638l0.7-0.11c0.025 0.26 0.149 0.487 0.332 0.646l0.001 0.001c0.188 0.141 0.426 0.226 0.683 0.226 0.025 0 0.049-0.001 0.074-0.002l-0.003 0c0.025 0.002 0.055 0.003 0.084 0.003 0.24 0 0.462-0.076 0.643-0.206l-0.003 0.002c0.143-0.108 0.234-0.277 0.237-0.467v-0c0-0.002 0-0.005 0-0.007 0-0.156-0.083-0.293-0.208-0.369l-0.002-0.001c-0.211-0.101-0.457-0.181-0.715-0.23l-0.019-0.003c-0.417-0.091-0.778-0.206-1.124-0.35l0.044 0.016c-0.191-0.087-0.346-0.223-0.454-0.393l-0.003-0.004c-0.098-0.158-0.157-0.349-0.157-0.554 0-0.002 0-0.004 0-0.007v0c-0-0.003-0-0.008-0-0.012 0-0.185 0.047-0.359 0.13-0.511l-0.003 0.006c0.082-0.159 0.194-0.292 0.331-0.395l0.003-0.002c0.129-0.090 0.279-0.16 0.44-0.204l0.010-0.002c0.178-0.053 0.382-0.084 0.594-0.084 0.007 0 0.014 0 0.021 0h-0.001c0.015-0 0.032-0 0.049-0 0.292 0 0.572 0.052 0.832 0.146l-0.017-0.005c0.223 0.075 0.41 0.208 0.549 0.381l0.002 0.002c0.125 0.183 0.212 0.403 0.243 0.64l0.001 0.008-0.694 0.093c-0.023-0.204-0.124-0.381-0.272-0.503l-0.001-0.001c-0.16-0.114-0.36-0.182-0.576-0.182-0.023 0-0.045 0.001-0.068 0.002l0.003-0c-0.030-0.003-0.066-0.004-0.101-0.004-0.22 0-0.426 0.061-0.601 0.167l0.005-0.003c-0.123 0.083-0.205 0.22-0.21 0.376l-0 0.001c0 0 0 0 0 0 0 0.094 0.033 0.18 0.087 0.247l-0.001-0.001c0.070 0.085 0.162 0.15 0.266 0.189l0.004 0.001q0.107 0.040 0.627 0.18c0.419 0.105 0.77 0.219 1.109 0.354l-0.059-0.021c0.192 0.080 0.35 0.209 0.465 0.37l0.002 0.003c0.107 0.161 0.171 0.359 0.171 0.572 0 0.012-0 0.025-0.001 0.037l0-0.002c-0.001 0.249-0.078 0.48-0.209 0.671l0.003-0.004c-0.147 0.214-0.35 0.381-0.588 0.48l-0.009 0.003c-0.249 0.108-0.538 0.171-0.843 0.171-0.014 0-0.029-0-0.043-0l0.002 0c-0.042 0.003-0.092 0.005-0.141 0.005-0.412 0-0.794-0.127-1.109-0.343l0.007 0.004c-0.285-0.256-0.475-0.611-0.517-1.011l-0.001-0.007z"></path>
<path fill="#f05620" style="fill: var(--color19, #f05620)" d="M6.218 26.636h-2.952v0.877h2.092c-0.103 1.228-1.124 1.751-2.088 1.751-1.29 0-2.335-1.045-2.335-2.335s1.045-2.335 2.335-2.335v0c0.001 0 0.002 0 0.004 0 0.611 0 1.166 0.242 1.575 0.634l-0.001-0.001 0.614-0.634c-0.561-0.543-1.326-0.878-2.169-0.878-0.018 0-0.037 0-0.055 0l0.003-0c-0.023-0.001-0.050-0.001-0.078-0.001-1.778 0-3.219 1.441-3.219 3.219s1.441 3.219 3.219 3.219c0.044 0 0.087-0.001 0.131-0.003l-0.006 0c1.721 0 2.982-1.181 2.982-2.925 0-0.015 0-0.033 0-0.051 0-0.187-0.020-0.37-0.057-0.546l0.003 0.017z"></path>
<path fill="#f05620" style="fill: var(--color19, #f05620)" d="M8.636 26.019c-1.139 0.004-2.062 0.928-2.062 2.068 0 1.142 0.926 2.068 2.068 2.068 1.14 0 2.064-0.922 2.068-2.061v-0c0-0.015 0.001-0.033 0.001-0.051 0-1.118-0.907-2.025-2.025-2.025-0.018 0-0.036 0-0.053 0.001l0.003-0zM8.636 26.833c0.022-0.001 0.048-0.002 0.073-0.002 0.695 0 1.258 0.563 1.258 1.258s-0.563 1.258-1.258 1.258c-0.695 0-1.258-0.563-1.258-1.258 0-0.002 0-0.003 0-0.005v0c-0.001-0.019-0.002-0.041-0.002-0.063 0-0.655 0.531-1.187 1.186-1.188h0z"></path>
<path fill="#f05620" style="fill: var(--color19, #f05620)" d="M13.156 26.019c-1.139 0.004-2.062 0.928-2.062 2.068 0 1.142 0.926 2.068 2.068 2.068 1.14 0 2.064-0.922 2.068-2.061v-0c0-0.009 0-0.020 0-0.030 0-1.129-0.915-2.045-2.045-2.045-0.011 0-0.021 0-0.032 0l0.002-0zM13.156 26.833c0.022-0.001 0.048-0.002 0.073-0.002 0.695 0 1.258 0.563 1.258 1.258s-0.563 1.258-1.258 1.258c-0.695 0-1.258-0.563-1.258-1.258 0-0.002 0-0.003 0-0.005v0c-0.001-0.019-0.002-0.041-0.002-0.063 0-0.655 0.531-1.187 1.186-1.188h0z"></path>
<path fill="#f05620" style="fill: var(--color19, #f05620)" d="M17.593 26.019c-1.097 0.059-1.964 0.962-1.964 2.069 0 1.099 0.856 1.999 1.938 2.067l0.006 0c0.022 0.001 0.047 0.002 0.072 0.002 0.427 0 0.809-0.196 1.060-0.503l0.002-0.002v0.407c0.003 0.031 0.005 0.068 0.005 0.105 0 0.573-0.464 1.037-1.037 1.037-0.019 0-0.039-0.001-0.058-0.002l0.003 0c-0.481-0.006-0.889-0.307-1.055-0.729l-0.003-0.008-0.794 0.334c0.313 0.722 1.019 1.218 1.842 1.218 0.007 0 0.014-0 0.021-0h-0.001c1.104 0 1.948-0.697 1.948-2.155v-3.729h-0.867v0.35c-0.267-0.284-0.646-0.461-1.065-0.461-0.018 0-0.037 0-0.055 0.001l0.003-0zM17.68 26.816c0.619 0.034 1.108 0.545 1.108 1.169 0 0.032-0.001 0.064-0.004 0.096l0-0.004c0.003 0.030 0.004 0.065 0.004 0.101 0 0.626-0.498 1.136-1.12 1.154l-0.002 0c-0.636-0.016-1.146-0.535-1.146-1.174 0-0.025 0.001-0.049 0.002-0.074l-0 0.003c-0.002-0.024-0.003-0.052-0.003-0.080 0-0.647 0.516-1.173 1.159-1.19l0.002-0z"></path>
<path fill="#f05620" style="fill: var(--color19, #f05620)" d="M23.427 25.999c-1.069 0.013-1.931 0.883-1.931 1.955 0 0.039 0.001 0.077 0.003 0.116l-0-0.005c-0.001 0.022-0.001 0.048-0.001 0.074 0 1.105 0.896 2.001 2.001 2.001 0.010 0 0.020-0 0.030-0l-0.002 0c0.001 0 0.002 0 0.004 0 0.714 0 1.344-0.356 1.723-0.9l0.005-0.007-0.714-0.477c-0.205 0.344-0.575 0.57-0.998 0.57-0.001 0-0.002 0-0.003 0h0c-0.009 0-0.020 0-0.030 0-0.43 0-0.8-0.255-0.968-0.621l-0.003-0.007 2.772-1.151-0.143-0.334c-0.271-0.704-0.935-1.197-1.716-1.211l-0.002-0zM23.464 26.793c0.010-0 0.022-0.001 0.034-0.001 0.315 0 0.589 0.177 0.727 0.437l0.002 0.004-1.848 0.787c-0.001-0.020-0.002-0.044-0.002-0.068 0-0.613 0.481-1.114 1.087-1.146l0.003-0z"></path>
<path fill="#f05620" style="fill: var(--color19, #f05620)" d="M20.178 30.022h0.911v-6.101h-0.911z"></path>
<path fill="#f6981c" style="fill: var(--color20, #f6981c)" d="M21.582 0h16.879c1 0 1.811 0.811 1.811 1.811v16.879c0 1-0.811 1.811-1.811 1.811h-16.879c-1 0-1.811-0.811-1.811-1.811v-16.879c0-1 0.811-1.811 1.811-1.811z"></path>
<path fill="#f05620" style="fill: var(--color19, #f05620)" d="M19.771 13.793v4.887c0.002 1 0.812 1.809 1.811 1.811h16.879c1-0.002 1.809-0.812 1.811-1.811v-15.011l-12.452 9.674-2.752-2.752s-3.803 1.818-5.297 3.202z"></path>
<path fill="#fff" style="fill: var(--color15, #fff)" d="M19.771 12.249v4.587l8.029-8.026-2.295-2.295-5.734 5.734z"></path>
<path fill="#fff" style="fill: var(--color15, #fff)" d="M27.97 8.806c0 2.695 0.020 4.54 0.020 4.54l2.262 2.262 10.007-10.007v-3.636c-0.001-0.268-0.061-0.521-0.168-0.748l0.005 0.011-9.847 9.857z"></path>
<path fill="#fff" style="fill: var(--color15, #fff)" d="M27.563 8.81v0 0 0z"></path>
</symbol>
<symbol id="icon-code" viewBox="0 0 36 32">
<title>code</title>
<path fill="#1e1f2a" style="fill: var(--color21, #1e1f2a)" d="M0 0.022h16.102l-1.395 15.837-6.656 1.862-6.586-1.728-1.466-15.971z"></path>
<path fill="#2aa4cc" style="fill: var(--color22, #2aa4cc)" d="M7.83 1.264h6.563l-1.152 13.309-5.411 1.507v-14.816z"></path>
<path fill="#ebebea" style="fill: var(--color23, #ebebea)" d="M7.181 4.298v7.718l-4.778-0.608v-1.83h1.594v0.813h1.59v-6.093h1.594z"></path>
<path fill="#ebebea" style="fill: var(--color23, #ebebea)" d="M8.56 4.298v4.63h3.024v1.546h-3.024v1.542l4.458-0.406 0.080-4.224h-3.027v-1.542h3.027l-0.080-1.139-4.458-0.406z"></path>
<path fill="#dd4315" style="fill: var(--color24, #dd4315)" d="M9.891 14.301l16.106-0.006-1.392 15.84-6.656 1.866-6.586-1.728-1.472-15.971z"></path>
<path fill="#e85b1b" style="fill: var(--color25, #e85b1b)" d="M17.722 15.539h6.566l-1.149 13.309-5.411 1.51-0.006-14.819z"></path>
<path fill="#f8f9fa" style="fill: var(--color26, #f8f9fa)" d="M12.621 17.318l10.022-0.003-0.23 2.109-7.53 0.003 0.15 1.952h7.35l-0.531 6.032-4.125 1.168-4.173-1.136-0.294-3.104h2.054l0.147 1.581 2.262 0.605 2.234-0.605 0.205-2.544-6.963-0.029-0.579-6.029z"></path>
<path fill="#116cb3" style="fill: var(--color27, #116cb3)" d="M19.792 0h16.141l-1.398 15.878-6.672 1.866-6.605-1.734-1.466-16.010z"></path>
<path fill="#2c8dcc" style="fill: var(--color28, #2c8dcc)" d="M27.638 1.245h6.582l-1.155 13.341-5.427 1.514v-14.854z"></path>
<path fill="#f8f9fa" style="fill: var(--color26, #f8f9fa)" d="M22.669 2.762h9.939l-0.176 1.955h-9.562l-0.202-1.955z"></path>
<path fill="#f8f9fa" style="fill: var(--color26, #f8f9fa)" d="M23.315 9.696l0.288 3.091 4.035 1.13 4.102-1.13 0.49-6.026h-4.358l4.56-2.045h-4.605l-4.778 2 0.198 1.981h6.826l-0.266 2.579-2.17 0.643-2.166-0.666-0.179-1.514-1.978-0.045z"></path>
<path fill="#ebe9ea" style="fill: var(--color29, #ebe9ea)" d="M23.050 6.717l4.822 0.045 4.56-2.045h-4.605l-4.778 2z"></path>
</symbol>
<symbol id="icon-outbrain" viewBox="0 0 63 32">
<title>outbrain</title>
<path fill="#154a99" style="fill: var(--color30, #154a99)" d="M3.674 20.261l-3.674-0.021v-3.352l11.387 0.067v3.352l-3.674-0.021-0.054 9.753-4.043-0.025z"></path>
<path fill="#154a99" style="fill: var(--color30, #154a99)" d="M14.735 25.799c-0.412 0.193-0.892 0.35-1.394 0.446l-0.039 0.006c-0.809 0.18-1.232 0.377-1.257 1.022 0.078 0.508 0.512 0.893 1.036 0.893 0.034 0 0.067-0.002 0.1-0.005l-0.004 0c0.026 0.002 0.057 0.003 0.088 0.003 0.798 0 1.445-0.647 1.445-1.445 0-0.013-0-0.025-0.001-0.038l0 0.002zM18.212 27.97c-0.010 0.106-0.016 0.229-0.016 0.354 0 0.65 0.161 1.262 0.445 1.799l-0.010-0.021-3.712-0.021c-0.079-0.233-0.124-0.502-0.124-0.781 0-0.042 0.001-0.084 0.003-0.126l-0 0.006h-0.038c-0.775 0.876-1.898 1.127-3.075 1.119-1.835 0-3.352-0.901-3.352-2.903 0-3.012 3.544-2.882 5.4-3.218 0.499-0.088 0.993-0.235 0.997-0.838s-0.599-0.888-1.19-0.888c-1.119 0-1.345 0.561-1.366 0.968h-3.381c0.126-2.681 2.66-3.109 4.923-3.096 4.554 0.025 4.508 1.919 4.495 3.771z"></path>
<path fill="#154a99" style="fill: var(--color30, #154a99)" d="M23.822 23.005c-1.303 0-1.605 1.223-1.613 2.342s0.281 2.371 1.584 2.38 1.605-1.223 1.613-2.363-0.281-2.355-1.584-2.359zM18.748 16.989h3.637l-0.025 4.629h0.038c0.573-0.767 1.48-1.259 2.501-1.259 0.040 0 0.080 0.001 0.119 0.002l-0.006-0c3.197 0 4.043 2.744 4.030 4.981 0 2.388-1.332 5.027-4.035 5.027-1.781 0-2.329-0.695-2.786-1.303h-0.017v1.047h-3.507z"></path>
<path fill="#154a99" style="fill: var(--color30, #154a99)" d="M34.145 19.523c-1.378 0-1.571 1.332-1.575 2.342s0.172 2.371 1.546 2.38 1.571-1.349 1.575-2.363-0.172-2.35-1.546-2.359zM34.103 26.889c-3.582 0-5.187-2.401-5.17-5.027s1.651-5.002 5.229-4.981 5.187 2.38 5.17 5.027-1.647 5.002-5.229 4.981z"></path>
<path fill="#154a99" style="fill: var(--color30, #154a99)" d="M43.153 19.582c-1.378 0-1.567 1.332-1.575 2.342s0.189 2.375 1.575 2.375 1.567-1.349 1.575-2.359-0.172-2.355-1.546-2.359zM43.14 26.947c-3.582-0.021-5.182-2.401-5.17-5.027s1.647-4.986 5.224-4.965 5.187 2.38 5.17 5.027-1.647 5.007-5.229 4.986z"></path>
<path fill="#154a99" style="fill: var(--color30, #154a99)" d="M48.75 17.177h3.62l-0.075 13.118-3.637-0.021z"></path>
<path fill="#154a99" style="fill: var(--color30, #154a99)" d="M58.939 26.063c-0.412 0.192-0.893 0.347-1.394 0.442l-0.039 0.006c-0.813 0.18-1.232 0.381-1.257 1.022 0.077 0.509 0.512 0.894 1.036 0.894 0.039 0 0.078-0.002 0.117-0.006l-0.005 0c0.028 0.002 0.060 0.003 0.093 0.003 0.796 0 1.441-0.645 1.441-1.441 0-0.014-0-0.029-0.001-0.043l0 0.002zM62.416 28.234c-0.010 0.105-0.016 0.228-0.016 0.352 0 0.651 0.161 1.264 0.445 1.802l-0.010-0.021-3.712-0.021c-0.079-0.234-0.124-0.504-0.124-0.785 0-0.041 0.001-0.081 0.003-0.122l-0 0.006h-0.038c-0.775 0.876-1.898 1.127-3.071 1.123-1.839 0-3.352-0.901-3.352-2.903 0-3.012 3.544-2.882 5.4-3.218 0.499-0.088 0.993-0.235 0.997-0.838s-0.599-0.884-1.19-0.888c-1.119 0-1.345 0.561-1.366 0.964h-3.381c0.126-2.681 2.665-3.109 4.923-3.092 4.554 0.025 4.508 1.919 4.495 3.771z"></path>
<path fill="#154a99" style="fill: var(--color30, #154a99)" d="M30.299 26.813c2.354 1.059 5.102 1.677 7.994 1.677 0.066 0 0.132-0 0.198-0.001l-0.010 0c0.082 0.001 0.179 0.002 0.276 0.002 2.904 0 5.672-0.584 8.192-1.642l-0.14 0.052v3.176c-2.39 1.213-5.212 1.924-8.199 1.924-0.053 0-0.106-0-0.159-0.001l0.008 0c-3.104 0-5.342-0.658-8.182-1.994z"></path>
<path fill="#f18421" style="fill: var(--color31, #f18421)" d="M12.414 4.504c-0.002-0.020-0.003-0.044-0.003-0.068 0-0.224 0.098-0.426 0.254-0.564l0.001-0.001c0.178-0.124 0.399-0.199 0.638-0.199 0.023 0 0.046 0.001 0.069 0.002l-0.003-0c0.004-0 0.009-0 0.014-0 0.179 0 0.351 0.026 0.514 0.075l-0.013-0.003 0.314 0.101v4.114c-0.004 0.050-0.006 0.108-0.006 0.167 0 0.55 0.19 1.056 0.508 1.455l-0.004-0.005c0.354 0.348 0.841 0.563 1.377 0.563 0.055 0 0.109-0.002 0.163-0.007l-0.007 0c0.047 0.004 0.102 0.006 0.158 0.006 0.536 0 1.022-0.215 1.376-0.564l-0 0c0.312-0.394 0.501-0.898 0.501-1.446 0-0.060-0.002-0.12-0.007-0.179l0 0.008v-3.456c-0.002-0.020-0.003-0.044-0.003-0.068 0-0.224 0.098-0.426 0.254-0.564l0.001-0.001c0.175-0.124 0.392-0.199 0.627-0.199 0.021 0 0.042 0.001 0.063 0.002l-0.003-0c0.007-0 0.015-0 0.023-0 0.181 0 0.357 0.026 0.522 0.075l-0.013-0.003 0.314 0.101v4.504c0 0.019 0.001 0.040 0.001 0.062 0 0.494-0.1 0.966-0.282 1.394l0.009-0.023c-0.184 0.425-0.45 0.784-0.78 1.069l-0.004 0.003c-0.34 0.291-0.744 0.519-1.186 0.659l-0.024 0.007c-0.463 0.144-0.996 0.226-1.548 0.226s-1.085-0.083-1.586-0.237l0.038 0.010c-0.464-0.146-0.866-0.374-1.207-0.67l0.004 0.004c-0.331-0.291-0.596-0.649-0.776-1.053l-0.008-0.019c-0.178-0.405-0.281-0.877-0.281-1.373 0-0.021 0-0.042 0.001-0.063l-0 0.003z"></path>
<path fill="#f18421" style="fill: var(--color31, #f18421)" d="M21.446 2.283c-0.002-0.020-0.003-0.044-0.003-0.068 0-0.224 0.098-0.426 0.254-0.564l0.001-0.001c0.175-0.124 0.392-0.199 0.627-0.199 0.021 0 0.042 0.001 0.063 0.002l-0.003-0c0.004-0 0.009-0 0.014-0 0.182 0 0.357 0.026 0.523 0.075l-0.013-0.003q0.243 0.071 0.318 0.101v2.049h2.267c0.032-0.004 0.069-0.006 0.106-0.006 0.236 0 0.453 0.081 0.625 0.217l-0.002-0.002c0.131 0.147 0.212 0.343 0.212 0.557 0 0.021-0.001 0.042-0.002 0.062l0-0.003c0 0.003 0 0.006 0 0.009 0 0.172-0.029 0.338-0.083 0.492l0.003-0.011c-0.043 0.131-0.085 0.238-0.133 0.341l0.008-0.019h-2.996v3.486c-0.001 0.019-0.001 0.041-0.001 0.063 0 0.217 0.040 0.424 0.114 0.615l-0.004-0.012c0.068 0.168 0.172 0.309 0.304 0.418l0.002 0.001c0.127 0.101 0.279 0.177 0.445 0.216l0.008 0.002c0.16 0.040 0.345 0.063 0.534 0.063 0.002 0 0.005 0 0.007 0h-0c0.003 0 0.008 0 0.012 0 0.296 0 0.58-0.052 0.843-0.148l-0.017 0.005c0.214-0.069 0.4-0.159 0.571-0.27l-0.009 0.006 0.721 1.19q-0.126 0.092-0.352 0.235c-0.159 0.097-0.343 0.186-0.535 0.257l-0.022 0.007c-0.203 0.079-0.448 0.151-0.701 0.204l-0.032 0.006c-0.255 0.053-0.548 0.084-0.849 0.084-0.015 0-0.031-0-0.046-0l0.002 0c-0.066 0.005-0.142 0.009-0.22 0.009-0.722 0-1.381-0.274-1.877-0.723l0.002 0.002c-0.437-0.455-0.706-1.075-0.706-1.757 0-0.039 0.001-0.078 0.003-0.117l-0 0.005z"></path>
<path fill="#f18421" style="fill: var(--color31, #f18421)" d="M27.496 0.838c-0.001-0.017-0.002-0.038-0.002-0.058 0-0.225 0.098-0.426 0.253-0.565l0.001-0.001c0.179-0.134 0.405-0.215 0.65-0.215 0.019 0 0.038 0.001 0.057 0.001l-0.003-0c0.005-0 0.010-0 0.015-0 0.178 0 0.35 0.026 0.513 0.075l-0.013-0.003 0.314 0.101v4.487c0.291-0.349 0.65-0.632 1.058-0.83l0.019-0.008c0.441-0.222 0.961-0.353 1.512-0.353 0.024 0 0.047 0 0.071 0.001l-0.004-0c0.013-0 0.028-0 0.042-0 0.554 0 1.082 0.111 1.564 0.312l-0.027-0.010c0.49 0.203 0.907 0.486 1.257 0.838l0 0c0.352 0.367 0.636 0.802 0.828 1.284l0.010 0.027c0.194 0.479 0.306 1.034 0.306 1.616 0 0.021-0 0.042-0 0.063l0-0.003c0 0.015 0 0.034 0 0.052 0 0.585-0.116 1.143-0.325 1.653l0.011-0.029c-0.209 0.512-0.505 0.948-0.875 1.311l-0.001 0.001c-0.374 0.36-0.818 0.651-1.309 0.849l-0.027 0.010c-0.489 0.199-1.056 0.314-1.651 0.314-0.009 0-0.018-0-0.027-0h0.001c-0.011 0-0.023 0-0.036 0-0.588 0-1.151-0.103-1.674-0.292l0.034 0.011c-0.522-0.188-0.969-0.473-1.337-0.838l0 0c-0.388-0.391-0.692-0.865-0.884-1.394l-0.008-0.027c-0.2-0.557-0.315-1.199-0.315-1.869 0-0.041 0-0.082 0.001-0.123l-0 0.006zM31.686 10.139c0.006 0 0.013 0 0.020 0 0.352 0 0.687-0.076 0.989-0.211l-0.015 0.006c0.299-0.131 0.554-0.31 0.766-0.531l0.001-0.001c0.209-0.222 0.376-0.487 0.485-0.78l0.005-0.016c0.109-0.291 0.172-0.627 0.172-0.978 0-0.011-0-0.022-0-0.033v0.002c0-0.007 0-0.016 0-0.025 0-0.355-0.063-0.695-0.178-1.010l0.007 0.020c-0.114-0.313-0.282-0.581-0.495-0.805l0.001 0.001c-0.212-0.221-0.465-0.401-0.747-0.526l-0.015-0.006c-0.281-0.125-0.609-0.197-0.954-0.197-0.008 0-0.015 0-0.023 0h0.001c-0.009-0-0.021-0-0.032-0-0.347 0-0.678 0.073-0.977 0.203l0.016-0.006c-0.298 0.131-0.55 0.313-0.757 0.539l-0.002 0.002c-0.207 0.229-0.374 0.499-0.488 0.795l-0.006 0.018c-0.114 0.292-0.18 0.631-0.18 0.985 0 0.006 0 0.011 0 0.017v-0.001c-0 0.009-0 0.020-0 0.030 0 0.359 0.066 0.703 0.187 1.020l-0.007-0.020c0.222 0.598 0.672 1.066 1.242 1.306l0.015 0.006c0.28 0.119 0.607 0.189 0.949 0.189 0.010 0 0.019-0 0.029-0h-0.001z"></path>
<path fill="#f18421" style="fill: var(--color31, #f18421)" d="M36.986 6.473c-0.003-0.050-0.005-0.109-0.005-0.168 0-0.811 0.341-1.543 0.888-2.059l0.001-0.001c0.605-0.497 1.387-0.798 2.239-0.798 0.073 0 0.146 0.002 0.218 0.007l-0.010-0c0.044-0.002 0.096-0.003 0.148-0.003 0.524 0 1.025 0.101 1.484 0.285l-0.027-0.010c0.358 0.118 0.612 0.448 0.616 0.837v0c-0.001 0.191-0.055 0.369-0.149 0.52l0.002-0.004c-0.063 0.123-0.144 0.227-0.242 0.313l-0.001 0.001c-0.187-0.086-0.41-0.166-0.64-0.228l-0.030-0.007c-0.253-0.069-0.544-0.109-0.844-0.109-0.017 0-0.034 0-0.051 0l0.003-0q-1.827 0-1.827 1.94v4.533h-1.772z"></path>
<path fill="#f18421" style="fill: var(--color31, #f18421)" d="M50.241 11.492c-0.105 0-0.268 0.042-0.49 0.071l-0.788 0.080q-0.452 0.038-1.018 0.071t-1.173 0.029c-0.057 0.002-0.125 0.002-0.192 0.002-0.639 0-1.261-0.077-1.855-0.223l0.053 0.011c-0.461-0.116-0.864-0.311-1.216-0.572l0.009 0.006c-0.274-0.206-0.484-0.481-0.607-0.8l-0.004-0.012c-0.103-0.28-0.163-0.604-0.163-0.942 0-0.002 0-0.003 0-0.005v0c-0-0.017-0.001-0.037-0.001-0.057 0-0.385 0.072-0.752 0.204-1.090l-0.007 0.020c0.138-0.333 0.358-0.608 0.636-0.809l0.005-0.004c0.331-0.232 0.722-0.404 1.145-0.491l0.020-0.003c0.484-0.105 1.040-0.165 1.611-0.165 0.049 0 0.099 0 0.148 0.001l-0.007-0c0.394 0 0.771 0 1.127 0.038s0.62 0.050 0.796 0.071c0.001-0.020 0.001-0.043 0.001-0.066 0-0.304-0.067-0.592-0.186-0.851l0.005 0.013c-0.114-0.232-0.283-0.421-0.489-0.558l-0.005-0.003c-0.215-0.136-0.467-0.235-0.738-0.279l-0.012-0.002c-0.281-0.051-0.605-0.080-0.935-0.080-0.011 0-0.023 0-0.034 0h0.002c-0.041-0.001-0.089-0.002-0.137-0.002-0.464 0-0.909 0.076-1.326 0.216l0.029-0.009c-0.271 0.089-0.507 0.205-0.723 0.35l0.010-0.007c-0.096-0.089-0.181-0.186-0.256-0.292l-0.004-0.006c-0.102-0.14-0.164-0.315-0.164-0.505 0-0.010 0-0.019 0-0.029l-0 0.001c0.004-0.155 0.047-0.299 0.12-0.423l-0.002 0.004c0.102-0.162 0.244-0.291 0.413-0.374l0.006-0.003c0.23-0.12 0.498-0.211 0.78-0.258l0.016-0.002c0.344-0.059 0.74-0.093 1.143-0.093 0.040 0 0.080 0 0.12 0.001l-0.006-0c0.018-0 0.040-0 0.062-0 0.572 0 1.129 0.066 1.663 0.19l-0.049-0.010c0.496 0.103 0.934 0.292 1.32 0.553l-0.013-0.008c0.36 0.266 0.645 0.613 0.831 1.014l0.007 0.016c0.194 0.426 0.307 0.924 0.307 1.449 0 0.034-0 0.068-0.001 0.102l0-0.005zM48.473 8.023q-0.155-0.029-0.587-0.092c-0.336-0.041-0.726-0.064-1.121-0.064-0.060 0-0.119 0.001-0.179 0.002l0.009-0c-0.062-0.005-0.134-0.007-0.207-0.007-0.49 0-0.951 0.122-1.355 0.338l0.016-0.008c-0.297 0.205-0.489 0.543-0.489 0.927 0 0.029 0.001 0.058 0.003 0.087l-0-0.004c-0 0.007-0 0.014-0 0.022 0 0.178 0.037 0.348 0.104 0.501l-0.003-0.008c0.074 0.175 0.195 0.318 0.348 0.417l0.004 0.002c0.195 0.12 0.423 0.208 0.667 0.25l0.011 0.002c0.298 0.056 0.642 0.089 0.992 0.089 0.028 0 0.056-0 0.084-0.001l-0.004 0c0.039 0.001 0.085 0.001 0.131 0.001 0.355 0 0.706-0.020 1.051-0.059l-0.042 0.004c0.281-0.038 0.469-0.067 0.561-0.084z"></path>
<path fill="#f18421" style="fill: var(--color31, #f18421)" d="M52.73 0.155c0.007-0 0.014-0 0.022-0 0.292 0 0.556 0.12 0.744 0.314l0 0c0.194 0.19 0.314 0.454 0.314 0.746 0 0.007-0 0.014-0 0.021l0-0.001c0 0.006 0 0.013 0 0.020 0 0.292-0.12 0.557-0.314 0.746l-0 0c-0.197 0.194-0.468 0.314-0.767 0.314s-0.569-0.12-0.767-0.314l0 0c-0.194-0.19-0.314-0.454-0.314-0.746 0-0.007 0-0.014 0-0.021l-0 0.001c-0-0.010-0.001-0.021-0.001-0.032 0-0.286 0.115-0.546 0.302-0.734l-0 0c0.19-0.194 0.454-0.314 0.746-0.314 0.007 0 0.014 0 0.021 0l-0.001-0zM51.825 4.5c-0.002-0.020-0.003-0.043-0.003-0.066 0-0.225 0.098-0.427 0.254-0.566l0.001-0.001c0.177-0.122 0.397-0.196 0.633-0.196 0.028 0 0.055 0.001 0.083 0.003l-0.004-0c0.004-0 0.010-0 0.015-0 0.178 0 0.351 0.026 0.513 0.075l-0.013-0.003 0.314 0.101v7.675h-1.781z"></path>
<path fill="#f18421" style="fill: var(--color31, #f18421)" d="M55.214 6.783c-0-0.017-0.001-0.036-0.001-0.056 0-0.487 0.107-0.949 0.298-1.363l-0.008 0.020c0.194-0.414 0.463-0.763 0.792-1.044l0.004-0.004c0.339-0.284 0.74-0.509 1.177-0.651l0.025-0.007c0.44-0.144 0.946-0.227 1.472-0.227 0.019 0 0.038 0 0.056 0l-0.003-0c0.015-0 0.033-0 0.050-0 0.529 0 1.040 0.083 1.518 0.236l-0.035-0.010c0.466 0.147 0.87 0.372 1.216 0.662l-0.006-0.005c0.332 0.283 0.598 0.632 0.78 1.029l0.008 0.019c0.178 0.396 0.281 0.858 0.281 1.344 0 0.020-0 0.039-0.001 0.059l0-0.003v4.738h-1.781v-4.282c0.004-0.048 0.006-0.104 0.006-0.161 0-0.555-0.197-1.063-0.524-1.46l0.003 0.004c-0.408-0.346-0.94-0.556-1.521-0.556s-1.113 0.21-1.524 0.559l0.003-0.003c-0.329 0.397-0.528 0.912-0.528 1.473 0 0.051 0.002 0.101 0.005 0.151l-0-0.007v4.282h-1.781z"></path>
<path fill="#f18421" style="fill: var(--color31, #f18421)" d="M11.006 3.926c-0.296-0.697-0.705-1.291-1.21-1.788l-0.001-0.001c-0.513-0.499-1.123-0.901-1.797-1.176l-0.038-0.014c-0.645-0.265-1.394-0.419-2.178-0.419-0.028 0-0.056 0-0.084 0.001l0.004-0c-0.024-0-0.052-0.001-0.080-0.001-0.785 0-1.533 0.154-2.217 0.434l0.039-0.014c-0.696 0.292-1.291 0.692-1.794 1.186l0.001-0.001c-0.515 0.497-0.931 1.093-1.218 1.758l-0.014 0.035c-0.265 0.633-0.42 1.369-0.42 2.141 0 0.032 0 0.065 0.001 0.097l-0-0.005c-0 0.024-0.001 0.053-0.001 0.081 0 0.771 0.154 1.507 0.433 2.177l-0.014-0.037c0.295 0.697 0.704 1.292 1.21 1.788l0.001 0.001c0.508 0.496 1.11 0.898 1.777 1.176l0.037 0.014c0.645 0.265 1.394 0.419 2.178 0.419 0.028 0 0.056-0 0.084-0.001l-0.004 0c0.024 0 0.052 0.001 0.080 0.001 0.785 0 1.533-0.154 2.218-0.434l-0.039 0.014c0.704-0.292 1.306-0.694 1.815-1.191l-0.001 0.001c0.514-0.496 0.93-1.091 1.218-1.754l0.014-0.035c0.265-0.633 0.42-1.369 0.42-2.142 0-0.034-0-0.067-0.001-0.101l0 0.005c0.001-0.028 0.001-0.062 0.001-0.095 0-0.772-0.154-1.509-0.434-2.18l0.014 0.038zM2.308 5.748c0.624-0.214 1.462-0.482 1.462-0.482 1.86-0.591 2.095-1.29 2.095-1.29s0.39 0.7 1.743 1.16c0 0 0.746 0.247 1.441 0.494 0.034 0.071 0.071 0.138 0.101 0.209 0.114 0.264 0.201 0.57 0.245 0.891l0.002 0.019h-0.918c-0.071-0.163-0.169-0.302-0.289-0.419l-0-0c-0.117-0.118-0.256-0.214-0.41-0.282l-0.009-0.003c-0.159-0.064-0.343-0.102-0.536-0.102s-0.377 0.037-0.546 0.105l0.010-0.003c-0.163 0.071-0.302 0.167-0.419 0.285l-0 0c-0.12 0.117-0.218 0.256-0.286 0.411l-0.003 0.008c-0.019 0.043-0.038 0.096-0.053 0.151l-0.002 0.008h-0.36c-0.017-0.063-0.035-0.116-0.057-0.167l0.003 0.008c-0.071-0.163-0.169-0.303-0.289-0.419l-0-0c-0.117-0.118-0.256-0.214-0.41-0.282l-0.009-0.003c-0.159-0.064-0.343-0.102-0.536-0.102s-0.377 0.037-0.546 0.105l0.010-0.003c-0.163 0.071-0.302 0.167-0.419 0.285l-0 0c-0.12 0.117-0.218 0.256-0.286 0.411l-0.003 0.008h-1.022c0.046-0.339 0.133-0.645 0.256-0.932l-0.009 0.023 0.046-0.096zM8.019 7.265c0 0.001 0 0.003 0 0.004 0 0.112-0.023 0.219-0.065 0.315l0.002-0.005c-0.042 0.098-0.1 0.181-0.172 0.251l-0 0c-0.072 0.070-0.156 0.126-0.25 0.166l-0.005 0.002c-0.094 0.038-0.204 0.060-0.318 0.060s-0.224-0.022-0.324-0.062l0.006 0.002c-0.099-0.041-0.184-0.098-0.256-0.168l0 0c-0.071-0.070-0.129-0.154-0.17-0.246l-0.002-0.005c-0.039-0.094-0.062-0.202-0.062-0.316s0.023-0.223 0.064-0.322l-0.002 0.006c0.042-0.098 0.1-0.181 0.172-0.251l0-0c0.072-0.070 0.156-0.126 0.25-0.166l0.005-0.002c0.094-0.039 0.204-0.061 0.318-0.061s0.224 0.022 0.324 0.063l-0.006-0.002c0.099 0.041 0.184 0.098 0.256 0.168l-0-0c0.072 0.070 0.13 0.153 0.17 0.246l0.002 0.005c0.040 0.092 0.063 0.199 0.063 0.312 0 0.001 0 0.002 0 0.003v-0zM5.036 7.261c0 0.001 0 0.002 0 0.003 0 0.113-0.023 0.22-0.065 0.317l0.002-0.005c-0.042 0.098-0.1 0.181-0.172 0.251l-0 0c-0.072 0.070-0.156 0.126-0.25 0.166l-0.005 0.002c-0.094 0.038-0.204 0.060-0.318 0.060s-0.224-0.022-0.324-0.062l0.006 0.002c-0.099-0.041-0.184-0.098-0.256-0.168l0 0c-0.072-0.070-0.13-0.153-0.17-0.246l-0.002-0.005c-0.039-0.094-0.062-0.202-0.062-0.316s0.023-0.223 0.064-0.322l-0.002 0.006c0.042-0.098 0.1-0.181 0.172-0.251l0-0c0.072-0.070 0.156-0.126 0.25-0.166l0.005-0.002c0.094-0.039 0.204-0.061 0.318-0.061s0.224 0.022 0.324 0.063l-0.006-0.002c0.099 0.041 0.184 0.098 0.256 0.168l-0-0c0.071 0.070 0.129 0.154 0.17 0.246l0.002 0.005c0.040 0.093 0.063 0.2 0.063 0.313 0 0 0 0.001 0 0.001v-0zM8.388 9.934c-0.333 0.325-0.728 0.588-1.165 0.77l-0.025 0.009c-0.427 0.178-0.922 0.281-1.442 0.281-0.013 0-0.026-0-0.039-0h0.002c-0.011 0-0.024 0-0.038 0-0.519 0-1.015-0.103-1.467-0.29l0.025 0.009c-0.462-0.191-0.857-0.454-1.191-0.78l0.001 0.001c-0.331-0.326-0.599-0.716-0.783-1.15l-0.009-0.023c-0.179-0.417-0.283-0.902-0.285-1.411v-0.001h0.897c0.011 0.154 0.047 0.296 0.104 0.427l-0.003-0.008c0.071 0.163 0.169 0.302 0.289 0.419l0 0c0.117 0.116 0.256 0.211 0.41 0.277l0.009 0.003c0.159 0.065 0.343 0.103 0.536 0.103s0.377-0.038 0.546-0.106l-0.010 0.004c0.163-0.070 0.302-0.164 0.419-0.281l-0 0c0.203-0.2 0.341-0.464 0.38-0.76l0.001-0.007h0.314c0.041 0.303 0.179 0.567 0.381 0.767l0 0c0.117 0.116 0.256 0.211 0.41 0.277l0.009 0.003c0.159 0.065 0.343 0.103 0.536 0.103s0.377-0.038 0.546-0.106l-0.010 0.004c0.163-0.070 0.302-0.164 0.419-0.281l-0 0c0.12-0.116 0.218-0.256 0.286-0.411l0.003-0.008c0.053-0.123 0.089-0.265 0.1-0.415l0-0.004h0.922c-0.001 0.51-0.106 0.995-0.294 1.436l0.009-0.024c-0.195 0.463-0.467 0.857-0.804 1.185l-0.001 0.001z"></path>
</symbol>
<symbol id="icon-facebook" viewBox="0 0 162 32">
<title>facebook</title>
<path fill="#4967a9" style="fill: var(--color32, #4967a9)" d="M83.346 15.541c-1.207 0.046-2.328 0.374-3.312 0.919l0.038-0.019v10.073c0.591 0.060 1.278 0.094 1.972 0.094 0.138 0 0.276-0.001 0.414-0.004l-0.021 0c3.211 0 3.651-1.466 3.651-3.517v-4.821c0-1.511-0.504-2.698-2.698-2.698zM62.057 14.993c-2.23 0-2.698 1.223-2.698 2.698v0.845h5.396v-0.845c0-1.511-0.504-2.698-2.698-2.698zM20.758 25.497c-0.010 0.067-0.016 0.144-0.016 0.222 0 0.879 0.713 1.592 1.592 1.592 0.078 0 0.156-0.006 0.231-0.017l-0.009 0.001c1.149-0.043 2.213-0.372 3.134-0.916l-0.031 0.017v-2.365h-2.905c-1.385 0-1.988 0.252-1.988 1.457zM104.076 15.532c-2.23 0-3.004 1.214-3.004 2.698v5.522c0 1.52 0.773 2.698 3.004 2.698s3.004-1.214 3.004-2.698v-5.486c0-1.511-0.782-2.698-3.004-2.698zM9.83 31.685h-6.556v-15.847h-3.274v-5.459h3.274v-3.274c0-4.497 1.853-7.105 7.105-7.105h4.371v5.459h-2.698c-2.042 0-2.185 0.764-2.185 2.186v2.698h4.956l-0.576 5.459h-4.416zM32.234 31.685h-5.468l-0.234-1.376c-1.765 1.007-3.878 1.601-6.13 1.601-0.020 0-0.040-0-0.060-0h0.003c-4.011 0-6.143-2.698-6.143-6.368 0-4.362 2.491-5.918 6.943-5.918h4.497v-0.899c0-2.23-0.252-2.878-3.687-2.878h-5.567l0.549-5.459h6.125c7.519 0 9.174 2.374 9.174 8.382zM50.806 16.243c-1.787-0.407-3.854-0.664-5.973-0.71l-0.034-0.001c-2.941 0-3.822 0.648-3.822 3.139v4.713c0 2.491 0.899 3.139 3.822 3.139 2.153-0.046 4.221-0.302 6.216-0.75l-0.208 0.039v5.324c-1.958 0.506-4.214 0.812-6.535 0.845l-0.021 0c-7.042 0-9.83-3.696-9.83-8.994v-3.867c0-5.342 2.797-9.048 9.83-9.048 2.343 0.034 4.598 0.34 6.757 0.889l-0.2-0.043zM71.321 22.943h-12.016v0.441c0 2.491 0.899 3.139 3.822 3.139 0.090 0.001 0.195 0.001 0.301 0.001 2.598 0 5.136-0.259 7.588-0.753l-0.245 0.041v5.324c-2.285 0.54-4.908 0.85-7.603 0.85-0.204 0-0.408-0.002-0.612-0.005l0.031 0c-7.042 0-9.839-3.696-9.839-8.994v-4.416c0-4.668 2.114-8.499 9.309-8.499s9.264 3.786 9.264 8.499zM92.627 23.042c0 5.162-1.475 8.922-10.424 8.922-3.087-0.024-6.088-0.328-8.998-0.886l0.31 0.049v-29.491l6.529-1.088v10.316c1.429-0.502 3.076-0.792 4.791-0.792 0.045 0 0.091 0 0.136 0.001l-0.007-0c6.556 0 7.645 2.932 7.645 7.654zM113.637 23.159c0 4.452-1.799 8.769-9.542 8.769s-9.578-4.317-9.578-8.769v-4.272c0-4.497 1.871-8.769 9.578-8.769s9.542 4.272 9.542 8.769zM134.628 23.159c0 4.452-1.799 8.769-9.542 8.769s-9.578-4.317-9.578-8.769v-4.272c0-4.497 1.88-8.769 9.578-8.769s9.533 4.272 9.533 8.769zM156.214 31.685h-7.105l-6.053-10.010v10.010h-6.556v-30.048l6.556-1.088v19.346l6.008-9.506h7.105l-6.556 10.379zM125.059 15.541c-2.221 0-2.995 1.214-2.995 2.698v5.522c0 1.52 0.773 2.698 2.995 2.698s3.013-1.214 3.013-2.698v-5.495c0-1.511-0.782-2.698-3.013-2.698z"></path>
<path fill="#4967a9" style="fill: var(--color32, #4967a9)" d="M159.91 27.953c0.003 0 0.006-0 0.009-0 1.118 0 2.024 0.906 2.024 2.024s-0.906 2.024-2.024 2.024c-1.118 0-2.024-0.906-2.024-2.024v0c-0-0.008-0-0.018-0-0.027 0-1.103 0.894-1.997 1.997-1.997 0.006 0 0.013 0 0.019 0h-0.001zM159.91 28.268c-0.87 0.092-1.542 0.822-1.542 1.709s0.672 1.617 1.535 1.708l0.007 0.001c0.87-0.092 1.542-0.822 1.542-1.709s-0.672-1.617-1.535-1.708l-0.007-0.001zM159.532 31.155h-0.342v-2.266c0.191-0.033 0.412-0.053 0.638-0.054h0.001c0.025-0.002 0.054-0.003 0.083-0.003 0.229 0 0.442 0.065 0.624 0.177l-0.005-0.003c0.127 0.1 0.208 0.253 0.208 0.426 0 0.015-0.001 0.029-0.002 0.044l0-0.002c0 0.001 0 0.002 0 0.003 0 0.267-0.187 0.489-0.437 0.545l-0.004 0.001c0.198 0 0.333 0.216 0.378 0.549 0.021 0.206 0.072 0.395 0.149 0.57l-0.005-0.012h-0.378c-0.082-0.168-0.136-0.364-0.153-0.57l-0-0.006c-0.012-0.224-0.196-0.401-0.422-0.401-0.022 0-0.044 0.002-0.066 0.005l0.002-0h-0.252zM159.532 29.904h0.261c0.297 0 0.549-0.108 0.549-0.387s-0.144-0.396-0.549-0.396h-0.261z"></path>
</symbol>
<symbol id="icon-google" viewBox="0 0 97 32">
<title>google</title>
<path fill="#ea4335" style="fill: var(--color33, #ea4335)" d="M41.601 16.841c0 4.431-3.592 8.023-8.023 8.023s-8.023-3.592-8.023-8.023v0c0-4.431 3.592-8.023 8.023-8.023s8.023 3.592 8.023 8.023v0zM38.090 16.841c0-2.859-2.087-4.843-4.512-4.843s-4.512 1.967-4.512 4.843 2.087 4.843 4.512 4.843 4.512-2.001 4.512-4.843z"></path>
<path fill="#fbbc05" style="fill: var(--color34, #fbbc05)" d="M58.899 16.841c0 4.431-3.592 8.023-8.023 8.023s-8.023-3.592-8.023-8.023v0c0-4.431 3.592-8.023 8.023-8.023s8.023 3.592 8.023 8.023v0zM55.388 16.841c0-2.859-2.087-4.843-4.512-4.843s-4.512 1.967-4.512 4.843 2.087 4.843 4.512 4.843 4.517-2.001 4.517-4.843z"></path>
<path fill="#4285f4" style="fill: var(--color11, #4285f4)" d="M75.483 9.327v14.359c0 5.901-3.477 8.337-7.594 8.337-0.015 0-0.032 0-0.050 0-3.159 0-5.869-1.923-7.023-4.662l-0.019-0.050 3.059-1.275c0.631 1.646 2.175 2.804 3.996 2.859l0.007 0c2.636 0 4.266-1.624 4.266-4.689v-1.144h-0.074c-1.001 1.119-2.45 1.82-4.063 1.82-0.051 0-0.102-0.001-0.153-0.002l0.007 0c-4.003 0-7.663-3.483-7.663-7.966s3.665-8.006 7.663-8.006c0.057-0.002 0.124-0.003 0.192-0.003 1.58 0 3.006 0.661 4.015 1.722l0.002 0.002h0.12v-1.298h3.311zM72.395 16.869c0-2.813-1.876-4.872-4.266-4.872s-4.455 2.059-4.455 4.872 2.030 4.815 4.455 4.815 4.277-2.030 4.277-4.815z"></path>
<path fill="#34a853" style="fill: var(--color35, #34a853)" d="M80.989 0.915v23.445h-3.431v-23.445z"></path>
<path fill="#ea4335" style="fill: var(--color33, #ea4335)" d="M94.353 19.471l2.728 1.818c-1.448 2.15-3.873 3.545-6.624 3.545-0.013 0-0.027-0-0.040-0h0.002c-0.035 0.001-0.076 0.001-0.117 0.001-4.32 0-7.823-3.502-7.823-7.823 0-0.065 0.001-0.129 0.002-0.193l-0 0.010c0-4.758 3.431-8.006 7.543-8.006s6.182 3.305 6.862 5.089l0.366 0.909-10.688 4.426c0.648 1.442 2.071 2.427 3.725 2.427 0.054 0 0.107-0.001 0.16-0.003l-0.008 0c0 0 0 0 0 0 1.649 0 3.095-0.873 3.9-2.182l0.011-0.020zM85.947 16.583l7.148-2.968c-0.395-1.001-1.578-1.716-2.968-1.716-2.337 0.107-4.191 2.028-4.191 4.382 0 0.106 0.004 0.211 0.011 0.316l-0.001-0.014z"></path>
<path fill="#4285f4" style="fill: var(--color11, #4285f4)" d="M12.58 14.759v-3.391h11.437c0.109 0.589 0.172 1.266 0.172 1.958 0 0.031-0 0.062-0 0.093l0-0.005c0 2.545-0.698 5.718-2.939 7.937s-4.964 3.482-8.669 3.482c-0 0-0.001 0-0.001 0-6.892 0-12.489-5.542-12.579-12.412l-0-0.008c0.094-6.876 5.69-12.415 12.579-12.415 0 0 0.001 0 0.001 0h-0c0.057-0.001 0.125-0.002 0.193-0.002 3.251 0 6.195 1.311 8.334 3.433l-0.001-0.001-2.396 2.396c-1.554-1.507-3.677-2.437-6.017-2.437-0.040 0-0.080 0-0.12 0.001l0.006-0c-4.913 0.009-8.893 3.995-8.893 8.909 0 0.040 0 0.080 0.001 0.12l-0-0.006c-0 0.034-0.001 0.074-0.001 0.114 0 4.915 3.979 8.9 8.892 8.909h0.001c0.107 0.005 0.233 0.008 0.36 0.008 2.322 0 4.422-0.953 5.929-2.488l0.001-0.001c1.029-1.112 1.704-2.565 1.84-4.171l0.002-0.026z"></path>
</symbol>
</defs>
</svg>
