<?xml version="1.0" encoding="utf-8"?>
<!-- Generator: Adobe Illustrator 21.1.0, SVG Export Plug-In . SVG Version: 6.00 Build 0)  -->
<svg version="1.1" id="Layer_1" xmlns="http://www.w3.org/2000/svg" xmlns:xlink="http://www.w3.org/1999/xlink" x="0px" y="0px"
	 viewBox="0 0 2200 200" style="enable-background:new 0 0 2200 200;" xml:space="preserve">
<style type="text/css">
	.st0{fill:none;}
	.st1{fill:#3476B2;}
	.st2{fill:#1E1F2A;}
	.st3{fill:#2AA4CC;}
	.st4{fill:#EBEBEA;}
	.st5{fill:#DD4315;}
	.st6{fill:#E85B1B;}
	.st7{fill:#F8F9FA;}
	.st8{fill:#116CB3;}
	.st9{fill:#2C8DCC;}
	.st10{fill:#EBE9EA;}
	.st11{fill:#154A99;}
	.st12{fill:#F18421;}
	.st13{fill:#F0F0F0;}
	.st14{fill:#4285F4;}
	.st15{fill:#E6E6E6;}
	.st16{fill:#C5C5C5;}
	.st17{opacity:0.1;}
	.st18{fill:#DB4437;}
	.st19{fill:#ECF0F1;}
	.st20{fill:#98C21F;}
	.st21{fill:#FFFFFF;}
	.st22{fill:#757B82;}
	.st23{fill:#487691;}
	.st24{fill:#5D5A61;}
	.st25{fill:#EA4335;}
	.st26{fill:#FBBC05;}
	.st27{fill:#34A853;}
	.st28{fill:#4967A9;}
	.st29{fill-rule:evenodd;clip-rule:evenodd;fill:#F05620;}
	.st30{fill:#F05620;}
	.st31{fill:#F6981C;}
	.st32{fill-rule:evenodd;clip-rule:evenodd;fill:#98C21F;}
	.st33{fill-rule:evenodd;clip-rule:evenodd;fill:#648014;}
	.st34{fill-rule:evenodd;clip-rule:evenodd;fill:#E6E6E6;}
	.st35{fill-rule:evenodd;clip-rule:evenodd;fill:#F2F2F2;}
	.st36{fill-rule:evenodd;clip-rule:evenodd;fill:#CCCCCC;}
	.st37{fill-rule:evenodd;clip-rule:evenodd;fill:#A4C83F;}
	.st38{opacity:0.2;fill-rule:evenodd;clip-rule:evenodd;}
	.st39{fill-rule:evenodd;clip-rule:evenodd;fill:#AFCE57;}
</style>
<g>
	<g>
		<rect x="2000" class="st0" width="200" height="200"/>
	</g>
	<g>
		<rect x="1800" class="st0" width="200" height="200"/>
	</g>
	<g>
		<rect x="1600" class="st0" width="200" height="200"/>
	</g>
	<g>
		<rect x="1400" class="st0" width="200" height="200"/>
	</g>
	<g>
		<rect x="1200" class="st0" width="200" height="200"/>
	</g>
	<g>
		<rect x="1000" class="st0" width="200" height="200"/>
	</g>
	<g>
		<rect x="800" class="st0" width="200" height="200"/>
	</g>
	<g>
		<rect x="600" class="st0" width="200" height="200"/>
	</g>
	<g>
		<rect x="400" class="st0" width="200" height="200"/>
	</g>
	<g>
		<rect x="200" class="st0" width="200" height="200"/>
	</g>
	<g>
		<rect class="st0" width="200" height="200"/>
	</g>
	<path class="st1" d="M1100,50c-27.6,0-50,22.4-50,50c0,27.6,22.4,50,50,50s50-22.4,50-50C1150,72.4,1127.6,50,1100,50L1100,50z
		 M1100,52.3c26.3,0,47.7,21.4,47.7,47.7c0,26.3-21.4,47.7-47.7,47.7s-47.7-21.4-47.7-47.7C1052.3,73.7,1073.7,52.3,1100,52.3
		L1100,52.3z M1100,57.1c-15,0-28.2,7.7-35.8,19.3c1,0,2,0.1,2.8,0.1c4.5,0,11.4-0.6,11.4-0.6c2.3-0.1,2.6,3.3,0.3,3.5
		c0,0-2.3,0.3-4.9,0.4l15.6,46.4l9.4-28.2l-6.7-18.3c-2.3-0.1-4.5-0.4-4.5-0.4c-2.3-0.1-2-3.7,0.3-3.5c0,0,7.1,0.6,11.3,0.6
		c4.5,0,11.4-0.6,11.4-0.6c2.3-0.1,2.6,3.3,0.3,3.5c0,0-2.3,0.3-4.9,0.4l15.5,46.1l4.3-14.3c1.8-5.9,3.3-10.2,3.3-13.8
		c0-5.3-1.9-9-3.5-11.8c-2.2-3.5-4.2-6.5-4.2-10.1c0-3.9,3-7.6,7.2-7.6c0.2,0,0.4,0,0.6,0C1121.3,61.4,1111.2,57.1,1100,57.1
		L1100,57.1z M1137.6,79.4c0.2,1.4,0.3,2.9,0.3,4.4c0,4.4-0.8,9.2-3.3,15.3l-13.1,37.9c12.7-7.4,21.3-21.2,21.3-37.1
		C1142.9,92.5,1141,85.5,1137.6,79.4L1137.6,79.4z M1060.8,82.5c-2.4,5.3-3.7,11.3-3.7,17.5c0,17,9.8,31.6,24.2,38.6L1060.8,82.5z
		 M1100.8,103.8l-12.9,37.4c3.8,1.1,7.9,1.7,12.1,1.7c5,0,9.8-0.8,14.2-2.4c-0.1-0.2-0.2-0.4-0.3-0.6L1100.8,103.8z M1100.8,103.8"
		/>
	<g>
		<g>
			<polygon class="st2" points="1443.9,50.1 1494.2,50.1 1489.8,99.6 1469,105.4 1448.4,100 			"/>
			<polygon class="st3" points="1468.3,53.9 1488.8,53.9 1485.2,95.5 1468.3,100.3 			"/>
			<polygon class="st4" points="1466.3,63.4 1466.3,87.6 1451.4,85.6 1451.4,79.9 1456.3,79.9 1456.3,82.5 1461.3,82.5 1461.3,63.4 
							"/>
			<polygon class="st4" points="1470.6,63.4 1470.6,73.1 1470.6,77.9 1480.1,77.9 1480.1,82.7 1470.6,82.7 1470.6,87.6 1484.5,86.3 
				1484.8,73.1 1475.3,73.1 1475.3,68.3 1484.8,68.3 1484.5,64.7 			"/>
		</g>
		<g>
			<g>
				<polygon class="st5" points="1474.8,94.7 1525.1,94.7 1520.7,144.2 1499.9,150 1479.4,144.6 				"/>
				<polygon class="st6" points="1499.2,98.6 1519.8,98.6 1516.2,140.1 1499.3,144.9 				"/>
			</g>
			<polygon class="st7" points="1483.3,104.1 1514.6,104.1 1513.9,110.7 1490.4,110.7 1490.8,116.8 1513.8,116.8 1512.1,135.7 
				1499.3,139.3 1486.2,135.8 1485.3,126.1 1491.7,126.1 1492.2,131 1499.2,132.9 1506.2,131 1506.9,123 1485.1,123 			"/>
		</g>
		<g>
			<polygon class="st8" points="1505.7,50 1556.1,50 1551.8,99.6 1530.9,105.5 1510.3,100 			"/>
			<polygon class="st9" points="1530.2,53.9 1550.8,53.9 1547.2,95.6 1530.2,100.3 			"/>
			<polygon class="st7" points="1514.7,58.6 1545.8,58.6 1545.2,64.7 1515.3,64.7 			"/>
			<polygon class="st7" points="1516.7,80.3 1517.6,90 1530.2,93.5 1543,90 1544.6,71.1 1531,71.1 1545.2,64.7 1530.8,64.7 
				1515.9,71 1516.5,77.2 1537.8,77.2 1537,85.2 1530.2,87.3 1523.5,85.2 1522.9,80.4 			"/>
			<polygon class="st10" points="1515.9,71 1531,71.1 1545.2,64.7 1530.8,64.7 			"/>
		</g>
	</g>
	<g>
		<g>
			<path class="st11" d="M1233.8,110.2l-8.8-0.1l0-8l27.2,0.2l0,8l-8.8-0.1l-0.1,23.3l-9.6-0.1L1233.8,110.2z M1233.8,110.2"/>
			<path class="st11" d="M1260.2,123.4c-1.1,0.5-2.2,0.8-3.4,1.1c-1.9,0.4-2.9,0.9-3,2.4c0,1.1,1.1,2.1,2.7,2.1c2,0,3.5-1.2,3.7-3.5
				L1260.2,123.4z M1268.5,128.6c0,1.7,0.1,3.6,1,5.1l-8.9-0.1c-0.2-0.6-0.3-1.5-0.3-2.1h-0.1c-1.9,2.1-4.5,2.7-7.3,2.7
				c-4.4,0-8-2.2-8-6.9c0-7.2,8.5-6.9,12.9-7.7c1.2-0.2,2.4-0.6,2.4-2c0-1.5-1.4-2.1-2.8-2.1c-2.7,0-3.2,1.3-3.3,2.3l-8.1,0
				c0.3-6.4,6.4-7.4,11.7-7.4c10.9,0.1,10.8,4.6,10.7,9L1268.5,128.6z M1268.5,128.6"/>
			<path class="st11" d="M1281.9,116.7c-3.1,0-3.8,2.9-3.8,5.6c0,2.7,0.7,5.7,3.8,5.7c3.1,0,3.8-2.9,3.8-5.6
				C1285.7,119.7,1285,116.7,1281.9,116.7 M1269.8,102.4l8.7,0l-0.1,11.1h0.1c1.3-1.9,3.7-3,6.2-3c7.6,0,9.6,6.5,9.6,11.9
				c0,5.7-3.2,12-9.6,12c-4.3,0-5.6-1.7-6.6-3.1h-0.1l0,2.5l-8.4,0L1269.8,102.4z M1269.8,102.4"/>
			<path class="st11" d="M1306.5,108.4c-3.3,0-3.7,3.2-3.8,5.6c0,2.4,0.4,5.7,3.7,5.7c3.3,0,3.7-3.2,3.8-5.6
				C1310.2,111.6,1309.8,108.4,1306.5,108.4 M1306.4,126c-8.5,0-12.4-5.7-12.3-12c0-6.3,3.9-11.9,12.5-11.9c8.5,0,12.4,5.7,12.3,12
				C1318.8,120.4,1314.9,126,1306.4,126"/>
			<path class="st11" d="M1328,108.6c-3.3,0-3.7,3.2-3.8,5.6c0,2.4,0.4,5.7,3.7,5.7c3.3,0,3.7-3.2,3.8-5.6
				C1331.8,111.8,1331.3,108.6,1328,108.6 M1327.9,126.1c-8.5-0.1-12.4-5.7-12.3-12c0-6.3,3.9-11.9,12.5-11.9
				c8.5,0,12.4,5.7,12.3,12C1340.4,120.5,1336.5,126.2,1327.9,126.1"/>
			<path class="st11" d="M1341.4,102.8l8.7,0l-0.2,31.3l-8.7-0.1L1341.4,102.8z M1341.4,102.8"/>
			<path class="st11" d="M1365.7,124c-1.1,0.5-2.2,0.8-3.4,1.1c-1.9,0.4-2.9,0.9-3,2.4c0,1.1,1.1,2.1,2.7,2.1c2,0,3.5-1.2,3.7-3.5
				L1365.7,124z M1374,129.2c0,1.7,0.1,3.6,1,5.1l-8.9-0.1c-0.2-0.6-0.3-1.5-0.3-2.1l-0.1,0c-1.9,2.1-4.5,2.7-7.3,2.7
				c-4.4,0-8-2.2-8-6.9c0-7.2,8.5-6.9,12.9-7.7c1.2-0.2,2.4-0.6,2.4-2c0-1.5-1.4-2.1-2.8-2.1c-2.7,0-3.2,1.3-3.3,2.3l-8.1,0
				c0.3-6.4,6.4-7.4,11.8-7.4c10.9,0.1,10.8,4.6,10.7,9L1374,129.2z M1374,129.2"/>
			<path class="st11" d="M1297.3,125.8c6.2,2.8,12.6,4,19.5,4c7.3,0,12.9-1.1,19.9-3.8l0,7.6c-6.3,3.1-13.1,4.6-19.9,4.5
				c-7.4,0-12.7-1.6-19.5-4.8L1297.3,125.8z M1297.3,125.8"/>
		</g>
		<g>
			<g>
				<path class="st12" d="M1254.6,72.6c0-0.7,0.2-1.2,0.6-1.5c0.4-0.3,1-0.5,1.7-0.5c0.4,0,0.9,0.1,1.2,0.2c0.4,0.1,0.6,0.2,0.7,0.2
					v9.8c0,1.7,0.4,3,1.2,3.9s2,1.3,3.7,1.3c1.6,0,2.9-0.4,3.7-1.3c0.8-0.9,1.2-2.2,1.2-3.9v-8.2c0-0.7,0.2-1.2,0.6-1.5
					c0.4-0.3,0.9-0.5,1.6-0.5c0.5,0,0.9,0.1,1.3,0.2c0.4,0.1,0.6,0.2,0.7,0.2v10.7c0,1.3-0.2,2.4-0.7,3.4c-0.4,1-1.1,1.9-1.9,2.6
					c-0.8,0.7-1.8,1.2-2.9,1.6c-1.1,0.4-2.4,0.5-3.7,0.5c-1.3,0-2.6-0.2-3.7-0.5c-1.1-0.4-2.1-0.9-2.9-1.6c-0.8-0.7-1.4-1.5-1.9-2.6
					c-0.4-1-0.7-2.1-0.7-3.4V72.6z"/>
				<path class="st12" d="M1276.2,67.3c0-0.7,0.2-1.2,0.6-1.5c0.4-0.3,0.9-0.5,1.6-0.5c0.4,0,0.9,0.1,1.2,0.2
					c0.4,0.1,0.6,0.2,0.8,0.2v4.9h5.4c0.8,0,1.4,0.2,1.7,0.5c0.3,0.3,0.5,0.8,0.5,1.5c0,0.4-0.1,0.8-0.2,1.2
					c-0.1,0.4-0.2,0.6-0.3,0.8h-7.2v8.3c0,0.6,0.1,1.2,0.3,1.6c0.2,0.4,0.4,0.7,0.7,1c0.3,0.3,0.7,0.4,1.1,0.5
					c0.4,0.1,0.8,0.1,1.3,0.1c0.7,0,1.4-0.1,2-0.3c0.6-0.2,1.1-0.4,1.3-0.6l1.7,2.8c-0.2,0.1-0.5,0.3-0.8,0.6
					c-0.4,0.2-0.8,0.4-1.3,0.6c-0.5,0.2-1.1,0.4-1.8,0.5c-0.6,0.1-1.4,0.2-2.1,0.2c-2.2,0-3.8-0.6-5-1.7c-1.1-1.1-1.7-2.6-1.7-4.5
					V67.3z"/>
				<path class="st12" d="M1290.6,63.8c0-0.7,0.2-1.2,0.6-1.5c0.4-0.3,1-0.5,1.7-0.5c0.4,0,0.9,0.1,1.2,0.2c0.4,0.1,0.6,0.2,0.7,0.2
					v10.7c0.6-0.8,1.5-1.5,2.6-2c1.1-0.6,2.4-0.8,3.8-0.8c1.4,0,2.6,0.2,3.8,0.7c1.2,0.5,2.2,1.2,3,2.1c0.9,0.9,1.5,1.9,2,3.1
					c0.5,1.2,0.7,2.5,0.7,4c0,1.4-0.2,2.7-0.7,4c-0.5,1.2-1.2,2.3-2.1,3.1c-0.9,0.9-2,1.6-3.2,2.1c-1.2,0.5-2.6,0.7-4,0.7
					c-1.5,0-2.8-0.2-4-0.7c-1.2-0.4-2.3-1.1-3.2-2c-0.9-0.9-1.6-2-2.1-3.4c-0.5-1.3-0.7-2.9-0.7-4.7V63.8z M1300.6,86
					c0.8,0,1.6-0.2,2.3-0.5c0.7-0.3,1.3-0.7,1.8-1.3c0.5-0.5,0.9-1.2,1.2-1.9c0.3-0.7,0.4-1.5,0.4-2.4c0-0.9-0.1-1.7-0.4-2.4
					c-0.3-0.7-0.7-1.4-1.2-1.9c-0.5-0.5-1.1-1-1.8-1.3c-0.7-0.3-1.5-0.5-2.3-0.5c-0.9,0-1.7,0.2-2.4,0.5c-0.7,0.3-1.3,0.7-1.8,1.3
					c-0.5,0.5-0.9,1.2-1.2,1.9c-0.3,0.7-0.4,1.5-0.4,2.4c0,0.9,0.1,1.7,0.4,2.5c0.3,0.7,0.7,1.4,1.2,1.9c0.5,0.5,1.1,0.9,1.8,1.2
					C1299,85.8,1299.8,86,1300.6,86"/>
				<path class="st12" d="M1313.3,77.3c0-2.3,0.7-4.1,2.1-5.3c1.4-1.3,3.4-1.9,5.8-1.9c1.6,0,2.8,0.2,3.8,0.7c1,0.4,1.5,1.1,1.5,2
					c0,0.4-0.1,0.8-0.4,1.2c-0.2,0.4-0.4,0.6-0.6,0.7c-0.4-0.2-0.9-0.4-1.6-0.6c-0.6-0.2-1.3-0.3-2.1-0.3c-2.9,0-4.4,1.5-4.4,4.6
					v10.8h-4.3V77.3z"/>
				<path class="st12" d="M1344.9,89.2c-0.2,0-0.6,0.1-1.2,0.2c-0.5,0.1-1.2,0.1-1.9,0.2c-0.7,0.1-1.5,0.1-2.4,0.2
					c-0.9,0-1.8,0.1-2.8,0.1c-1.9,0-3.5-0.2-4.8-0.5c-1.2-0.3-2.2-0.8-2.9-1.3c-0.7-0.6-1.2-1.2-1.5-1.9c-0.3-0.7-0.4-1.5-0.4-2.3
					c0-1,0.2-1.9,0.5-2.7c0.3-0.8,0.8-1.4,1.5-1.9c0.7-0.5,1.6-0.9,2.8-1.2s2.5-0.4,4.2-0.4c0.9,0,1.8,0,2.7,0.1
					c0.8,0.1,1.5,0.1,1.9,0.2c0-0.9-0.1-1.6-0.4-2.2c-0.3-0.6-0.7-1-1.2-1.3c-0.5-0.3-1.1-0.5-1.8-0.7c-0.7-0.1-1.5-0.2-2.3-0.2
					c-1.4,0-2.6,0.2-3.4,0.5c-0.9,0.3-1.4,0.6-1.7,0.8c-0.1-0.1-0.4-0.4-0.6-0.7c-0.3-0.3-0.4-0.8-0.4-1.3c0-0.3,0.1-0.7,0.3-1
					c0.2-0.3,0.5-0.6,1-0.9c0.5-0.3,1.1-0.5,1.9-0.6c0.8-0.1,1.8-0.2,3-0.2c1.5,0,2.8,0.1,4,0.4c1.2,0.3,2.2,0.7,3.1,1.4
					c0.9,0.6,1.5,1.4,2,2.5c0.5,1,0.7,2.3,0.7,3.7V89.2z M1340.7,81c-0.2,0-0.7-0.1-1.4-0.2c-0.7-0.1-1.7-0.2-3.1-0.2
					c-1.7,0-2.9,0.3-3.7,0.8c-0.8,0.5-1.2,1.3-1.2,2.4c0,0.4,0.1,0.9,0.2,1.2c0.2,0.4,0.4,0.7,0.8,1c0.4,0.3,0.9,0.5,1.6,0.6
					c0.7,0.1,1.5,0.2,2.6,0.2c1.1,0,2.1,0,2.7-0.1c0.7-0.1,1.1-0.2,1.3-0.2V81z"/>
				<path class="st12" d="M1350.9,62.2c0.7,0,1.3,0.2,1.8,0.7s0.7,1.1,0.7,1.8c0,0.7-0.2,1.3-0.7,1.8c-0.5,0.5-1.1,0.7-1.8,0.7
					s-1.3-0.2-1.8-0.7c-0.5-0.5-0.7-1.1-0.7-1.8c0-0.7,0.2-1.3,0.7-1.8C1349.5,62.4,1350.1,62.2,1350.9,62.2 M1348.7,72.6
					c0-0.7,0.2-1.2,0.6-1.5c0.4-0.3,1-0.5,1.7-0.5c0.4,0,0.9,0.1,1.2,0.2c0.4,0.1,0.6,0.2,0.7,0.2v18.3h-4.3V72.6z"/>
				<path class="st12" d="M1356.8,78c0-1.2,0.2-2.4,0.7-3.3c0.5-1,1.1-1.8,1.9-2.5c0.8-0.7,1.8-1.2,2.9-1.6c1.1-0.4,2.3-0.5,3.6-0.5
					c1.3,0,2.5,0.2,3.7,0.5c1.1,0.4,2.1,0.9,2.9,1.6c0.8,0.7,1.4,1.5,1.9,2.5c0.4,1,0.7,2.1,0.7,3.3v11.3h-4.3V79.1
					c0-1.7-0.4-3-1.2-3.9c-0.8-0.9-2-1.3-3.6-1.3c-1.6,0-2.8,0.4-3.6,1.3c-0.8,0.9-1.2,2.2-1.2,3.9v10.2h-4.3V78z"/>
				<path class="st12" d="M1251.3,71.2c-0.7-1.6-1.7-3.1-2.9-4.3c-1.2-1.2-2.7-2.2-4.3-2.8c-1.7-0.7-3.5-1-5.4-1
					c-1.9,0-3.7,0.3-5.4,1c-1.7,0.7-3.1,1.6-4.3,2.8c-1.2,1.2-2.2,2.6-2.9,4.3c-0.7,1.6-1,3.4-1,5.3c0,1.9,0.3,3.7,1,5.3
					c0.7,1.6,1.7,3.1,2.9,4.3c1.2,1.2,2.7,2.2,4.3,2.8c1.7,0.7,3.5,1,5.4,1c1.9,0,3.7-0.3,5.4-1c1.7-0.7,3.1-1.6,4.3-2.8
					c1.2-1.2,2.2-2.6,2.9-4.3c0.7-1.6,1-3.4,1-5.3C1252.3,74.6,1252,72.8,1251.3,71.2 M1230.5,75.5c1.5-0.5,3.5-1.1,3.5-1.1
					c4.4-1.4,5-3.1,5-3.1s0.9,1.7,4.2,2.8c0,0,1.8,0.6,3.4,1.2c0.1,0.2,0.2,0.3,0.2,0.5c0.3,0.7,0.5,1.4,0.6,2.2h-2.3c0,0,0,0,0,0
					c-0.2-0.4-0.4-0.7-0.7-1c-0.3-0.3-0.6-0.5-1-0.7c-0.4-0.2-0.8-0.2-1.3-0.2c-0.5,0-0.9,0.1-1.3,0.2c-0.4,0.2-0.7,0.4-1,0.7
					c-0.3,0.3-0.5,0.6-0.7,1c-0.1,0.1-0.1,0.2-0.1,0.4h-0.9c0-0.1-0.1-0.3-0.1-0.4c-0.2-0.4-0.4-0.7-0.7-1c-0.3-0.3-0.6-0.5-1-0.7
					c-0.4-0.2-0.8-0.2-1.3-0.2s-0.9,0.1-1.3,0.2c-0.4,0.2-0.7,0.4-1,0.7c-0.3,0.3-0.5,0.6-0.7,1c0,0,0,0,0,0h-2.3
					c0.1-0.8,0.3-1.5,0.6-2.2C1230.4,75.7,1230.5,75.6,1230.5,75.5 M1244.1,79.2c0,0.3,0,0.5-0.1,0.8c-0.1,0.2-0.2,0.4-0.4,0.6
					c-0.2,0.2-0.4,0.3-0.6,0.4c-0.2,0.1-0.5,0.1-0.8,0.1c-0.3,0-0.5,0-0.8-0.1s-0.4-0.2-0.6-0.4c-0.2-0.2-0.3-0.4-0.4-0.6
					c-0.1-0.2-0.1-0.5-0.1-0.8c0-0.3,0-0.5,0.1-0.8c0.1-0.2,0.2-0.4,0.4-0.6c0.2-0.2,0.4-0.3,0.6-0.4c0.2-0.1,0.5-0.1,0.8-0.1
					c0.3,0,0.5,0,0.8,0.1c0.2,0.1,0.4,0.2,0.6,0.4c0.2,0.2,0.3,0.4,0.4,0.6C1244.1,78.6,1244.1,78.9,1244.1,79.2 M1237,79.2
					c0,0.3,0,0.5-0.1,0.8c-0.1,0.2-0.2,0.4-0.4,0.6c-0.2,0.2-0.4,0.3-0.6,0.4s-0.5,0.1-0.8,0.1c-0.3,0-0.5,0-0.8-0.1
					c-0.2-0.1-0.4-0.2-0.6-0.4c-0.2-0.2-0.3-0.4-0.4-0.6c-0.1-0.2-0.1-0.5-0.1-0.8c0-0.3,0-0.5,0.1-0.8c0.1-0.2,0.2-0.4,0.4-0.6
					c0.2-0.2,0.4-0.3,0.6-0.4c0.2-0.1,0.5-0.1,0.8-0.1c0.3,0,0.5,0,0.8,0.1c0.2,0.1,0.4,0.2,0.6,0.4c0.2,0.2,0.3,0.4,0.4,0.6
					C1237,78.6,1237,78.9,1237,79.2 M1245,85.6c-0.8,0.8-1.8,1.4-2.8,1.9c-1.1,0.4-2.3,0.7-3.5,0.7s-2.4-0.2-3.5-0.7
					c-1.1-0.4-2-1.1-2.8-1.9c-0.8-0.8-1.4-1.7-1.9-2.8c-0.4-1-0.7-2.2-0.7-3.4h2.1c0,0.4,0.1,0.7,0.2,1c0.2,0.4,0.4,0.7,0.7,1
					c0.3,0.3,0.6,0.5,1,0.7c0.4,0.2,0.8,0.2,1.3,0.2s0.9-0.1,1.3-0.2c0.4-0.2,0.7-0.4,1-0.7c0.3-0.3,0.5-0.6,0.7-1
					c0.1-0.3,0.2-0.5,0.2-0.8h0.7c0,0.3,0.1,0.6,0.2,0.8c0.2,0.4,0.4,0.7,0.7,1c0.3,0.3,0.6,0.5,1,0.7c0.4,0.2,0.8,0.2,1.3,0.2
					c0.5,0,0.9-0.1,1.3-0.2c0.4-0.2,0.7-0.4,1-0.7c0.3-0.3,0.5-0.6,0.7-1c0.1-0.3,0.2-0.7,0.2-1h2.1c0,1.2-0.2,2.3-0.7,3.4
					C1246.5,83.8,1245.8,84.8,1245,85.6"/>
			</g>
		</g>
	</g>
	<g>
		<path class="st13" d="M935,140h-76.7c-3.7,0-6.7-3-6.7-6.7V66.7c0-3.7,3-6.7,6.7-6.7H935c3.7,0,6.7,3,6.7,6.7v66.7
			C941.7,137,938.7,140,935,140z"/>
		<path class="st14" d="M941.7,76.7h-90v-10c0-3.7,3-6.7,6.7-6.7H935c3.7,0,6.7,3,6.7,6.7V76.7z"/>
		<circle class="st15" cx="861.7" cy="68.3" r="3.3"/>
		<circle class="st15" cx="871.7" cy="68.3" r="3.3"/>
		<rect x="858.3" y="81.7" class="st16" width="45.8" height="16.7"/>
		<rect x="858.3" y="103.3" class="st16" width="51.7" height="30"/>
		
			<rect x="915" y="103.3" transform="matrix(-1 -1.224647e-16 1.224647e-16 -1 1850 236.6667)" class="st16" width="20" height="30"/>
		<path class="st17" d="M908.3,104.2v5.8l28.9,29.6c2.6-0.9,4.4-3.4,4.4-6.3v-29.2H908.3z"/>
		<path class="st18" d="M945.2,110h-36.9l-15.5-14.8c-2-1.9-2-5.2,0-7.1l15.5-14.8h36.9c1.7,0,3.1,1.4,3.1,3.1v30.4
			C948.3,108.6,946.9,110,945.2,110z"/>
	</g>
	<g>
		<path class="st19" d="M739.6,140h-79.1c-1.5,0-2.7-1.2-2.7-2.7V62.7c0-1.5,1.2-2.7,2.7-2.7h79.1c1.5,0,2.7,1.2,2.7,2.7v74.7
			C742.2,138.8,741,140,739.6,140z"/>
		<rect x="663.1" y="75.5" class="st20" width="73.8" height="28.2"/>
		<rect x="673.9" y="79.5" class="st21" width="13.7" height="13.6"/>
		<path class="st22" d="M742.2,66.2h-84.4v-3.6c0-1.5,1.2-2.7,2.7-2.7h79.1c1.5,0,2.7,1.2,2.7,2.7V66.2z"/>
		<circle class="st21" cx="662.7" cy="63.1" r="1.3"/>
		<circle class="st21" cx="667.1" cy="63.1" r="1.3"/>
		<circle class="st21" cx="671.6" cy="63.1" r="1.3"/>
		<rect x="693.3" y="79.5" class="st21" width="14.6" height="1.8"/>
		<rect x="691.3" y="108.6" class="st23" width="17.4" height="1.8"/>
		<rect x="693.3" y="83.9" class="st21" width="33" height="0.9"/>
		<rect x="684.4" y="70.9" class="st24" width="5.1" height="0.9"/>
		<rect x="693.1" y="70.9" class="st24" width="5.1" height="0.9"/>
		<rect x="701.8" y="70.9" class="st24" width="5.1" height="0.9"/>
		<rect x="710.5" y="70.9" class="st24" width="5.1" height="0.9"/>
		<rect x="663.1" y="69.8" class="st24" width="4.5" height="0.7"/>
		<rect x="663.1" y="71.4" class="st24" width="4.5" height="0.7"/>
		<rect x="663.1" y="73" class="st24" width="4.5" height="0.7"/>
		<rect x="693.3" y="86.6" class="st21" width="33" height="0.9"/>
		<rect x="693.3" y="89.2" class="st21" width="28.2" height="0.9"/>
		<rect x="693.3" y="91.9" class="st21" width="20" height="0.9"/>
		<rect x="673.8" y="94.9" class="st21" width="13.8" height="0.9"/>
		<rect x="673.8" y="97.5" class="st21" width="12" height="0.9"/>
		<rect x="692.7" y="127.4" class="st24" width="14.6" height="0.9"/>
		<path class="st21" d="M706,95.4h-12c-0.4,0-0.7,0.3-0.7,0.7v2.1c0,0.4,0.3,0.7,0.7,0.7h12c0.4,0,0.7-0.3,0.7-0.7v-2.1
			C706.7,95.7,706.4,95.4,706,95.4z"/>
		<path class="st24" d="M703.9,132.6h-7.9c-0.3,0-0.5,0.2-0.5,0.5v1.4c0,0.3,0.2,0.5,0.5,0.5h7.9c0.3,0,0.5-0.2,0.5-0.5v-1.4
			C704.5,132.8,704.2,132.6,703.9,132.6z"/>
		<path class="st24" d="M682.4,132.6h-7.9c-0.3,0-0.5,0.2-0.5,0.5v1.4c0,0.3,0.2,0.5,0.5,0.5h7.9c0.3,0,0.5-0.2,0.5-0.5v-1.4
			C683,132.8,682.7,132.6,682.4,132.6z"/>
		<path class="st24" d="M725.5,132.6h-7.9c-0.3,0-0.5,0.2-0.5,0.5v1.4c0,0.3,0.2,0.5,0.5,0.5h7.9c0.3,0,0.5-0.2,0.5-0.5v-1.4
			C726,132.8,725.8,132.6,725.5,132.6z"/>
		<circle class="st20" cx="700" cy="120.5" r="5.3"/>
		<rect x="714.2" y="127.4" class="st24" width="14.6" height="0.9"/>
		<circle class="st20" cx="721.5" cy="120.5" r="5.3"/>
		<rect x="671.2" y="127.4" class="st24" width="14.6" height="0.9"/>
		<rect x="694.5" y="129.6" class="st24" width="11" height="0.9"/>
		<rect x="716" y="129.6" class="st24" width="11" height="0.9"/>
		<rect x="673" y="129.6" class="st24" width="11" height="0.9"/>
		<circle class="st20" cx="678.5" cy="120.5" r="5.3"/>
		<polygon class="st20" points="687.9,79.8 687.3,79.2 680.7,85.7 674.2,79.2 673.5,79.8 680.1,86.3 673.5,92.8 674.2,93.4 
			680.7,86.9 687.3,93.4 687.9,92.8 681.4,86.3 		"/>
	</g>
	<g>
		<path class="st20" d="M512.6,67.5V60h-10.4h-24.5l0,0c-4.9,0-8.9,3.7-9.4,8.5c0,0.3,0,0.6,0,1v35.1v25.9c0,5.2,4.3,9.5,9.5,9.5h20
			h24.5h0c4.9,0,8.9-3.7,9.4-8.5c0-0.3,0-0.6,0-1V95.4V80h-6.6C518.2,80,512.6,74.4,512.6,67.5z M527.8,95.4v35.1
			c0,3.1-2.5,5.6-5.6,5.6h-24.5h-20c-3.1,0-5.6-2.5-5.6-5.6v-25.9V86.8h55.7V95.4z"/>
		<path class="st24" d="M525.2,77h6.6l-16.1-17v7.5C515.7,72.7,519.9,77,525.2,77z"/>
		<g id="TEXT_1_">
			<path class="st21" d="M476.2,67.9h2.8l2.2,3.5l2.2-3.5h2.6l-3.5,5.2l3.8,5.7h-2.9l-2.4-3.8l-2.4,3.8h-2.7l3.8-5.8L476.2,67.9z"/>
			<path class="st21" d="M489.7,67.9v9h5.4v2h-7.8v-11H489.7z"/>
			<path class="st21" d="M498.3,76.2c0.1,0.3,0.3,0.5,0.5,0.6c0.2,0.2,0.5,0.3,0.8,0.4c0.3,0.1,0.6,0.1,0.9,0.1c0.2,0,0.4,0,0.7-0.1
				c0.2,0,0.5-0.1,0.7-0.2c0.2-0.1,0.4-0.2,0.5-0.4c0.1-0.2,0.2-0.4,0.2-0.7c0-0.3-0.1-0.5-0.3-0.7c-0.2-0.2-0.4-0.3-0.7-0.5
				c-0.3-0.1-0.7-0.2-1-0.3c-0.4-0.1-0.8-0.2-1.2-0.3c-0.4-0.1-0.8-0.2-1.2-0.4c-0.4-0.1-0.7-0.3-1-0.6c-0.3-0.2-0.6-0.5-0.7-0.9
				c-0.2-0.4-0.3-0.8-0.3-1.3c0-0.6,0.1-1.1,0.4-1.5c0.2-0.4,0.6-0.8,0.9-1c0.4-0.3,0.8-0.5,1.3-0.6c0.5-0.1,1-0.2,1.5-0.2
				c0.6,0,1.1,0.1,1.7,0.2c0.5,0.1,1,0.3,1.4,0.6c0.4,0.3,0.7,0.7,1,1.1c0.2,0.4,0.4,1,0.4,1.6h-2.3c0-0.3-0.1-0.6-0.2-0.8
				c-0.1-0.2-0.3-0.4-0.5-0.5c-0.2-0.1-0.4-0.2-0.7-0.3c-0.3-0.1-0.5-0.1-0.8-0.1c-0.2,0-0.4,0-0.6,0.1c-0.2,0-0.4,0.1-0.5,0.2
				c-0.2,0.1-0.3,0.2-0.4,0.4c-0.1,0.2-0.2,0.3-0.2,0.6c0,0.2,0,0.4,0.1,0.5c0.1,0.1,0.2,0.3,0.5,0.4c0.2,0.1,0.6,0.2,1,0.3
				c0.4,0.1,1,0.3,1.7,0.4c0.2,0,0.5,0.1,0.9,0.2c0.4,0.1,0.7,0.3,1.1,0.5c0.4,0.2,0.7,0.6,0.9,0.9c0.3,0.4,0.4,0.9,0.4,1.5
				c0,0.5-0.1,1-0.3,1.4c-0.2,0.4-0.5,0.8-0.9,1.1c-0.4,0.3-0.9,0.6-1.4,0.7c-0.6,0.2-1.2,0.3-2,0.3c-0.6,0-1.2-0.1-1.8-0.2
				c-0.6-0.1-1.1-0.4-1.5-0.7c-0.4-0.3-0.8-0.7-1-1.2c-0.3-0.5-0.4-1.1-0.4-1.8h2.3C498.1,75.6,498.1,76,498.3,76.2z"/>
		</g>
		<g id="chart_1_">
			<path class="st24" d="M501.3,102.5h-2.6c-1.6,0-2.9,1.3-2.9,3v1.6v13.3v1.6c0,1.6,1.3,3,2.9,3h2.6c1.6,0,2.9-1.3,2.9-3v-1.6V107
				v-1.6C504.2,103.8,502.9,102.5,501.3,102.5z M498.8,121c0,0.4-0.3,0.7-0.7,0.7c-0.4,0-0.7-0.3-0.7-0.7v-12.6
				c0-0.4,0.3-0.7,0.7-0.7c0.4,0,0.7,0.3,0.7,0.7V121z"/>
			<path class="st24" d="M489.5,108.5h-2.6c-1.6,0-2.9,1.3-2.9,3v10.5c0,1.7,1.3,3,2.9,3h2.6c1.6,0,2.9-1.3,2.9-3v-10.5
				C492.5,109.8,491.2,108.5,489.5,108.5z M487,121.1c0,0.4-0.3,0.7-0.7,0.7c-0.4,0-0.7-0.3-0.7-0.7V113c0-0.4,0.3-0.7,0.7-0.7
				c0.4,0,0.7,0.3,0.7,0.7V121.1z"/>
			<path class="st24" d="M513.1,98h-2.6c-1.6,0-2.9,1.3-2.9,3v20.9c0,1.7,1.3,3,2.9,3h2.6c1.6,0,2.9-1.3,2.9-3V101
				C516,99.3,514.7,98,513.1,98z M510.5,120.8c0,0.4-0.3,0.7-0.7,0.7c-0.4,0-0.7-0.3-0.7-0.7v-16.5c0-0.4,0.3-0.7,0.7-0.7
				c0.4,0,0.7,0.3,0.7,0.7V120.8z"/>
		</g>
	</g>
	<g>
		<path class="st25" d="M2087.8,101.5c0,8.1-6.3,14-14,14c-7.7,0-14-5.9-14-14c0-8.1,6.3-14,14-14
			C2081.5,87.5,2087.8,93.4,2087.8,101.5z M2081.6,101.5c0-5-3.7-8.5-7.9-8.5c-4.2,0-7.9,3.4-7.9,8.5c0,5,3.7,8.5,7.9,8.5
			C2078,109.9,2081.6,106.4,2081.6,101.5z"/>
		<path class="st26" d="M2118,101.5c0,8.1-6.3,14-14,14s-14-5.9-14-14c0-8.1,6.3-14,14-14S2118,93.4,2118,101.5z M2111.9,101.5
			c0-5-3.7-8.5-7.9-8.5s-7.9,3.4-7.9,8.5c0,5,3.7,8.5,7.9,8.5S2111.9,106.4,2111.9,101.5z"/>
		<path class="st14" d="M2147,88.3v25.1c0,10.3-6.1,14.5-13.3,14.5c-6.8,0-10.9-4.5-12.4-8.2l5.3-2.2c1,2.3,3.3,5,7,5
			c4.6,0,7.5-2.8,7.5-8.2v-2h-0.2c-1.4,1.7-4,3.2-7.4,3.2c-7,0-13.4-6.1-13.4-13.9c0-7.9,6.4-14,13.4-14c3.3,0,6,1.5,7.4,3.1h0.2
			v-2.3L2147,88.3L2147,88.3z M2141.6,101.5c0-4.9-3.3-8.5-7.5-8.5c-4.2,0-7.8,3.6-7.8,8.5c0,4.9,3.5,8.4,7.8,8.4
			C2138.3,109.9,2141.6,106.4,2141.6,101.5z"/>
		<path class="st27" d="M2156.6,73.6v41h-6v-41H2156.6z"/>
		<path class="st25" d="M2180,106.1l4.8,3.2c-1.5,2.3-5.2,6.2-11.7,6.2c-7.9,0-13.9-6.1-13.9-14c0-8.3,6-14,13.2-14
			c7.3,0,10.8,5.8,12,8.9l0.6,1.6l-18.7,7.7c1.4,2.8,3.7,4.2,6.8,4.2C2176.2,109.9,2178.4,108.4,2180,106.1L2180,106.1z M2165.3,101
			l12.5-5.2c-0.7-1.7-2.8-3-5.2-3C2169.5,92.9,2165.1,95.6,2165.3,101z"/>
		<path class="st14" d="M2037,97.8v-5.9h20c0.2,1,0.3,2.3,0.3,3.6c0,4.5-1.2,10-5.1,13.9c-3.8,4-8.7,6.1-15.1,6.1
			c-12,0-22-9.7-22-21.7s10.1-21.7,22-21.7c6.6,0,11.3,2.6,14.9,6l-4.2,4.2c-2.5-2.4-6-4.2-10.7-4.2c-8.7,0-15.6,7-15.6,15.8
			s6.8,15.8,15.6,15.8c5.7,0,8.9-2.3,11-4.3c1.7-1.7,2.8-4.1,3.2-7.3L2037,97.8z"/>
	</g>
	<g>
		<path class="st28" d="M1902.7,99.5c-1.5,0-2.6,0.5-3.6,1v11.2c1,0.1,1.6,0.1,2.6,0.1c3.6,0,4.1-1.6,4.1-3.9v-5.4
			C1905.7,100.8,1905.1,99.5,1902.7,99.5 M1879,98.9c-2.5,0-3,1.4-3,3v0.9h6.1v-0.9C1882,100.2,1881.4,98.9,1879,98.9 M1833.1,110.6
			c0,1.3,0.6,2,2,2c1.5,0,2.4-0.5,3.5-1v-2.7h-3.3C1833.8,108.9,1833.1,109.2,1833.1,110.6 M1925.7,99.5c-2.5,0-3.3,1.4-3.3,3v6.1
			c0,1.7,0.9,3,3.3,3c2.5,0,3.3-1.4,3.3-3v-6.1C1929.1,100.8,1928.2,99.5,1925.7,99.5 M1820.9,117.4h-7.3V99.8h-3.6v-6.1h3.6v-3.6
			c0-5,2.1-7.9,7.9-7.9h4.9v6.1h-3c-2.3,0-2.4,0.8-2.4,2.4l0,3h5.5l-0.6,6.1h-4.9V117.4z M1845.8,117.5h-6.1l-0.3-1.5
			c-2.8,1.5-5.3,1.8-6.9,1.8c-4.5,0-6.8-3-6.8-7.1c0-4.8,2.8-6.6,7.7-6.6h5v-1c0-2.5-0.3-3.2-4.1-3.2h-6.2l0.6-6.1h6.8
			c8.4,0,10.2,2.6,10.2,9.3V117.5z M1866.5,100.3c-3.8-0.6-4.9-0.8-6.7-0.8c-3.3,0-4.3,0.7-4.3,3.5v5.2c0,2.8,1,3.5,4.3,3.5
			c1.8,0,2.9-0.1,6.7-0.8v5.9c-3.3,0.7-5.5,0.9-7.3,0.9c-7.8,0-10.9-4.1-10.9-10v-4.3c0-5.9,3.1-10.1,10.9-10.1c1.8,0,4,0.2,7.3,0.9
			V100.3z M1889.3,107.7h-13.4v0.5c0,2.8,1,3.5,4.3,3.5c2.9,0,4.7-0.1,8.5-0.8v5.9c-3.6,0.7-5.5,0.9-9.1,0.9
			c-7.8,0-10.9-4.1-10.9-10v-4.9c0-5.2,2.3-9.4,10.3-9.4c8,0,10.3,4.2,10.3,9.4V107.7z M1913,107.8c0,5.7-1.6,9.9-11.6,9.9
			c-3.6,0-5.7-0.3-9.7-0.9V84l7.3-1.2v11.5c1.6-0.6,3.6-0.9,5.5-0.9c7.3,0,8.5,3.3,8.5,8.5V107.8z M1936.3,108c0,4.9-2,9.8-10.6,9.8
			c-8.6,0-10.7-4.8-10.7-9.8v-4.8c0-5,2.1-9.8,10.7-9.8c8.6,0,10.6,4.8,10.6,9.8V108z M1959.7,108c0,4.9-2,9.8-10.6,9.8
			c-8.6,0-10.7-4.8-10.7-9.8v-4.8c0-5,2.1-9.8,10.7-9.8c8.6,0,10.6,4.8,10.6,9.8V108z M1983.6,117.4h-7.9l-6.7-11.1v11.1h-7.3V84
			l7.3-1.2v21.5l6.7-10.6h7.9l-7.3,11.5L1983.6,117.4z M1949.1,99.5c-2.5,0-3.3,1.4-3.3,3v6.1c0,1.7,0.9,3,3.3,3
			c2.5,0,3.3-1.4,3.3-3v-6.1C1952.4,100.8,1951.5,99.5,1949.1,99.5"/>
		<path class="st28" d="M1987.8,113.3c1.2,0,2.2,1,2.2,2.2c0,1.3-1,2.3-2.2,2.3c-1.2,0-2.2-1-2.2-2.3
			C1985.6,114.3,1986.6,113.3,1987.8,113.3L1987.8,113.3z M1987.8,113.6c-1,0-1.8,0.8-1.8,1.9c0,1.1,0.8,1.9,1.8,1.9
			c1,0,1.8-0.8,1.8-1.9C1989.6,114.5,1988.8,113.6,1987.8,113.6L1987.8,113.6z M1987.4,116.8h-0.4v-2.5c0.2,0,0.4-0.1,0.7-0.1
			c0.4,0,0.6,0.1,0.8,0.2c0.2,0.1,0.2,0.3,0.2,0.5c0,0.3-0.2,0.5-0.5,0.6v0c0.2,0,0.4,0.2,0.4,0.6c0.1,0.4,0.1,0.5,0.2,0.6h-0.4
			c-0.1-0.1-0.1-0.3-0.2-0.6c-0.1-0.3-0.2-0.4-0.5-0.4h-0.3V116.8z M1987.4,115.5h0.3c0.3,0,0.6-0.1,0.6-0.4c0-0.2-0.2-0.4-0.6-0.4
			c-0.1,0-0.2,0-0.3,0V115.5z"/>
	</g>
	<g>
		<g>
			<g>
				<path class="st29" d="M1694.1,141.6l6.7-17.3h2.5l7.1,17.3h-2.6l-2-5.2h-7.2l-1.9,5.2H1694.1z M1699.1,134.5h5.9l-1.8-4.8
					c-0.5-1.5-1-2.7-1.2-3.6c-0.2,1.1-0.5,2.2-0.9,3.3L1699.1,134.5z M1711.9,141.6v-12.5h1.9v1.8c0.9-1.4,2.3-2.1,4-2.1
					c0.8,0,1.4,0.1,2.1,0.4s1.1,0.6,1.4,1.1c0.3,0.4,0.5,1,0.7,1.6c0.1,0.4,0.1,1.1,0.1,2.1v7.7h-2.1V134c0-0.9-0.1-1.5-0.2-1.9
					c-0.2-0.4-0.5-0.8-0.9-1c-0.4-0.3-0.9-0.4-1.5-0.4c-0.9,0-1.7,0.3-2.3,0.9c-0.7,0.6-1,1.7-1,3.3v6.8H1711.9z M1733.5,140.1
					c-0.8,0.7-1.5,1.1-2.3,1.4c-0.7,0.3-1.5,0.4-2.3,0.4c-1.4,0-2.4-0.3-3.2-1c-0.7-0.7-1.1-1.5-1.1-2.6c0-0.6,0.1-1.2,0.4-1.7
					c0.3-0.5,0.6-0.9,1.1-1.2c0.5-0.3,1-0.5,1.5-0.7c0.4-0.1,1-0.2,1.9-0.3c1.7-0.2,3-0.4,3.8-0.7c0-0.3,0-0.5,0-0.6
					c0-0.9-0.2-1.5-0.6-1.8c-0.5-0.5-1.3-0.7-2.4-0.7c-1,0-1.7,0.2-2.2,0.5c-0.5,0.4-0.8,1-1.1,1.9l-2.1-0.3
					c0.2-0.9,0.5-1.6,0.9-2.2c0.4-0.5,1.1-1,1.9-1.3c0.8-0.3,1.8-0.4,2.8-0.4c1.1,0,1.9,0.1,2.6,0.4c0.7,0.3,1.2,0.6,1.5,1
					c0.3,0.4,0.5,0.9,0.7,1.4c0.1,0.4,0.1,1,0.1,2v2.8c0,2,0,3.2,0.1,3.7c0.1,0.5,0.3,1,0.5,1.5h-2.2
					C1733.7,141.2,1733.6,140.7,1733.5,140.1z M1733.3,135.4c-0.8,0.3-1.9,0.6-3.5,0.8c-0.9,0.1-1.5,0.3-1.9,0.4
					c-0.4,0.2-0.6,0.4-0.8,0.7c-0.2,0.3-0.3,0.6-0.3,1c0,0.6,0.2,1,0.6,1.4c0.4,0.4,1.1,0.6,1.9,0.6c0.8,0,1.5-0.2,2.2-0.5
					c0.6-0.4,1.1-0.8,1.4-1.5c0.2-0.5,0.3-1.2,0.3-2.1V135.4z M1738.7,141.6v-17.3h2.1v17.3H1738.7z M1744.1,146.5l-0.2-2
					c0.5,0.1,0.9,0.2,1.2,0.2c0.5,0,0.8-0.1,1.1-0.2c0.3-0.2,0.5-0.4,0.7-0.7c0.1-0.2,0.4-0.7,0.7-1.6c0-0.1,0.1-0.3,0.2-0.5
					l-4.8-12.6h2.3l2.6,7.3c0.3,0.9,0.6,1.9,0.9,2.9c0.2-1,0.5-1.9,0.9-2.9l2.7-7.3h2.1l-4.8,12.8c-0.5,1.4-0.9,2.3-1.2,2.8
					c-0.4,0.7-0.8,1.2-1.3,1.5c-0.5,0.3-1.1,0.5-1.7,0.5C1745,146.7,1744.6,146.7,1744.1,146.5z M1760.9,139.7l0.3,1.9
					c-0.6,0.1-1.1,0.2-1.6,0.2c-0.8,0-1.4-0.1-1.8-0.4c-0.4-0.2-0.7-0.6-0.9-1c-0.2-0.4-0.3-1.2-0.3-2.5v-7.2h-1.6v-1.7h1.6V126
					l2.1-1.3v4.4h2.1v1.7h-2.1v7.3c0,0.6,0,1,0.1,1.2c0.1,0.2,0.2,0.3,0.4,0.4s0.4,0.2,0.7,0.2
					C1760.2,139.8,1760.5,139.8,1760.9,139.7z M1763,126.8v-2.4h2.1v2.4H1763z M1763,141.6v-12.5h2.1v12.5H1763z M1776.5,137.1
					l2.1,0.3c-0.2,1.4-0.8,2.6-1.8,3.4c-0.9,0.8-2.1,1.2-3.5,1.2c-1.7,0-3.1-0.6-4.1-1.7c-1-1.1-1.6-2.7-1.6-4.8
					c0-1.4,0.2-2.5,0.7-3.6c0.4-1,1.1-1.8,2-2.3c0.9-0.5,1.9-0.8,3-0.8c1.4,0,2.5,0.3,3.3,1c0.9,0.7,1.4,1.7,1.7,2.9l-2.1,0.3
					c-0.2-0.8-0.5-1.5-1-1.9c-0.5-0.4-1.1-0.6-1.8-0.6c-1.1,0-1.9,0.4-2.6,1.2c-0.7,0.8-1,2-1,3.6c0,1.7,0.3,2.9,1,3.7
					c0.6,0.8,1.5,1.1,2.5,1.1c0.8,0,1.5-0.3,2.1-0.8C1776,138.9,1776.4,138.1,1776.5,137.1z M1779.6,137.9l2.1-0.3
					c0.1,0.8,0.4,1.5,1,1.9c0.5,0.4,1.3,0.7,2.3,0.7c1,0,1.7-0.2,2.2-0.6c0.5-0.4,0.7-0.9,0.7-1.4c0-0.5-0.2-0.9-0.6-1.1
					c-0.3-0.2-1-0.4-2.2-0.7c-1.6-0.4-2.6-0.7-3.2-1c-0.6-0.3-1.1-0.7-1.4-1.2c-0.3-0.5-0.5-1.1-0.5-1.7c0-0.6,0.1-1.1,0.4-1.6
					c0.3-0.5,0.6-0.9,1-1.2c0.3-0.2,0.8-0.5,1.4-0.6c0.6-0.2,1.2-0.3,1.8-0.3c1,0,1.8,0.1,2.6,0.4c0.7,0.3,1.3,0.7,1.6,1.2
					c0.4,0.5,0.6,1.1,0.7,1.9l-2.1,0.3c-0.1-0.6-0.4-1.1-0.8-1.5c-0.5-0.4-1.1-0.5-1.9-0.5c-1,0-1.7,0.2-2.1,0.5
					c-0.4,0.3-0.6,0.7-0.6,1.1c0,0.3,0.1,0.5,0.3,0.7c0.2,0.2,0.4,0.4,0.8,0.6c0.2,0.1,0.8,0.3,1.9,0.5c1.5,0.4,2.6,0.7,3.1,1
					c0.6,0.3,1.1,0.6,1.4,1.1c0.3,0.5,0.5,1.1,0.5,1.8c0,0.7-0.2,1.4-0.6,2c-0.4,0.6-1,1.1-1.8,1.5c-0.8,0.3-1.7,0.5-2.6,0.5
					c-1.6,0-2.9-0.3-3.7-1C1780.4,140.2,1779.8,139.2,1779.6,137.9z"/>
			</g>
			<g>
				<path id="path2998_2_" class="st30" d="M1628.6,131.9h-8.8v2.6h6.3c-0.3,3.7-3.4,5.3-6.3,5.3c-3.7,0-6.9-2.9-6.9-7
					c0-4,3.1-7,6.9-7c3,0,4.7,1.9,4.7,1.9l1.8-1.9c0,0-2.4-2.6-6.7-2.6c-5.5,0-9.7,4.6-9.7,9.6c0,4.9,4,9.7,9.9,9.7
					c5.2,0,8.9-3.5,8.9-8.8C1628.8,132.5,1628.6,131.9,1628.6,131.9L1628.6,131.9z"/>
				<path id="path3000_2_" class="st30" d="M1635.9,130c-3.6,0-6.2,2.8-6.2,6.1c0,3.4,2.5,6.2,6.3,6.2c3.4,0,6.2-2.6,6.2-6.2
					C1642.1,132.1,1638.9,130,1635.9,130L1635.9,130z M1635.9,132.4c1.8,0,3.5,1.4,3.5,3.8c0,2.3-1.7,3.8-3.5,3.8
					c-2,0-3.5-1.6-3.5-3.8C1632.4,134,1633.9,132.4,1635.9,132.4L1635.9,132.4z"/>
				<path id="path3005_2_" class="st30" d="M1649.4,130c-3.6,0-6.2,2.8-6.2,6.1c0,3.4,2.5,6.2,6.3,6.2c3.4,0,6.2-2.6,6.2-6.2
					C1655.7,132.1,1652.4,130,1649.4,130L1649.4,130z M1649.5,132.4c1.8,0,3.5,1.4,3.5,3.8c0,2.3-1.7,3.8-3.5,3.8
					c-2,0-3.5-1.6-3.5-3.8C1645.9,134,1647.5,132.4,1649.5,132.4L1649.5,132.4z"/>
				<path id="path3007_2_" class="st30" d="M1662.7,130c-3.3,0-6,2.9-6,6.2c0,3.7,3,6.2,5.9,6.2c1.8,0,2.7-0.7,3.4-1.5v1.2
					c0,2.1-1.3,3.4-3.3,3.4c-1.9,0-2.8-1.4-3.2-2.2l-2.4,1c0.8,1.8,2.5,3.7,5.6,3.7c3.3,0,5.8-2.1,5.8-6.5v-11.1h-2.6v1.1
					C1665.3,130.6,1664.2,130,1662.7,130L1662.7,130z M1663,132.4c1.6,0,3.3,1.4,3.3,3.8c0,2.4-1.7,3.8-3.3,3.8
					c-1.8,0-3.4-1.4-3.4-3.7C1659.5,133.8,1661.2,132.4,1663,132.4L1663,132.4z"/>
				<path id="path3011_2_" class="st30" d="M1680.2,130c-3.1,0-5.8,2.5-5.8,6.2c0,3.9,2.9,6.2,6.1,6.2c2.6,0,4.2-1.4,5.2-2.7
					l-2.1-1.4c-0.6,0.9-1.5,1.7-3,1.7c-1.7,0-2.5-1-3-1.9l8.3-3.4l-0.4-1C1684.6,131.6,1682.7,130,1680.2,130L1680.2,130z
					 M1680.3,132.4c1.1,0,1.9,0.6,2.3,1.3l-5.6,2.3C1676.8,134.2,1678.5,132.4,1680.3,132.4L1680.3,132.4z"/>
				<path id="path3015_2_" class="st30" d="M1670.5,142h2.7v-18.3h-2.7V142z"/>
			</g>
		</g>
		<g>
			<path class="st31" d="M1725.3,113.5h-50.6c-3,0-5.4-2.4-5.4-5.4V57.5c0-3,2.4-5.4,5.4-5.4h50.6c3,0,5.4,2.4,5.4,5.4v50.6
				C1730.7,111,1728.3,113.5,1725.3,113.5z"/>
			<path class="st30" d="M1669.3,93.4v14.7c0,3,2.4,5.4,5.4,5.4h50.6c3,0,5.4-2.4,5.4-5.4v-45l-37.3,29l-8.2-8.2
				C1685.2,83.8,1673.8,89.2,1669.3,93.4z"/>
			<g>
				<polygon class="st21" points="1669.3,88.8 1669.3,102.5 1693.3,78.4 1686.5,71.6 				"/>
				<path class="st21" d="M1693.9,78.4c0,8.1,0.1,13.6,0.1,13.6l6.8,6.8l30-30V57.9c0-0.8-0.2-1.5-0.5-2.2l-29.6,29.5L1693.9,78.4z"
					/>
				<polygon class="st21" points="1692.6,78.4 1692.6,78.4 1692.6,78.4 				"/>
			</g>
		</g>
	</g>
	<g>
		<polygon class="st32" points="340,86.7 300,60 260,86.7 		"/>
		<rect x="260" y="86.7" class="st33" width="80" height="53.3"/>
		<g>
			<rect x="269.1" y="71.5" class="st34" width="61.8" height="62.4"/>
			<polygon class="st35" points="321.6,71.5 269.1,118.6 269.1,71.5 			"/>
			<g>
				<rect x="273.4" y="80" class="st36" width="17.7" height="2.4"/>
				<rect x="273.4" y="88.1" class="st36" width="53.2" height="2.4"/>
				<rect x="273.4" y="92.1" class="st36" width="53.2" height="2.4"/>
				<rect x="273.4" y="96.1" class="st36" width="53.2" height="2.4"/>
				<rect x="273.4" y="100.2" class="st36" width="53.2" height="2.4"/>
				<rect x="273.4" y="104.2" class="st36" width="53.2" height="2.4"/>
				<rect x="273.4" y="108.3" class="st36" width="53.2" height="2.4"/>
				<rect x="273.4" y="112.3" class="st36" width="53.2" height="2.4"/>
			</g>
		</g>
		<polygon class="st32" points="340,140 260,140 260,86.7 300,113.3 340,86.7 		"/>
		<polygon class="st37" points="260,140 260,86.7 300,113.3 		"/>
		<polygon class="st38" points="340,136.4 302.2,111.8 340,140 		"/>
		<polygon class="st38" points="300,111.5 264.6,89.7 300,113.3 		"/>
		<polygon class="st39" points="340,140 300,110 260,140 		"/>
	</g>
	<g>
		<path class="st34" d="M137.2,63v74c0,1.6-1.3,3-3,3H80.9l-18-18V63c0-1.6,1.3-3,3-3h68.4C135.9,60,137.2,61.3,137.2,63z"/>
		<path class="st22" d="M78.7,121.9H62.8l18,18v-15.8C80.9,122.9,79.9,121.9,78.7,121.9z"/>
		
			<rect x="69.2" y="73.1" transform="matrix(-1 -1.224647e-16 1.224647e-16 -1 165.1552 150.4573)" class="st20" width="26.8" height="4.2"/>
		
			<rect x="69.2" y="86.5" transform="matrix(-1 -1.224647e-16 1.224647e-16 -1 200.8658 177.208)" class="st20" width="62.6" height="4.2"/>
		
			<rect x="69.2" y="99.9" transform="matrix(-1 -1.224647e-16 1.224647e-16 -1 192.4678 203.9586)" class="st20" width="54.2" height="4.2"/>
		
			<rect x="69.2" y="113.2" transform="matrix(-1 -1.224647e-16 1.224647e-16 -1 191.9954 230.7088)" class="st20" width="53.7" height="4.2"/>
	</g>
</g>
</svg>
