<svg xmlns="http://www.w3.org/2000/svg" viewBox="0 0 187.78 252.03"><defs><style>.cls-1{fill:#3476b2;}.cls-2{fill:#fff;}.cls-3{fill:#f2f2f2;}.cls-4{fill:#1e2d4d;}.cls-5{fill:#736357;}.cls-6{fill:#b27c4f;}.cls-7{fill:#534741;}.cls-8{fill:#3c5a99;}</style></defs><title>wordpress</title><g id="Layer_2" data-name="Layer 2"><g id="Graphics"><path class="cls-1" d="M187.57,74.9c-1.48-16.9-6.27-36.68-24-50.35-16.84-13-65,6.86-69.71,8.83-4.67-2-52.87-21.83-69.71-8.83C6.48,38.21,1.69,58,.21,74.9s4.43,45.67,27.29,69.41A330.12,330.12,0,0,1,73,203.87H114.8a330.14,330.14,0,0,1,45.48-59.56C183.15,120.57,189,91.8,187.57,74.9Z"/><path class="cls-2" d="M141.08,11.24c-18.78-9-42,1.16-46.89,3.49C89.31,12.4,66.07,2.28,47.3,11.24c-21.09,10.07-34.17,35.92-31,68.15,3.78,38,17.41,50.53,28,64.91,10.2,13.92,26.37,36.92,34.23,59.56h31.34c7.87-22.65,24-45.65,34.23-59.56,10.55-14.38,25.44-28.77,27.6-64.37C173.81,44.9,162.17,21.31,141.08,11.24Z"/><path class="cls-3" d="M130.3,11.6C120.21-1,98.32,3,94,3.88,89.74,3,67.85-1,57.76,11.6,46.54,25.63,36.2,59.73,39.91,86c3.6,25.53,18.77,52.15,26.25,66.53,7.31,14.05,15.16,39.08,17.61,51.29H104.3c2.44-12.21,9.94-37.24,17.25-51.29,7.48-14.39,22.37-41.72,26.25-68S141.52,25.63,130.3,11.6Z"/><path class="cls-2" d="M103.76,156.53c2.74-16.54,9.87-41.72,11.52-79.12S109.52,15.2,104.86,6.93c-3.71-6.58-9-7-11-6.92-2-.1-7.26.33-11,6.92C78.26,15.2,70.86,40,72.5,77.41S81.28,140,84,156.53c2.68,16.17,6.4,35.07,6.57,47.34H97.2C97.36,191.61,101.08,172.71,103.76,156.53Z"/><ellipse class="cls-4" cx="93.89" cy="203.52" rx="21.11" ry="2.06"/><polygon class="cls-5" points="79.25 226.53 68.88 186.35 69.69 186.09 78.78 221.31 80.23 201.05 81.07 201.12 79.25 226.53"/><polygon class="cls-5" points="86.98 226.53 76.6 186.35 77.41 186.09 86.5 221.31 87.95 201.05 88.79 201.12 86.98 226.53"/><polygon class="cls-5" points="100.82 226.53 99 201.12 99.84 201.05 101.29 221.31 110.38 186.09 111.19 186.35 100.82 226.53"/><polygon class="cls-5" points="108.54 226.53 106.72 201.12 107.56 201.05 109.01 221.31 118.1 186.09 118.92 186.35 108.54 226.53"/><path class="cls-6" d="M94.28,225.59H78.85s.64,20.09,2.15,22.75S84,252,85.3,252h17.19c1.29,0,2.79-1,4.3-3.68s2.15-22.75,2.15-22.75Z"/><rect class="cls-7" x="76.4" y="223.28" width="34.99" height="4.63"/><path class="cls-8" d="M128.23,183.2q-4-.84-8.38-1.49c-3-.43-6.08-.79-9.3-1.08q-5.2-.46-10.74-.63-2.92-.09-5.91-.09T88,180q-5.48.16-10.63.62c-3.06.27-6,.6-8.86,1-3.13.45-6.12,1-8.94,1.57,5.33,7.58,9.73,14.51,13.26,20.4,0,0,0-.05,0-.08,0-.51,1.93-1,5.11-1.34,1.54-.17,3.37-.32,5.42-.44s4.61-.21,7.2-.25l3.38,0,3.38,0c2.7,0,5.22.13,7.47.27s4.14.29,5.72.49c2.84.35,4.55.79,4.55,1.27,0,0,0,.05,0,.08C118.49,197.7,122.89,190.78,128.23,183.2Z"/><path class="cls-3" d="M65.69,192.09q1.18,1.79,2.27,3.51c7.77-1.82,29.69-5.85,51.9.21q1.08-1.69,2.24-3.46C96.93,185.08,72.47,190.34,65.69,192.09Z"/><path class="cls-1" d="M93.89,24.86A47.64,47.64,0,1,0,141.53,72.5,47.7,47.7,0,0,0,93.89,24.86Zm0,2.17A45.46,45.46,0,1,1,48.45,72.5,45.51,45.51,0,0,1,93.89,27Zm0,4.62A40.83,40.83,0,0,0,59.74,50c1,0,1.88.06,2.65.06,4.27,0,10.87-.53,10.87-.53a1.69,1.69,0,0,1,.26,3.36s-2.21.29-4.67.42L83.74,97.6l8.93-26.83L86.3,53.36c-2.21-.13-4.29-.42-4.29-.42-2.2-.13-1.94-3.49.27-3.36,0,0,6.73.53,10.75.53,4.27,0,10.9-.53,10.9-.53a1.69,1.69,0,0,1,.26,3.36s-2.21.29-4.67.42l14.77,43.92,4.08-13.64c1.76-5.66,3.12-9.7,3.12-13.2a21.54,21.54,0,0,0-3.36-11.28c-2.07-3.37-4-6.22-4-9.59A7.05,7.05,0,0,1,121,42.34l.53,0a40.7,40.7,0,0,0-27.6-10.72Zm35.85,21.23a32.4,32.4,0,0,1,.29,4.23,38.59,38.59,0,0,1-3.12,14.62l-12.48,36.08a40.9,40.9,0,0,0,15.31-54.94Zm-73.2,3a41,41,0,0,0,19.5,53.42ZM94.61,76.08,82.34,111.72a41.43,41.43,0,0,0,25.13-.66,3.75,3.75,0,0,1-.29-.57Zm0,0"/></g></g></svg>