<svg xmlns="http://www.w3.org/2000/svg" xmlns:xlink="http://www.w3.org/1999/xlink" viewBox="0 0 204 135.3"><defs><style>.cls-1{fill:url(#linear-gradient);}.cls-2{fill:#010101;}.cls-3{fill:#fff;}.cls-4{fill:#02181e;}</style><linearGradient id="linear-gradient" x1="105.3" x2="105.3" y2="62.6" gradientUnits="userSpaceOnUse"><stop offset="0" stop-color="#e33129"/><stop offset="1" stop-color="#be2428"/></linearGradient></defs><title>youtube</title><g id="Layer_2" data-name="Layer 2"><g id="Graphics"><path id="lozenge" class="cls-1" d="M149.11,13.5s-.87-6.13-3.55-8.83c-3.4-3.54-7.21-3.56-9-3.77C124.09,0,105.32,0,105.32,0h0S86.51,0,74,.9c-1.75.21-5.56.23-9,3.77-2.68,2.7-3.55,8.83-3.55,8.83a134,134,0,0,0-.89,14.4v6.75a134,134,0,0,0,.89,14.4S62.37,55.2,65,57.9c3.4,3.55,7.87,3.43,9.86,3.8,7.15.68,30.4.89,30.4.89s18.79,0,31.3-.93c1.75-.21,5.56-.23,9-3.77,2.68-2.7,3.55-8.83,3.55-8.83a134.15,134.15,0,0,0,.89-14.4V27.91A134.16,134.16,0,0,0,149.11,13.5Z"/><path id="u" class="cls-2" d="M56,50.66H50.3V47.36c-2.16,2.47-4,3.72-6,3.72a3.58,3.58,0,0,1-3.57-2.31,12,12,0,0,1-.63-4.4v-24h5.69V45c.13.84.49,1.15,1.21,1.15,1.09,0,2.07-.95,3.28-2.64V20.42H56Z"/><path id="o" class="cls-2" d="M35.93,30.3c0-3.23-.65-5.66-1.8-7.19a7.55,7.55,0,0,0-6.29-2.91,7.17,7.17,0,0,0-6.29,2.91c-1.17,1.53-1.79,4-1.79,7.21V41.07c0,3.21.56,5.43,1.72,6.95a7.93,7.93,0,0,0,6.36,3.15A8,8,0,0,0,34.25,48c1.15-1.51,1.68-3.73,1.68-6.95ZM30.24,41.67c.3,3-.63,4.48-2.4,4.48s-2.69-1.49-2.39-4.48v-12c-.3-3,.63-4.4,2.4-4.4s2.7,1.4,2.4,4.4Z"/><path id="y" class="cls-2" d="M13.47,34.19V50.66h-6V34.19S1.28,14,0,10.24H6.29L10.49,26l4.18-15.77H21Z"/><path id="e" class="cls-3" d="M142.52,36.58V30.46c0-3.2-.63-5.54-1.76-7a7.59,7.59,0,0,0-6.4-3.13,7.76,7.76,0,0,0-6.49,3.13c-1.15,1.51-1.82,4-1.82,7.18V41.07c0,3.18.74,5.4,1.89,6.9A7.76,7.76,0,0,0,134.49,51,7.5,7.5,0,0,0,141,47.8a7.72,7.72,0,0,0,1.27-3.25,34.07,34.07,0,0,0,.19-3.53v-.85h-5.69c0,2.17,0,3.47,0,3.76a2.33,2.33,0,0,1-2.42,2.17c-1.86,0-2.65-1.39-2.63-4.15V36.58Zm-10.79-7.8c0-2.8.77-3.56,2.58-3.56s2.51.83,2.51,3.6v3.27h-5.09Z"/><path id="b" class="cls-3" d="M117.39,20.24c-2,0-4,1.23-5.73,3.38V10.54h-5.39V50.66h5.39v-3c1.81,2.24,3.79,3.4,5.71,3.4a4.45,4.45,0,0,0,4.46-3.38,23,23,0,0,0,.6-6v-12a21,21,0,0,0-.73-6C121,21.48,119.55,20.24,117.39,20.24ZM116.76,42c0,3-.71,4.14-2.27,4.14a4.17,4.17,0,0,1-2.83-1.37V26.59a4.21,4.21,0,0,1,2.82-1.37c1.56,0,2.27.88,2.27,3.87Z"/><path id="u-2" data-name="u" class="cls-3" d="M101.79,50.66H96.1V47.36c-2.16,2.47-4,3.72-6,3.72a3.58,3.58,0,0,1-3.57-2.31,12,12,0,0,1-.63-4.4V20.72h5.69V45c.13.84.49,1.15,1.21,1.15,1.09,0,2.07-.95,3.28-2.64V20.72h5.69Z"/><polygon id="T" class="cls-3" points="80.24 50.66 74.25 50.66 74.25 16.23 67.96 16.23 67.96 10.54 86.82 10.54 86.82 16.23 80.24 16.23 80.24 50.66"/><path class="cls-4" d="M164.13,83.9a4.9,4.9,0,1,0-3,2.84l10.68,14.5q1.7-1.6,3.42-3.31t3.31-3.42Zm-17.88,33.51a3.67,3.67,0,0,0,1,2.5c5.75,5.75,21.83,3.46,35.06-7.29a6,6,0,0,0,1.31,2,1.32,1.32,0,0,0-.5.27l-10.39,8.76a3.47,3.47,0,0,0-1,2.45,4,4,0,0,0,.76,2.68l.46.56a1.43,1.43,0,0,0,2.17.25l8.92-7.82.8,10.83c.11,1.55,1,2.72,2,2.72h2.14c1,0,1.84-1.17,2-2.72l.8-10.83,8.92,7.82a1.43,1.43,0,0,0,2.17-.25l.46-.56a4,4,0,0,0,.76-2.68,3.47,3.47,0,0,0-1-2.45l-10.39-8.76a1.32,1.32,0,0,0-.5-.27,6,6,0,0,0-2-9.77c10.63-13.2,12.89-29.17,7.16-34.89a3.66,3.66,0,0,0-2.5-1,8.62,8.62,0,0,0-2.88.46,31.86,31.86,0,0,0-7.17,3.6,110.13,110.13,0,0,0-15.74,12.66l2.31,1.7a114.43,114.43,0,0,1,12.95-10.65c4.76-3.34,8.84-5.1,10.42-5,.44,0,.57.12.62.17s.15.18.17.62a6,6,0,0,1-.34,1.92A29.31,29.31,0,0,1,191.76,81a114.77,114.77,0,0,1-15.21,18.28,122.38,122.38,0,0,1-16.27,13.88c-4.76,3.34-8.84,5.1-10.41,5-.44,0-.57-.12-.62-.17s-.15-.18-.17-.62a5.94,5.94,0,0,1,.34-1.92,29.22,29.22,0,0,1,3.29-6.49,106.51,106.51,0,0,1,12-14.95L163,91.62a118,118,0,0,0-11.27,13.65C148.28,110.32,146.2,114.32,146.25,117.41Zm-.54-49.16A19.62,19.62,0,0,0,142.61,92a.2.2,0,0,0,.27.07l1-.57a.2.2,0,0,0,.07-.27,18.11,18.11,0,0,1,24.74-24.74.2.2,0,0,0,.27-.07l.57-1a.2.2,0,0,0-.07-.27,19.62,19.62,0,0,0-23.71,3.09Zm13.86-1a14.87,14.87,0,0,0-12.89,22.33.2.2,0,0,0,.27.07l1-.57a.2.2,0,0,0,.07-.27,13.37,13.37,0,0,1,18.26-18.26.2.2,0,0,0,.27-.07l.57-1a.2.2,0,0,0-.07-.27A14.86,14.86,0,0,0,159.57,67.22Zm0,4.71a10.16,10.16,0,0,0-8.84,15.2.2.2,0,0,0,.27.07l1-.57a.2.2,0,0,0,.07-.27,8.66,8.66,0,0,1,11.8-11.8.2.2,0,0,0,.27-.07l.57-1a.2.2,0,0,0-.07-.27A10.16,10.16,0,0,0,159.57,71.93Z"/></g></g></svg>