<svg xmlns="http://www.w3.org/2000/svg" viewBox="0 0 306.06 332.17"><defs><style>.cls-1{fill:#02181e;}.cls-2{fill:#26404c;}.cls-3{fill:#fff;}.cls-4,.cls-5{fill:#f05620;}.cls-4{fill-rule:evenodd;}.cls-6{fill:#f6981c;}</style></defs><title>analytics</title><g id="Layer_2" data-name="Layer 2"><g id="Graphics"><path class="cls-1" d="M3.3,58.91a1,1,0,0,0,1,1H7.81v2.86h9V60h55a1.95,1.95,0,0,0,.59,2.47,1.36,1.36,0,0,0,1.34,1.17h.57l5.13,49.77a3.62,3.62,0,0,0-2.68,2.92h-.9v9.2h1.35l1,2.14h.91v1.71s3,2.27,1,3.37c-1.87,1-2.88-1.09-2.88-1.09a2.27,2.27,0,0,0,1.06,2.58c2.08,1.21,5,.27,5.2-2.19a3.43,3.43,0,0,0-1.94-3.18v-1.21h.7l1.24-2.14h1.38v-9.2H84a3.62,3.62,0,0,0-2.63-2.91l6-49.83a1.35,1.35,0,0,0,1-.88,2,2,0,0,0,1.24-1.83,2,2,0,0,0-.22-.88H200.86a2.59,2.59,0,0,0,1.56.52h6.43v4.63a10.87,10.87,0,0,0-5.77,2.19c-2.11,1.58-7,11-6.54,16.89.24,3.32,1.27,5,2.14,5.85h-.26v.8h5.2v2.52h4v1.41h0v1.92h-2v4.09h.72v16.65h-3.08v.8h.5l-.1,8.94h2.68v20.47h1.23v2.25h.17V302.4h-5v4.26h-6.39v2h-5.81V312a10.11,10.11,0,1,0,9.86,7.94h32.28a10.09,10.09,0,1,0,11.29-7.83v-3.41h-7.36v-2h-6.77V302.4h-3.71V147.61h2.43V127.15h2.68l-.12-8.94h.55v-.8h-3.11V100.76h1V96.67h-2.56V93.35h4.09V77.12h-5.37V61.72H226V60.47h3.2a2.52,2.52,0,0,0,.38,0,1.58,1.58,0,0,0,.31,0h39.74a4.91,4.91,0,0,0,3.17,2.92V68.3h13.3V63.6h15.11a4.9,4.9,0,0,0,4.9-4.9V50.6H283L221.13,3.18a1.9,1.9,0,0,0,.24-.92A1.92,1.92,0,0,0,219.46.35h-.62l0-.35c-.83,0-1.67,0-2.51,0l0,.34h-1a1.91,1.91,0,0,0-1.91,1.83L102.24,44.7a2.25,2.25,0,1,0-3.83,2.37L14,48.55,6.76,57.87H4.34A1,1,0,0,0,3.3,58.91ZM75.6,63.6h.29a1.37,1.37,0,0,0,1.23-.78h6.56a1.37,1.37,0,0,0,1.23.78h1.23l-5.7,47ZM49,57.87l-4.55-8.22,11.32-.2-6.59,8.41ZM193.16,45.42,102.28,47a2.23,2.23,0,0,0,.26-.67L214,3.68a1.9,1.9,0,0,0,1.27.49h.47L208.8,55.27h-3.94Zm29,24-3.32,3.26V66.8l3.32,2.57Zm-3.32,9h1.74v4.73h-1.74Zm2.76,0h.56v4.73h-.56ZM213,65V62.31L216.44,65Zm2.28-36.28,3.88,4.71-5,3.47Zm1.37-10.14,1.47,3.27-2.31,2.88Zm.78-5.73.59,5-1-2.08Zm2.19,18.58L216,27l2.68-3.34Zm1.86,15.8-7.65-7.84,0-.28L220,34.79Zm1,8.07h-5.94l5.36-4.89Zm-10.76,0,1.88-13.87L221,49l-6.88,6.28ZM102.2,48.64l-7.42,8.19-5.59-8Zm19.41-.34-7.76,8.47-7.52-8.2ZM139.35,48l-5.83,9.08-7.45-8.85Zm15.78-.28-5.56,8.37-6.39-8.16Zm18-.32-7.82,9.19-7.16-8.93Zm16.7-.29-5.25,9.49-8-9.26Zm8,10.76H186l6.12-10.8Zm-14.58,0H166.44l8.84-9.3Zm-19.23,0H150.22l6.8-9Zm-15.39,0H135l6.35-9.25Zm-16.94,0H115l9.11-8.95Zm-19.22,0H96.19l8.11-8.95Zm-19.14,0H82.44l5.92-7.1Zm-13.11-.09-6.1-8.64,13.5-.24Zm-14.1.09,6.28-8.1,5.72,8.1ZM64,57.82,59,49.4l11.62-.2Zm-2,.05H51.41l6-7.68Zm-15,0H36.61l6-7.81Zm-12.15-.54-3.24-7.45,9.09-.16Zm-1.73.54H25.72l3.7-8h.19Zm-9.28-.56L19,50.1,27.34,50ZM231.15,52.6h9.95a.82.82,0,0,0-.06.29v2.27h-9.84V52.87A1,1,0,0,0,231.15,52.6Zm11.49,0h11.95s0,0,0,0v2.52H242.71V52.88A.82.82,0,0,0,242.65,52.6Zm26.53,4.75h-3.09V55.8h3.09Zm-5.14,0h-8.3V55.8H264Zm-9.45,0H242.71V55.8h11.88Zm1.14-4.75h8.37a1,1,0,0,0-.06.27v2.28h-8.3V52.63S255.73,52.61,255.73,52.6Zm10.3,0h3.15v2.55h-3.09V52.87A1,1,0,0,0,266,52.6Zm-34.32,4.75a2.58,2.58,0,0,0-.5-1.07V55.8H241v1.55Zm-2.55-2.08h-3.84l-6-51.09h.17l.25,0L280.29,50.6H269.18v.5H229.91a.75.75,0,0,0-.75.75.74.74,0,0,0,.18.47,1,1,0,0,0-.18.55v2.4Zm-7,6.45V67.4l-7.34-5.68Zm0,15.41h-3.32V74.85l3.32-3.26Zm8.06,6h-3.82V78.4h3.82Zm-21,19.26h6.89l-6,6.2h-.86Zm9,0h7.62v6.2H212.21Zm7.62,15h-6l-9.64-6.79.69-.71h14.94Zm-6.9,8h-3v-6.32h3Zm4.5-2.06v-1.53l.83.58Zm2.41-1.75-2.41-1.7v-.81h2.41Zm-4.2,3.81h-1.89v-6.18l2.86,2v3Zm.64-6.32h.34v.24Zm3.56,6.32h-2.19l2.19-2.51Zm-13.54,0v-6.32h2.86v6.32Zm-3.11-6.32h2.29v6.32h-2.29Zm19.44,6.32v-6.32h1.74v6.32Zm-2.79,3.41v5.94H215.53l5.18-5.94Zm-16,153.64,7,7.54h-7Zm2.18-90.2h12.13V204.7h-1.41l-11.64-11.38Zm-2.18,1.95,10.71,10.47H209.87Zm14.31,43-2.35-2.27h2.35Zm-4.2-4.07-9-8.73,2.77-3.69h10.44v12.42Zm-4.89-14.22,9.09-12.1v12.1Zm-1.46-28.44,10.56-12v12Zm10.56,74.08-1.27-1.18h1.27Zm-3.19-3-9.75-9.09,3.38-3.33h9.57v12.42Zm-4.55-14.22,7.75-7.64v7.64Zm7.75,28.44h-8l8-8.68Zm0,21L224,296l-3.81-4.22h4Zm-5.57-6.8-7.71-8.56,3.58-3.86h9.71V290Zm-8.74-12.42h2.52l-2.52,2.7Zm0-14.22h10.8l2.69,2.46-9.3,10h-4.2Zm0-9.89,8.84,8.09h-8.84Zm0-4.33h2.48l-2.48,2.41Zm0-14.22h9.82l3.67,3.52-9.16,8.91h-4.32Zm0-9.41,7.94,7.62h-7.94Zm0-4.81h1.9l-1.9,2.49Zm0-14.22h12.55l.11.11-9.39,12.32h-3.27Zm0-14.22H210l-.16.18Zm0-14.22h12.59l0,0-10.88,12.4h-1.73Zm0-1.8V164.72l10.9,11.54Zm1.32-12.42h13v12.42h-1.31l-11.71-12.4ZM213,162l11.15-10.89V162Zm-3.81-25.55H212l-2.74,3.15,6.36,4.71h-6.43Zm4.82,0h11.83v7.85h-7.59l-6.74-5ZM209.87,302.4V291.82h8.73l5.58,6v4.62Zm0-152.54h13.22l.12.09L210.83,162h-1Zm-.66-21h9.47l-5.18,5.94h-4.3Zm-4.55-9.73h1.76v6.32h-1.76Zm4.55-1.71v-5.59l7.94,5.59Zm-9.39-59.63-3.95-7.94,6.46,5.44A2.59,2.59,0,0,0,199.82,57.78Zm-191,.09,6-7.7,1.89,0C18,51.93,20.56,55.88,22,57.87Z"/><polygon class="cls-2" points="44.17 130.28 44.17 123.46 50.1 123.46 50.1 117.53 32.31 117.53 32.31 123.46 38.24 123.46 38.24 130.28 0 130.28 0 222.87 159.49 222.87 159.49 130.28 121.25 130.28 121.25 123.46 127.17 123.46 127.17 117.53 109.39 117.53 109.39 123.46 115.32 123.46 115.32 130.28 44.17 130.28"/><rect class="cls-3" x="5.93" y="136.21" width="147.63" height="79.63"/><path class="cls-4" d="M73.21,192l5-13.06h1.86L85.43,192h-2l-1.52-4H76.48L75,192ZM77,186.6h4.42L80,183q-.62-1.65-.92-2.71a16.72,16.72,0,0,1-.7,2.49ZM86.61,192V182.5h1.44v1.34a3.4,3.4,0,0,1,3-1.56,3.94,3.94,0,0,1,1.57.31,2.46,2.46,0,0,1,1.07.81,3.1,3.1,0,0,1,.5,1.18,9.37,9.37,0,0,1,.09,1.56V192h-1.6V186.2a4.33,4.33,0,0,0-.19-1.46,1.55,1.55,0,0,0-.66-.77,2.11,2.11,0,0,0-1.12-.29,2.6,2.6,0,0,0-1.77.65,3.21,3.21,0,0,0-.74,2.47V192Zm16.31-1.17a6,6,0,0,1-1.72,1.07,4.94,4.94,0,0,1-1.77.31,3.44,3.44,0,0,1-2.4-.76,2.51,2.51,0,0,1-.84-1.95,2.57,2.57,0,0,1,.32-1.27,2.61,2.61,0,0,1,.83-.92,3.9,3.9,0,0,1,1.15-.53,11.55,11.55,0,0,1,1.42-.24,14.72,14.72,0,0,0,2.86-.55c0-.22,0-.36,0-.42a1.76,1.76,0,0,0-.45-1.38,2.68,2.68,0,0,0-1.83-.54,2.83,2.83,0,0,0-1.67.4,2.41,2.41,0,0,0-.8,1.4l-1.57-.21a3.91,3.91,0,0,1,.7-1.62,3.08,3.08,0,0,1,1.42-1,6.29,6.29,0,0,1,2.15-.33,5.67,5.67,0,0,1,2,.29,2.61,2.61,0,0,1,1.11.72,2.55,2.55,0,0,1,.5,1.09,9.22,9.22,0,0,1,.08,1.48V188a22.75,22.75,0,0,0,.1,2.83,3.6,3.6,0,0,0,.4,1.14h-1.67A3.37,3.37,0,0,1,102.92,190.79Zm-.13-3.58a11.79,11.79,0,0,1-2.62.61,6,6,0,0,0-1.4.32,1.4,1.4,0,0,0-.63.52,1.42,1.42,0,0,0,.26,1.83,2.1,2.1,0,0,0,1.42.43,3.3,3.3,0,0,0,1.65-.41,2.49,2.49,0,0,0,1.06-1.11,3.87,3.87,0,0,0,.26-1.6Zm4.07,4.75V178.9h1.6V192Zm4,3.64-.18-1.5a3.57,3.57,0,0,0,.92.14,1.76,1.76,0,0,0,.85-.18,1.44,1.44,0,0,0,.52-.5,7.79,7.79,0,0,0,.49-1.19l.14-.39L110,182.5h1.73l2,5.48q.38,1,.68,2.19a21.48,21.48,0,0,1,.66-2.16l2-5.51h1.6l-3.6,9.62a19.36,19.36,0,0,1-.9,2.15,3.17,3.17,0,0,1-1,1.16,2.31,2.31,0,0,1-1.32.37A3.23,3.23,0,0,1,110.87,195.6Zm12.69-5.08.23,1.42a6,6,0,0,1-1.21.14,2.75,2.75,0,0,1-1.35-.28,1.54,1.54,0,0,1-.68-.73,5.75,5.75,0,0,1-.2-1.89v-5.44h-1.17V182.5h1.17v-2.34l1.6-1v3.3h1.61v1.25H122v5.53a2.81,2.81,0,0,0,.08.88.66.66,0,0,0,.28.31,1.07,1.07,0,0,0,.55.12A5.11,5.11,0,0,0,123.56,190.52Zm1.58-9.78V178.9h1.6v1.84Zm0,11.21V182.5h1.6V192Zm10.21-3.46,1.57.21a4.08,4.08,0,0,1-1.32,2.55,3.84,3.84,0,0,1-2.61.92,4.06,4.06,0,0,1-3.12-1.27,5.15,5.15,0,0,1-1.18-3.64,6.59,6.59,0,0,1,.51-2.68,3.54,3.54,0,0,1,1.54-1.72,4.57,4.57,0,0,1,2.26-.57,3.92,3.92,0,0,1,2.52.78,3.57,3.57,0,0,1,1.26,2.21l-1.56.24a2.59,2.59,0,0,0-.79-1.43,2,2,0,0,0-1.37-.48,2.49,2.49,0,0,0-2,.87,4.11,4.11,0,0,0-.76,2.75,4.26,4.26,0,0,0,.73,2.77,2.38,2.38,0,0,0,1.91.86,2.24,2.24,0,0,0,1.58-.58A2.88,2.88,0,0,0,135.36,188.49Zm2.31.64,1.59-.25a2.21,2.21,0,0,0,.74,1.46,2.59,2.59,0,0,0,1.71.51,2.5,2.5,0,0,0,1.64-.45,1.34,1.34,0,0,0,.53-1.06,1,1,0,0,0-.47-.85,7,7,0,0,0-1.64-.54,14.85,14.85,0,0,1-2.44-.77,2.36,2.36,0,0,1-1-.9,2.39,2.39,0,0,1-.35-1.27,2.42,2.42,0,0,1,.29-1.17,2.56,2.56,0,0,1,.79-.89,3.29,3.29,0,0,1,1-.47,4.87,4.87,0,0,1,1.38-.19,5.49,5.49,0,0,1,2,.32,2.65,2.65,0,0,1,1.24.87,3.37,3.37,0,0,1,.55,1.46l-1.57.21A1.71,1.71,0,0,0,143,184a2.27,2.27,0,0,0-1.45-.41A2.62,2.62,0,0,0,140,184a1.06,1.06,0,0,0-.47.85.89.89,0,0,0,.2.56,1.41,1.41,0,0,0,.61.43q.24.09,1.42.41a19.65,19.65,0,0,1,2.37.74,2.41,2.41,0,0,1,1.05.84,2.36,2.36,0,0,1,.38,1.37,2.7,2.7,0,0,1-.47,1.51,3,3,0,0,1-1.35,1.09,4.9,4.9,0,0,1-2,.39,4.44,4.44,0,0,1-2.81-.77A3.56,3.56,0,0,1,137.66,189.13Z"/><path id="path2998" class="cls-5" d="M94.83,162.87H88.16v2h4.73c-.23,2.78-2.54,4-4.72,4a5.29,5.29,0,0,1,0-10.58,5.14,5.14,0,0,1,3.57,1.43l1.39-1.44a7,7,0,0,0-5-2,7.27,7.27,0,1,0,.11,14.55A6.4,6.4,0,0,0,95,164.18a5.94,5.94,0,0,0-.12-1.31Z"/><path id="path3000" class="cls-5" d="M100.3,161.44a4.67,4.67,0,1,0,4.69,4.69,4.62,4.62,0,0,0-4.69-4.69Zm0,1.84a2.84,2.84,0,1,1-2.68,2.83,2.69,2.69,0,0,1,2.68-2.83Z"/><path id="path3005" class="cls-5" d="M110.52,161.44a4.67,4.67,0,1,0,4.69,4.69,4.62,4.62,0,0,0-4.69-4.69Zm0,1.84a2.84,2.84,0,1,1-2.68,2.83,2.69,2.69,0,0,1,2.68-2.83Z"/><path id="path3007" class="cls-5" d="M120.55,161.44a4.68,4.68,0,0,0,0,9.35,3.09,3.09,0,0,0,2.56-1.14v.92a2.35,2.35,0,0,1-2.46,2.58,2.59,2.59,0,0,1-2.39-1.66l-1.8.75a4.5,4.5,0,0,0,4.2,2.75c2.5,0,4.4-1.57,4.4-4.87v-8.4h-2v.79a3.31,3.31,0,0,0-2.52-1.07Zm.18,1.83a2.64,2.64,0,0,1,2.5,2.85A2.61,2.61,0,0,1,120.7,169a2.66,2.66,0,0,1-2.59-2.82,2.69,2.69,0,0,1,2.61-2.87Z"/><path id="path3011" class="cls-5" d="M133.74,161.43a4.42,4.42,0,0,0-4.36,4.67,4.52,4.52,0,0,0,4.59,4.69,4.74,4.74,0,0,0,3.92-2.05l-1.62-1.08a2.62,2.62,0,0,1-2.29,1.29,2.4,2.4,0,0,1-2.29-1.42l6.27-2.6-.33-.76a4.23,4.23,0,0,0-3.89-2.74Zm.08,1.8a1.86,1.86,0,0,1,1.73,1L131.37,166a2.6,2.6,0,0,1,2.46-2.75Z"/><path id="path3015" class="cls-5" d="M126.39,170.51h2.06V156.73h-2.06Z"/><rect class="cls-6" x="13.97" y="152.85" width="46.34" height="46.34" rx="4.09" ry="4.09"/><path class="cls-5" d="M14,184V195.1a4.1,4.1,0,0,0,4.09,4.09H56.22a4.1,4.1,0,0,0,4.09-4.09V161.19L32.17,183l-6.22-6.22S17.35,180.9,14,184Z"/><polygon class="cls-3" points="13.97 180.54 13.97 190.91 32.12 172.77 26.93 167.58 13.97 180.54"/><path class="cls-3" d="M32.51,172.76c0,6.1,0,10.27,0,10.27l5.11,5.11,22.65-22.65v-8.19a4,4,0,0,0-.37-1.67L37.66,177.91Z"/><polygon class="cls-3" points="31.58 172.77 31.58 172.77 31.58 172.77 31.58 172.77"/></g></g></svg>