<svg viewBox="0 0 306.06 332.17" xmlns="http://www.w3.org/2000/svg"><path d="m3.3 58.91a1 1 0 0 0 1 1h3.51v2.86h9v-2.77h55a1.95 1.95 0 0 0  .59 2.47 1.36 1.36 0 0 0  1.34 1.17h.57l5.13 49.77a3.62 3.62 0 0 0 -2.68 2.92h-.9v9.2h1.35l1 2.14h.91v1.71s3 2.27 1 3.37c-1.87 1-2.88-1.09-2.88-1.09a2.27 2.27 0 0 0 1.06 2.58c2.08 1.21 5 .27 5.2-2.19a3.43 3.43 0 0 0 -1.94-3.18v-1.21h.7l1.24-2.14h1.38v-9.2h-.88a3.62 3.62 0 0 0 -2.63-2.91l6-49.83a1.35 1.35 0 0 0 1-.88 2 2 0 0 0  1.24-1.83 2 2 0 0 0 -.22-.88h111.47a2.59 2.59 0 0 0 1.56.52h6.43v4.63a10.87 10.87 0 0 0 -5.77 2.19c-2.11 1.58-7 11-6.54 16.89.24 3.32 1.27 5 2.14 5.85h-.26v.8h5.2v2.52h4v1.41h0v1.92h-2v4.09h.72v16.65h-3.08v.8h.5l-.1 8.94h2.68v20.47h1.23v2.25h.17v152.48h-5v4.26h-6.39v2h-5.81v3.34a10.11 10.11 0 1 0 9.86 7.94h32.28a10.09 10.09 0 1 0 11.29-7.83v-3.41h-7.36v-2h-6.77v-4.3h-3.71v-154.79h2.43v-20.46h2.68l-.12-8.94h.55v-.8h-3.11v-16.65h1v-4.09h-2.56v-3.32h4.09v-16.23h-5.37v-15.4h.28v-1.25h3.2a2.52 2.52 0 0 0  .38 0 1.58 1.58 0 0 0  .31 0h39.74a4.91 4.91 0 0 0 3.17 2.92v4.91h13.3v-4.7h15.11a4.9 4.9 0 0 0 4.9-4.9v-8.1h-23.11l-61.87-47.42a1.9 1.9 0 0 0  .24-.92 1.92 1.92 0 0 0 -1.91-1.91h-.62v-.35c-.83 0-1.67 0-2.51 0v .34h-1a1.91 1.91 0 0 0 -1.91 1.83l-111.18 42.53a2.25 2.25 0 1 0 -3.83 2.37l-84.41 1.48-7.24 9.32h-2.42a1 1 0 0 0 -1.04 1.04zm72.3 4.69h.29a1.37 1.37 0 0 0 1.23-.78h6.56a1.37 1.37 0 0 0 1.23.78h1.23l-5.7 47zm-26.6-5.73l-4.55-8.22 11.32-.2-6.59 8.41zm144.16-12.45l-90.88 1.58a2.23 2.23 0 0 0  .26-.67l111.46-42.65a1.9 1.9 0 0 0 1.27.49h.47l-6.94 51.1h-3.94zm29 24l-3.32 3.26v-5.88l3.32 2.57zm-3.32 9h1.74v4.73h-1.74zm2.76 0h .56v4.73h-.56zm-8.6-13.42v-2.69l3.44 2.69zm2.28-36.28l3.88 4.71-5 3.47zm1.37-10.14l1.47 3.27-2.31 2.88zm.78-5.73l.59 5-1-2.08zm2.19 18.58l-3.62-4.43 2.68-3.34zm1.86 15.8l-7.65-7.84v-.28l6.17-4.32zm1 8.07h-5.94l5.36-4.89zm-10.76 0l1.88-13.87 7.4 7.57-6.88 6.28zm-109.52-6.66l-7.42 8.19-5.59-8zm19.41-.34l-7.76 8.47-7.52-8.2zm17.74-.3l-5.83 9.08-7.45-8.85zm15.78-.28l-5.56 8.37-6.39-8.16zm18-.32l-7.82 9.19-7.16-8.93zm16.7-.29l-5.25 9.49-8-9.26zm8 10.76h-11.83l6.12-10.8zm-14.58 0h-16.81l8.84-9.3zm-19.23 0h-13.8l6.8-9zm-15.39 0h-13.63l6.35-9.25zm-16.94 0h-16.69l9.11-8.95zm-19.22 0h-16.28l8.11-8.95zm-19.14 0h-10.89l5.92-7.1zm-13.11-.09l-6.1-8.64 13.5-.24zm-14.1.09l6.28-8.1 5.72 8.1zm-2.12-.05l-5-8.42 11.62-.2zm-2 .05h-10.59l6-7.68zm-15 0h-10.39l6-7.81zm-12.15-.54l-3.24-7.45 9.09-.16zm-1.73.54h-7.4l3.7-8h .19zm-9.28-.56l-4.84-7.21 8.34-.1zm207.31-4.71h9.95a.82.82 0 0 0 -.06.29v2.27h-9.84v-2.29a1 1 0 0 0 -.05-.27zm11.49 0h11.95s0 0 0 0v2.52h-11.88v-2.24a.82.82 0 0 0 -.06-.28zm26.53 4.75h-3.09v-1.55h3.09zm-5.14 0h-8.3v-1.55h8.27zm-9.45 0h-11.87v-1.55h11.88zm1.14-4.75h8.37a1 1 0 0 0 -.06.27v2.28h-8.3v-2.52s0-.02 0-.03zm10.3 0h3.15v2.55h-3.09v-2.28a1 1 0 0 0 -.08-.27zm-34.32 4.75a2.58 2.58 0 0 0 -.5-1.07v-.48h9.8v1.55zm-2.55-2.08h-3.84l-6-51.09h.17.25l60.56 46.42h-11.11v.5h-39.27a.75.75 0 0 0 -.75.75.74.74 0 0 0  .18.47 1 1 0 0 0 -.18.55v2.4zm-7 6.45v5.68l-7.34-5.68zm0 15.41h-3.32v-2.28l3.32-3.26zm8.06 6h-3.82v-4.73h3.82zm-21 19.26h6.89l-6 6.2h-.86zm9 0h7.62v6.2h-13.62zm7.62 15h-6l-9.64-6.79.69-.71h14.94zm-6.9 8h-3v-6.32h3zm4.5-2.06v-1.53l.83.58zm2.41-1.75l-2.41-1.7v-.81h2.41zm-4.2 3.81h-1.89v-6.18l2.86 2v3zm .64-6.32h.34v.24zm3.56 6.32h-2.19l2.19-2.51zm-13.54 0v-6.32h2.86v6.32zm-3.11-6.32h2.29v6.32h-2.29zm19.44 6.32v-6.32h1.74v6.32zm-2.79 3.41v5.94h-10.31l5.18-5.94zm-16 153.64l7 7.54h-7zm2.18-90.2h12.13v12.46h-1.41l-11.64-11.38zm-2.18 1.95l10.71 10.47h-10.68zm14.31 43l-2.35-2.27h2.35zm-4.2-4.07l-9-8.73 2.77-3.69h10.44v12.42zm-4.89-14.22l9.09-12.1v12.1zm-1.46-28.44l10.56-12v12zm10.56 74.08l-1.27-1.18h1.27zm-3.19-3l-9.75-9.09 3.38-3.33h9.57v12.42zm-4.55-14.22l7.75-7.64v7.64zm7.75 28.44h-8l8-8.68zm0 21l-.17-.76-3.81-4.22h4zm-5.57-6.8l-7.71-8.56 3.58-3.86h9.71v12.46zm-8.74-12.42h2.52l-2.52 2.7zm0-14.22h10.8l2.69 2.46-9.3 10h-4.2zm0-9.89l8.84 8.09h-8.84zm0-4.33h2.48l-2.48 2.41zm0-14.22h9.82l3.67 3.52-9.16 8.91h-4.32zm0-9.41l7.94 7.62h-7.94zm0-4.81h1.9l-1.9 2.49zm0-14.22h12.55l.11.11-9.39 12.32h-3.27zm0-14.22h.14l-.16.18zm0-14.22h12.59l0 0-10.88 12.4h-1.73zm0-1.8v-11.48l10.9 11.54zm1.32-12.42h13v12.42h-1.31l-11.71-12.4zm1.82-1.78l11.15-10.89v10.89zm-3.81-25.55h2.81l-2.74 3.15 6.36 4.71h-6.43zm4.82 0h11.83v7.85h-7.59l-6.74-5zm-4.14 165.95v-10.58h8.73l5.58 6v4.62zm0-152.54h13.22l.12.09-12.38 12.05h-1zm-.66-21h9.47l-5.18 5.94h-4.3zm-4.55-9.73h1.76v6.32h-1.76zm4.55-1.71v-5.59l7.94 5.59zm-9.39-59.63l-3.95-7.94 6.46 5.44a2.59 2.59 0 0 0 -2.51 2.49zm-191 .09l6-7.7h1.89c1.29 1.75 3.85 5.7 5.29 7.69z" fill="#02181e"/><path d="m44.17 130.28v-6.82h5.93v-5.93h-17.79v5.93h5.93v6.82h-38.24v92.59h159.49v-92.59h-38.24v-6.82h5.92v-5.93h-17.78v5.93h5.93v6.82z" fill="#26404c"/><path d="m5.93 136.21h147.63v79.63h-147.63z" fill="#fff"/><path d="m73.21 192l5-13.06h1.86l5.36 13.06h-2l-1.52-4h-5.43l-1.48 4zm3.79-5.4h4.42l-1.42-3.6q-.62-1.65-.92-2.71a16.72 16.72 0 0 1 -.7 2.49zm9.61 5.4v-9.5h1.44v1.34a3.4 3.4 0 0 1 3-1.56 3.94 3.94 0 0 1  1.57.31 2.46 2.46 0 0 1  1.07.81 3.1 3.1 0 0 1  .5 1.18 9.37 9.37 0 0 1  .09 1.56v5.86h-1.6v-5.8a4.33 4.33 0 0 0 -.19-1.46 1.55 1.55 0 0 0 -.66-.77 2.11 2.11 0 0 0 -1.12-.29 2.6 2.6 0 0 0 -1.77.65 3.21 3.21 0 0 0 -.74 2.47v5.2zm16.31-1.17a6 6 0 0 1 -1.72 1.07 4.94 4.94 0 0 1 -1.77.31 3.44 3.44 0 0 1 -2.4-.76 2.51 2.51 0 0 1 -.84-1.95 2.57 2.57 0 0 1  .32-1.27 2.61 2.61 0 0 1  .83-.92 3.9 3.9 0 0 1  1.15-.53 11.55 11.55 0 0 1  1.42-.24 14.72 14.72 0 0 0  2.86-.55c0-.22 0-.36 0-.42a1.76 1.76 0 0 0 -.45-1.38 2.68 2.68 0 0 0 -1.83-.54 2.83 2.83 0 0 0 -1.67.4 2.41 2.41 0 0 0 -.8 1.4l-1.57-.21a3.91 3.91 0 0 1  .7-1.62 3.08 3.08 0 0 1  1.42-1 6.29 6.29 0 0 1  2.15-.33 5.67 5.67 0 0 1  2 .29 2.61 2.61 0 0 1  1.11.72 2.55 2.55 0 0 1  .5 1.09 9.22 9.22 0 0 1  .08 1.48v2.13a22.75 22.75 0 0 0  .1 2.83 3.6 3.6 0 0 0  .4 1.14h-1.67a3.37 3.37 0 0 1 -.32-1.18zm-.13-3.58a11.79 11.79 0 0 1 -2.62.61 6 6 0 0 0 -1.4.32 1.4 1.4 0 0 0 -.63.52 1.42 1.42 0 0 0  .26 1.83 2.1 2.1 0 0 0  1.42.43 3.3 3.3 0 0 0  1.65-.41 2.49 2.49 0 0 0  1.06-1.11 3.87 3.87 0 0 0  .26-1.6zm4.07 4.75v-13.1h1.6v13.1zm4 3.64l-.18-1.5a3.57 3.57 0 0 0  .92.14 1.76 1.76 0 0 0  .85-.18 1.44 1.44 0 0 0  .52-.5 7.79 7.79 0 0 0  .49-1.19l.14-.39-3.6-9.52h1.73l2 5.48q.38 1 .68 2.19a21.48 21.48 0 0 1  .66-2.16l2-5.51h1.6l-3.6 9.62a19.36 19.36 0 0 1 -.9 2.15 3.17 3.17 0 0 1 -1 1.16 2.31 2.31 0 0 1 -1.32.37 3.23 3.23 0 0 1 -.98-.2zm12.69-5.08l.23 1.42a6 6 0 0 1 -1.21.14 2.75 2.75 0 0 1 -1.35-.28 1.54 1.54 0 0 1 -.68-.73 5.75 5.75 0 0 1 -.2-1.89v-5.44h-1.17v-1.28h1.17v-2.34l1.6-1v3.3h1.61v1.25h-1.55v5.53a2.81 2.81 0 0 0  .08.88.66.66 0 0 0  .28.31 1.07 1.07 0 0 0  .55.12 5.11 5.11 0 0 0  .65-.03zm1.58-9.78v-1.88h1.6v1.84zm0 11.21v-9.49h1.6v9.5zm10.21-3.46l1.57.21a4.08 4.08 0 0 1 -1.32 2.55 3.84 3.84 0 0 1 -2.61.92 4.06 4.06 0 0 1 -3.12-1.27 5.15 5.15 0 0 1 -1.18-3.64 6.59 6.59 0 0 1  .51-2.68 3.54 3.54 0 0 1  1.54-1.72 4.57 4.57 0 0 1  2.26-.57 3.92 3.92 0 0 1  2.52.78 3.57 3.57 0 0 1  1.26 2.21l-1.56.24a2.59 2.59 0 0 0 -.79-1.43 2 2 0 0 0 -1.37-.48 2.49 2.49 0 0 0 -2 .87 4.11 4.11 0 0 0 -.76 2.75 4.26 4.26 0 0 0  .73 2.77 2.38 2.38 0 0 0  1.91.86 2.24 2.24 0 0 0  1.58-.58 2.88 2.88 0 0 0  .85-1.83zm2.31.64l1.59-.25a2.21 2.21 0 0 0  .74 1.46 2.59 2.59 0 0 0  1.71.51 2.5 2.5 0 0 0  1.64-.45 1.34 1.34 0 0 0  .53-1.06 1 1 0 0 0 -.47-.85 7 7 0 0 0 -1.64-.54 14.85 14.85 0 0 1 -2.44-.77 2.36 2.36 0 0 1 -1-.9 2.39 2.39 0 0 1 -.35-1.27 2.42 2.42 0 0 1  .29-1.17 2.56 2.56 0 0 1  .79-.89 3.29 3.29 0 0 1  1-.47 4.87 4.87 0 0 1  1.38-.19 5.49 5.49 0 0 1  2 .32 2.65 2.65 0 0 1  1.24.87 3.37 3.37 0 0 1  .55 1.46l-1.57.21a1.71 1.71 0 0 0 -.64-1.19 2.27 2.27 0 0 0 -1.45-.41 2.62 2.62 0 0 0 -1.55.41 1.06 1.06 0 0 0 -.47.85.89.89 0 0 0  .2.56 1.41 1.41 0 0 0  .61.43q.24.09 1.42.41a19.65 19.65 0 0 1 2.37.74 2.41 2.41 0 0 1  1.05.84 2.36 2.36 0 0 1  .38 1.37 2.7 2.7 0 0 1 -.47 1.51 3 3 0 0 1 -1.35 1.09 4.9 4.9 0 0 1 -2 .39 4.44 4.44 0 0 1 -2.81-.77 3.56 3.56 0 0 1 -1.27-2.29z" fill="#f05620" fill-rule="evenodd"/><path id="path2998" d="m94.83 162.87h-6.67v2h4.73c-.23 2.78-2.54 4-4.72 4a5.29 5.29 0 0 1 0-10.58 5.14 5.14 0 0 1  3.57 1.43l1.39-1.44a7 7 0 0 0 -5-2 7.27 7.27 0 1 0  .11 14.55 6.4 6.4 0 0 0  6.76-6.65 5.94 5.94 0 0 0 -.12-1.31z" fill="#f05620"/><path id="path3000" d="m100.3 161.44a4.67 4.67 0 1 0 4.69 4.69 4.62 4.62 0 0 0 -4.69-4.69zm0 1.84a2.84 2.84 0 1 1 -2.68 2.83 2.69 2.69 0 0 1  2.68-2.83z" fill="#f05620"/><path id="path3005" d="m110.52 161.44a4.67 4.67 0 1 0 4.69 4.69 4.62 4.62 0 0 0 -4.69-4.69zm0 1.84a2.84 2.84 0 1 1 -2.68 2.83 2.69 2.69 0 0 1  2.68-2.83z" fill="#f05620"/><path id="path3007" d="m120.55 161.44a4.68 4.68 0 0 0 0 9.35 3.09 3.09 0 0 0  2.56-1.14v.92a2.35 2.35 0 0 1 -2.46 2.58 2.59 2.59 0 0 1 -2.39-1.66l-1.8.75a4.5 4.5 0 0 0 4.2 2.75c2.5 0 4.4-1.57 4.4-4.87v-8.4h-2v .79a3.31 3.31 0 0 0 -2.52-1.07zm.18 1.83a2.64 2.64 0 0 1 2.5 2.85 2.61 2.61 0 0 1 -2.53 2.88 2.66 2.66 0 0 1 -2.59-2.82 2.69 2.69 0 0 1  2.61-2.87z" fill="#f05620"/><path id="path3011" d="m133.74 161.43a4.42 4.42 0 0 0 -4.36 4.67 4.52 4.52 0 0 0  4.59 4.69 4.74 4.74 0 0 0  3.92-2.05l-1.62-1.08a2.62 2.62 0 0 1 -2.29 1.29 2.4 2.4 0 0 1 -2.29-1.42l6.27-2.6-.33-.76a4.23 4.23 0 0 0 -3.89-2.74zm.08 1.8a1.86 1.86 0 0 1 1.73 1l-4.18 1.77a2.6 2.6 0 0 1 2.46-2.75z" fill="#f05620"/><path id="path3015" d="m126.39 170.51h2.06v-13.78h-2.06z" fill="#f05620"/><rect fill="#f6981c" height="46.34" rx="4.09" width="46.34" x="13.97" y="152.85"/><path d="m14 184v11.1a4.1 4.1 0 0 0 4.09 4.09h38.13a4.1 4.1 0 0 0 4.09-4.09v-33.91l-28.14 21.81-6.22-6.22s-8.6 4.12-11.95 7.22z" fill="#f05620"/><path d="m13.97 180.54v10.37l18.15-18.14-5.19-5.19z" fill="#fff"/><path d="m32.51 172.76c0 6.1 0 10.27 0 10.27l5.11 5.11 22.65-22.65v-8.19a4 4 0 0 0 -.37-1.67l-22.24 22.28z" fill="#fff"/><path d="" fill="#fff"/></svg>