<svg xmlns="http://www.w3.org/2000/svg" viewBox="0 0 205.49 198.22"><defs><style>.cls-1{fill:#26404c;}.cls-2{fill:#f18421;}.cls-3{fill:#fff;}</style></defs><title>outbrain</title><g id="Layer_2" data-name="Layer 2"><g id="Graphics"><path class="cls-1" d="M156.22,16.42V7.64h7.64V0H140.94V7.64h7.64v8.78h-42V7.64h7.64V0H91.28V7.64h7.64v8.78h-42V7.64h7.64V0H41.63V7.64h7.64v8.78H0V135.72H95.1v47.23H79.8a6.4,6.4,0,0,0-6.4,6.4v8.88h58.7v-8.88a6.4,6.4,0,0,0-6.4-6.4H110.38V135.72h95.1V16.42Z"/><rect class="cls-2" x="7.64" y="24.06" width="190.21" height="100.83"/><path class="cls-3" d="M51.32,70.7A2,2,0,0,1,52,69a3,3,0,0,1,1.9-.53,4.86,4.86,0,0,1,1.4.19l.85.28V80a6.33,6.33,0,0,0,1.35,4.38,5.31,5.31,0,0,0,4.15,1.5,5.31,5.31,0,0,0,4.14-1.5A6.33,6.33,0,0,0,67.14,80V70.7A2,2,0,0,1,67.81,69a3,3,0,0,1,1.86-.53,5,5,0,0,1,1.44.19q.64.19.85.28V81.1A9.68,9.68,0,0,1,71.22,85a7.91,7.91,0,0,1-2.11,2.9,9.32,9.32,0,0,1-3.28,1.8,14.62,14.62,0,0,1-8.37,0,9.09,9.09,0,0,1-3.26-1.8A8.21,8.21,0,0,1,52.08,85a9.44,9.44,0,0,1-.76-3.87Z"/><path class="cls-3" d="M75.76,64.69A2,2,0,0,1,76.44,63a3,3,0,0,1,1.86-.53,5,5,0,0,1,1.42.19q.66.19.87.27v5.54h6.13a2.73,2.73,0,0,1,2,.57,2.27,2.27,0,0,1,.57,1.67A4,4,0,0,1,89,72a8.15,8.15,0,0,1-.34.87H80.58v9.43a4.62,4.62,0,0,0,.3,1.8,2.8,2.8,0,0,0,.82,1.12,3.1,3.1,0,0,0,1.23.59,6.22,6.22,0,0,0,1.46.17,6.68,6.68,0,0,0,2.28-.38,6.47,6.47,0,0,0,1.52-.72l1.95,3.21q-.34.25-1,.63a8.72,8.72,0,0,1-1.5.72,13.33,13.33,0,0,1-2,.57,11.7,11.7,0,0,1-2.41.23,7.58,7.58,0,0,1-5.63-1.92,6.86,6.86,0,0,1-1.9-5.05Z"/><path class="cls-3" d="M92.13,60.76a2.05,2.05,0,0,1,.68-1.69,2.94,2.94,0,0,1,1.9-.55,4.84,4.84,0,0,1,1.4.19l.85.28V71.12a8.58,8.58,0,0,1,2.92-2.3,9.24,9.24,0,0,1,4.27-1,11,11,0,0,1,4.29.83A10.26,10.26,0,0,1,111.86,71a10.81,10.81,0,0,1,2.28,3.55,11.94,11.94,0,0,1,.83,4.5,11.76,11.76,0,0,1-.85,4.48,10.38,10.38,0,0,1-2.37,3.55,11.06,11.06,0,0,1-3.62,2.33,12.15,12.15,0,0,1-4.59.85A13.33,13.33,0,0,1,99,89.51a9.75,9.75,0,0,1-3.62-2.28A10.37,10.37,0,0,1,93,83.42a15.41,15.41,0,0,1-.85-5.37Zm11.33,25.16a6.51,6.51,0,0,0,2.64-.53A6.36,6.36,0,0,0,108.18,84a6.25,6.25,0,0,0,1.33-2.16,7.76,7.76,0,0,0,.46-2.73,8,8,0,0,0-.46-2.75,6.21,6.21,0,0,0-1.33-2.18,6.38,6.38,0,0,0-2.07-1.44,6.51,6.51,0,0,0-2.64-.53,6.61,6.61,0,0,0-2.69.53,6,6,0,0,0-2.05,1.46,6.94,6.94,0,0,0-1.33,2.2,7.52,7.52,0,0,0-.49,2.71,7.75,7.75,0,0,0,.49,2.79,6.08,6.08,0,0,0,3.43,3.55,6.71,6.71,0,0,0,2.64.51"/><path class="cls-3" d="M117.8,76a7.66,7.66,0,0,1,2.39-6,9.57,9.57,0,0,1,6.62-2.14,10.81,10.81,0,0,1,4.34.74,2.41,2.41,0,0,1,1.67,2.26,2.69,2.69,0,0,1-.4,1.39,2.86,2.86,0,0,1-.66.85,11.59,11.59,0,0,0-1.78-.63,9,9,0,0,0-2.41-.3q-4.94,0-4.95,5.24V89.68H117.8Z"/><path class="cls-3" d="M153.66,89.6c-.28.06-.72.12-1.33.19s-1.32.14-2.14.21-1.73.13-2.75.19-2.07.08-3.17.08a21,21,0,0,1-5.39-.57,9.22,9.22,0,0,1-3.3-1.52,4.9,4.9,0,0,1-1.65-2.2,7.57,7.57,0,0,1-.44-2.56,8.1,8.1,0,0,1,.53-3,5,5,0,0,1,1.73-2.2,8.43,8.43,0,0,1,3.15-1.33,21.58,21.58,0,0,1,4.74-.44c1.07,0,2.09,0,3,.11s1.68.13,2.16.19a5.49,5.49,0,0,0-.48-2.45A3.81,3.81,0,0,0,147,72.73a5.44,5.44,0,0,0-2-.76,15,15,0,0,0-2.62-.21,11.23,11.23,0,0,0-3.87.55,7.82,7.82,0,0,0-1.92.93,5.13,5.13,0,0,1-.7-.8,2.33,2.33,0,0,1-.44-1.44,2.37,2.37,0,0,1,.32-1.16,2.76,2.76,0,0,1,1.12-1,7.35,7.35,0,0,1,2.16-.7,19.12,19.12,0,0,1,3.42-.25,19.78,19.78,0,0,1,4.55.49,10,10,0,0,1,3.53,1.54,7.11,7.11,0,0,1,2.3,2.79,9.66,9.66,0,0,1,.82,4.19Zm-4.78-9.39q-.42-.08-1.59-.25a26.5,26.5,0,0,0-3.49-.17,7.79,7.79,0,0,0-4.19.87,3,3,0,0,0-1.31,2.73,3.45,3.45,0,0,0,.28,1.4,2.46,2.46,0,0,0,1,1.08,5.21,5.21,0,0,0,1.84.68,15.17,15.17,0,0,0,2.9.23,25,25,0,0,0,3.09-.15c.76-.1,1.27-.18,1.52-.23Z"/><path class="cls-3" d="M160.38,58.94a2.89,2.89,0,1,1-2.07.85,2.81,2.81,0,0,1,2.07-.85M158,70.7a2,2,0,0,1,.68-1.71,3,3,0,0,1,1.9-.53,4.85,4.85,0,0,1,1.4.19l.85.28V89.68H158Z"/><path class="cls-3" d="M167.11,76.87a8.81,8.81,0,0,1,.78-3.78A8.24,8.24,0,0,1,170,70.25a9.58,9.58,0,0,1,3.26-1.77,13.24,13.24,0,0,1,4.12-.61,13.45,13.45,0,0,1,4.14.61,9.54,9.54,0,0,1,3.28,1.77A8,8,0,0,1,187,73.08a9,9,0,0,1,.76,3.78V89.68h-4.82V78.09a6.21,6.21,0,0,0-1.4-4.38,6.38,6.38,0,0,0-8.23,0,6.27,6.27,0,0,0-1.37,4.38V89.68h-4.82Z"/><path class="cls-3" d="M47.51,69.13a14.79,14.79,0,0,0-3.28-4.84,15.24,15.24,0,0,0-4.9-3.21,16.63,16.63,0,0,0-12.22,0,15.22,15.22,0,0,0-4.9,3.21,14.77,14.77,0,0,0-3.28,4.84,16,16,0,0,0,0,12.1,14.76,14.76,0,0,0,3.28,4.84,15.27,15.27,0,0,0,4.9,3.21,16.65,16.65,0,0,0,12.22,0,15.28,15.28,0,0,0,4.9-3.21,14.78,14.78,0,0,0,3.28-4.84,16,16,0,0,0,0-12.1M24,74.06c1.72-.57,4-1.29,4-1.29,5-1.6,5.71-3.49,5.71-3.49s1.06,1.89,4.71,3.14c0,0,2,.66,3.9,1.34.09.19.19.37.27.57a9.64,9.64,0,0,1,.67,2.46H40.68l0,0a3.51,3.51,0,0,0-.78-1.15,3.63,3.63,0,0,0-1.17-.77,4,4,0,0,0-2.91,0,3.63,3.63,0,0,0-1.17.77,3.51,3.51,0,0,0-.78,1.15,3.27,3.27,0,0,0-.15.43h-1a3.27,3.27,0,0,0-.15-.43,3.47,3.47,0,0,0-.78-1.15,3.63,3.63,0,0,0-1.17-.77,4,4,0,0,0-2.91,0,3.63,3.63,0,0,0-1.17.77,3.51,3.51,0,0,0-.78,1.15l0,0H23.18a9.64,9.64,0,0,1,.67-2.46c0-.09.09-.18.13-.26m15.46,4.12a2.16,2.16,0,0,1-.17.85,2.09,2.09,0,0,1-.46.68,2.17,2.17,0,0,1-.69.45,2.36,2.36,0,0,1-1.73,0,2.15,2.15,0,0,1-.69-.45,2.12,2.12,0,0,1-.46-.68,2.28,2.28,0,0,1,0-1.71,2.12,2.12,0,0,1,.46-.68,2.17,2.17,0,0,1,.69-.45,2.34,2.34,0,0,1,1.73,0,2.19,2.19,0,0,1,.69.45,2.09,2.09,0,0,1,.46.68,2.17,2.17,0,0,1,.17.85m-8.07,0a2.18,2.18,0,0,1-.17.85,2.12,2.12,0,0,1-.46.68,2.17,2.17,0,0,1-.69.45,2.36,2.36,0,0,1-1.73,0,2.15,2.15,0,0,1-.69-.45,2.09,2.09,0,0,1-.46-.68,2.26,2.26,0,0,1,0-1.71,2.09,2.09,0,0,1,.46-.68,2.17,2.17,0,0,1,.69-.45,2.34,2.34,0,0,1,1.73,0,2.19,2.19,0,0,1,.69.45,2.12,2.12,0,0,1,.46.68,2.19,2.19,0,0,1,.17.85m9.07,7.25a10,10,0,0,1-3.21,2.11,10.9,10.9,0,0,1-8,0A10,10,0,0,1,26,85.42a9.66,9.66,0,0,1-2.15-3.17,10,10,0,0,1-.77-3.82h2.43a3.54,3.54,0,0,0,.27,1.18,3.5,3.5,0,0,0,.78,1.15,3.6,3.6,0,0,0,1.17.76,3.92,3.92,0,0,0,2.91,0,3.6,3.6,0,0,0,1.17-.76,3.56,3.56,0,0,0,1-2.08h.78a3.56,3.56,0,0,0,1,2.08,3.6,3.6,0,0,0,1.17.76,3.92,3.92,0,0,0,2.91,0,3.6,3.6,0,0,0,1.17-.76,3.5,3.5,0,0,0,.78-1.15,3.6,3.6,0,0,0,.27-1.18h2.43a10,10,0,0,1-.77,3.82,9.64,9.64,0,0,1-2.15,3.17"/></g></g></svg>