<svg viewBox="0 0 204 135.3" xmlns="http://www.w3.org/2000/svg" xmlns:xlink="http://www.w3.org/1999/xlink"><defs><linearGradient id="linear-gradient" gradientUnits="userSpaceOnUse" x1="105.3" x2="105.3" y2="62.6"><stop offset="0" stop-color="#e33129"/><stop offset="1" stop-color="#be2428"/></linearGradient></defs><path id="lozenge" d="m149.11 13.5s-.87-6.13-3.55-8.83c-3.4-3.54-7.21-3.56-9-3.77-12.47-.9-31.24-.9-31.24-.9h0s-18.81 0-31.32.9c-1.75.21-5.56.23-9 3.77-2.68 2.7-3.55 8.83-3.55 8.83a134 134 0 0 0 -.89 14.4v6.75a134 134 0 0 0  .89 14.4s.92 6.15 3.55 8.85c3.4 3.55 7.87 3.43 9.86 3.8 7.15.68 30.4.89 30.4.89s18.79 0 31.3-.93c1.75-.21 5.56-.23 9-3.77 2.68-2.7 3.55-8.83 3.55-8.83a134.15 134.15 0 0 0  .89-14.4v-6.75a134.16 134.16 0 0 0 -.89-14.41z" fill="url(#linear-gradient)"/><path id="u" d="m56 50.66h-5.7v-3.3c-2.16 2.47-4 3.72-6 3.72a3.58 3.58 0 0 1 -3.57-2.31 12 12 0 0 1 -.63-4.4v-24h5.69v24.63c.13.84.49 1.15 1.21 1.15 1.09 0 2.07-.95 3.28-2.64v-23.09h5.72z" fill="#010101"/><path id="o" d="m35.93 30.3c0-3.23-.65-5.66-1.8-7.19a7.55 7.55 0 0 0 -6.29-2.91 7.17 7.17 0 0 0 -6.29 2.91c-1.17 1.53-1.79 4-1.79 7.21v10.75c0 3.21.56 5.43 1.72 6.95a7.93 7.93 0 0 0 6.36 3.15 8 8 0 0 0  6.41-3.17c1.15-1.51 1.68-3.73 1.68-6.95zm-5.69 11.37c.3 3-.63 4.48-2.4 4.48s-2.69-1.49-2.39-4.48v-12c-.3-3 .63-4.4 2.4-4.4s2.7 1.4 2.4 4.4z" fill="#010101"/><path id="y" d="m13.47 34.19v16.47h-6v-16.47s-6.19-20.19-7.47-23.95h6.29l4.2 15.76 4.18-15.77h6.33z" fill="#010101"/><path id="e" d="m142.52 36.58v-6.12c0-3.2-.63-5.54-1.76-7a7.59 7.59 0 0 0 -6.4-3.13 7.76 7.76 0 0 0 -6.49 3.13c-1.15 1.51-1.82 4-1.82 7.18v10.43c0 3.18.74 5.4 1.89 6.9a7.76 7.76 0 0 0 6.55 3.03 7.5 7.5 0 0 0  6.51-3.2 7.72 7.72 0 0 0  1.27-3.25 34.07 34.07 0 0 0  .19-3.53v-.85h-5.69c0 2.17 0 3.47 0 3.76a2.33 2.33 0 0 1 -2.42 2.17c-1.86 0-2.65-1.39-2.63-4.15v-5.37zm-10.79-7.8c0-2.8.77-3.56 2.58-3.56s2.51.83 2.51 3.6v3.27h-5.09z" fill="#fff"/><path id="b" d="m117.39 20.24c-2 0-4 1.23-5.73 3.38v-13.08h-5.39v40.12h5.39v-3c1.81 2.24 3.79 3.4 5.71 3.4a4.45 4.45 0 0 0 4.46-3.38 23 23 0 0 0  .6-6v-12a21 21 0 0 0 -.73-6c-.7-2.2-2.15-3.44-4.31-3.44zm-.63 21.76c0 3-.71 4.14-2.27 4.14a4.17 4.17 0 0 1 -2.83-1.37v-18.18a4.21 4.21 0 0 1 2.82-1.37c1.56 0 2.27.88 2.27 3.87z" fill="#fff"/><path id="u-2" d="m101.79 50.66h-5.69v-3.3c-2.16 2.47-4 3.72-6 3.72a3.58 3.58 0 0 1 -3.57-2.31 12 12 0 0 1 -.63-4.4v-23.65h5.69v24.28c.13.84.49 1.15 1.21 1.15 1.09 0 2.07-.95 3.28-2.64v-22.79h5.69z" fill="#fff"/><path id="T" d="m80.24 50.66h-5.99v-34.43h-6.29v-5.69h18.86v5.69h-6.58z" fill="#fff"/><path d="m164.13 83.9a4.9 4.9 0 1 0 -3 2.84l10.68 14.5q1.7-1.6 3.42-3.31t3.31-3.42zm-17.88 33.51a3.67 3.67 0 0 0 1 2.5c5.75 5.75 21.83 3.46 35.06-7.29a6 6 0 0 0 1.31 2 1.32 1.32 0 0 0 -.5.27l-10.39 8.76a3.47 3.47 0 0 0 -1 2.45 4 4 0 0 0  .76 2.68l.46.56a1.43 1.43 0 0 0 2.17.25l8.92-7.82.8 10.83c.11 1.55 1 2.72 2 2.72h2.14c1 0 1.84-1.17 2-2.72l.8-10.83 8.92 7.82a1.43 1.43 0 0 0 2.17-.25l.46-.56a4 4 0 0 0  .76-2.68 3.47 3.47 0 0 0 -1-2.45l-10.39-8.76a1.32 1.32 0 0 0 -.5-.27 6 6 0 0 0 -2-9.77c10.63-13.2 12.89-29.17 7.16-34.89a3.66 3.66 0 0 0 -2.5-1 8.62 8.62 0 0 0 -2.88.46 31.86 31.86 0 0 0 -7.17 3.6 110.13 110.13 0 0 0 -15.74 12.66l2.31 1.7a114.43 114.43 0 0 1 12.95-10.65c4.76-3.34 8.84-5.1 10.42-5 .44 0 .57.12.62.17s.15.18.17.62a6 6 0 0 1 -.34 1.92 29.31 29.31 0 0 1 -3.44 6.56 114.77 114.77 0 0 1 -15.21 18.28 122.38 122.38 0 0 1 -16.27 13.88c-4.76 3.34-8.84 5.1-10.41 5-.44 0-.57-.12-.62-.17s-.15-.18-.17-.62a5.94 5.94 0 0 1  .34-1.92 29.22 29.22 0 0 1  3.29-6.49 106.51 106.51 0 0 1  12-14.95l-1.71-2.39a118 118 0 0 0 -11.27 13.65c-3.45 5.05-5.53 9.05-5.48 12.14zm-.54-49.16a19.62 19.62 0 0 0 -3.1 23.75.2.2 0 0 0  .27.07l1-.57a.2.2 0 0 0  .07-.27 18.11 18.11 0 0 1  24.74-24.74.2.2 0 0 0  .27-.07l.57-1a .2.2 0 0 0 -.07-.27 19.62 19.62 0 0 0 -23.71 3.09zm13.86-1a14.87 14.87 0 0 0 -12.89 22.33.2.2 0 0 0  .27.07l1-.57a.2.2 0 0 0  .07-.27 13.37 13.37 0 0 1  18.26-18.26.2.2 0 0 0  .27-.07l.57-1a .2.2 0 0 0 -.07-.27 14.86 14.86 0 0 0 -7.48-1.99zm0 4.71a10.16 10.16 0 0 0 -8.84 15.2.2.2 0 0 0  .27.07l1-.57a.2.2 0 0 0  .07-.27 8.66 8.66 0 0 1  11.8-11.8.2.2 0 0 0  .27-.07l.57-1a .2.2 0 0 0 -.07-.27 10.16 10.16 0 0 0 -5.07-1.32z" fill="#02181e"/></svg>