<svg viewBox="0 0 229.69 308.27" xmlns="http://www.w3.org/2000/svg"><path d="m229.43 91.61c-1.8-20.68-7.67-44.87-29.32-61.58-20.6-15.9-79.55 8.39-85.26 10.81-5.72-2.42-64.67-26.71-85.27-10.84-21.65 16.74-27.52 40.94-29.32 61.61s5.41 55.87 33.38 84.9a403.79 403.79 0 0 1 55.63 72.86h51.15a403.82 403.82 0 0 1 55.58-72.86c28-29.03 35.23-64.22 33.43-84.9z" fill="#f2f2f2"/><path d="m172.56 13.75c-23-11-51.39 1.42-57.36 4.27-6-2.85-34.39-15.24-57.36-4.27-25.79 12.32-41.78 43.94-37.84 83.36 4.62 46.52 21.29 61.8 34.19 79.4 12.48 17 32.25 45.16 41.87 72.86h38.34c9.62-27.7 29.4-55.84 41.87-72.86 12.9-17.6 31.11-35.19 33.75-78.74 2.58-42.85-11.66-71.7-37.46-84.02z" fill="#fff"/><path d="m159.38 14.19c-12.38-15.43-39.12-10.57-44.38-9.44-5.25-1.13-32-6-44.36 9.45-13.71 17.15-26.36 58.86-21.83 91.05 4.4 31.23 23 63.78 32.11 81.38 8.94 17.19 18.54 47.8 21.54 62.74h25.11c3-14.94 12.16-45.55 21.1-62.74 9.15-17.6 27.37-51 32.11-83.14s-7.68-72.14-21.4-89.3z" fill="#f2f2f2"/><path d="m126.92 191.47c3.35-20.24 12.08-51 14.09-96.78s-7-76.1-12.75-86.22c-4.54-8.05-10.97-8.58-13.42-8.47-2.45-.12-8.88.41-13.42 8.46-5.7 10.12-14.76 40.47-12.75 86.22s10.73 76.54 14.09 96.78c3.28 19.78 7.83 42.9 8 57.9h8.09c.24-14.99 4.79-38.11 8.07-57.89z" fill="#fff"/><ellipse cx="114.84" cy="248.93" fill="#1e2d4d" rx="25.83" ry="2.52"/><path d="m96.94 277.09l-12.69-49.16.99-.31 11.12 43.08 1.77-24.78 1.03.09z" fill="#736357"/><path d="m106.39 277.09l-12.7-49.16 1-.31 11.12 43.08 1.77-24.78 1.03.09z" fill="#736357"/><path d="m123.32 277.09l-2.23-31.08 1.03-.09 1.77 24.78 11.12-43.08 1 .31z" fill="#736357"/><path d="m132.76 277.09l-2.22-31.08 1.03-.09 1.77 24.78 11.12-43.08.99.31z" fill="#736357"/><path d="m115.32 275.93h-18.88s.79 24.57 2.63 27.83 3.68 4.51 5.26 4.51h21c1.58 0 3.42-1.25 5.26-4.51s2.63-27.83 2.63-27.83z" fill="#b27c4f"/><path d="m93.45 273.1h42.8v5.66h-42.8z" fill="#534741"/><path d="m156.84 224.08q-4.86-1-10.26-1.83c-3.63-.53-7.44-1-11.37-1.32q-6.36-.56-13.14-.77-3.57-.11-7.23-.11t-7.23.11q-6.7.2-13 .76c-3.74.33-7.36.74-10.83 1.23-3.83.55-7.49 1.19-10.93 1.92 6.52 9.27 11.91 17.74 16.22 25 0 0 0-.06 0-.1 0-.63 2.37-1.2 6.25-1.64 1.88-.21 4.12-.39 6.63-.54 2.67-.15 5.64-.26 8.81-.31 1.35 0 2.72 0 4.13 0s2.78 0 4.13 0c3.3.05 6.38.16 9.14.33s5.06.36 7 .6c3.47.43 5.56 1 5.56 1.56 0 0 0 .06 0 .1 4.21-7.25 9.6-15.72 16.12-24.99z" fill="#dd4315"/><path d="m80.35 235q1.44 2.19 2.78 4.3c9.5-2.23 36.32-7.16 63.48.26q1.32-2.07 2.73-4.23c-30.78-8.94-60.69-2.51-68.99-.33z" fill="#f2f2f2"/><path d="m36.84 42.76h69.91l-6.06 68.76-28.89 8.09-28.6-7.51z" fill="#1e1f2a"/><path d="m70.83 48.15h28.51l-5.01 57.78-23.5 6.55z" fill="#2aa4cc"/><path d="m68.02 61.33v33.5l-20.74-2.64v-7.94h6.91v3.53h6.91v-26.45z" fill="#ebebea"/><path d="m74 61.33v13.4 6.7h13.13v6.7h-13.13v6.7l19.35-1.76.35-18.34h-13.13v-6.7h13.13l-.35-4.94z" fill="#ebebea"/><path d="m79.79 104.75l69.91-.02-6.04 68.76-28.89 8.1-28.6-7.5z" fill="#dd4315"/><path d="m113.78 110.13l28.51-.01-4.99 57.78-23.49 6.56z" fill="#e85b1b"/><path d="m91.64 117.86l43.51-.02-1.01 9.16-32.68.01.65 8.48 31.9-.02-2.3 26.2-17.91 5.08-18.1-4.94-1.29-13.48 8.92-.01.65 6.87 9.82 2.63 9.69-2.63.89-11.05-30.23-.11z" fill="#f8f9fa"/><path d="m122.77 42.67h70.07l-6.08 68.92-28.95 8.11-28.67-7.53z" fill="#116cb3"/><path d="m156.84 48.07h28.57l-5.02 57.92-23.55 6.57z" fill="#2c8dcc"/><path d="m135.26 54.65h43.15l-.77 8.49h-41.51z" fill="#f8f9fa"/><path d="m138.06 84.77l1.26 13.41 17.52 4.9 17.81-4.9 2.12-26.16h-18.92l19.79-8.88h-19.98l-20.76 8.69.87 8.59h29.64l-1.16 11.2-9.41 2.8-9.41-2.9-.78-6.56z" fill="#f8f9fa"/><path d="m136.9 71.83l20.95.19 19.79-8.88h-19.98z" fill="#ebe9ea"/></svg>