<svg viewBox="0 0 403.77 286.75" xmlns="http://www.w3.org/2000/svg"><path d="m170.25 69.74c-1.34-15.34-5.69-33.29-21.76-45.7-15.28-11.8-59 6.23-63.27 8-4.22-1.77-47.99-19.8-63.22-8.04-16.12 12.44-20.47 30.39-21.81 45.74s4 41.45 24.77 63a299.63 299.63 0 0 1 41.28 54.06h38a299.65 299.65 0 0 1 41.28-54.06c20.71-21.55 26.07-47.66 24.73-63z" fill="#3c5a99"/><path d="m128.05 12c-17.05-8.18-38.13 1-42.56 3.13-4.43-2.13-25.49-11.31-42.56-3.13-19.14 9.14-31 32.6-28.11 61.86 3.43 34.52 15.8 45.86 25.37 58.92 9.26 12.63 23.93 33.51 31.07 54.06h28.45c7.14-20.56 21.81-41.43 31.07-54.06 9.57-13.06 23.09-26.11 25-58.43 1.98-31.84-8.59-53.25-27.73-62.35z" fill="#324b80"/><path d="m118.27 12.29c-9.16-11.45-29-7.85-32.92-7-3.89-.84-23.76-4.44-32.92 7-10.18 12.71-19.57 43.71-16.21 67.56 3.26 23.18 17 47.33 23.83 60.39 6.63 12.76 13.76 35.47 15.95 46.56h18.66c2.21-11.09 9-33.8 15.66-46.56 6.79-13.06 20.31-37.86 23.83-61.69s-5.7-53.55-15.88-66.26z" fill="#3c5a99"/><path d="m94.18 143.83c2.49-15 9-37.86 10.45-71.81s-5.22-56.47-9.45-64.02c-3.37-6-8.14-6.37-10-6.28-1.82-.09-6.59.3-10 6.28-4.23 7.51-11 30-9.46 64s8 56.8 10.45 71.81c2.43 14.68 5.81 31.83 6 43h6c .2-11.14 3.58-28.3 6.01-42.98z" fill="#324b80"/><ellipse cx="85.22" cy="186.48" fill="#154a99" rx="19.16" ry="1.87"/><path d="m71.93 207.37l-9.41-36.48.73-.23 8.26 31.97 1.31-18.39.76.07z" fill="#736357"/><path d="m78.94 207.37l-9.41-36.48.73-.23 8.25 31.97 1.32-18.39.76.07z" fill="#736357"/><path d="m91.51 207.37l-1.65-23.06.76-.07 1.31 18.39 8.26-31.97.73.23z" fill="#736357"/><path d="m98.52 207.37l-1.65-23.06.76-.07 1.31 18.39 8.26-31.97.73.23z" fill="#736357"/><path d="m85.58 206.51h-14s .59 18.23 2 20.65 2.73 3.34 3.9 3.34h15.52c1.17 0 2.54-.93 3.9-3.34s2-20.65 2-20.65z" fill="#b27c4f"/><path d="m69.34 204.41h31.76v4.2h-31.76z" fill="#534741"/><path d="m116.38 168q-3.61-.77-7.61-1.36c-2.7-.39-5.52-.72-8.44-1q-4.72-.42-9.75-.57-2.65-.08-5.37-.08t-5.37.08q-5 .15-9.65.56c-2.77.24-5.46.55-8 .92-2.84.41-5.56.88-8.11 1.43 4.84 6.88 8.84 13.17 12 18.52 0 0 0 0 0-.07 0-.47 1.76-.89 4.64-1.22 1.4-.16 3.06-.29 4.92-.4s4.19-.19 6.53-.23h3.07 3.07c2.45 0 4.74.12 6.78.24s3.75.27 5.19.45c2.58.32 4.13.72 4.13 1.16 0 0 0 0 0 .07 3.14-5.3 7.13-11.59 11.97-18.5z" fill="#fff"/><path d="m59.62 176.11q1.07 1.63 2.06 3.19c7-1.65 26.95-5.31 47.11.19q1-1.54 2-3.14c-22.79-6.6-45.01-1.83-51.17-.24z" fill="#154a99"/><path d="m104.62 83.31h-12.69v45.25h-18.81v-45.25h-8.94v-16h8.94v-10.31c0-7.41 3.52-19 19-19l13.92.06v15.51h-10.12c-1.65 0-4 .83-4 4.35v9.41h14.33z" fill="#fff"/><path d="m403.52 85.22c-1.68-19.23-7.13-41.74-27.28-57.29-19.16-14.79-74 7.81-79.31 10.05-5.31-2.24-60.15-24.84-79.31-10.05-20.13 15.55-25.62 38.07-27.27 57.29s5 52 31.05 79a375.61 375.61 0 0 1 51.75 67.78h47.58a375.63 375.63 0 0 1 51.75-67.77c26.01-27.05 32.72-59.78 31.04-79.01z" fill="#fff"/><path d="m350.63 12.79c-21.36-10.2-47.8 1.32-53.35 4-5.55-2.65-32-14.17-53.35-4-24 11.46-38.88 40.87-35.24 77.54 4.3 43.27 19.81 57.49 31.81 73.86 11.61 15.83 30 42 39 67.77h35.6c8.95-25.77 27.34-51.94 39-67.77 12-16.37 28.94-32.73 31.4-73.24 2.37-39.86-10.87-66.7-34.87-78.16z" fill="#f2f2f2"/><path d="m338.37 13.2c-11.49-14.36-36.37-9.84-41.27-8.79-4.88-1.05-29.78-5.57-41.27 8.79-12.76 16-24.53 54.76-20.31 84.7 4.09 29.05 21.36 59.33 29.87 75.7 8.31 16 17.24 44.46 20 58.36h23.36c2.77-13.9 11.31-42.37 19.62-58.36 8.51-16.37 25.46-47.46 29.87-77.34s-7.11-67.1-19.87-83.06z" fill="#fff"/><path d="m308.17 178.1c3.12-18.82 11.23-47.46 13.1-90s-6.55-70.79-11.86-80.2c-4.21-7.51-10.2-8-12.47-7.9-2.28-.11-8.26.38-12.48 7.87-5.3 9.41-13.73 37.64-11.86 80.2s10 71.2 13.1 90c3.05 18.43 7.3 39.93 7.48 53.93h7.52c.19-14 4.42-35.5 7.47-53.9z" fill="#f2f2f2"/><ellipse cx="296.94" cy="231.56" fill="#a54735" rx="24.02" ry="2.34"/><path d="m280.28 257.75l-11.8-45.73.92-.29 10.35 40.08 1.64-23.06.96.08z" fill="#736357"/><path d="m289.07 257.75l-11.81-45.73.93-.29 10.34 40.08 1.65-23.06.95.08z" fill="#736357"/><path d="m304.82 257.75l-2.07-28.92.96-.08 1.64 23.06 10.35-40.08.92.29z" fill="#736357"/><path d="m313.6 257.75l-2.06-28.92.95-.08 1.65 23.06 10.35-40.08.92.29z" fill="#736357"/><path d="m297.38 256.67h-17.56s.73 22.86 2.45 25.88 3.42 4.19 4.89 4.19h19.56c1.47 0 3.18-1.16 4.89-4.19s2.45-25.88 2.45-25.88z" fill="#b27c4f"/><path d="m277.03 254.04h39.81v5.26h-39.81z" fill="#534741"/><path d="m336 208.44q-4.52-1-9.54-1.7c-3.38-.49-6.92-.9-10.58-1.22q-5.91-.52-12.22-.72-3.32-.1-6.73-.1t-6.73.1q-6.23.19-12.1.71c-3.48.3-6.84.69-10.08 1.15-3.56.51-7 1.11-10.17 1.79 6.07 8.63 11.08 16.5 15.09 23.21 0 0 0-.06 0-.09 0-.58 2.2-1.12 5.82-1.53 1.75-.2 3.83-.37 6.17-.5s5.25-.24 8.19-.28c1.25 0 2.53 0 3.84 0s2.59 0 3.84 0c3.07 0 5.94.15 8.5.3s4.7.34 6.5.56c3.23.4 5.17.9 5.17 1.45 0 0 0 .06 0 .09 3.96-6.72 8.97-14.6 15.03-23.22z" fill="#fff"/><path d="m264.85 218.56q1.34 2 2.59 4c8.84-2.07 33.78-6.66 59 .24q1.23-1.93 2.54-3.94c-28.59-8.28-56.41-2.29-64.13-.3z" fill="#f18421"/><path d="m283.6 95a15.27 15.27 0 1 1 -15.27-15.23 15 15 0 0 1  15.27 15.23zm-6.69 0c0-5.48-4-9.23-8.59-9.23s-8.59 3.75-8.59 9.23 4 9.23 8.59 9.23 8.59-3.8 8.59-9.23z" fill="#ea4335"/><path d="m316.55 95a15.27 15.27 0 1 1 -15.27-15.23 15 15 0 0 1  15.27 15.23zm-6.69 0c0-5.48-4-9.23-8.59-9.23s-8.59 3.75-8.59 9.23 4 9.23 8.59 9.23 8.59-3.8 8.59-9.23z" fill="#fbbc05"/><path d="m348.13 80.71v27.29c0 11.24-6.63 15.84-14.47 15.84a14.5 14.5 0 0 1 -13.5-9l5.82-2.42a8.41 8.41 0 0 0 7.67 5.4c5 0 8.13-3.1 8.13-8.92v-2.19h-.23a10.37 10.37 0 0 1 -8 3.46c-7.61 0-14.59-6.63-14.59-15.16s7-15.28 14.59-15.28a10.55 10.55 0 0 1 8 3.4h.23v-2.41h6.35zm-5.88 14.36c0-5.36-3.58-9.28-8.13-9.28s-8.48 3.92-8.48 9.28 3.86 9.17 8.48 9.17 8.13-3.86 8.13-9.17z" fill="#4285f4"/><path d="m358.6 64.69v44.62h-6.52v-44.62z" fill="#34a853"/><path d="m384 100l5.19 3.46a15.16 15.16 0 0 1 -12.69 6.75 14.9 14.9 0 0 1 -15.1-15.21c0-9.05 6.51-15.23 14.36-15.23s11.77 6.29 13 9.69l.69 1.73-20.35 8.43a7.75 7.75 0 0 0 7.38 4.61 8.69 8.69 0 0 0  7.52-4.23zm-16-5.48l13.61-5.65c-.75-1.9-3-3.23-5.65-3.23a8.35 8.35 0 0 0 -7.96 8.91z" fill="#ea4335"/><path d="m228.37 91.05v-6.46h21.77a21.4 21.4 0 0 1  .32 3.9c0 4.85-1.32 10.84-5.59 15.11s-9.46 6.63-16.49 6.63c-13 0-24-10.61-24-23.64s11-23.64 24-23.64a22.53 22.53 0 0 1 16.2 6.51l-4.58 4.54a16.47 16.47 0 0 0 -11.65-4.61 17.18 17.18 0 0 0  0 34.36 15.82 15.82 0 0 0  11.95-4.75 13.39 13.39 0 0 0  3.5-8z" fill="#4285f4"/></svg>