<svg viewBox="0 0 187.78 252.03" xmlns="http://www.w3.org/2000/svg"><path d="m187.57 74.9c-1.48-16.9-6.27-36.68-24-50.35-16.84-13-65 6.86-69.71 8.83-4.67-2-52.87-21.83-69.71-8.83-17.67 13.66-22.46 33.45-23.94 50.35s4.43 45.67 27.29 69.41a330.12 330.12 0 0 1 45.5 59.56h41.8a330.14 330.14 0 0 1 45.48-59.56c22.87-23.74 28.72-52.51 27.29-69.41z" fill="#3476b2"/><path d="m141.08 11.24c-18.78-9-42 1.16-46.89 3.49-4.88-2.33-28.12-12.45-46.89-3.49-21.09 10.07-34.17 35.92-31 68.15 3.78 38 17.41 50.53 28 64.91 10.2 13.92 26.37 36.92 34.23 59.56h31.34c7.87-22.65 24-45.65 34.23-59.56 10.55-14.38 25.44-28.77 27.6-64.37 2.11-35.03-9.53-58.62-30.62-68.69z" fill="#fff"/><path d="m130.3 11.6c-10.09-12.6-31.98-8.6-36.3-7.72-4.26-.88-26.15-4.88-36.24 7.72-11.22 14.03-21.56 48.13-17.85 74.4 3.6 25.53 18.77 52.15 26.25 66.53 7.31 14.05 15.16 39.08 17.61 51.29h20.53c2.44-12.21 9.94-37.24 17.25-51.29 7.48-14.39 22.37-41.72 26.25-68s-6.28-58.9-17.5-72.93z" fill="#f2f2f2"/><path d="m103.76 156.53c2.74-16.54 9.87-41.72 11.52-79.12s-5.76-62.21-10.42-70.48c-3.71-6.58-9-7-11-6.92-2-.1-7.26.33-11 6.92-4.6 8.27-12 33.07-10.36 70.48s8.78 62.59 11.5 79.12c2.68 16.17 6.4 35.07 6.57 47.34h6.63c.16-12.26 3.88-31.16 6.56-47.34z" fill="#fff"/><ellipse cx="93.89" cy="203.52" fill="#1e2d4d" rx="21.11" ry="2.06"/><path d="m79.25 226.53l-10.37-40.18.81-.26 9.09 35.22 1.45-20.26.84.07z" fill="#736357"/><path d="m86.98 226.53l-10.38-40.18.81-.26 9.09 35.22 1.45-20.26.84.07z" fill="#736357"/><path d="m100.82 226.53l-1.82-25.41.84-.07 1.45 20.26 9.09-35.22.81.26z" fill="#736357"/><path d="m108.54 226.53l-1.82-25.41.84-.07 1.45 20.26 9.09-35.22.82.26z" fill="#736357"/><path d="m94.28 225.59h-15.43s.64 20.09 2.15 22.75 3 3.66 4.3 3.66h17.19c1.29 0 2.79-1 4.3-3.68s2.15-22.75 2.15-22.75z" fill="#b27c4f"/><path d="m76.4 223.28h34.99v4.63h-34.99z" fill="#534741"/><path d="m128.23 183.2q-4-.84-8.38-1.49c-3-.43-6.08-.79-9.3-1.08q-5.2-.46-10.74-.63-2.92-.09-5.91-.09t-5.9.09q-5.48.16-10.63.62c-3.06.27-6 .6-8.86 1-3.13.45-6.12 1-8.94 1.57 5.33 7.58 9.73 14.51 13.26 20.4 0 0 0-.05 0-.08 0-.51 1.93-1 5.11-1.34 1.54-.17 3.37-.32 5.42-.44s4.61-.21 7.2-.25h3.38 3.38c2.7 0 5.22.13 7.47.27s4.14.29 5.72.49c2.84.35 4.55.79 4.55 1.27 0 0 0 .05 0 .08 3.43-5.89 7.83-12.81 13.17-20.39z" fill="#3c5a99"/><path d="m65.69 192.09q1.18 1.79 2.27 3.51c7.77-1.82 29.69-5.85 51.9.21q1.08-1.69 2.24-3.46c-25.17-7.27-49.63-2.01-56.41-.26z" fill="#f2f2f2"/><path d="m93.89 24.86a47.64 47.64 0 1 0 47.64 47.64 47.7 47.7 0 0 0 -47.64-47.64zm0 2.17a45.46 45.46 0 1 1 -45.44 45.47 45.51 45.51 0 0 1  45.44-45.5zm0 4.62a40.83 40.83 0 0 0 -34.15 18.35c1 0 1.88.06 2.65.06 4.27 0 10.87-.53 10.87-.53a1.69 1.69 0 0 1  .26 3.36s-2.21.29-4.67.42l14.89 44.29 8.93-26.83-6.37-17.41c-2.21-.13-4.29-.42-4.29-.42-2.2-.13-1.94-3.49.27-3.36 0 0 6.73.53 10.75.53 4.27 0 10.9-.53 10.9-.53a1.69 1.69 0 0 1  .26 3.36s-2.21.29-4.67.42l14.77 43.92 4.08-13.64c1.76-5.66 3.12-9.7 3.12-13.2a21.54 21.54 0 0 0 -3.36-11.28c-2.07-3.37-4-6.22-4-9.59a7.05 7.05 0 0 1 6.87-7.23h.53a40.7 40.7 0 0 0 -27.6-10.72zm35.85 21.23a32.4 32.4 0 0 1  .29 4.23 38.59 38.59 0 0 1 -3.12 14.62l-12.48 36.08a40.9 40.9 0 0 0 15.31-54.94zm-73.2 3a41 41 0 0 0 19.5 53.42zm38.07 20.2l-12.27 35.64a41.43 41.43 0 0 0 25.13-.66 3.75 3.75 0 0 1 -.29-.57zm0 0" fill="#3476b2"/></svg>